<?xml version="1.0" encoding="utf-8"?>
<!-- Generator: Adobe Illustrator 27.5.0, SVG Export Plug-In . SVG Version: 6.00 Build 0)  -->
<svg version="1.1" xmlns="http://www.w3.org/2000/svg" xmlns:xlink="http://www.w3.org/1999/xlink" x="0px" y="0px"
	 viewBox="0 0 3710 3710" style="enable-background:new 0 0 3710 3710;" xml:space="preserve">
<g id="Background">
	<g>
		<g>
			<rect style="fill:#FFFFFF;" width="3710" height="3710"/>
		</g>
	</g>
</g>
<g id="Illustration">
	<g>
		<linearGradient id="SVGID_1_" gradientUnits="userSpaceOnUse" x1="3613.8584" y1="4066.2119" x2="1136.1823" y2="989.0936">
			<stop  offset="0" style="stop-color:#DAE3FE"/>
			<stop  offset="1" style="stop-color:#E9EFFD"/>
		</linearGradient>
		<path style="fill:url(#SVGID_1_);" d="M2935.028,2850.773c-57.064,59.808-111.058,98.378-153.718,128.851
			c-501.454,358.201-1094.806,253.787-1220.911,228.288c-186.216-37.654-546.168-110.438-806.407-415.115
			c-393.72-460.951-332.412-1187.166-27.016-1666.551c55.862-87.688,350.939-574.374,950.682-652.424
			c362.958-47.234,786.051,48.032,1092.443,303.588C3413.247,1313.847,3367.462,2397.542,2935.028,2850.773z"/>
		<g>
			<path style="fill:#91B3FA;" d="M2845.323,466.582c62.782,191.747,381.836,1323.376-642.298,1833.788
				c0,0-404.716-687.261,612.913-1839.374C2824.839,450.918,2841.221,454.055,2845.323,466.582z"/>
			<path style="opacity:0.58;fill:#FFFFFF;" d="M2779.186,661.124c-8.41,69.874-19.404,139.284-31.373,208.563
				c-12.151,69.234-25.68,138.23-40.562,206.936c-14.845,68.713-31.152,137.119-49.016,205.126
				c-17.913,67.987-36.944,135.704-58.102,202.781c-21.238,67.044-43.751,133.712-68.657,199.522
				c-6.069,16.511-12.774,32.781-19.13,49.184l-9.657,24.555l-10.211,24.338c-6.894,16.188-13.454,32.521-20.627,48.587
				l-21.673,48.148c-3.519,8.064-7.408,15.964-11.24,23.886l-11.491,23.777l-11.491,23.774l-12.164,23.444l-12.197,23.431
				c-4.11,7.784-7.995,15.69-12.431,23.305l-25.911,46.057c-35.612,60.81-74.221,119.925-116.729,176.296
				c-2.246,2.978-6.481,3.572-9.459,1.326c-2.979-2.246-3.572-6.481-1.326-9.459l0.02-0.026l0.049-0.066
				c42.363-55.645,80.956-114.13,116.617-174.382l25.964-45.661c4.443-7.547,8.344-15.393,12.467-23.118l12.24-23.246l12.207-23.266
				l11.544-23.606l11.547-23.609c3.853-7.87,7.758-15.71,11.3-23.728l21.798-47.841c7.22-15.97,13.83-32.211,20.772-48.303
				l10.284-24.199l9.74-24.43c6.409-16.317,13.167-32.498,19.292-48.93c25.129-65.487,47.891-131.871,69.385-198.658
				c21.416-66.819,40.72-134.309,58.914-202.088c18.144-67.799,34.741-136.017,49.88-204.562
				c15.179-68.535,29.008-137.376,41.459-206.465c12.273-69.1,23.583-138.458,32.283-208.04l0.007-0.049
				c0.198-1.568,1.626-2.68,3.196-2.484C2778.27,658.139,2779.384,659.556,2779.186,661.124z"/>
		</g>
		<g>
			<path style="fill:#BDD0FB;" d="M2243.511,2812.45c0,0-72.761-265.476,121.988-490.672
				c180.692-208.943,635.501-686.35,685.218-983.468c2.201-13.162,24.978-5.472,29.707,10.064
				c50.736,166.65,144.433,578.935-27.305,945.841C2831.654,2767.362,2243.511,2812.45,2243.511,2812.45z"/>
			<path style="opacity:0.45;fill:#FFFFFF;" d="M3039.179,1619.946c5.017,29.246,6.385,59.032,6.036,88.71
				c-0.327,29.698-2.537,59.408-6.752,88.855c-8.503,58.867-23.685,116.881-45.556,172.344
				c-10.92,27.728-23.309,54.916-37.429,81.183l-5.198,9.905c-1.788,3.269-3.691,6.478-5.531,9.72l-11.162,19.387l-11.91,18.935
				c-2.012,3.137-3.922,6.346-6.019,9.426l-6.32,9.229c-4.235,6.135-8.381,12.335-12.695,18.417l-13.348,17.946l-6.686,8.968
				l-7.019,8.704l-14.037,17.411c-9.707,11.293-19.509,22.59-29.496,33.58c-10.083,10.878-20.057,21.861-30.281,32.61
				c-81.084,86.662-167.337,168.35-255.437,247.535c-43.88,39.777-88.011,79.244-129.833,120.911
				c-20.828,20.895-40.961,42.498-59.095,65.685c-8.974,11.656-17.428,23.701-25.126,36.225
				c-7.566,12.59-14.334,25.664-19.931,39.269l-0.01,0.027c-0.356,0.864-1.346,1.276-2.21,0.92c-0.844-0.35-1.257-1.306-0.94-2.157
				c5.221-13.975,11.653-27.475,18.919-40.513c7.415-12.952,15.762-25.334,24.549-37.369c17.794-23.916,37.597-46.199,58.063-67.733
				c20.472-21.548,41.941-42.05,63.416-62.486c21.528-20.386,43.243-40.536,64.92-60.708c21.676-20.169,43.303-40.371,64.778-60.718
				c21.571-20.248,42.934-40.701,64.115-61.331c42.32-41.304,83.888-83.357,124.331-126.472
				c10.182-10.713,20.11-21.663,30.149-32.508c5.086-5.386,9.763-11.013,14.664-16.511c4.819-5.548,9.782-10.98,14.525-16.594
				l13.932-17.092l6.969-8.546l6.636-8.803l13.256-17.623c4.281-5.97,8.397-12.062,12.606-18.088l6.283-9.06
				c2.084-3.024,3.978-6.174,5.98-9.258l11.867-18.582l11.227-18.975c1.85-3.173,3.767-6.313,5.567-9.516l5.241-9.7
				c14.272-25.713,26.693-52.419,37.953-79.584c22.758-54.256,39.012-111.283,48.692-169.432
				c4.829-29.077,8.262-58.439,9.509-87.945c0.712-14.75,0.891-29.529,0.485-44.302c-0.363-14.766-1.108-29.562-3.061-44.223
				c-0.023-0.115,0.053-0.224,0.168-0.244C3039.043,1619.758,3039.152,1619.837,3039.179,1619.946z"/>
		</g>
		<g style="opacity:0.94;">
			<path style="fill:#BDD0FB;" d="M453.265,1031.599c-3.896,170.456,4.676,1158.329,724.921,1193.111
				c0,0,124.172-674.145-707.907-1207.767C463,1012.274,453.519,1020.463,453.265,1031.599z"/>
			<path style="opacity:0.86;fill:#FFFFFF;" d="M533.385,1156.876c13.407,47.208,28.444,94.053,44.128,140.612
				c15.723,46.562,32.336,92.82,49.847,138.732c35.044,91.804,73.429,182.361,116.508,270.616
				c21.363,44.213,44.312,87.635,68.393,130.377c23.972,42.812,49.817,84.544,77.295,125.11l10.357,15.175l5.182,7.589l5.409,7.421
				l21.689,29.638c15.126,19.232,30.041,38.649,46.268,56.938c32.016,36.904,66.47,71.737,104.324,102.388l0.05,0.036
				c2.899,2.348,3.344,6.603,0.996,9.502c-2.345,2.899-6.6,3.348-9.499,1l-0.033-0.03c-38.451-31.551-73.179-67.153-105.343-104.727
				c-16.307-18.629-31.245-38.332-46.39-57.861l-21.686-30.044l-5.406-7.52l-5.168-7.682l-10.337-15.363
				c-27.415-41.054-53.135-83.205-76.942-126.386c-23.916-43.115-46.671-86.866-67.812-131.373
				c-42.643-88.852-80.521-179.877-115.03-272.097c-17.24-46.12-33.576-92.572-49.022-139.315
				c-15.41-46.769-30.14-93.717-43.296-141.232c-0.422-1.524,0.472-3.1,1.995-3.523c1.517-0.419,3.084,0.465,3.516,1.976
				L533.385,1156.876z"/>
		</g>
		<g>
			<path style="fill:#91B3FA;" d="M846.64,467.978c-47.261,174.94-280.716,1204.22,645.794,1596.783
				c0,0,328.126-638.049-620.075-1603.57C864.065,452.745,849.728,456.549,846.64,467.978z"/>
			<path style="opacity:0.42;fill:#FFFFFF;" d="M918.731,636.812c5.515,60.551,13.572,120.994,22.814,181.161
				c9.291,60.177,20.037,120.129,32.267,179.772c24.5,119.259,54.649,237.412,92.427,353.092
				c37.884,115.571,83.275,228.909,140.47,336.113c14.206,26.838,29.43,53.115,45.302,78.967
				c15.838,25.878,32.666,51.133,50.424,75.695c35.318,49.26,74.877,95.429,118.579,137.208l0.043,0.04
				c2.698,2.579,2.794,6.854,0.218,9.552c-2.579,2.695-6.854,2.79-9.552,0.214l-0.026-0.026
				c-44.193-42.693-84.013-89.703-119.45-139.682c-17.817-24.922-34.668-50.516-50.51-76.704
				c-15.875-26.165-31.076-52.736-45.242-79.841c-57.027-108.279-101.995-222.385-139.404-338.573
				c-37.29-116.287-66.879-234.896-90.798-354.534c-11.933-59.834-22.382-119.955-31.37-180.29
				c-8.935-60.353-16.676-120.844-21.897-181.716c-0.135-1.573,1.032-2.96,2.606-3.096c1.57-0.133,2.952,1.024,3.094,2.591
				L918.731,636.812z"/>
		</g>
		<g>
			
				<linearGradient id="SVGID_00000109002204600855806820000017790810458996012974_" gradientUnits="userSpaceOnUse" x1="3092.561" y1="-1417.1012" x2="1493.3654" y2="2256.7283">
				<stop  offset="0" style="stop-color:#4F52FF"/>
				<stop  offset="1" style="stop-color:#4042E2"/>
			</linearGradient>
			<path style="fill:url(#SVGID_00000109002204600855806820000017790810458996012974_);" d="M2911.668,1193.779
				c-4.867-75.234-50.302-141.88-118.402-174.225l-882.327-419.049c-56.505-26.836-122.084-26.836-178.588,0l-882.327,419.049
				c-68.102,32.345-113.536,98.991-118.403,174.225c-82.762,1279.299,737.509,1745.424,1006.402,1863.17
				c53.327,23.352,113.916,23.352,167.243,0C2174.159,2939.203,2994.431,2473.078,2911.668,1193.779z"/>
			
				<linearGradient id="SVGID_00000025427089257030550330000009128583127996535959_" gradientUnits="userSpaceOnUse" x1="1533.5865" y1="715.0177" x2="1784.3795" y2="715.0177">
				<stop  offset="0" style="stop-color:#DAE3FE"/>
				<stop  offset="1" style="stop-color:#E9EFFD"/>
			</linearGradient>
			<path style="fill:url(#SVGID_00000025427089257030550330000009128583127996535959_);" d="M1554.76,785.681
				c-7.915,0-15.504-4.458-19.123-12.08c-5.011-10.555-0.521-23.172,10.031-28.183l208.479-99.013
				c10.568-5.011,23.176-0.521,28.183,10.031c5.011,10.555,0.521,23.172-10.031,28.183l-208.479,99.013
				C1560.887,785.024,1557.801,785.681,1554.76,785.681z"/>
			
				<linearGradient id="SVGID_00000037689663183542330670000018320023731867638409_" gradientUnits="userSpaceOnUse" x1="776.5787" y1="1128.8395" x2="1495.6063" y2="1128.8395">
				<stop  offset="0" style="stop-color:#DAE3FE"/>
				<stop  offset="1" style="stop-color:#E9EFFD"/>
			</linearGradient>
			<path style="fill:url(#SVGID_00000037689663183542330670000018320023731867638409_);" d="M799.087,1476.179
				c-11.353,0-20.743-9.006-21.127-20.441c-2.805-83.476-1.334-170.508,4.371-258.681c3.669-56.697,37.958-107.123,89.491-131.6
				l593.551-281.903c10.555-5.02,23.168-0.521,28.183,10.031c5.011,10.555,0.521,23.172-10.031,28.183L889.975,1103.67
				c-37.681,17.896-62.753,54.726-65.43,96.121c-5.614,86.793-7.064,172.429-4.305,254.525c0.392,11.675-8.754,21.458-20.429,21.85
				C799.567,1476.175,799.327,1476.179,799.087,1476.179z"/>
			<path style="fill:#7D97F4;" d="M2698.305,1243.71c-0.975-19.072-12.329-36.097-29.58-44.29L1843.9,807.679
				c-14.083-6.688-30.427-6.688-44.511,0L974.567,1199.42c-17.252,8.193-28.605,25.218-29.58,44.29
				c-24.392,477.219,85.835,875.394,327.855,1184.005c184.517,235.288,400.365,361.378,526.85,420.203
				c13.935,6.481,29.971,6.482,43.906,0c126.483-58.824,342.334-184.916,526.849-420.203
				C2612.467,2119.104,2722.696,1720.925,2698.305,1243.71z"/>
		</g>
		<g>
			<g>
				<g>
					
						<linearGradient id="SVGID_00000005969901424848442870000007792141295908671672_" gradientUnits="userSpaceOnUse" x1="1950.2578" y1="1586.3407" x2="2142.4741" y2="1363.2325" gradientTransform="matrix(0.9975 0.0701 -0.0701 0.9975 -305.5373 123.0964)">
						<stop  offset="0" style="stop-color:#FF928E"/>
						<stop  offset="1" style="stop-color:#FE7062"/>
					</linearGradient>
					
						<circle style="fill:url(#SVGID_00000005969901424848442870000007792141295908671672_);" cx="1740.207" cy="1628.885" r="143.299"/>
					
						<linearGradient id="SVGID_00000083794489398337909760000013557490861786181291_" gradientUnits="userSpaceOnUse" x1="2251.0891" y1="1200.5057" x2="1682.7002" y2="2059.1792" gradientTransform="matrix(0.9975 0.0701 -0.0701 0.9975 -305.5373 123.0964)">
						<stop  offset="0" style="stop-color:#FF928E"/>
						<stop  offset="1" style="stop-color:#FE7062"/>
					</linearGradient>
					
						<circle style="fill:url(#SVGID_00000083794489398337909760000013557490861786181291_);" cx="1740.207" cy="1628.885" r="138.534"/>
					<path style="opacity:0.7;fill:#FFFFFF;" d="M1629.961,1568.09c-0.7-0.049-1.4-0.257-2.044-0.642
						c-2.198-1.311-2.916-4.156-1.606-6.349c25.788-43.255,72.991-67.929,123.188-64.4c8.011,0.563,15.982,1.849,23.692,3.82
						c2.477,0.633,3.973,3.155,3.341,5.633c-0.633,2.481-3.145,3.997-5.636,3.341c-7.171-1.828-14.589-3.026-22.047-3.55
						c-46.688-3.282-90.592,19.669-114.581,59.899C1633.343,1567.394,1631.651,1568.209,1629.961,1568.09z"/>
					
						<ellipse transform="matrix(0.7071 -0.7071 0.7071 0.7071 -643.5601 1710.5248)" style="opacity:0.78;fill:#FFFFFF;" cx="1743.006" cy="1632.108" rx="117.252" ry="117.252"/>
					<g>
						
							<linearGradient id="SVGID_00000086691224893725188690000000998665613497147283_" gradientUnits="userSpaceOnUse" x1="2091.3635" y1="793.489" x2="1959.6503" y2="1112.6399">
							<stop  offset="0" style="stop-color:#FF928E"/>
							<stop  offset="1" style="stop-color:#FE7062"/>
						</linearGradient>
						<path style="fill:url(#SVGID_00000086691224893725188690000000998665613497147283_);" d="M1725.415,1718.253l0.895-12.725
							c-13.228-1.464-26.129-5.517-35.161-10.252c-3.225-1.69-4.659-5.544-3.457-8.981l4.066-11.626
							c1.491-4.265,6.378-6.181,10.413-4.147c8.972,4.526,20.17,8.394,32.478,9.259c12.777,0.898,22.61-2.763,23.234-11.643
							c0.563-8.012-6.465-13.293-23.888-19.306c-24.85-8.711-42.265-21.035-40.696-43.341c1.416-20.14,17.223-34.481,43.066-36.798
							l0.895-12.726c0.288-4.095,3.84-7.181,7.936-6.894l7.477,0.526c4.094,0.288,7.181,3.841,6.893,7.936l-0.803,11.426
							c12.24,1.354,21.028,4.082,27.944,7.072c3.543,1.532,5.253,5.585,3.984,9.231l-3.743,10.753
							c-1.444,4.147-6.124,6.145-10.112,4.307c-6.355-2.928-15.405-6.147-27.403-6.991c-15.16-1.066-19.932,4.91-20.328,10.54
							c-0.487,6.929,8.273,12.333,27.554,19.783c27.559,10.425,38.431,22.941,36.954,43.947
							c-1.355,19.274-16.866,35.594-44.89,37.976l-1.001,14.241c-0.288,4.095-3.841,7.181-7.935,6.893l-7.477-0.526
							C1728.214,1725.901,1725.127,1722.348,1725.415,1718.253z"/>
					</g>
				</g>
				<g>
					
						<linearGradient id="SVGID_00000181806489868547482170000000587233570065177997_" gradientUnits="userSpaceOnUse" x1="2203.4746" y1="1412.0613" x2="2517.1711" y2="1047.9496" gradientTransform="matrix(0.9975 0.0701 -0.0701 0.9975 -305.5373 123.0964)">
						<stop  offset="0" style="stop-color:#FF928E"/>
						<stop  offset="1" style="stop-color:#FE7062"/>
					</linearGradient>
					
						<circle style="fill:url(#SVGID_00000181806489868547482170000000587233570065177997_);" cx="2138.716" cy="1337.988" r="233.863"/>
					
						<linearGradient id="SVGID_00000017511739128544963100000000965837805694790799_" gradientUnits="userSpaceOnUse" x1="2694.4304" y1="782.3796" x2="1766.8204" y2="2183.7336" gradientTransform="matrix(0.9975 0.0701 -0.0701 0.9975 -305.5373 123.0964)">
						<stop  offset="0" style="stop-color:#FF928E"/>
						<stop  offset="1" style="stop-color:#FE7062"/>
					</linearGradient>
					
						<circle style="fill:url(#SVGID_00000017511739128544963100000000965837805694790799_);" cx="2138.716" cy="1337.988" r="226.087"/>
					<path style="opacity:0.7;fill:#FFFFFF;" d="M1959.024,1235.561c-0.656-0.046-1.312-0.241-1.916-0.603
						c-2.061-1.229-2.735-3.896-1.506-5.952c41.462-69.542,117.351-109.217,198.055-103.542c12.879,0.905,25.696,2.971,38.092,6.148
						c2.325,0.593,3.727,2.957,3.132,5.284c-0.594,2.322-2.959,3.751-5.284,3.128c-11.893-3.042-24.191-5.026-36.549-5.895
						c-77.414-5.443-150.212,32.617-189.986,99.322C1962.195,1234.908,1960.608,1235.673,1959.024,1235.561z"/>
					
						<ellipse transform="matrix(0.7071 -0.7071 0.7071 0.7071 -322.0656 1908.959)" style="opacity:0.78;fill:#FFFFFF;" cx="2143.285" cy="1343.247" rx="191.355" ry="191.355"/>
					<g>
						
							<linearGradient id="SVGID_00000026843710481741080000000005580424688332767898_" gradientUnits="userSpaceOnUse" x1="2443.0564" y1="609.928" x2="2336.6733" y2="873.3527">
							<stop  offset="0" style="stop-color:#FF928E"/>
							<stop  offset="1" style="stop-color:#FE7062"/>
						</linearGradient>
						<path style="fill:url(#SVGID_00000026843710481741080000000005580424688332767898_);" d="M2114.576,1483.835l1.46-20.767
							c-21.588-2.389-42.642-9.004-57.383-16.73c-5.264-2.759-7.604-9.048-5.641-14.659l6.635-18.973
							c2.434-6.96,10.41-10.088,16.994-6.767c14.642,7.385,32.918,13.698,53.005,15.11c20.852,1.466,36.9-4.51,37.918-19.001
							c0.919-13.076-10.551-21.695-38.985-31.508c-40.554-14.217-68.976-34.329-66.416-70.732
							c2.311-32.87,28.109-56.273,70.284-60.055l1.46-20.769c0.47-6.683,6.269-11.719,12.951-11.25l12.202,0.858
							c6.684,0.47,11.72,6.268,11.25,12.951l-1.311,18.647c19.976,2.21,34.317,6.661,45.604,11.541
							c5.783,2.5,8.573,9.115,6.502,15.064l-6.11,17.549c-2.355,6.767-9.994,10.027-16.502,7.029
							c-10.371-4.778-25.14-10.033-44.721-11.409c-24.74-1.739-32.527,8.012-33.174,17.202
							c-0.795,11.309,13.502,20.127,44.967,32.286c44.977,17.013,62.719,37.44,60.308,71.722
							c-2.211,31.455-27.525,58.089-73.26,61.978l-1.634,23.241c-0.47,6.683-6.268,11.72-12.951,11.25l-12.203-0.858
							C2119.143,1496.317,2114.106,1490.519,2114.576,1483.835z"/>
					</g>
				</g>
				<g>
					
						<linearGradient id="SVGID_00000050658834149386134390000014886774364770409346_" gradientUnits="userSpaceOnUse" x1="2355.4751" y1="1945.2012" x2="2678.2654" y2="1570.5344" gradientTransform="matrix(0.9975 0.0701 -0.0701 0.9975 -305.5373 123.0964)">
						<stop  offset="0" style="stop-color:#FF928E"/>
						<stop  offset="1" style="stop-color:#FE7062"/>
					</linearGradient>
					
						<circle style="fill:url(#SVGID_00000050658834149386134390000014886774364770409346_);" cx="2262.972" cy="1870.359" r="240.643"/>
					
						<linearGradient id="SVGID_00000101085037466389398110000015327892717906691771_" gradientUnits="userSpaceOnUse" x1="2860.6628" y1="1297.2659" x2="1906.1638" y2="2739.2417" gradientTransform="matrix(0.9975 0.0701 -0.0701 0.9975 -305.5373 123.0964)">
						<stop  offset="0" style="stop-color:#FF928E"/>
						<stop  offset="1" style="stop-color:#FE7062"/>
					</linearGradient>
					
						<circle style="fill:url(#SVGID_00000101085037466389398110000015327892717906691771_);" cx="2262.972" cy="1870.359" r="232.641"/>
					<path style="opacity:0.7;fill:#FFFFFF;" d="M2078.08,1764.838c-0.656-0.046-1.312-0.241-1.916-0.602
						c-2.061-1.229-2.734-3.896-1.506-5.952c42.638-71.516,120.682-112.315,203.678-106.48c13.243,0.931,26.423,3.057,39.175,6.322
						c2.325,0.593,3.727,2.958,3.132,5.284c-0.595,2.322-2.944,3.739-5.284,3.128c-12.248-3.131-24.91-5.174-37.632-6.068
						c-79.707-5.604-154.659,33.58-195.609,102.26C2081.251,1764.185,2079.665,1764.949,2078.08,1764.838z"/>
					
						<ellipse transform="matrix(0.7071 -0.7071 0.7071 0.7071 -662.1844 2152.8877)" style="opacity:0.78;fill:#FFFFFF;" cx="2267.673" cy="1875.771" rx="196.902" ry="196.902"/>
					<g>
						
							<linearGradient id="SVGID_00000029765955874163560650000004772724261944759468_" gradientUnits="userSpaceOnUse" x1="2014.9558" y1="3834.3413" x2="2237.8611" y2="3089.6362" gradientTransform="matrix(0.9975 0.0701 -0.0701 0.9975 -305.5373 123.0964)">
							<stop  offset="0" style="stop-color:#FF928E"/>
							<stop  offset="1" style="stop-color:#FE7062"/>
						</linearGradient>
						<path style="fill:url(#SVGID_00000029765955874163560650000004772724261944759468_);" d="M2238.132,2020.435l1.503-21.369
							c-22.215-2.458-43.879-9.265-59.046-17.216c-5.416-2.839-7.824-9.311-5.805-15.083l6.828-19.523
							c2.505-7.162,10.712-10.381,17.486-6.964c15.067,7.599,33.873,14.096,54.542,15.549c21.457,1.509,37.969-4.641,39.018-19.552
							c0.946-13.455-10.856-22.324-40.115-32.42c-41.731-14.629-70.976-35.324-68.342-72.782
							c2.378-33.823,28.924-57.903,72.321-61.795l1.502-21.371c0.484-6.877,6.45-12.059,13.327-11.575l12.555,0.882
							c6.877,0.483,12.059,6.45,11.575,13.326l-1.349,19.188c20.556,2.274,35.313,6.854,46.927,11.876
							c5.95,2.572,8.822,9.379,6.691,15.501l-6.287,18.057c-2.424,6.964-10.284,10.318-16.981,7.234
							c-10.672-4.917-25.869-10.323-46.017-11.74c-25.457-1.79-33.471,8.245-34.135,17.7c-0.818,11.637,13.893,20.711,46.27,33.222
							c46.28,17.507,64.537,38.525,62.056,73.801c-2.275,32.366-28.322,59.772-75.383,63.774l-1.681,23.915
							c-0.483,6.877-6.45,12.059-13.327,11.576l-12.557-0.883C2242.832,2033.278,2237.649,2027.311,2238.132,2020.435z"/>
					</g>
				</g>
				<g>
					
						<linearGradient id="SVGID_00000093872083235766333480000004543427826215712142_" gradientUnits="userSpaceOnUse" x1="2721.9512" y1="1467.91" x2="2980.1072" y2="1168.265" gradientTransform="matrix(0.9975 0.0701 -0.0701 0.9975 -305.5373 123.0964)">
						<stop  offset="0" style="stop-color:#FF928E"/>
						<stop  offset="1" style="stop-color:#FE7062"/>
					</linearGradient>
					
						<circle style="fill:url(#SVGID_00000093872083235766333480000004543427826215712142_);" cx="2590.85" cy="1491.674" r="192.457"/>
					
						<linearGradient id="SVGID_00000121260606352073317490000006779338493381722269_" gradientUnits="userSpaceOnUse" x1="3125.9819" y1="949.715" x2="2362.6082" y2="2102.9551" gradientTransform="matrix(0.9975 0.0701 -0.0701 0.9975 -305.5373 123.0964)">
						<stop  offset="0" style="stop-color:#FF928E"/>
						<stop  offset="1" style="stop-color:#FE7062"/>
					</linearGradient>
					
						<circle style="fill:url(#SVGID_00000121260606352073317490000006779338493381722269_);" cx="2590.85" cy="1491.674" r="186.058"/>
					<path style="opacity:0.7;fill:#FFFFFF;" d="M2442.889,1408.545c-0.715-0.05-1.431-0.263-2.091-0.657
						c-2.249-1.342-2.984-4.252-1.643-6.497c34.348-57.609,97.218-90.475,164.072-85.775c10.654,0.749,21.271,2.461,31.557,5.091
						c2.535,0.647,4.066,3.228,3.418,5.764c-0.649,2.535-3.212,4.104-5.767,3.419c-9.734-2.485-19.784-4.106-29.873-4.816
						c-63.263-4.448-122.758,26.656-155.263,81.169C2446.351,1407.832,2444.619,1408.666,2442.889,1408.545z"/>
					
						<ellipse transform="matrix(0.7071 -0.7071 0.7071 0.7071 -297.8902 2272.8352)" style="opacity:0.78;fill:#FFFFFF;" cx="2594.61" cy="1496.003" rx="157.475" ry="157.475"/>
					<g>
						
							<linearGradient id="SVGID_00000180346361209189181590000002179971318787307944_" gradientUnits="userSpaceOnUse" x1="2810.905" y1="845.8337" x2="2689.324" y2="1215.6418">
							<stop  offset="0" style="stop-color:#FF928E"/>
							<stop  offset="1" style="stop-color:#FE7062"/>
						</linearGradient>
						<path style="fill:url(#SVGID_00000180346361209189181590000002179971318787307944_);" d="M2570.984,1611.7l1.202-17.09
							c-17.766-1.966-35.093-7.41-47.223-13.769c-4.331-2.27-6.257-7.446-4.643-12.063l5.461-15.614
							c2.004-5.727,8.567-8.302,13.985-5.57c12.05,6.078,27.09,11.274,43.621,12.436c17.159,1.207,30.366-3.712,31.204-15.637
							c0.757-10.76-8.681-17.854-32.082-25.929c-33.375-11.7-56.763-28.251-54.657-58.208c1.902-27.05,23.132-46.309,57.84-49.421
							l1.202-17.093c0.386-5.5,5.158-9.645,10.657-9.258l10.041,0.706c5.5,0.387,9.645,5.159,9.258,10.659l-1.079,15.345
							c16.439,1.819,28.241,5.482,37.529,9.498c4.759,2.057,7.055,7.5,5.351,12.397l-5.028,14.442
							c-1.938,5.568-8.225,8.252-13.581,5.785c-8.535-3.932-20.689-8.256-36.803-9.389c-20.36-1.431-26.769,6.593-27.301,14.156
							c-0.654,9.307,11.111,16.564,37.006,26.569c37.013,14.001,51.614,30.811,49.63,59.023
							c-1.82,25.886-22.651,47.804-60.289,51.004l-1.344,19.126c-0.386,5.5-5.158,9.645-10.658,9.258l-10.042-0.706
							C2574.742,1621.971,2570.597,1617.199,2570.984,1611.7z"/>
					</g>
				</g>
			</g>
		</g>
		<g>
			
				<linearGradient id="SVGID_00000098207462612679621950000001120029777413020601_" gradientUnits="userSpaceOnUse" x1="2401.8469" y1="2052.7266" x2="947.8108" y2="3184.5852">
				<stop  offset="0" style="stop-color:#E1473D"/>
				<stop  offset="1" style="stop-color:#E9605A"/>
			</linearGradient>
			<path style="fill:url(#SVGID_00000098207462612679621950000001120029777413020601_);" d="M2262.824,2195.044h-357.182
				c-43.208,6.755-48.969,51.047-48.969,76.103l2.88,107.184l57.61,4.623l2.88-97.901c0-25.056,6.232-35.97,31.685-35.97h269.327
				c25.453,0,22.442,14.061,22.442,39.117v92.176l64.171-1.44v-136.104C2307.669,2217.776,2288.278,2195.044,2262.824,2195.044z"/>
			
				<linearGradient id="SVGID_00000163751719443577018160000011914820133655813785_" gradientUnits="userSpaceOnUse" x1="3233.1326" y1="2214.031" x2="2661.4192" y2="2705.6484">
				<stop  offset="0" style="stop-color:#E1473D"/>
				<stop  offset="1" style="stop-color:#E9605A"/>
			</linearGradient>
			<path style="fill:url(#SVGID_00000163751719443577018160000011914820133655813785_);" d="M2683.378,2333.518h-142.666v803.827
				h142.666c42.953,0,76.866-32.777,76.866-75.73v-650.994C2760.244,2367.668,2726.331,2333.518,2683.378,2333.518z"/>
			
				<linearGradient id="SVGID_00000152256240743807515980000006087410454382950064_" gradientUnits="userSpaceOnUse" x1="2475.1853" y1="2168.146" x2="1879.535" y2="3043.1726">
				<stop  offset="0" style="stop-color:#FEBBBA"/>
				<stop  offset="1" style="stop-color:#FF928E"/>
			</linearGradient>
			<path style="fill:url(#SVGID_00000152256240743807515980000006087410454382950064_);" d="M2627.573,3139.389H1549.535
				c-14.912,0-27-12.088-27-27v-752.541c0-14.912,12.088-27,27-27h1078.038c14.912,0,27,12.088,27,27v752.541
				C2654.573,3127.301,2642.484,3139.389,2627.573,3139.389z"/>
			<g>
				<path style="fill:#FFFFFF;" d="M2110.02,2887.556l-75.807-2.91c-12.162-0.467-21.715-10.579-21.49-22.749l5.126-276.844
					c0.233-12.571,10.786-22.477,23.347-21.915l72.154,3.229c11.99,0.536,21.416,10.446,21.352,22.448l-1.472,276.526
					C2133.161,2877.973,2122.644,2888.04,2110.02,2887.556z"/>
				<path style="fill:#FFFFFF;" d="M1908.143,2758.281l0.4-79.686c0.051-10.217,8.442-18.422,18.657-18.245l290.254,5.033
					c9.779,0.169,17.705,7.984,18.012,17.76l2.489,79.069c0.329,10.458-8.144,19.072-18.606,18.915l-293.143-4.416
					C1916.15,2776.558,1908.092,2768.337,1908.143,2758.281z"/>
			</g>
		</g>
		<g>
			<g>
				
					<linearGradient id="SVGID_00000047040139134041249480000013326808803265818008_" gradientUnits="userSpaceOnUse" x1="4445.6431" y1="2677.759" x2="4547.9248" y2="2677.759" gradientTransform="matrix(0.987 -0.1606 0.307 0.9632 -2970.8474 483.8328)">
					<stop  offset="0" style="stop-color:#09005D"/>
					<stop  offset="1" style="stop-color:#1A0F91"/>
				</linearGradient>
				<path style="fill:url(#SVGID_00000047040139134041249480000013326808803265818008_);" d="M2289.314,2372.05l-11.649,1.12
					c-16.288,2.357-33.365-7.693-38.071-22.458l-1.679-5.267c-4.706-14.765,4.779-28.537,21.113-30.75l19.508-1.999
					c16.043-2.174,56.406,4.008,61.04,18.548l1.653,5.187C2345.864,2350.97,2305.313,2369.735,2289.314,2372.05z"/>
				<path style="fill:#7D97F4;" d="M2616.776,2999.666l-173.168-63.27c-43.351-15.839-83.359-41.238-115.487-73.468
					c-32.328-32.432-56.49-71.595-69.718-113.1l-92.286-289.558c-18.022-56.546,16.451-109.846,76.414-122.318
					c4.763-0.991,9.499,1.835,10.977,6.47l1.146,3.598c1.684,5.282-1.483,10.837-6.862,12.179
					c-45.303,11.302-70.8,52.596-56.895,96.223l91.947,288.492c24.527,76.956,88.208,140.965,169.008,170.732l172.623,63.594
					L2616.776,2999.666z"/>
				
					<linearGradient id="SVGID_00000151502857605130443240000011733635456571486357_" gradientUnits="userSpaceOnUse" x1="4510.7446" y1="3036.4473" x2="4440.6182" y2="3531.0237" gradientTransform="matrix(0.987 -0.1606 0.307 0.9632 -2970.8474 483.8328)">
					<stop  offset="0" style="stop-color:#09005D"/>
					<stop  offset="1" style="stop-color:#1A0F91"/>
				</linearGradient>
				<path style="fill:url(#SVGID_00000151502857605130443240000011733635456571486357_);" d="M2626.499,3007.912
					c-3.97,1.008-8.351,0.863-12.577-0.677l-173.37-63.15c-44.746-16.299-86.055-42.475-119.23-75.718
					c-33.39-33.457-58.343-73.874-71.997-116.716c-3.392-10.642,3.43-21.163,15.199-23.493c11.728-2.321,23.936,4.375,27.306,14.949
					c23.671,74.269,85.093,136.083,163.059,164.893l172.422,63.714c10.499,3.879,16.022,14.931,12.357,24.713
					C2637.466,3002.306,2632.444,3006.403,2626.499,3007.912z"/>
				<path style="fill:#7D97F4;" d="M2681.617,2983.311l-18.354-13.739l103.474-127.215c45.442-55.868,58.666-131.048,36.066-201.957
					l-84.722-265.824c-13.737-43.102-61.456-72.978-106.965-66.514l-6.56-20.583c57.29-7.942,117.167,29.733,134.416,83.854
					l84.436,264.926c12.103,37.974,15.026,77.918,8.423,115.678c-6.641,37.979-22.955,73.96-47.341,104.125L2681.617,2983.311z"/>
				
					<linearGradient id="SVGID_00000155868680540945130510000015851025176160773254_" gradientUnits="userSpaceOnUse" x1="4812.5889" y1="3056.0559" x2="4738.6772" y2="3577.3301" gradientTransform="matrix(0.987 -0.1606 0.307 0.9632 -2970.8474 483.8328)">
					<stop  offset="0" style="stop-color:#09005D"/>
					<stop  offset="1" style="stop-color:#1A0F91"/>
				</linearGradient>
				<path style="fill:url(#SVGID_00000155868680540945130510000015851025176160773254_);" d="M2678.301,2994.758
					c-5.858,1.488-12.476,0.361-17.782-3.597c-8.857-6.606-10.674-18.566-4.059-26.68l103.698-127.201
					c44.024-54.001,56.864-126.728,34.995-195.341c-3.113-9.768,2.429-19.284,12.349-21.247c9.888-1.958,20.39,4.333,23.485,14.044
					c12.46,39.095,15.482,80.219,8.707,119.102c-6.815,39.114-23.583,76.183-48.662,107.275l-102.651,127.262
					C2685.763,2991.618,2682.2,2993.768,2678.301,2994.758z"/>
				
					<linearGradient id="SVGID_00000128472014331937370530000015795042207640545725_" gradientUnits="userSpaceOnUse" x1="5711.0625" y1="2705.27" x2="5832.9585" y2="2645.4307" gradientTransform="matrix(0.987 -0.1606 0.1606 0.987 -3528.3567 574.396)">
					<stop  offset="0" style="stop-color:#09005D"/>
					<stop  offset="1" style="stop-color:#1A0F91"/>
				</linearGradient>
				<path style="fill:url(#SVGID_00000128472014331937370530000015795042207640545725_);" d="M2582.714,2328.685l20.631-2.647
					c14.655-2.121,22.889-15.115,18.453-29.033l-1.583-4.965c-4.436-13.917-19.895-23.593-34.591-21.601l-17.682,1.801
					c-14.95,2.026-45.317,18.68-40.815,32.804l1.606,5.039C2533.01,2332.11,2567.806,2330.843,2582.714,2328.685z"/>
				
					<linearGradient id="SVGID_00000053547362869947426010000017983091008692940200_" gradientUnits="userSpaceOnUse" x1="-1824.1119" y1="3351.3101" x2="-1614.9719" y2="3351.3101" gradientTransform="matrix(-0.987 0.1606 0.1606 0.987 401.4147 -65.7373)">
					<stop  offset="0" style="stop-color:#09005D"/>
					<stop  offset="1" style="stop-color:#1A0F91"/>
				</linearGradient>
				<path style="fill:url(#SVGID_00000053547362869947426010000017983091008692940200_);" d="M2655.877,3012.46
					c-23.223,5.942-49.04,4.299-73.087-6.111l-33.962-14.703c-14.705-6.366-21.518-22.496-15.184-35.968
					c6.314-13.431,23.279-19.065,37.861-12.646l33.678,14.828c22.342,9.836,48.097,3.544,61.286-14.824l20.017-27.88
					c8.384-11.675,25.445-14.137,38.102-5.559c12.619,8.553,16.152,24.896,7.897,36.564l-19.711,27.862
					C2699.039,2993.436,2678.711,3006.618,2655.877,3012.46z"/>
				
					<linearGradient id="SVGID_00000183213956313245344630000004810539785242985103_" gradientUnits="userSpaceOnUse" x1="-1766.0377" y1="3411.5649" x2="-1699.0682" y2="3411.5649" gradientTransform="matrix(-0.987 0.1606 0.1606 0.987 401.4147 -65.7373)">
					<stop  offset="0" style="stop-color:#09005D"/>
					<stop  offset="1" style="stop-color:#1A0F91"/>
				</linearGradient>
				<path style="fill:url(#SVGID_00000183213956313245344630000004810539785242985103_);" d="M2679.318,3085.429
					c-14.797,3.974-30.533-4.366-35.083-18.645l-23.371-73.328c-4.551-14.279,3.884-28.848,18.775-32.525
					c14.821-3.66,30.441,4.862,34.953,19.018l23.171,72.7C2702.275,3066.806,2694.045,3081.474,2679.318,3085.429z"/>
				
					<linearGradient id="SVGID_00000072239994335218954900000000311041405843341732_" gradientUnits="userSpaceOnUse" x1="4136.3804" y1="3766.3594" x2="4158.2041" y2="3766.3594" gradientTransform="matrix(0.9348 -0.3551 0.3551 0.9348 -2669.7346 258.5487)">
					<stop  offset="0" style="stop-color:#09005D"/>
					<stop  offset="1" style="stop-color:#1A0F91"/>
				</linearGradient>
				<path style="fill:url(#SVGID_00000072239994335218954900000000311041405843341732_);" d="M2554.789,2302.763
					c3.007,7.918,0.878,16.071-4.755,18.21c-5.634,2.14-12.638-2.544-15.646-10.461c-3.007-7.917-0.878-16.07,4.756-18.21
					C2544.777,2290.163,2551.781,2294.846,2554.789,2302.763z"/>
			</g>
			<g>
				<g>
					
						<linearGradient id="SVGID_00000173878747841610707020000006906518949382518429_" gradientUnits="userSpaceOnUse" x1="2922.1545" y1="3136.4119" x2="3255.6016" y2="3136.4119">
						<stop  offset="0" style="stop-color:#09005D"/>
						<stop  offset="1" style="stop-color:#1A0F91"/>
					</linearGradient>
					<path style="fill:url(#SVGID_00000173878747841610707020000006906518949382518429_);" d="M3255.6,3136.442
						c0.396,27.685-74.586,50.132-166.594,50.132s-163.536-22.614-166.594-50.132c-5.399-48.59,74.587-50.132,166.594-50.132
						S3254.829,3082.453,3255.6,3136.442z"/>
					<path style="fill:#7D97F4;" d="M3253.286,3121.788c0,24.4-72.273,43.191-164.28,43.191s-166.594-19.78-166.594-44.18
						c0-24.4,74.587-44.18,166.594-44.18S3253.286,3097.388,3253.286,3121.788z"/>
				</g>
				
					<linearGradient id="SVGID_00000003093199621462443180000007013687533617541305_" gradientUnits="userSpaceOnUse" x1="2348.8633" y1="3138.4314" x2="3019.1694" y2="3110.0515">
					<stop  offset="0" style="stop-color:#09005D"/>
					<stop  offset="1" style="stop-color:#1A0F91"/>
				</linearGradient>
				<path style="fill:url(#SVGID_00000003093199621462443180000007013687533617541305_);" d="M2460.716,3255
					c65.109,0.001,141.888-10.358,215.35-31.295c100.479-28.641,151.506-109.995,215.263-151.319
					c50.96-33.03,77.856,8.658,141.556,21.705l15.099-23.593c-70.07-7.554-108.795-60.834-173.642-18.874
					c-64.172,41.523-107.114,125.826-203.927,153.421c-155.438,44.305-311.391,36.488-346.99-0.096
					c-6.173-6.344-7.732-12.871-4.907-20.541c13.762-37.358,96.332-36.719,176.198-36.113c38.985,0.299,79.308,0.609,115.004-3.126
					c34.029-3.561,57.742-16.387,70.479-38.125c24.776-42.278-2.815-101.837-4.003-104.352l-18.225,8.097l9.113-4.049l-9.116,4.039
					c0.245,0.527,24.512,53.113,4.78,86.695c-9.38,15.967-27.945,25.507-55.174,28.356c-34.548,3.615-74.274,3.309-112.701,3.016
					c-90.877-0.698-176.681-1.353-195.232,49.014c-5.413,14.7-2.231,28.684,9.207,40.437
					C2332.563,3242.669,2389.695,3254.998,2460.716,3255z"/>
				<g>
					<path style="fill:#91B3FA;" d="M3157.695,3121.708c-26.804,16.393-110.623,17.035-139.074,1.133
						c-3.539-1.978-7.611-9.401-7.062-13.727c4.339-34.232-6.62-70.73-16.895-107.034l186.146,0.612
						c-7.792,39.641-19.11,72.802-18.382,105.909C3162.543,3113.79,3161.827,3119.181,3157.695,3121.708z"/>
					
						<linearGradient id="SVGID_00000106838102713947920890000010226582371242427325_" gradientUnits="userSpaceOnUse" x1="2989.9089" y1="3025.9922" x2="3185.7993" y2="3025.9922">
						<stop  offset="0" style="stop-color:#09005D"/>
						<stop  offset="1" style="stop-color:#1A0F91"/>
					</linearGradient>
					<path style="fill:url(#SVGID_00000106838102713947920890000010226582371242427325_);" d="M3185.799,3002.248h-195.89v21.3
						c0,0.896,0.202,1.743,0.496,2.536c0,0,0.004,0.039,0.004,0.059c0,13.03,43.735,23.593,97.679,23.593
						c53.943,0,97.676-10.563,97.676-23.593c0-0.388-0.026-0.774-0.104-1.158c0.068-0.393,0.14-0.79,0.14-1.202V3002.248z"/>
					
						<linearGradient id="SVGID_00000143593751495125564590000003661884146474180521_" gradientUnits="userSpaceOnUse" x1="2990.4177" y1="3005.3821" x2="3185.7654" y2="3005.3821">
						<stop  offset="0" style="stop-color:#09005D"/>
						<stop  offset="1" style="stop-color:#1A0F91"/>
					</linearGradient>
					
						<ellipse style="fill:url(#SVGID_00000143593751495125564590000003661884146474180521_);" cx="3088.092" cy="3005.382" rx="97.674" ry="23.593"/>
					<path style="fill:#7D97F4;" d="M3163.116,3009.157c0,9.577-40.734,17.695-80.383,17.695s-71.79-7.764-71.79-17.341
						s32.142-17.341,71.79-17.341S3163.116,2999.58,3163.116,3009.157z"/>
				</g>
			</g>
		</g>
		<g>
			
				<linearGradient id="SVGID_00000155135580321303092850000015523148658467392945_" gradientUnits="userSpaceOnUse" x1="-3069.9683" y1="1615.714" x2="-2973.4216" y2="1857.899" gradientTransform="matrix(-1 0 0 1 -2140.7312 0)">
				<stop  offset="0" style="stop-color:#09005D"/>
				<stop  offset="1" style="stop-color:#1A0F91"/>
			</linearGradient>
			<path style="fill:url(#SVGID_00000155135580321303092850000015523148658467392945_);" d="M871.99,1745.99
				c0,0-32.549,15.832-38.533,34.018c-4.802,14.593-40.791,16.474-44.347,45.173c-1.835,14.818-12.8,26.685-27.558,28.946
				c-36.758,5.634-93.405,24.722-102.468,88.541c-6.918,48.712,17.915,67.183,43.976,73.577
				c19.142,4.696,31.863,23.313,27.991,42.638c-3.713,18.536,1.825,39.963,33.936,56.908c71.96,37.97,143.822-89.956,143.822-89.956
				l14.727-223.366L871.99,1745.99z"/>
			
				<linearGradient id="SVGID_00000005243306477697964800000013870541686753357706_" gradientUnits="userSpaceOnUse" x1="-1603.7858" y1="196.0486" x2="-1340.3467" y2="-533.4756" gradientTransform="matrix(-1 0 0 1 -2140.7312 0)">
				<stop  offset="0" style="stop-color:#E1473D"/>
				<stop  offset="1" style="stop-color:#E9605A"/>
			</linearGradient>
			<path style="fill:url(#SVGID_00000005243306477697964800000013870541686753357706_);" d="M576.207,3146.573l-4.658,38.28
				c-0.883,7.262-6.601,13.005-13.869,13.835c-12.272,1.402-31.964,2.839-51.233,0.802c-8.457-0.894-13.947-9.458-11.371-17.563
				c4.697-14.778,13.29-36.961,25.679-50.016h42.465C571.072,3131.911,577.155,3138.779,576.207,3146.573z"/>
			
				<linearGradient id="SVGID_00000090972888354461460390000012974335950230555010_" gradientUnits="userSpaceOnUse" x1="-3062.9688" y1="3489.0479" x2="-2945.1553" y2="2112.1011" gradientTransform="matrix(-1 0 0 1 -2140.7312 0)">
				<stop  offset="0" style="stop-color:#FEBBBA"/>
				<stop  offset="1" style="stop-color:#FF928E"/>
			</linearGradient>
			<path style="fill:url(#SVGID_00000090972888354461460390000012974335950230555010_);" d="M908.809,2698.138l7.168,42.162
				c0,0-24.002,243.125-28.272,340.375c-0.669,15.247,3.275,30.314,11.277,43.31l41.736,67.776l-106.072-62.592l-2.111-12.944
				l17.364-23.874l-22.744-272.36c-1.336-16,1.965-32.046,9.51-46.219l21.94-41.217L908.809,2698.138z"/>
			
				<linearGradient id="SVGID_00000102516510034666403100000015400211084110517940_" gradientUnits="userSpaceOnUse" x1="-1912.7065" y1="84.4897" x2="-1649.2681" y2="-645.0329" gradientTransform="matrix(-1 0 0 1 -2140.7312 0)">
				<stop  offset="0" style="stop-color:#E1473D"/>
				<stop  offset="1" style="stop-color:#E9605A"/>
			</linearGradient>
			<path style="fill:url(#SVGID_00000102516510034666403100000015400211084110517940_);" d="M947.704,3201.579h-33.85
				c-6.336,0-12.312-2.909-16.175-7.93c-10.552-13.712-32.416-40.463-42.87-41.161c-14.074-0.94-12.273,49.091-12.273,49.091h-7.889
				l-9.992-62.171c-2.514-15.642,5.265-31.138,19.312-38.467l0,0c0,0,3.218,23.791,20.661,34.314
				c17.444,10.524,70.985,48.211,70.985,48.211s6.557-0.935,13.758,0.366C960.05,3185.762,958.557,3201.579,947.704,3201.579z"/>
			
				<linearGradient id="SVGID_00000063621348619181451270000011432414428223718279_" gradientUnits="userSpaceOnUse" x1="-2825.9792" y1="3509.5366" x2="-2708.1348" y2="2132.2271" gradientTransform="matrix(-1 0 0 1 -2140.7312 0)">
				<stop  offset="0" style="stop-color:#FEBBBA"/>
				<stop  offset="1" style="stop-color:#FF928E"/>
			</linearGradient>
			<path style="fill:url(#SVGID_00000063621348619181451270000011432414428223718279_);" d="M763.525,2718.163
				c0,0-140.613,266.73-162.966,327.629c-22.352,60.899-30.183,111.702-30.482,116.513c-0.468,7.518-9.818,14.728-35.591,14.728
				c-13.301,0-19.815-5.333-23.004-10.493c-2.722-4.402-2.862-9.912-0.569-14.552c8.134-16.461,33.947-69.067,43.507-92.926
				c11.413-28.487,35.965-157.586,49.43-202.472c13.465-44.886,28.685-93.576,87.322-138.426
				C691.171,2718.163,731.423,2678.739,763.525,2718.163z"/>
			
				<linearGradient id="SVGID_00000074424451514948896150000012121329299500061097_" gradientUnits="userSpaceOnUse" x1="1450.0571" y1="1582.3596" x2="1191.698" y2="1850.8505">
				<stop  offset="0" style="stop-color:#FF928E"/>
				<stop  offset="1" style="stop-color:#FE7062"/>
			</linearGradient>
			<path style="fill:url(#SVGID_00000074424451514948896150000012121329299500061097_);" d="M852.354,2281.112
				c36.271-153.698-55.616-240.628-55.616-240.628c57.979-55.654,163.617-80.979,163.617-80.979s100.802,73.695,88.844,131.378
				c-7.009,33.807-70.854,202.503-70.854,202.503S919.308,2321.325,852.354,2281.112z"/>
			
				<linearGradient id="SVGID_00000139272084183343828550000013434295307723726502_" gradientUnits="userSpaceOnUse" x1="-2735.5564" y1="2127.314" x2="-3030.1064" y2="2598.5935" gradientTransform="matrix(-1 0 0 1 -2140.7312 0)">
				<stop  offset="0" style="stop-color:#E1473D"/>
				<stop  offset="1" style="stop-color:#E9605A"/>
			</linearGradient>
			<path style="fill:url(#SVGID_00000139272084183343828550000013434295307723726502_);" d="M771.933,2357.204
				c14.762-44.469,80.421-76.092,80.421-76.092c66.954,40.213,125.991,12.274,125.991,12.274s13.24,50.606,4.102,97.636
				c-9.138,47.03-66.47,349.279-66.47,349.279c-90.336,18.304-229.27-18.416-229.27-18.416
				C744.247,2619.726,757.172,2401.674,771.933,2357.204z"/>
			
				<linearGradient id="SVGID_00000158008727500983829680000002427610433917131428_" gradientUnits="userSpaceOnUse" x1="-3075.8889" y1="2131.791" x2="-3053.7581" y2="1969.8867" gradientTransform="matrix(-1 0 0 1 -2140.7312 0)">
				<stop  offset="0" style="stop-color:#FEBBBA"/>
				<stop  offset="1" style="stop-color:#FF928E"/>
			</linearGradient>
			<path style="fill:url(#SVGID_00000158008727500983829680000002427610433917131428_);" d="M894.456,1857.936l-29.49,132.463
				c-2.823,11.667,7.813,9.758,19.609,7.534c19.318-3.642,44.216-11.143,52.54-26.175c0.848-1.53,1.27-3.259,1.509-4.992
				l12.669-91.852c1.005-7.287-2.934-14.36-9.659-17.342l-24.448-10.841C907.773,1842.557,896.878,1847.928,894.456,1857.936z"/>
			
				<linearGradient id="SVGID_00000170238620259925111590000007270002731283229576_" gradientUnits="userSpaceOnUse" x1="-2984.677" y1="2210.688" x2="-2837.6633" y2="2210.688" gradientTransform="matrix(-1 0 0 1 -2140.7312 0)">
				<stop  offset="0" style="stop-color:#FEBBBA"/>
				<stop  offset="1" style="stop-color:#FF928E"/>
			</linearGradient>
			<path style="fill:url(#SVGID_00000170238620259925111590000007270002731283229576_);" d="M796.738,2040.484
				c0,0-205.825,147.257-26.323,301.993c0,0,6.845,7.744,20.309,11.768c6.798,2.031,26.907,17.245,37.102,25.179
				c3.278,2.549,8.013,1.681,10.217-1.838l0,0c1.727-2.758,1.929-6.206,0.538-9.148l-25.482-53.882
				c-7.076-6.604-17.906-7.073-25.527-1.105l0,0c-4.861,3.807-11.982,2.213-14.704-3.33
				c-13.876-28.262-40.077-111.381,67.165-205.302c4.031-3.531,5.052-9.371,2.577-14.124
				C835.074,2076.22,817.843,2047.476,796.738,2040.484z"/>
			<g>
				
					<linearGradient id="SVGID_00000094577329635553347640000014089544921543911070_" gradientUnits="userSpaceOnUse" x1="-3226.9507" y1="1436.4926" x2="-3033.8491" y2="1092.8365" gradientTransform="matrix(-0.9809 -0.1943 -0.1943 0.9809 -1911.6412 -99.2406)">
					<stop  offset="0" style="stop-color:#FEBBBA"/>
					<stop  offset="1" style="stop-color:#FF928E"/>
				</linearGradient>
				<path style="fill:url(#SVGID_00000094577329635553347640000014089544921543911070_);" d="M950.941,1737.182
					c0,0,31.395,21.252,44.886,75.373s-8.433,73.535-30.906,72.345c-22.472-1.19-55.057-8.139-83.289-46.966
					C853.4,1799.108,909.8,1711.214,950.941,1737.182z"/>
				
					<linearGradient id="SVGID_00000054986989398959624320000003811229690676270737_" gradientUnits="userSpaceOnUse" x1="-3185.4221" y1="1137.2234" x2="-3088.8718" y2="1379.4178" gradientTransform="matrix(-0.9809 -0.1943 -0.1943 0.9809 -1911.6412 -99.2406)">
					<stop  offset="0" style="stop-color:#09005D"/>
					<stop  offset="1" style="stop-color:#1A0F91"/>
				</linearGradient>
				<path style="fill:url(#SVGID_00000054986989398959624320000003811229690676270737_);" d="M910.102,1816.106
					c0,0-11.503-77.551,52.884-65.689l13.019,13.554c0,0,31.516-35.492-3.361-62.32c-34.877-26.829-83.274-19.959-110.05,28.884
					c-26.776,48.843-36.494,83.164-14.05,113.514c22.443,30.35,39.324,4.32,39.324,4.32s-10.293-26.269-1.753-37.54
					c8.54-11.272,19.559,6.555,19.559,6.555L910.102,1816.106z"/>
				
					<linearGradient id="SVGID_00000172406130976773282290000011519977992842265779_" gradientUnits="userSpaceOnUse" x1="-3185.8474" y1="1459.5912" x2="-2992.7461" y2="1115.9358" gradientTransform="matrix(-0.9809 -0.1943 -0.1943 0.9809 -1911.6412 -99.2406)">
					<stop  offset="0" style="stop-color:#FEBBBA"/>
					<stop  offset="1" style="stop-color:#FF928E"/>
				</linearGradient>
				<path style="fill:url(#SVGID_00000172406130976773282290000011519977992842265779_);" d="M901.303,1822.746
					c0,0-5.68-39.9-26.057-28.494c-20.378,11.406,7.344,37.271,18.458,46.072L901.303,1822.746z"/>
			</g>
		</g>
		<g>
			
				<linearGradient id="SVGID_00000003800786471775414650000013894426545523399300_" gradientUnits="userSpaceOnUse" x1="-394.7719" y1="3533.2925" x2="-388.4359" y2="3343.2166" gradientTransform="matrix(-1 0 0 1 905.4647 0)">
				<stop  offset="0" style="stop-color:#7C27DD"/>
				<stop  offset="1" style="stop-color:#2B41D9"/>
			</linearGradient>
			<path style="fill:url(#SVGID_00000003800786471775414650000013894426545523399300_);" d="M1236.245,3212.157
				c-0.013-0.802,0.042-1.614,0.247-2.432c12.124-48.067,61.699-72.705,61.699-72.705l23.845,1.869
				c13.71,42.366,22.551,63.048,20.349,74.621c-0.061,0.325-0.16,0.634-0.246,0.947
				C1322.469,3216.215,1281.982,3217.363,1236.245,3212.157z"/>
			<path style="fill:#91B3FA;" d="M1342.138,3214.457c-1.062,3.866-3.915,6.874-7.567,7.642
				c-27.981,5.885-72.454,1.149-91.127-1.293c-4.119-0.538-7.131-4.348-7.199-8.649
				C1281.982,3217.363,1322.469,3216.215,1342.138,3214.457z"/>
			
				<linearGradient id="SVGID_00000151529789634531783050000014545347372553199779_" gradientUnits="userSpaceOnUse" x1="5075.813" y1="3051.5366" x2="5054.5562" y2="3237.0532" gradientTransform="matrix(1 0 0 1 -3768.0322 0)">
				<stop  offset="0" style="stop-color:#A22B25"/>
				<stop  offset="1" style="stop-color:#C0423C"/>
			</linearGradient>
			<path style="fill:url(#SVGID_00000151529789634531783050000014545347372553199779_);" d="M1278.555,3099.912l10.44,50.26
				c0.765,3.683,3.595,6.441,7.023,6.763c4.195,0.394,10.168,0.625,16.174-0.257c5.386-0.792,9.137-6.265,8.182-12.139
				l-7.258-44.626H1278.555z"/>
			<path style="fill:#91B3FA;" d="M1544.749,3214.041c-25.468-0.713-38.64-3.713-45.45-6.496c-0.016,2.532-0.001,5.109,0.08,7.779
				c0.088,2.852,2.201,5.13,4.799,5.113l139.831-0.902c4.463-0.029,7.071-5.204,5.137-9.297
				C1630.812,3211.753,1584.117,3215.142,1544.749,3214.041z"/>
			
				<linearGradient id="SVGID_00000166659938757831367500000000408972777331552190_" gradientUnits="userSpaceOnUse" x1="5327.4839" y1="3650.833" x2="5333.8198" y2="3460.7561" gradientTransform="matrix(1 0 0 1 -3768.0322 0)">
				<stop  offset="0" style="stop-color:#7C27DD"/>
				<stop  offset="1" style="stop-color:#2B41D9"/>
			</linearGradient>
			<path style="fill:url(#SVGID_00000166659938757831367500000000408972777331552190_);" d="M1649.146,3210.238
				c-0.169-0.355-0.314-0.719-0.553-1.054c-12.349-17.255-43.801-51.614-105.952-66.517l-29.816-0.941
				c0,0-13.276,23.075-13.527,65.819c6.81,2.783,19.982,5.783,45.45,6.496C1584.117,3215.142,1630.812,3211.753,1649.146,3210.238z"
				/>
			
				<linearGradient id="SVGID_00000006698550120470059920000013434444678422865310_" gradientUnits="userSpaceOnUse" x1="5299.7397" y1="3075.2717" x2="5279.8555" y2="3248.8086" gradientTransform="matrix(1 0 0 1 -3768.0322 0)">
				<stop  offset="0" style="stop-color:#A22B25"/>
				<stop  offset="1" style="stop-color:#C0423C"/>
			</linearGradient>
			<path style="fill:url(#SVGID_00000006698550120470059920000013434444678422865310_);" d="M1507.296,3096.541
				c0.332,2.221,4.418,36,6,49.096c0.376,3.112,2.63,5.52,5.472,5.859c5.077,0.607,13.292,1.158,20.48-0.315
				c3.878-0.795,6.684-4.52,6.684-8.851v-53.021L1507.296,3096.541z"/>
			
				<linearGradient id="SVGID_00000040542383660386266830000016721822440077835711_" gradientUnits="userSpaceOnUse" x1="3365.1506" y1="3069.7227" x2="3389.0049" y2="2322.304" gradientTransform="matrix(1 0 0 1 -1956.197 0)">
				<stop  offset="0" style="stop-color:#09005D"/>
				<stop  offset="1" style="stop-color:#1A0F91"/>
			</linearGradient>
			<path style="fill:url(#SVGID_00000040542383660386266830000016721822440077835711_);" d="M1298.478,2439.924
				c0,0-47.71,424.089-21.204,689.144c0,0,31.807,0,47.71-5.302c0,0,49.578-414.649,65.617-533.302
				c0.604-4.473,6.99-4.677,7.868-0.249c19.788,99.823,97.512,491.282,106.753,528.251c0,0,26.506,10.602,47.711,0
				c0,0-42.409-567.219-74.216-667.94L1298.478,2439.924z"/>
			
				<linearGradient id="SVGID_00000160907412195294418050000002775181537517996726_" gradientUnits="userSpaceOnUse" x1="1773.239" y1="1467.0503" x2="1685.4261" y2="1615.6567">
				<stop  offset="0" style="stop-color:#FF928E"/>
				<stop  offset="1" style="stop-color:#FE7062"/>
			</linearGradient>
			<path style="fill:url(#SVGID_00000160907412195294418050000002775181537517996726_);" d="M1203.058,1946.921
				c0,0,201.443-31.807,360.476,10.602l-10.602,164.335c0,0-42.409,227.947-74.216,328.668c0,0-121.925,21.204-180.238-10.602
				c0,0-47.71-286.26-74.215-328.669C1224.263,2111.255,1197.757,1999.932,1203.058,1946.921z"/>
			
				<linearGradient id="SVGID_00000158007385781976488210000013624973174541799841_" gradientUnits="userSpaceOnUse" x1="1335.812" y1="1973.9362" x2="1443.8898" y2="1721.7549">
				<stop  offset="0" style="stop-color:#A22B25"/>
				<stop  offset="1" style="stop-color:#C0423C"/>
			</linearGradient>
			<path style="fill:url(#SVGID_00000158007385781976488210000013624973174541799841_);" d="M1342.998,1802.07l-20.067,135.708
				c0,0,56.064,25.755,95.323-1.105l-8.453-95.774L1342.998,1802.07z"/>
			<g>
				
					<linearGradient id="SVGID_00000090985606974722325260000008418795425301547174_" gradientUnits="userSpaceOnUse" x1="1233.4172" y1="-2429.7375" x2="1285.2042" y2="-2240.6025" gradientTransform="matrix(0.8757 -0.4828 0.4828 0.8757 -1822.5222 1095.1436)">
					<stop  offset="0" style="stop-color:#A22B25"/>
					<stop  offset="1" style="stop-color:#C0423C"/>
				</linearGradient>
				<path style="fill:url(#SVGID_00000090985606974722325260000008418795425301547174_);" d="M1429.4,1713.701
					c0.632,1.146,12.728,69.579,20.173,111.939c3.077,17.502-9.789,33.76-27.528,34.81l-16.244,0.961
					c-29.846,1.767-56.131-19.483-60.654-49.038l-11.746-76.733C1333.4,1735.641,1414.056,1685.87,1429.4,1713.701z"/>
				
					<linearGradient id="SVGID_00000018931516464050800730000006698856757605905591_" gradientUnits="userSpaceOnUse" x1="2410.98" y1="2098.8586" x2="2582.9795" y2="2098.8586" gradientTransform="matrix(0.8757 -0.4828 0.4828 0.8757 -1822.5222 1095.1436)">
					<stop  offset="0" style="stop-color:#09005D"/>
					<stop  offset="1" style="stop-color:#1A0F91"/>
				</linearGradient>
				<path style="fill:url(#SVGID_00000018931516464050800730000006698856757605905591_);" d="M1315.886,1735.831
					c-6.228-7.745-11.658-20.268,1.604-33.437c13.427-13.333,28.66-10.01,38.324-5.538c4.277,1.979,9.547,1.102,12.592-2.496
					c1.353-1.599,3.361-2.687,6.34-2.352c5.618,0.63,10.632-3.08,11.299-8.692c1.143-9.623,6.269-20.954,23.284-24.241
					c31.207-6.032,46.775,25.199,46.219,47.15c-0.557,21.95-34.762,26.566-54.169,22.923c-14.255-2.676-26.581,9.851-32.12,16.69
					c-2.011,2.481-2.762,5.734-2.037,8.845l4.932,21.205c-3.417,6.593-6.77,13.325-11.57,18.95
					c-3.456,4.051-7.246,6.285-11.264,7.231c-5.819-10.83-22.092-12.667-29.654-12.91c-2.894-0.092-5.596-1.368-7.498-3.55
					c-5.705-6.544-14.636-21.143,2.458-35.478C1318.877,1746.568,1319.362,1740.154,1315.886,1735.831z"/>
				
					<linearGradient id="SVGID_00000148623077160901095610000010121668020149099431_" gradientUnits="userSpaceOnUse" x1="1174.7109" y1="-2413.6704" x2="1226.4979" y2="-2224.5352" gradientTransform="matrix(0.8757 -0.4828 0.4828 0.8757 -1822.5222 1095.1436)">
					<stop  offset="0" style="stop-color:#A22B25"/>
					<stop  offset="1" style="stop-color:#C0423C"/>
				</linearGradient>
				<path style="fill:url(#SVGID_00000148623077160901095610000010121668020149099431_);" d="M1354.948,1824.773
					c0,0-0.672-38.291-16.17-41.887c-15.498-3.597-32.218,7.608-18.964,30.533
					C1336.303,1841.934,1354.948,1824.773,1354.948,1824.773z"/>
			</g>
			
				<linearGradient id="SVGID_00000116209144001883471100000010994585688294308253_" gradientUnits="userSpaceOnUse" x1="1679.4841" y1="1411.6503" x2="1591.6713" y2="1560.2568">
				<stop  offset="0" style="stop-color:#FF928E"/>
				<stop  offset="1" style="stop-color:#FE7062"/>
			</linearGradient>
			<path style="fill:url(#SVGID_00000116209144001883471100000010994585688294308253_);" d="M1203.058,1946.921
				c0,0-312.765,339.271,55.662,469.148v-26.505c0,0-137.83-116.625-31.807-275.657
				C1226.913,2113.906,1213.66,1962.824,1203.058,1946.921z"/>
			
				<linearGradient id="SVGID_00000065772112760348990880000016481512514239485844_" gradientUnits="userSpaceOnUse" x1="1340.6405" y1="2220.0842" x2="1283.2244" y2="2493.6555">
				<stop  offset="0" style="stop-color:#A22B25"/>
				<stop  offset="1" style="stop-color:#C0423C"/>
			</linearGradient>
			<path style="fill:url(#SVGID_00000065772112760348990880000016481512514239485844_);" d="M1261.37,2392.214
				c0,0,47.71-31.806,68.914-21.204c21.205,10.602,21.205,26.506,21.205,26.506s-10.603,21.204-26.506,15.903
				c-15.903-5.301-53.011,5.301-68.914,0C1256.07,2413.418,1250.768,2392.214,1261.37,2392.214z"/>
			
				<linearGradient id="SVGID_00000144299204031335469310000001054906200678400175_" gradientUnits="userSpaceOnUse" x1="1950.1412" y1="1571.5815" x2="1862.3282" y2="1720.1882">
				<stop  offset="0" style="stop-color:#FF928E"/>
				<stop  offset="1" style="stop-color:#FE7062"/>
			</linearGradient>
			<path style="fill:url(#SVGID_00000144299204031335469310000001054906200678400175_);" d="M1563.533,1957.523
				c0,0,326.018,328.669-42.409,458.545v-26.505c0,0,137.829-116.625,31.807-275.657
				C1552.932,2113.906,1542.329,1984.028,1563.533,1957.523z"/>
			
				<linearGradient id="SVGID_00000092421679914485933050000005223970446814703517_" gradientUnits="userSpaceOnUse" x1="1507.5175" y1="2255.1082" x2="1450.1012" y2="2528.6794">
				<stop  offset="0" style="stop-color:#A22B25"/>
				<stop  offset="1" style="stop-color:#C0423C"/>
			</linearGradient>
			<path style="fill:url(#SVGID_00000092421679914485933050000005223970446814703517_);" d="M1518.474,2392.214
				c0,0-47.71-31.806-68.914-21.204c-21.204,10.602-21.204,26.506-21.204,26.506s10.601,21.204,26.505,15.903
				c15.903-5.301,53.011,5.301,68.914,0C1523.775,2413.418,1529.076,2392.214,1518.474,2392.214z"/>
		</g>
		<g>
			<g>
				
					<linearGradient id="SVGID_00000072967961663053811040000008943842393156976831_" gradientUnits="userSpaceOnUse" x1="453.1365" y1="2853.3291" x2="484.6927" y2="2565.3767" gradientTransform="matrix(0.9458 -0.3247 0.3247 0.9458 -126.0717 360.7551)">
					<stop  offset="0" style="stop-color:#FEBBBA"/>
					<stop  offset="1" style="stop-color:#FF928E"/>
				</linearGradient>
				<path style="fill-rule:evenodd;clip-rule:evenodd;fill:url(#SVGID_00000072967961663053811040000008943842393156976831_);" d="
					M1168.251,2617.89c0,0,69.808,135.438,69.443,221.215l-16.878,5.793c0,0-45.402-145.465-72.952-177.359
					C1120.315,2635.646,1168.251,2617.89,1168.251,2617.89z"/>
				
					<linearGradient id="SVGID_00000147938698500589598720000010859380695252840603_" gradientUnits="userSpaceOnUse" x1="472.1159" y1="2848.9373" x2="500.6667" y2="2588.4106" gradientTransform="matrix(0.9458 -0.3247 0.3247 0.9458 -126.0717 360.7551)">
					<stop  offset="0" style="stop-color:#FEBBBA"/>
					<stop  offset="1" style="stop-color:#FF928E"/>
				</linearGradient>
				<path style="fill-rule:evenodd;clip-rule:evenodd;fill:url(#SVGID_00000147938698500589598720000010859380695252840603_);" d="
					M1226.922,2827.71l10.772,11.395c0,0,14.272,18.495,18.126,33.02c3.853,14.525-15.02,24.399-21.887,26.378
					c-6.867,1.98-9.521-4.655-6.256-18.227c0,0-12.232-19.196-6.533-43.791L1226.922,2827.71z"/>
			</g>
			<g>
				
					<linearGradient id="SVGID_00000176741113943957458450000011734135559278991292_" gradientUnits="userSpaceOnUse" x1="418.4788" y1="2845.1062" x2="450.0353" y2="2557.1509" gradientTransform="matrix(-0.9662 -0.2577 -0.2577 0.9662 2111.105 274.7298)">
					<stop  offset="0" style="stop-color:#FEBBBA"/>
					<stop  offset="1" style="stop-color:#FF928E"/>
				</linearGradient>
				<path style="fill-rule:evenodd;clip-rule:evenodd;fill:url(#SVGID_00000176741113943957458450000011734135559278991292_);" d="
					M1013.561,2617.89c0,0-60.158,139.991-53.79,225.533l17.242,4.598c0,0,35.111-148.287,60.36-182.031
					C1062.623,2632.247,1013.561,2617.89,1013.561,2617.89z"/>
				
					<linearGradient id="SVGID_00000079449724307332095610000008352582793487513266_" gradientUnits="userSpaceOnUse" x1="437.4591" y1="2840.7144" x2="466.0102" y2="2580.1838" gradientTransform="matrix(-0.9662 -0.2577 -0.2577 0.9662 2111.105 274.7298)">
					<stop  offset="0" style="stop-color:#FEBBBA"/>
					<stop  offset="1" style="stop-color:#FF928E"/>
				</linearGradient>
				<path style="fill-rule:evenodd;clip-rule:evenodd;fill:url(#SVGID_00000079449724307332095610000008352582793487513266_);" d="
					M969.72,2831.302l-9.948,12.122c0,0-12.942,19.448-15.77,34.208c-2.827,14.759,16.69,23.287,23.679,24.782
					c6.988,1.494,9.172-5.311,4.965-18.621c0,0,10.858-20.004,3.452-44.141L969.72,2831.302z"/>
			</g>
			
				<linearGradient id="SVGID_00000152227119136409078840000004757365471725376403_" gradientUnits="userSpaceOnUse" x1="1125.4666" y1="3203.6211" x2="1173.9834" y2="3203.6211">
				<stop  offset="0" style="stop-color:#E1473D"/>
				<stop  offset="1" style="stop-color:#E9605A"/>
			</linearGradient>
			<path style="fill-rule:evenodd;clip-rule:evenodd;fill:url(#SVGID_00000152227119136409078840000004757365471725376403_);" d="
				M1129.337,3176.09l-3.871,9.501l1.569,34.206c0.221,4.807,4.099,8.842,9.327,9.648c7.136,1.101,17.514,2.214,27.278,1.46
				c7.645-0.591,12.433-7.771,9.442-14.182l-11.515-24.673c-1.723-3.69-4.87-6.524-8.72-7.852L1129.337,3176.09z"/>
			
				<linearGradient id="SVGID_00000119809358700227195390000005358220348379280011_" gradientUnits="userSpaceOnUse" x1="1098.2983" y1="3047.6716" x2="1170.2906" y2="3047.6716">
				<stop  offset="0" style="stop-color:#FEBBBA"/>
				<stop  offset="1" style="stop-color:#FF928E"/>
			</linearGradient>
			<path style="fill-rule:evenodd;clip-rule:evenodd;fill:url(#SVGID_00000119809358700227195390000005358220348379280011_);" d="
				M1098.298,2912.179c0,0,18.99,211.703,31.53,276.478c0,0,9.383,6.836,23.42-1.979l17.042-282.52L1098.298,2912.179z"/>
			
				<linearGradient id="SVGID_00000176034561085059579290000014329864599554201735_" gradientUnits="userSpaceOnUse" x1="885.3476" y1="3203.6211" x2="933.8644" y2="3203.6211" gradientTransform="matrix(-1 0 0 1 1957.3085 0)">
				<stop  offset="0" style="stop-color:#E1473D"/>
				<stop  offset="1" style="stop-color:#E9605A"/>
			</linearGradient>
			<path style="fill-rule:evenodd;clip-rule:evenodd;fill:url(#SVGID_00000176034561085059579290000014329864599554201735_);" d="
				M1068.091,3176.09l3.87,9.501l-1.569,34.206c-0.221,4.807-4.099,8.842-9.327,9.648c-7.136,1.101-17.513,2.214-27.278,1.46
				c-7.644-0.591-12.434-7.771-9.442-14.182l11.515-24.673c1.722-3.69,4.869-6.524,8.72-7.852L1068.091,3176.09z"/>
			
				<linearGradient id="SVGID_00000009563423460571395170000003886142237554934455_" gradientUnits="userSpaceOnUse" x1="858.1794" y1="3047.6716" x2="930.1716" y2="3047.6716" gradientTransform="matrix(-1 0 0 1 1957.3085 0)">
				<stop  offset="0" style="stop-color:#FEBBBA"/>
				<stop  offset="1" style="stop-color:#FF928E"/>
			</linearGradient>
			<path style="fill-rule:evenodd;clip-rule:evenodd;fill:url(#SVGID_00000009563423460571395170000003886142237554934455_);" d="
				M1099.129,2912.179c0,0-18.99,211.703-31.53,276.478c0,0-9.383,6.836-23.42-1.979l-17.042-282.52L1099.129,2912.179z"/>
			
				<linearGradient id="SVGID_00000031915537863106030860000002786897486321300099_" gradientUnits="userSpaceOnUse" x1="1399.7397" y1="2339.7056" x2="1327.6881" y2="2416.2605">
				<stop  offset="0" style="stop-color:#FF928E"/>
				<stop  offset="1" style="stop-color:#FE7062"/>
			</linearGradient>
			<path style="fill-rule:evenodd;clip-rule:evenodd;fill:url(#SVGID_00000031915537863106030860000002786897486321300099_);" d="
				M1013.229,2616.992c0,0,68.952-25.547,155.021,0.897c0,0,9.649,65.163,4.683,96.177l-148.314,5.371L1013.229,2616.992z"/>
			
				<linearGradient id="SVGID_00000107561528309573053690000001565775759987174582_" gradientUnits="userSpaceOnUse" x1="1555.1395" y1="2503.5676" x2="1393.0233" y2="2638.6648">
				<stop  offset="0" style="stop-color:#FF928E"/>
				<stop  offset="1" style="stop-color:#FE7062"/>
			</linearGradient>
			<path style="fill-rule:evenodd;clip-rule:evenodd;fill:url(#SVGID_00000107561528309573053690000001565775759987174582_);" d="
				M1172.934,2726.227c0,0,50.147,156.985,60.148,258.12c0.514,5.202-3.276,9.813-8.477,10.339
				c-9.839,0.995-27.157,3.933-50.55,12.491c-37.933,13.878-69.774,10.601-98.652,3.216c-22.667-5.797-79.046-9.795-102.248-11.247
				c-5.528-0.346-9.568-5.341-8.749-10.819c5.632-37.693,27.292-171.527,63.419-263.125L1172.934,2726.227z"/>
			
				<linearGradient id="SVGID_00000007413037340089790560000014021532294974699412_" gradientUnits="userSpaceOnUse" x1="1139.9169" y1="2630.0508" x2="1112.1514" y2="2690.3689">
				<stop  offset="0" style="stop-color:#E1473D"/>
				<stop  offset="1" style="stop-color:#E9605A"/>
			</linearGradient>
			<path style="fill-rule:evenodd;clip-rule:evenodd;fill:url(#SVGID_00000007413037340089790560000014021532294974699412_);" d="
				M1173.418,2710.554l-0.484,15.674c0,0-47.636,8.382-148.401,4.993l-0.524-17.273
				C1024.009,2713.947,1135.641,2716.133,1173.418,2710.554z"/>
			
				<linearGradient id="SVGID_00000149366815329188065180000016938082668009819566_" gradientUnits="userSpaceOnUse" x1="827.4567" y1="2471.3098" x2="900.034" y2="2471.3098" gradientTransform="matrix(0.9995 0.0315 -0.0315 0.9995 399.3548 -75.8778)">
				<stop  offset="0" style="stop-color:#09005D"/>
				<stop  offset="1" style="stop-color:#1A0F91"/>
			</linearGradient>
			<path style="fill-rule:evenodd;clip-rule:evenodd;fill:url(#SVGID_00000149366815329188065180000016938082668009819566_);" d="
				M1155.045,2430.57c0,0-22.912-31.632,19.441-51.649c39.791-18.806,57.388,21.515,41.252,41.626
				c-1.144,1.426-0.646,3.555,1.02,4.308c2.851,1.289,4.806,4.821-2.147,14.341c-0.599,0.819-0.694,1.904-0.27,2.826
				c3.005,6.524,12.217,32.061-30.757,26.536c-0.774-0.099-1.48-0.521-1.937-1.154L1155.045,2430.57z"/>
			
				<linearGradient id="SVGID_00000155851569187881770940000012136621395789507462_" gradientUnits="userSpaceOnUse" x1="586.8071" y1="2488.6003" x2="677.8843" y2="2488.6003" gradientTransform="matrix(0.9995 0.0315 -0.0315 0.9995 399.3548 -75.8778)">
				<stop  offset="0" style="stop-color:#09005D"/>
				<stop  offset="1" style="stop-color:#1A0F91"/>
			</linearGradient>
			<path style="fill-rule:evenodd;clip-rule:evenodd;fill:url(#SVGID_00000155851569187881770940000012136621395789507462_);" d="
				M998.13,2436.517c0,0,4.221-33.257-11.004-47.625c-15.226-14.369-47.253-30.64-69.026,1.869
				c-10.385,15.505-9.851,24.046-6.452,28.739c3.099,4.278,2.386,9.754-1.11,13.74c-3.974,4.531-5.71,10.811,1.748,18.429
				c2.2,2.248,3.389,5.124,3.329,8.083c-0.249,12.329,5.837,43.327,77.229,26.016L998.13,2436.517z"/>
			
				<linearGradient id="SVGID_00000018208333493816291170000002584561926689099427_" gradientUnits="userSpaceOnUse" x1="842.632" y1="2405.3813" x2="760.8591" y2="2529.5547" gradientTransform="matrix(0.9995 0.0315 -0.0315 0.9995 399.3548 -75.8778)">
				<stop  offset="0" style="stop-color:#09005D"/>
				<stop  offset="1" style="stop-color:#1A0F91"/>
			</linearGradient>
			<path style="fill-rule:evenodd;clip-rule:evenodd;fill:url(#SVGID_00000018208333493816291170000002584561926689099427_);" d="
				M1085.521,2393.676c-11.589-8.177-37.416-19.482-66.232,12.8c-2.011,2.253-4.582,3.923-7.472,4.8
				c-13.985,4.243-55.544,21.629-32.169,73.905c1.069,2.392,1.556,5.004,1.382,7.618c-0.526,7.906-0.487,25.674,9.595,32.198
				c3.013,1.949,5.279,4.84,6.464,8.227c4.796,13.708,20.398,43.713,61.442,24.555c2.091-0.976,4.372-1.5,6.679-1.518l51.144-0.382
				c2.721-0.02,5.392,0.662,7.788,1.95c5.603,3.014,17.347,7.105,24.822-5.99c1.524-2.669,3.76-4.854,6.464-6.315
				c9.67-5.222,31.074-20.41,23.542-49.68c-0.843-3.276-0.675-6.723,0.528-9.885c3.648-9.587,9.133-31.431-9.425-45.302
				c-2.79-2.085-4.87-4.959-5.799-8.315c-4.056-14.667-19.231-53.259-63.911-36.813
				C1095.396,2397.358,1089.844,2396.726,1085.521,2393.676z"/>
			
				<linearGradient id="SVGID_00000016044598289124044500000014065347002767773089_" gradientUnits="userSpaceOnUse" x1="1084.4578" y1="2682.1663" x2="1091.4745" y2="2610.8301">
				<stop  offset="0" style="stop-color:#FEBBBA"/>
				<stop  offset="1" style="stop-color:#FF928E"/>
			</linearGradient>
			<path style="fill-rule:evenodd;clip-rule:evenodd;fill:url(#SVGID_00000016044598289124044500000014065347002767773089_);" d="
				M1066.285,2538.48l-6.554,64.922c-0.521,5.163,2.869,9.902,7.927,11.064c11.572,2.66,32.491,5.796,50.055-0.642
				c4.435-1.626,7.254-5.997,6.801-10.698l-6.427-66.69L1066.285,2538.48z"/>
			
				<linearGradient id="SVGID_00000116233539223255357610000002258374082564698806_" gradientUnits="userSpaceOnUse" x1="745.5474" y1="2432.1248" x2="754.8916" y2="2293.1289" gradientTransform="matrix(0.9997 0.0353 -0.0293 1.0502 403.1962 10.73)">
				<stop  offset="0" style="stop-color:#FEBBBA"/>
				<stop  offset="1" style="stop-color:#FF928E"/>
			</linearGradient>
			<path style="fill-rule:evenodd;clip-rule:evenodd;fill:url(#SVGID_00000116233539223255357610000002258374082564698806_);" d="
				M1152.99,2486.57c2.006,45.665-11.831,94.713-65.127,95.055c-36.874,0.236-66.273-43.53-68.279-89.195
				c-2.006-45.664,24.176-74.553,61.015-76.172C1117.437,2414.64,1150.984,2440.906,1152.99,2486.57z"/>
			
				<linearGradient id="SVGID_00000064341306855817166940000010831067621068679823_" gradientUnits="userSpaceOnUse" x1="525.2407" y1="2660.4822" x2="534.5963" y2="2521.3167" gradientTransform="matrix(0.9933 -0.1155 0.1155 0.9933 328.3072 14.5294)">
				<stop  offset="0" style="stop-color:#FEBBBA"/>
				<stop  offset="1" style="stop-color:#FF928E"/>
			</linearGradient>
			<path style="fill-rule:evenodd;clip-rule:evenodd;fill:url(#SVGID_00000064341306855817166940000010831067621068679823_);" d="
				M1144.827,2506.684c0,0,3.362-26.599,16.169-17.535c12.807,9.064-7.649,39.922-15.998,41.286
				C1136.649,2531.8,1144.827,2506.684,1144.827,2506.684z"/>
			
				<linearGradient id="SVGID_00000063622988056936980740000010654805467832315318_" gradientUnits="userSpaceOnUse" x1="697.2905" y1="2629.9839" x2="706.6461" y2="2490.8186" gradientTransform="matrix(0.9995 0.0315 -0.0315 0.9995 399.3548 -75.8778)">
				<stop  offset="0" style="stop-color:#FEBBBA"/>
				<stop  offset="1" style="stop-color:#FF928E"/>
			</linearGradient>
			<path style="fill-rule:evenodd;clip-rule:evenodd;fill:url(#SVGID_00000063622988056936980740000010654805467832315318_);" d="
				M1027.129,2503.477c0,0,0.336-20.794-15.768-14.571c-16.104,6.223,3.952,44.576,22.126,40.853L1027.129,2503.477z"/>
			
				<linearGradient id="SVGID_00000030453062393203141340000001189255270792426154_" gradientUnits="userSpaceOnUse" x1="837.7229" y1="2402.6858" x2="755.9497" y2="2526.8596" gradientTransform="matrix(0.9995 0.0315 -0.0315 0.9995 399.3548 -75.8778)">
				<stop  offset="0" style="stop-color:#09005D"/>
				<stop  offset="1" style="stop-color:#1A0F91"/>
			</linearGradient>
			<path style="fill-rule:evenodd;clip-rule:evenodd;fill:url(#SVGID_00000030453062393203141340000001189255270792426154_);" d="
				M1009.567,2483.156c0,0,31.181,52.442,71.546-34.059c0,0,15.222,31.635,29.91,9.634c0,0,38.754,23.205,47.107,6.604
				c8.353-16.6-42.642-77.259-99.066-53.488C1002.641,2435.619,1009.567,2483.156,1009.567,2483.156z"/>
		</g>
	</g>
</g>
</svg>
