<?xml version="1.0" encoding="utf-8"?>
<!-- Generator: Adobe Illustrator 27.5.0, SVG Export Plug-In . SVG Version: 6.00 Build 0)  -->
<svg version="1.1" xmlns="http://www.w3.org/2000/svg" xmlns:xlink="http://www.w3.org/1999/xlink" x="0px" y="0px"
	 viewBox="0 0 500 500" style="enable-background:new 0 0 500 500;" xml:space="preserve">
<g id="Floor">
	<ellipse id="Floor_7_" style="fill:#F5F5F5;" cx="250" cy="349.997" rx="219.328" ry="127.742"/>
</g>
<g id="Shadows">
	<ellipse id="Shadow" style="fill:#E6E6E6;" cx="373.666" cy="367.844" rx="63.718" ry="36.788"/>
	<ellipse id="Shadow_11_" style="fill:#E6E6E6;" cx="250.004" cy="375.195" rx="71.956" ry="41.544"/>
	<ellipse id="Shadow_10_" style="fill:#E6E6E6;" cx="124.17" cy="367.844" rx="63.718" ry="36.788"/>
</g>
<g id="Plants">
	<g id="Plants_2_">
		<g id="XMLID_152_">
			<g id="XMLID_155_">
				<path id="XMLID_157_" style="fill:#27DEBF;" d="M98.8,319.263c0.771-8.784-3.984-27.535-12.097-39.74
					s-21.711-21.803-32.196-19.215c-9.766,2.411-9.831,14.939,0.948,24.191c10.779,9.252,27.161,21.125,30.968,35.817l9.079,18.413
					L98.8,319.263z"/>
				<path id="XMLID_156_" style="opacity:0.1;" d="M98.8,319.263c0.771-8.784-3.984-27.535-12.097-39.74
					s-21.711-21.803-32.196-19.215c-9.766,2.411-9.831,14.939,0.948,24.191c10.779,9.252,27.161,21.125,30.968,35.817l9.079,18.413
					L98.8,319.263z"/>
			</g>
			<g id="XMLID_153_">
				<path id="XMLID_154_" style="fill:#FFFFFF;" d="M98.392,331.339c-0.278-0.047-0.502-0.274-0.533-0.567
					c-3.248-30.5-25.363-57.001-39.408-63.661c-0.321-0.152-0.458-0.537-0.306-0.858c0.151-0.32,0.529-0.465,0.858-0.306
					c14.312,6.786,36.84,33.726,40.137,64.689c0.038,0.353-0.218,0.67-0.571,0.708C98.508,331.351,98.449,331.349,98.392,331.339z"
					/>
			</g>
		</g>
		<g id="XMLID_147_">
			<g id="XMLID_150_">
				<path id="XMLID_151_" style="fill:#27DEBF;" d="M92.235,350.139c-0.978-5.061-6.292-13.739-15.455-21.326
					c-10.136-8.393-23.491-13.016-26.13-19.087c-3.17-7.293,3.275-13.355,14.238-11.007c10.963,2.348,29.123,19.182,30.238,42.224
					L92.235,350.139z"/>
			</g>
			<g id="XMLID_148_">
				<path id="XMLID_149_" style="fill:#FFFFFF;" d="M94.835,345.146c-0.242-0.041-0.449-0.219-0.516-0.473
					c-6.939-26.494-25.745-37.231-34.718-39.207c-0.347-0.076-0.567-0.42-0.491-0.767c0.076-0.349,0.406-0.569,0.768-0.491
					c9.923,2.185,28.606,13.096,35.689,40.139c0.09,0.344-0.117,0.697-0.461,0.786C95.014,345.158,94.923,345.161,94.835,345.146z"
					/>
			</g>
		</g>
	</g>
	<g id="Plants_1_">
		<g id="XMLID_141_">
			<g id="XMLID_144_">
				<path id="XMLID_146_" style="fill:#27DEBF;" d="M391.797,331.056c-0.81-9.229,4.495-38.924,13.019-51.749
					c8.524-12.824,23.934-25.765,34.951-23.045c10.261,2.533,10.33,15.697-0.996,25.418c-11.326,9.721-28.539,22.196-32.539,37.633
					l-9.982,26.098L391.797,331.056z"/>
				<path id="XMLID_145_" style="opacity:0.1;" d="M391.797,331.056c-0.81-9.229,4.495-38.924,13.019-51.749
					c8.524-12.824,23.934-25.765,34.951-23.045c10.261,2.533,10.33,15.697-0.996,25.418c-11.326,9.721-28.539,22.196-32.539,37.633
					l-9.982,26.098L391.797,331.056z"/>
			</g>
			<g id="XMLID_142_">
				<path id="XMLID_143_" style="fill:#FFFFFF;" d="M393.657,330.896c0.292-0.049,0.527-0.288,0.56-0.596
					c3.413-32.047,26.65-59.892,41.407-66.89c0.337-0.16,0.481-0.564,0.321-0.902c-0.158-0.336-0.556-0.489-0.902-0.322
					c-15.038,7.13-38.708,35.437-42.173,67.97c-0.04,0.371,0.229,0.704,0.6,0.744C393.535,330.908,393.597,330.906,393.657,330.896z
					"/>
			</g>
		</g>
		<g id="XMLID_136_">
			<g id="XMLID_139_">
				<path id="XMLID_140_" style="fill:#27DEBF;" d="M400.126,350.649c1.027-5.318,5.305-14.352,14.312-23.02
					c11.03-10.613,28.636-15.789,31.409-22.168c3.331-7.663-2.942-13.384-14.354-10.463c-15.345,3.927-33.233,21.778-34.405,45.989
					L400.126,350.649z"/>
			</g>
			<g id="XMLID_137_">
				<path id="XMLID_138_" style="fill:#FFFFFF;" d="M397.394,345.403c0.254-0.043,0.471-0.23,0.542-0.497
					c7.291-27.838,30.895-41.704,40.324-43.78c0.365-0.08,0.596-0.442,0.516-0.806c-0.08-0.366-0.427-0.598-0.807-0.516
					c-10.427,2.295-33.901,16.345-41.344,44.76c-0.095,0.361,0.123,0.732,0.484,0.826
					C397.206,345.415,397.302,345.418,397.394,345.403z"/>
			</g>
		</g>
	</g>
</g>
<g id="Character_3">
	<g id="Character_21_">
		<g>
			<path style="fill:#FFBDA7;" d="M404.105,151.051c-6.176-6.359-16.425-21.193-16.425-21.193l-6.318-21.886
				c-0.154,0.062,3.222,0.072,4.239,0.011c6.826,0.456,8.84,1.037,13.087,5.686c3.372,3.691,15.848,23.083,20.321,28.993
				l12.263-16.938c2.843-4.305,2.383-9.117,3.86-12.629c1.477-3.512,3.863-5.063,5.773-8.239c1.91-3.176,2.366-5.244,3.935-3.626
				c1.57,1.618-0.241,6.001-0.477,6.998c-0.235,0.997-2.626,3.965,1.368,2.423c3.994-1.541,10.174-8.855,11.769-10.347
				c1.595-1.492,2.43,0.821,2.07,2.646c-0.359,1.825,1.357,5.956,0.735,8.982c-0.66,3.21-1.134,4.677-4.229,7.795
				c-2.883,2.905-9.939,6.465-12.699,10.272c-2.759,3.807-8.649,15.655-12.248,22.793c-4.574,9.073-9.6,14.229-15.515,9.156
				C411.072,158.05,406.395,153.409,404.105,151.051z"/>
			<path style="fill:#F0F0F0;" d="M388.324,107.83c5.225,0.478,8.04,1.673,13.22,8.507c5.18,6.834,17.341,24.851,17.341,24.851
				l10.465-12.811c0,0,7.214,5.492,11.042,11.91c0,0-10.134,17.028-14.188,21.295c-4.054,4.266-7.207,4.629-12.724,0
				c-5.518-4.629-21.507-22.195-21.507-22.195L388.324,107.83z"/>
			<path style="fill:#E0E0E0;" d="M418.884,141.188c-2.372,3.436-3.908,9.02-3.489,11.812c0,0-3.299-3.804,2.259-13.628
				L418.884,141.188z"/>
		</g>
		<g id="XMLID_3571_">
			<polygon id="XMLID_3578_" style="fill:#FFBDA7;" points="342.181,362.898 354.072,362.898 356.442,341.85 342.181,341.85 			"/>
			<polygon id="XMLID_3577_" style="fill:#FFBDA7;" points="381.457,341.253 394.128,341.671 393.902,319.875 379.573,319.601 			
				"/>
			<path id="XMLID_3575_" style="fill:#37474F;" d="M342.309,193.698c-0.231,11.543-2.675,87.916-2.675,87.916
				c-0.248,2.921-1.297,8.296-1.515,18.817c-0.317,15.256,2.879,51.477,2.879,51.477c0.707,3.294,13.008,4.631,14.636,1.658
				c0,0,6.719-52.539,8.624-67.64c1.662-13.179,7.148-56.273,7.148-56.273l4.247,42.312c0,0-0.31,5.798,0.332,14.83
				c0.497,6.985,4.003,48.197,4.003,48.197c0.061,2.566,12.842,4.692,15.002,0.904c0,0,4.043-60.162,4.166-66.571
				c0.14-7.307-0.88-76.454-0.88-76.454L342.309,193.698z"/>
			<path id="XMLID_3574_" style="fill:#263238;" d="M354.752,356.855c0,0,0.2-1.797,0.202-1.797
				c0.659-0.014,0.943,0.741,1.212,2.321c0.718,4.22,1.967,7.253,3.152,9.688c2.023,4.157,3.198,5.879,7.178,10.885
				c0.944,1.188,3.075,3.075,3.819,4.398c0.743,1.323,1.005,5.004-0.258,5.846c-4.642,3.095-11.692,3.181-16.678,1.719
				c-3.836-1.124-6.427-3.592-7.241-8.135c-0.813-4.543-1.234-7.348-3.548-10.784c-0.849-1.26-2.221-2.272-2.795-3.678
				c-1.032-2.527-0.204-5.37,0.455-7.887c0.57-2.174,1.188-4.564,1.93-4.361c0.002,0.265,0,1.34,0,1.34
				c0.893,0.989,4.019,1.971,6.804,2.078C350.784,358.558,354.767,358.227,354.752,356.855z"/>
			<path id="XMLID_3573_" style="fill:#263238;" d="M394.092,338.234c0.312,0.209,1.032,1.037,2.305,2.216
				c1.121,1.039,2.22,1.786,4.102,3.17c2.973,2.186,5.625,3.81,9.124,5.727c3.771,2.067,7.169,3.33,11.675,5.365
				c0.462,0.208,0.922,0.456,1.259,0.835c0.28,0.314,0.454,0.711,0.549,1.121c0.389,1.674-0.54,3.437-1.886,4.505
				c-1.346,1.068-3.044,1.573-4.707,2.004c-3.776,0.977-7.964,1.305-11.746,0.352c-3.339-0.841-6.528-2.518-9.436-4.362
				c-2.48-1.573-5.128-3.035-8.073-3.464c-2.527-0.369-5.642-0.245-7.835-1.757c-2.438-1.68-1.463-5.27-0.773-8.354
				c0.752-3.366,0.923-8.503,2.454-8.393l0.117,1.345c0.135,1.454,3.654,2.121,6.38,2.125c2.258,0.003,6.526-0.588,6.51-1.651
				C394.112,339.019,394.092,338.245,394.092,338.234z"/>
			<path id="XMLID_3572_" style="fill:#263238;" d="M372.714,213.487c0,0,6.67-2.245,12.976-8.339c0,0-2.069,6.049-10.562,11.025
				l0.559,52.698l-4.28-39.219L372.714,213.487z"/>
		</g>
		<g id="XMLID_3198_">
			<path id="XMLID_3568_" style="fill:#27DEBF;" d="M361.469,106.536c-2.154,0.519-8.999,2.362-14.555,4.32
				c-3.763,1.326-6.291,4.309-7.014,5.366c-4.033,5.893-0.395,18.976,2.574,43.636c-0.228,15.925-0.685,35.719-0.685,35.719
				c7.321,5.332,41.473,8.957,56.879-2.294c0,0,0.511-59.755-0.507-67.526c-1.948-14.872-7.771-18.847-19.793-19.546
				L361.469,106.536z"/>
			<path id="XMLID_3594_" style="opacity:0.6;fill:#FFFFFF;" d="M361.469,106.536c-2.154,0.519-8.999,2.362-14.555,4.32
				c-3.763,1.326-6.291,4.309-7.014,5.366c-4.033,5.893-0.395,18.976,2.574,43.636c-0.228,15.925-0.685,35.719-0.685,35.719
				c7.321,5.332,41.473,8.957,56.879-2.294c0,0,0.511-59.755-0.507-67.526c-1.948-14.872-7.771-18.847-19.793-19.546
				L361.469,106.536z"/>
		</g>
		<g>
			<path style="fill:#27DEBF;" d="M382.458,123.992c1.084,3.72,7.471,29.857,6.572,39.062c-0.373,3.824-2.208,9.976-3.801,13.74
				c-2.772,6.551-4.616,0.688-6.162-3.18c-1.116-2.793-2.23-7.635-2.597-11.174c-0.512-4.938,1.475-19.952,0.712-37.545
				C377.183,124.893,379.065,122.043,382.458,123.992z"/>
			<path style="opacity:0.2;" d="M382.458,123.992c1.084,3.72,7.471,29.857,6.572,39.062c-0.373,3.824-2.208,9.976-3.801,13.74
				c-2.772,6.551-4.616,0.688-6.162-3.18c-1.116-2.793-2.23-7.635-2.597-11.174c-0.512-4.938,1.475-19.952,0.712-37.545
				C377.183,124.893,379.065,122.043,382.458,123.992z"/>
			<path style="fill:#27DEBF;" d="M382.696,115.602c2.535,2.162-0.237,8.39-0.237,8.39s-2.498-0.732-5.275,0.901
				c0,0-5.047-2.156-5.055-5.891c-0.008-3.4,3.612-2.313,6.183-2.758C381.035,115.772,382.398,113.78,382.696,115.602z"/>
			<path style="opacity:0.2;" d="M382.696,115.602c2.535,2.162-0.237,8.39-0.237,8.39s-2.498-0.732-5.275,0.901
				c0,0-5.047-2.156-5.055-5.891c-0.008-3.4,3.612-2.313,6.183-2.758C381.035,115.772,382.398,113.78,382.696,115.602z"/>
			<path style="opacity:0.2;" d="M382.458,123.992c-0.413-1.461-2.4-1.324-3.985-1.824c-1.039-0.328-1.844-1.328-2.138-1.837
				c-0.816-1.412-0.012-3.754,1.145-3.991l0.001-0.002c-2.455,0.173-5.361-0.383-5.354,2.665c0.009,3.735,5.055,5.891,5.055,5.891
				C379.961,123.259,382.458,123.992,382.458,123.992z"/>
		</g>
		<g id="XMLID_1223_">
			<g id="XMLID_2997_">
				<path id="XMLID_3197_" style="fill:#455A64;" d="M365.073,71.965c0.205,8.593,7.337,15.392,15.93,15.186
					c8.593-0.205,15.392-7.337,15.187-15.929c-0.205-8.593-7.337-15.392-15.93-15.187C371.668,56.24,364.868,63.372,365.073,71.965z
					"/>
				<path id="XMLID_3196_" style="fill:#455A64;" d="M354.002,83.298c0,0,2.804,11.785,3.862,13.707
					c1.057,1.922,3.16,2.425,3.16,2.425l-0.375-8.328L354.002,83.298z"/>
				<path id="XMLID_3195_" style="fill:#455A64;" d="M356.761,66.254c0,0-2.727-0.401-4.792,1.814
					c-2.025,2.172-0.707,8.786,2.033,15.23l4.762,0.432L356.761,66.254z"/>
				<path id="XMLID_3194_" style="fill:#FFBDA7;" d="M360.188,83.699c-0.939,0.591-2.341-1.205-3.545-2.406
					c-1.204-1.201-5.077-2.788-6.894,1.287c-1.85,4.153,1.916,9.492,4.957,10.368c5.24,1.508,5.941-1.847,5.941-1.847l0.892,21.24
					l0,0c3.707,4.525,12.44,4.78,16.772,3.903c3.457-0.7,3.512-3.15,0.101-6.915l-0.16-6.085c0,0,4.73,0.603,7.02,0.192
					c3.811-0.682,6.159-3.755,7.207-7.926c1.6-6.369,1.993-13.479,0.391-25.123c-1.968-14.309-18.753-14.045-27.622-8.163
					C356.38,68.106,360.188,83.699,360.188,83.699z"/>
				<path id="XMLID_3193_" style="fill:#455A64;" d="M360.227,85.302c-0.479,0.021-2.372-2.958-3.583-4.008
					c-1.678-1.455,0.117-15.04,0.117-15.04s-2.123-3.777,0.956-7.334c2.191-2.53,5.257-5.629,15.496-4.666
					c7.299,0.686,15.275,2.768,21.6-0.529c1.054,3.959,0.385,8.42-3.518,11.662c0,0-2.281,1.549-8.356,2.436
					c-6.076,0.887-15.587,0.229-16.888,0.083c-1.773-0.2-2.109,1.522-2.95,6.223C362.363,78.255,361.835,85.232,360.227,85.302z"/>
				<path id="XMLID_3099_" style="fill:#455A64;" d="M356.795,67.306l-5.832-2.953c0.778-1.669,2.714-2.361,4.324-1.546
					C356.898,63.622,357.573,65.636,356.795,67.306z"/>
				<path id="XMLID_3001_" style="fill:#F0997A;" d="M378.253,103.244c0,0-8.58-1.516-11.603-3.032
					c-2.023-1.014-3.713-2.816-4.224-3.984c0,0,0.62,2.52,2.46,4.76c2.25,2.739,13.426,4.701,13.426,4.701L378.253,103.244z"/>
			</g>
			<g id="XMLID_2990_">
				<path id="XMLID_2996_" style="fill:#263238;" d="M375.375,81.611c-0.05,0.981-0.856,1.735-1.8,1.684
					c-0.944-0.051-1.668-0.887-1.618-1.868c0.05-0.981,0.856-1.735,1.8-1.684C374.701,79.794,375.426,80.631,375.375,81.611z"/>
				<path id="XMLID_2995_" style="fill:#263238;" d="M374.271,75.169L370.51,77c-0.485-1.078-0.037-2.362,1.001-2.868
					C372.55,73.627,373.785,74.091,374.271,75.169z"/>
				<path id="XMLID_2994_" style="fill:#F0997A;" d="M376.364,93.132l5.338,1.461c-0.374,1.526-1.873,2.436-3.347,2.033
					C376.881,96.222,375.99,94.658,376.364,93.132z"/>
				<path id="XMLID_2993_" style="fill:#263238;" d="M391.983,76.758l-3.987-1.366c0.339-1.124,1.506-1.729,2.607-1.352
					C391.704,74.417,392.322,75.634,391.983,76.758z"/>
				<path id="XMLID_2992_" style="fill:#263238;" d="M390.029,81.127c0.09,0.978-0.6,1.839-1.542,1.923
					c-0.941,0.084-1.778-0.641-1.868-1.619c-0.09-0.978,0.6-1.839,1.542-1.923C389.102,79.424,389.938,80.149,390.029,81.127z"/>
				<polygon id="XMLID_2991_" style="fill:#F0997A;" points="380.773,80.157 381.39,90.447 386.755,88.586 				"/>
			</g>
			<g id="XMLID_2980_">
				<g id="XMLID_2986_">
					<g id="XMLID_2987_">
						<path id="XMLID_2989_" style="fill:#27DEBF;" d="M378.311,116.244c-4.754-0.998-15.977-5.395-17.065-10.884l-0.139-3.014
							c-1.843-0.018-2.691,2.058-3.595,5.005c-0.382,7.76,7.803,14.845,16.028,16.755c0,0,0.416-2.999,1.812-5.099
							C376.842,116.769,378.311,116.244,378.311,116.244z"/>
						<path id="XMLID_2988_" style="fill:#27DEBF;" d="M378.273,104.041c0,0,1.893,0.511,3.317,1.986
							c6.154,6.37,2.642,14.725,2.642,14.725s-0.453-2.261-2.245-3.496c-1.792-1.235-3.676-1.012-3.676-1.012
							c1.509-1.611,0.914-4.428,0.101-6.915L378.273,104.041z"/>
					</g>
				</g>
			</g>
			<path style="fill:#37474F;" d="M396.147,76.483c-0.266-0.031-0.543-0.061-0.83-0.087c-2.68-0.251-6.193-0.315-8.334,0.266
				c-2.683,0.732-3.651,1.542-5.121,1.554c-1.573-0.001-2.537-0.808-5.346-1.522c-2.24-0.565-6.002-0.479-8.889-0.21
				c-0.31,0.029-0.611,0.06-0.898,0.093l-12.727,3.437c1.169,0.152,2.021,0.705,2.863,1.505l9.272-2.535
				c0.132,0.176,0.264,0.334,0.351,0.45c0.103,0.137,0.198,0.335,0.269,0.618c0.265,1.065,0.38,3.106,0.929,4.239
				c0.221,0.455,0.542,1.013,1.082,1.52c0.176,0.164,0.358,0.31,0.565,0.448c0.107,0.07,0.214,0.136,0.328,0.201
				c0.288,0.162,0.612,0.303,0.983,0.421c0.055,0.017,0.111,0.035,0.166,0.049c0.084,0.023,0.174,0.048,0.263,0.07
				c0.089,0.021,0.181,0.04,0.275,0.06c0.271,0.054,0.564,0.097,0.878,0.121c0.121,0.013,0.247,0.021,0.376,0.027
				c0.151,0.005,0.31,0.01,0.473,0.01c3.654,0.003,5.238-1.56,6.205-3.171c0.969-1.608,0.819-3.881,2.503-3.881
				c0.056,0.001,0.109,0.002,0.161,0.008c0.051,0.004,0.102,0.012,0.148,0.021c1.235,0.257,1.006,2.339,1.734,3.838
				c0.28,0.575,0.636,1.146,1.134,1.635c0.088,0.088,0.178,0.171,0.275,0.252c0.048,0.043,0.097,0.081,0.148,0.119
				c0.051,0.04,0.102,0.077,0.155,0.115c0.047,0.034,0.093,0.065,0.142,0.096c0.083,0.053,0.118,0.076,0.154,0.097
				c0.04,0.025,0.08,0.048,0.122,0.07c0.027,0.016,0.056,0.032,0.085,0.048c0.411,0.22,0.885,0.398,1.436,0.518
				c0.043,0.009,0.088,0.019,0.133,0.027c0.52,0.105,1.108,0.16,1.774,0.155c3.422-0.024,4.668-1.823,5.27-2.96
				c0.6-1.138,0.887-3.175,1.202-4.247c0.07-0.238,0.196-0.42,0.332-0.558c0.258-0.262,0.762-0.888,0.829-1.567
				C397.083,77.156,396.605,76.537,396.147,76.483z M378.39,82.538c-0.179,0.618-0.546,1.509-1.351,2.243l-0.003,0.001
				c-0.812,0.736-2.071,1.312-4.03,1.29c-1.981-0.02-3.109-0.757-3.769-1.622c-0.042-0.054-0.081-0.108-0.116-0.16
				c-0.039-0.054-0.074-0.106-0.106-0.159c-0.032-0.049-0.061-0.099-0.089-0.15c-0.025-0.044-0.05-0.09-0.073-0.135
				c-0.021-0.036-0.039-0.071-0.054-0.107c-0.018-0.033-0.034-0.065-0.047-0.096c-0.025-0.053-0.049-0.108-0.072-0.161l0-0.002
				c-0.069-0.161-0.126-0.318-0.174-0.47c-0.003-0.003-0.002-0.007-0.005-0.012c-0.03-0.096-0.058-0.191-0.084-0.281
				c-0.045-0.164-0.08-0.318-0.109-0.453c-0.006-0.03-0.012-0.059-0.018-0.087c-0.006-0.028-0.012-0.055-0.018-0.083
				c-0.24-1.123-0.493-3.329,0.154-3.829c0.624-0.481,2.327-1.021,5.039-0.792c0.092,0.004,0.19,0.013,0.289,0.024
				c0.415,0.043,0.829,0.105,1.236,0.188c0.162,0.032,0.321,0.067,0.478,0.104c0.423,0.1,0.83,0.218,1.198,0.349
				c0.127,0.044,0.25,0.091,0.365,0.137c0.139,0.053,0.271,0.112,0.395,0.17c0.026,0.012,0.052,0.024,0.079,0.038
				c0.051,0.023,0.098,0.046,0.144,0.073c0.37,0.189,0.647,0.392,0.793,0.586C378.961,79.83,378.745,81.287,378.39,82.538z
				 M394.276,82.013c-0.243,0.877-0.766,2.771-2.703,3.605c-0.552,0.238-1.226,0.389-2.038,0.402
				c-2.156,0.042-3.346-0.755-4.005-1.671c-0.004-0.006-0.009-0.012-0.011-0.017c-0.026-0.035-0.049-0.07-0.071-0.103
				c-0.028-0.04-0.054-0.081-0.078-0.119c-0.013-0.02-0.026-0.041-0.038-0.063c-0.034-0.059-0.068-0.119-0.098-0.177
				c-0.036-0.069-0.069-0.137-0.101-0.208c-0.017-0.033-0.031-0.067-0.046-0.101c-0.009-0.02-0.015-0.038-0.023-0.057
				c-0.012-0.029-0.023-0.057-0.033-0.085c-0.008-0.023-0.018-0.045-0.025-0.066c-0.113-0.303-0.184-0.59-0.231-0.837
				c-0.233-1.249-0.327-2.703,0.212-3.395c0.538-0.692,2.573-1.454,4.513-1.674c0.447-0.051,0.865-0.079,1.253-0.087
				c0.05-0.001,0.1-0.002,0.148-0.002c0.055-0.001,0.107,0,0.16,0c0.148,0,0.294,0.005,0.433,0.01
				c0.052,0.002,0.105,0.004,0.157,0.008c0.07,0.005,0.138,0.009,0.204,0.015c0.116,0.008,0.23,0.02,0.339,0.034
				c0.223,0.026,0.431,0.059,0.623,0.099c0.05,0.01,0.099,0.021,0.147,0.032c0.011,0.002,0.025,0.004,0.038,0.009
				c0.032,0.007,0.065,0.014,0.099,0.024c0.05,0.01,0.101,0.026,0.149,0.039c0.061,0.016,0.122,0.035,0.178,0.052
				c0.106,0.033,0.202,0.068,0.292,0.105c0.018,0.006,0.034,0.012,0.051,0.021c0.292,0.118,0.51,0.25,0.658,0.378
				C394.996,78.677,394.583,80.889,394.276,82.013z"/>
		</g>
		<path style="fill:#FAFAFA;" d="M361.269,105.693c0,0,3.618,18.168,5.185,30.459c1.567,12.291,1.267,46.977,0.431,68.997
			c-0.609,16.038-3.005,45.683-3.005,45.683s-3.956,0.798-13.514-0.779c-8.136-1.343-12.255-3.757-14.001-4.8
			c0,0,1.51-45.076,2.651-60.811c1.052-14.515,1.017-22.496,1.017-22.496l-3.422-33.126c0,0,0.256-20.816,6.721-21.696
			C350.036,106.211,361.269,105.693,361.269,105.693z"/>
		<path style="fill:#27DEBF;" d="M355.086,135.493c0.034-0.764-0.071-2.405-0.203-4.482c-0.646-10.153,0.283-24.836,3.712-25.574
			l0.302,1.399c-2.508,0.54-2.899,19.152-2.585,24.084c0.135,2.12,0.241,3.795,0.205,4.635L355.086,135.493z"/>
		<g>
			<path style="fill:#FFBDA7;" d="M342.104,213.873c-1.656-2.817-1.741-4.909-4.23-7.42c-0.927-0.936-1.568-1.741-2.253-3.753
				c-0.765-2.248-0.723-4.601-0.903-7.059l-14.448,0.666c0.104,4.519,0.689,11.219,1.775,15.994
				c2.747,12.072,5.396,17.146,10.583,18.317c8.277,1.87,10.318-1.695,7.406-7.672c-2.148-4.41-2.654-7.88-2.654-7.88
				c1.452,1.494,2.104,2.184,3.088,2.757c1.957,1.139,3.466,0.236,3.929-0.432C344.761,216.872,343.401,216.079,342.104,213.873z"/>
			<path style="fill:#F0F0F0;" d="M345.957,107.123c0,0-7.682-0.116-11.986,3.767c-4.305,3.883-6.597,14.262-9.395,24.666
				c-2.798,10.404-5.261,20.515-5.999,27.751c-0.617,6.047,1.402,37.86,1.402,37.86s8.793,1.851,15.551-1.852l0.285-35.36
				l11.166-35.43C346.982,128.525,350.476,118.421,345.957,107.123z"/>
		</g>
		<path style="fill:#EBEBEB;" d="M361.012,99.769c-1.009-0.206-1.93,0.324-2.751,1.72c-0.821,1.396-2.631,4.343-2.631,4.343
			s-0.932,9.76-0.001,12.183c0.807,2.101,6.183,12.03,6.183,12.03s-0.354,9.649-0.437,12.523c-0.082,2.874,5.49,14.899,6.116,20.485
			c0,0,0.276-22.693-0.552-28.996c-1.44-10.97-3.242-24.097-5.669-28.593L361.012,99.769z"/>
		<g>
			<g>
				<path style="fill:#455A64;" d="M353.032,169.156c-0.041,0-0.081-0.001-0.121-0.002l0.038-1.001
					c0.889,0.027,2.118-0.467,3.285-1.222c-1.089-0.741-2.067-1.617-2.732-2.475c-1.613-2.086-5.147-16.991-4.057-20.463
					c0.914-2.911,3.773-9.329,6.32-9.438c0.022-0.001,0.044-0.001,0.066-0.001c2.54,0,5.884,6.07,7.031,8.869
					c1.382,3.369-0.874,18.52-2.305,20.733c-0.589,0.911-1.489,1.868-2.511,2.699c1.225,0.653,2.455,1.051,3.377,0.938l0.122,0.995
					c-1.232,0.151-2.857-0.398-4.379-1.272C355.769,168.483,354.254,169.156,353.032,169.156z M355.838,135.555
					c-0.011,0-0.021,0-0.032,0.001c-1.495,0.064-4.18,4.831-5.405,8.737c-1.001,3.19,2.396,17.614,3.893,19.55
					c0.659,0.85,1.693,1.742,2.82,2.465c1.061-0.816,2.016-1.793,2.6-2.696c1.329-2.055,3.489-16.714,2.219-19.81
					C360.394,140.041,357.346,135.555,355.838,135.555z"/>
			</g>
			<g>
				<path style="fill:#263238;" d="M362.954,168.227c0.035,0.812-0.596,1.498-1.408,1.533c-0.812,0.035-1.498-0.596-1.533-1.408
					c-0.035-0.812,0.596-1.498,1.408-1.533C362.234,166.785,362.92,167.415,362.954,168.227z"/>
			</g>
			<g>
				<path style="fill:#263238;" d="M354.4,168.591c0.035,0.812-0.596,1.498-1.408,1.533c-0.812,0.035-1.498-0.596-1.533-1.408
					c-0.035-0.812,0.596-1.498,1.408-1.533C353.679,167.149,354.365,167.779,354.4,168.591z"/>
			</g>
			<g>
				<g>
					<path style="fill:#27DEBF;" d="M363.111,149.99l-0.844-0.057c-0.18-0.012-0.315-0.173-0.303-0.352
						c0.171-2.798,0.077-4.859-0.26-5.683c-1.481-3.614-4.549-8.148-5.885-8.092c-1.336,0.057-4.008,4.835-5.178,8.562
						c-0.266,0.852-0.185,2.913,0.223,5.685c0.026,0.178-0.094,0.349-0.272,0.377l-0.836,0.128c-0.18,0.028-0.351-0.104-0.377-0.284
						c-0.46-3.112-0.517-5.25-0.171-6.356c0.627-1.999,3.576-9.488,6.548-9.614c2.973-0.127,6.546,7.085,7.34,9.023
						c0.44,1.07,0.564,3.205,0.37,6.347C363.452,149.857,363.293,150.002,363.111,149.99z"/>
				</g>
			</g>
		</g>
		<g>
			<path style="fill:#FAFAFA;" d="M378.253,103.244c1.32,0.114,2.464,2.065,5.511,2.967c5.677,1.682,10.836,4.264,12.431,7.754
				c2.638,5.773,3.061,6.913,4.012,32.654c0.951,25.741,1.261,99.048,1.261,99.048s-4.202,2.03-8.683,1.758
				c0,0,0.226-80.904-0.318-99.098c-0.543-18.194-3.297-27.067-7.237-33.062c-1.105-5.024-4.646-8.344-6.945-10.785L378.253,103.244
				z"/>
			<path style="fill:#EBEBEB;" d="M385.23,115.264c3.94,5.996,6.694,14.868,7.237,33.062c0.065,2.165,0.122,5.2,0.172,8.855l0,0.001
				c0,0,3.245-16.486,2.668-19.986c-0.577-3.5-4.369-10.761-4.369-10.761c0.494-6.017-0.907-12.859-3.215-16.981
				c-0.579-1.035-1.263-1.898-2.013-2.621c-0.48-0.482-1.865-1.309-2.451-1.666c-2.369-1.444-3.688-1.809-5.007-1.923l0.032,1.235
				C380.584,106.92,384.125,110.241,385.23,115.264z"/>
		</g>
	</g>
</g>
<g id="Character_2">
	<g id="Character_2_">
		<g id="XMLID_67_">
			<path style="fill:#B16668;" d="M266.237,106.956c7.551-0.116,11.614,3.277,17.156,11.976c4.726,7.418,15.676,25.185,18.757,30.54
				c3.475,6.041,3.96,8.494,1.236,13.016c-2.59,4.299-27.143,32.661-27.143,32.661l-6.337-11.243l15.78-26.376l-18.497-27.326
				L266.237,106.956z"/>
			<path style="fill:#27DEBF;" d="M265.752,106.625c5.46-0.289,8.856,0.843,12.148,4.033c3.293,3.19,20.243,31.624,20.243,31.624
				s-2.44,5.833-16.744,13.448l-13.983-19.037L265.752,106.625z"/>
			<path style="opacity:0.2;fill:#263238;" d="M265.752,106.625c5.46-0.289,8.856,0.843,12.148,4.033
				c3.293,3.19,20.243,31.624,20.243,31.624s-2.44,5.833-16.744,13.448l-13.983-19.037L265.752,106.625z"/>
			<g id="XMLID_89_">
				<g>
					<g id="XMLID_103_">
						<path id="XMLID_104_" style="fill:#FFA8A7;" d="M275.312,340.098c-0.152-4.25,2.94-46.124,2.94-46.124l-20.374,14.774
							c4.182,24.955,5.072,30.839,5.146,34.922l0,0c-0.032,0.095-0.116,0.442-0.11,1.045c0.018,4.848,5.489,7.463,9.757,10.695
							c1.686,1.276,6.589,5.046,11.544,7.536c3.101,1.558,9.398,1.7,10.178-0.295c-5.194-3.966-12.748-9.902-16.879-14.431
							C275.541,346.059,275.464,344.348,275.312,340.098z"/>
					</g>
					<g>
						<path style="fill:#455A64;" d="M303.247,367.871c0.266,0,0.668,2.935-0.779,4.183c-1.67,1.44-6.571,3.804-13.047,2.966
							c-6.476-0.838-9.983-2.842-12.574-5.011c-2.591-2.169-6.223-5.229-9.153-5.875c-2.721-0.6-5.676-1.834-6.547-2.675
							c-0.871-0.841-0.749-4.581-0.749-4.581L303.247,367.871z"/>
						<path id="XMLID_101_" style="fill:#27DEBF;" d="M262.981,342.486c0,0-0.813,0.009-0.98,0.875
							c-0.199,1.031-0.415,4.027-0.843,5.719c-0.595,2.351-0.993,7.169-0.637,9.085c0.357,1.916,4.793,3.248,7.627,4.328
							c2.895,1.103,6.244,3.376,9.184,5.801c3.043,2.51,9.444,5.121,13.665,5.09c4.994-0.036,10.617-1.653,11.906-3.968
							c1.595-2.865,0.345-4.525-7.06-7.957c-1.402-0.65-6.325-3.564-8.003-4.621c-4.54-2.858-9.037-6.837-11.126-11.894
							c-0.244-0.591-0.5-1.246-1.064-1.547c-0.433-0.231-0.954-0.198-1.44-0.13c-1.234,0.173-2.44,0.538-3.564,1.074
							c-0.994,0.474-2.404,1.025-2.382,2.297c0.007,0.443,0.135,0.875,0.279,1.294c0.089,0.26,0.158,0.605-0.069,0.759
							c-0.215,0.145-0.499-0.02-0.693-0.193c-0.775-0.695-1.343-1.585-1.996-2.396c-0.349-0.435-0.731-0.851-1.172-1.194
							c-0.401-0.312-0.912-0.467-1.268-0.821C262.894,343.639,263.002,343.083,262.981,342.486z"/>
						<path id="XMLID_99_" style="opacity:0.9;fill:#FFFFFF;" d="M262.981,342.486c0,0-0.813,0.009-0.98,0.875
							c-0.199,1.031-0.415,4.027-0.843,5.719c-0.595,2.351-0.993,7.169-0.637,9.085c0.357,1.916,4.793,3.248,7.627,4.328
							c2.895,1.103,6.244,3.376,9.184,5.801c3.043,2.51,9.444,5.121,13.665,5.09c4.994-0.036,10.617-1.653,11.906-3.968
							c1.595-2.865,0.345-4.525-7.06-7.957c-1.402-0.65-6.325-3.564-8.003-4.621c-4.54-2.858-9.037-6.837-11.126-11.894
							c-0.244-0.591-0.5-1.246-1.064-1.547c-0.433-0.231-0.954-0.198-1.44-0.13c-1.234,0.173-2.44,0.538-3.564,1.074
							c-0.994,0.474-2.404,1.025-2.382,2.297c0.007,0.443,0.135,0.875,0.279,1.294c0.089,0.26,0.158,0.605-0.069,0.759
							c-0.215,0.145-0.499-0.02-0.693-0.193c-0.775-0.695-1.343-1.585-1.996-2.396c-0.349-0.435-0.731-0.851-1.172-1.194
							c-0.401-0.312-0.912-0.467-1.268-0.821C262.894,343.639,263.002,343.083,262.981,342.486z"/>
						<path style="opacity:0.8;fill:#27DEBF;" d="M277.331,368.294c-1.292-1.065-2.663-2.094-4.039-3.015v-0.007
							c0,0,8.708,5.294,12.227,2.892c2.267-1.548,1.189-3.429,1.134-4.03c-0.055-0.601,5.538-3.175,7.739-3.437v0
							c0.613,0.339,1.128,0.612,1.45,0.762c7.404,3.432,8.654,5.092,7.059,7.957c-1.289,2.316-5.362,4.122-11.816,4.121
							C286.864,373.537,280.374,370.803,277.331,368.294z"/>
						<path style="opacity:0.8;fill:#FFFFFF;" d="M277.331,368.294c-1.292-1.065-2.663-2.094-4.039-3.015v-0.007
							c0,0,8.708,5.294,12.227,2.892c2.267-1.548,1.189-3.429,1.134-4.03c-0.055-0.601,5.538-3.175,7.739-3.437v0
							c0.613,0.339,1.128,0.612,1.45,0.762c7.404,3.432,8.654,5.092,7.059,7.957c-1.289,2.316-5.362,4.122-11.816,4.121
							C286.864,373.537,280.374,370.803,277.331,368.294z"/>
						<path style="fill:#27DEBF;" d="M286.044,362.381c4.604,1.842,2.64,2.701,1.351,2.886c-1.289,0.184-9.04-4.343-13.766-8.083
							c-4.93-3.901-8.039-8.166-9.87-9.598c-0.683-0.534-1.418-1.19-2.071-1.803c0.121-1.014,0.219-1.937,0.313-2.421
							c0.168-0.866,0.98-0.875,0.98-0.875c0.021,0.597-0.087,1.153,0.363,1.601c0.356,0.354,0.867,0.51,1.268,0.821
							c0.441,0.343,0.823,0.76,1.172,1.194c0.653,0.811,1.221,1.701,1.996,2.396C271.801,353.602,281.44,360.539,286.044,362.381z"
							/>
						<g>
							<g>
								<path style="fill:#FAFAFA;" d="M287.068,364.59c-0.102,0-0.203-0.034-0.289-0.103c-0.195-0.159-0.224-0.446-0.064-0.641
									c1.3-1.591,5.047-3.699,8.435-3.326c0.251,0.026,0.432,0.252,0.404,0.502c-0.026,0.249-0.226,0.424-0.502,0.404
									c-3.163-0.34-6.603,1.736-7.633,2.998C287.331,364.533,287.2,364.59,287.068,364.59z"/>
							</g>
							<g>
								<path style="fill:#FAFAFA;" d="M283.052,362.118c-0.102,0-0.203-0.034-0.288-0.103c-0.195-0.159-0.223-0.446-0.064-0.641
									c1.299-1.59,5.045-3.694,8.435-3.325c0.251,0.026,0.432,0.252,0.404,0.502c-0.026,0.249-0.245,0.431-0.502,0.404
									c-3.165-0.336-6.603,1.735-7.633,2.996C283.315,362.06,283.184,362.118,283.052,362.118z"/>
							</g>
							<g>
								<path style="fill:#FAFAFA;" d="M279.034,359.776c-0.102,0-0.203-0.033-0.288-0.103c-0.195-0.159-0.223-0.446-0.064-0.641
									c1.3-1.591,5.047-3.701,8.435-3.325c0.251,0.026,0.432,0.252,0.404,0.502c-0.027,0.25-0.241,0.431-0.502,0.404
									c-3.165-0.34-6.603,1.735-7.633,2.996C279.297,359.719,279.166,359.776,279.034,359.776z"/>
							</g>
							<g>
								<path style="fill:#FAFAFA;" d="M275.312,357.102c-0.102,0-0.203-0.034-0.288-0.103c-0.195-0.159-0.223-0.446-0.064-0.641
									c1.299-1.591,5.06-3.697,8.435-3.325c0.251,0.027,0.432,0.252,0.404,0.502c-0.027,0.25-0.243,0.429-0.502,0.404
									c-3.161-0.337-6.603,1.735-7.633,2.996C275.575,357.045,275.444,357.102,275.312,357.102z"/>
							</g>
							<g>
								<path style="fill:#FAFAFA;" d="M271.665,354.428c-0.099,0-0.199-0.032-0.283-0.099c-0.198-0.156-0.23-0.443-0.074-0.64
									c1.786-2.256,5.825-3.742,9.211-3.371c0.251,0.026,0.432,0.252,0.404,0.502c-0.027,0.249-0.244,0.424-0.502,0.404
									c-3.049-0.332-6.814,1.031-8.4,3.031C271.932,354.369,271.799,354.428,271.665,354.428z"/>
							</g>
						</g>
					</g>
				</g>
				<g>
					<g id="XMLID_97_">
						<path id="XMLID_98_" style="fill:#FFA8A7;" d="M235.985,308.886l-20.559-0.373c0.305,13.724,2.486,28.958,2.842,41.835
							c0.067,2.424-0.061,18.835,0.853,23.822c1.374,7.493,10.268,6.481,10.74,1.997c0.472-4.484-0.573-23.643-0.544-25.619
							c-0.078-8.258,3.792-22.198,5.822-37.023C235.239,312.797,235.891,309.596,235.985,308.886z"/>
					</g>
					<g>
						<path style="fill:#455A64;" d="M233.213,379.288c0.186,4.404-0.203,7.375-1.498,10.098c-1.295,2.724-4.144,3.825-7.188,3.371
							c-3.044-0.453-7.046-2.081-8.277-5.772c-1.23-3.691-1.319-6.296-1.053-10.424L233.213,379.288z"/>
						<path id="XMLID_95_" style="fill:#27DEBF;" d="M218.217,348.774c-1.213,0.219-0.983,6.133-1.096,12.09
							c-0.121,6.385-1.743,9.183-1.897,14.423c-0.177,5.987,0.399,8.596,2.829,11.961c2.429,3.365,10.112,6.133,13.21,0.652
							c2.525-4.468,2.182-9.107,1.32-14.981c-0.891-6.072-1.566-10.338-1.782-14.993c-0.207-4.449-0.333-8.768-1.444-9.153
							c-0.016,0.658-0.013,1.491-0.036,2.137c-0.017,0.496,0.101,2.904-0.581,2.996c-0.12-0.559-0.161-1.086-0.181-1.666
							c-0.017-0.504-0.114-1.045-0.479-1.394c-0.367-0.351-0.913-0.421-1.418-0.47c-1.227-0.117-2.459-0.209-3.693-0.196
							c-0.614,0.006-1.228,0.039-1.839,0.107c-0.495,0.056-1.075,0.156-1.527,0.377c-0.278,0.135-0.524,0.368-0.602,0.667
							c-0.057,0.221-0.019,0.454,0.004,0.681c0.041,0.409,0.031,0.822-0.031,1.228c-0.027,0.179-0.126,0.404-0.306,0.379
							c-0.145-0.02-0.219-0.191-0.235-0.337c-0.076-0.713-0.038-1.24-0.088-2.073c-0.023-0.385-0.013-0.914-0.047-1.299
							C218.264,349.533,218.229,349.154,218.217,348.774z"/>
						<path id="XMLID_93_" style="opacity:0.9;fill:#FFFFFF;" d="M218.217,348.774c-1.213,0.219-0.983,6.133-1.096,12.09
							c-0.121,6.385-1.743,9.183-1.897,14.423c-0.177,5.987,0.399,8.596,2.829,11.961c2.429,3.365,10.112,6.133,13.21,0.652
							c2.525-4.468,2.182-9.107,1.32-14.981c-0.891-6.072-1.566-10.338-1.782-14.993c-0.207-4.449-0.333-8.768-1.444-9.153
							c-0.016,0.658-0.013,1.491-0.036,2.137c-0.017,0.496,0.101,2.904-0.581,2.996c-0.12-0.559-0.161-1.086-0.181-1.666
							c-0.017-0.504-0.114-1.045-0.479-1.394c-0.367-0.351-0.913-0.421-1.418-0.47c-1.227-0.117-2.459-0.209-3.693-0.196
							c-0.614,0.006-1.228,0.039-1.839,0.107c-0.495,0.056-1.075,0.156-1.527,0.377c-0.278,0.135-0.524,0.368-0.602,0.667
							c-0.057,0.221-0.019,0.454,0.004,0.681c0.041,0.409,0.031,0.822-0.031,1.228c-0.027,0.179-0.126,0.404-0.306,0.379
							c-0.145-0.02-0.219-0.191-0.235-0.337c-0.076-0.713-0.038-1.24-0.088-2.073c-0.023-0.385-0.013-0.914-0.047-1.299
							C218.264,349.533,218.229,349.154,218.217,348.774z"/>
						<path style="fill:#27DEBF;" d="M215.331,373.579c-0.033,0.864-0.187,6.58,1.452,7.443c1.774,0.934,2.241-3.595,2.241-3.595
							s3.782-1.587,9.711,0.327c-0.2,0.945,0.98,3.877,2.475,3.082c1.484-0.789,1.444-7.324,1.444-7.409
							c0.805,5.634,1.059,10.136-1.392,14.474c-3.098,5.48-10.781,2.713-13.21-0.652c-2.43-3.365-3.006-5.974-2.829-11.961
							C215.241,374.688,215.28,374.123,215.331,373.579z"/>
						<path style="opacity:0.8;fill:#FFFFFF;" d="M215.331,373.579c-0.033,0.864-0.187,6.58,1.452,7.443
							c1.774,0.934,2.241-3.595,2.241-3.595s3.782-1.587,9.711,0.327c-0.2,0.945,0.98,3.877,2.475,3.082
							c1.484-0.789,1.444-7.324,1.444-7.409c0.805,5.634,1.059,10.136-1.392,14.474c-3.098,5.48-10.781,2.713-13.21-0.652
							c-2.43-3.365-3.006-5.974-2.829-11.961C215.241,374.688,215.28,374.123,215.331,373.579z"/>
						<path style="fill:#27DEBF;" d="M219.508,377.761c0.19,2.139-1.992,1.63-2.387-1.378c-0.395-3.007,0.537-10.331-0.001-15.519
							c0.113-5.956-0.117-11.871,1.096-12.09c0.002,0.073,0.012,0.145,0.015,0.218l0.14,3.006c0.008,0.438,0.01,0.827,0.06,1.287
							c0.408,4.36,0.64,12.842,0.665,16.864C219.122,374.17,219.318,375.622,219.508,377.761z"/>
						<path style="fill:#27DEBF;" d="M228.071,377.761c0.191-2.139,0.386-3.591,0.411-7.612c0.025-3.992,0.254-12.374,0.656-16.762
							c0.226-0.759,0.168-2.117,0.181-2.476c0.021-0.604,0.02-1.364,0.033-1.999c0.004-0.045,0.008-0.09,0.009-0.135
							c0.803,0.292,1.089,2.651,1.264,5.622c0.019,1.725-0.039,3.866-0.168,6.464c-0.538,5.188,0.405,12.554,0.01,15.561
							C230.074,379.432,227.881,379.9,228.071,377.761z"/>
						<g>
							<g>
								<path style="fill:#FAFAFA;" d="M228.874,377.915c-0.057,0-0.114-0.011-0.17-0.032c-0.046-0.019-4.713-1.842-9.518-0.029
									c-0.237,0.088-0.499-0.032-0.587-0.266c-0.089-0.236,0.031-0.497,0.266-0.587c5.141-1.94,9.974-0.046,10.179,0.036
									c0.233,0.093,0.347,0.358,0.252,0.592C229.225,377.806,229.053,377.915,228.874,377.915z"/>
							</g>
							<g>
								<path style="fill:#FAFAFA;" d="M229.428,373.175c-0.052,0-0.103-0.008-0.155-0.026c-0.052-0.018-5.277-1.856-10.657-0.028
									c-0.238,0.077-0.496-0.047-0.578-0.286c-0.081-0.238,0.047-0.498,0.286-0.578c5.69-1.93,11.033-0.046,11.259,0.034
									c0.237,0.086,0.36,0.347,0.275,0.584C229.79,373.06,229.615,373.175,229.428,373.175z"/>
							</g>
							<g>
								<path style="fill:#FAFAFA;" d="M218.471,368.686c-0.173,0-0.339-0.099-0.415-0.266c-0.103-0.23-0.003-0.5,0.226-0.605
									c5.296-2.408,10.992-0.166,11.233-0.068c0.234,0.093,0.347,0.358,0.252,0.592c-0.095,0.233-0.364,0.341-0.592,0.252
									c-0.054-0.021-5.588-2.194-10.514,0.054C218.599,368.674,218.535,368.686,218.471,368.686z"/>
							</g>
							<g>
								<path style="fill:#FAFAFA;" d="M218.367,364.502c-0.17,0-0.333-0.096-0.411-0.259c-0.109-0.229-0.012-0.5,0.215-0.608
									c5.813-2.766,11.227-0.234,11.454-0.125c0.227,0.109,0.323,0.38,0.215,0.608c-0.109,0.227-0.386,0.325-0.608,0.215
									c-0.05-0.025-5.258-2.447-10.668,0.125C218.5,364.488,218.433,364.502,218.367,364.502z"/>
							</g>
							<g>
								<path style="fill:#EBEBEB;" d="M218.27,359.798c-0.167,0-0.329-0.093-0.408-0.254c-0.111-0.226-0.02-0.499,0.206-0.61
									c5.438-2.684,11.3-0.12,11.547-0.007c0.23,0.102,0.332,0.372,0.229,0.602c-0.102,0.23-0.371,0.336-0.602,0.229
									c-0.057-0.025-5.721-2.5-10.769-0.007C218.406,359.783,218.338,359.798,218.27,359.798z"/>
							</g>
						</g>
					</g>
				</g>
				<path id="XMLID_92_" style="fill:#27DEBF;" d="M225.726,166.892c-2.717,5.753-5.885,16.826-6.454,24.218
					c-2.341,30.381-1.078,73.995-1.078,73.995c-0.269,3.175-2.281,10.383-3.633,24.356c-1.598,16.51,0.406,72.46,0.406,72.46
					s9.878,5.886,17.561-0.812c0,0,8.932-76.91,11.003-93.325c1.807-14.326,6.861-45.32,6.861-45.32l5.912,45.837
					c0,0-0.548,12.889-0.166,21.221c0.444,9.691,3.153,59.06,3.153,59.06s13.57,4.591,19.634-1.928c0,0,1.44-68.481,1.646-80.143
					c0.403-22.875,0.008-64.555-3.71-88.54L225.726,166.892z"/>
				<path id="XMLID_91_" style="opacity:0.2;fill:#263238;" d="M225.726,166.892c-2.717,5.753-5.885,16.826-6.454,24.218
					c-2.341,30.381-1.078,73.995-1.078,73.995c-0.269,3.175-2.281,10.383-3.633,24.356c-1.598,16.51,0.406,72.46,0.406,72.46
					s9.878,5.886,17.561-0.812c0,0,8.932-76.91,11.003-93.325c1.807-14.326,6.861-45.32,6.861-45.32l5.912,45.837
					c0,0-0.548,12.889-0.166,21.221c0.444,9.691,3.153,59.06,3.153,59.06s13.57,4.591,19.634-1.928c0,0,1.44-68.481,1.646-80.143
					c0.403-22.875,0.008-64.555-3.71-88.54L225.726,166.892z"/>
				<path id="XMLID_90_" style="opacity:0.2;fill:#263238;" d="M250.39,222.463l2.121-14.584c0,0,12.317-1.646,17.897-6.892
					c0,0-4.193,7.682-14.513,9.173l-2.179,13.188l1.878,39.46L250.39,222.463z"/>
			</g>
			<g id="XMLID_86_">
				<g id="XMLID_87_">
					<path id="XMLID_88_" style="fill:#27DEBF;" d="M275.933,144.936c-0.539,5.993-0.67,17.712-0.67,17.712
						c2.168,15.323,3.909,30.281,3.909,30.281c-22.878,12.208-57.414,2.327-61.758-2.705c2.146-15.002,6.889-24.341,9.976-32.785
						l-5.729-25.532c0,0,9.873-8.208,8.977-24.86l13.519-1.402l12.905,0.365l9.167,0.651c2.73,2.553,7.615,7.888,11.985,14.943
						C282.661,128.78,282.829,137.711,275.933,144.936z"/>
				</g>
			</g>
			<path style="opacity:0.1;" d="M260.405,144.018c0,0-5.971,5.279-13.304,3.195c-7.333-2.083-8.781-8.285-8.781-8.285
				s-0.236,8.246,8.988,10.462C256.209,151.528,260.405,144.018,260.405,144.018z"/>
			<g id="XMLID_68_">
				<path style="fill:#37474F;" d="M241.35,97.543c-0.031-2.291-3.216-7.065-6.16-12.408c-2.944-5.343-6.106-13.957,0-22.026
					c6.106-8.069,19.93-12.867,28.065-9.05c8.136,3.816,10.418,13.12,10.418,13.12L241.35,97.543z"/>
				<path style="fill:#27DEBF;" d="M232.603,78.488c-0.005-0.019-0.003-0.039-0.01-0.056c-0.202-0.474-0.841-0.792-1.302-0.966
					c-0.593-0.224-1.273-0.331-1.906-0.303c-0.775,0.034-2.243,0.548-2.198,1.543c0.053,1.187,2,1.313,2.843,1.274
					c0.693-0.032,1.463-0.098,2.151-0.332c-0.139,1.387-0.038,2.828-0.59,4.121c-0.258,0.605-0.63,1.169-1.144,1.585
					c-0.706,0.57-1.53,0.672-2.41,0.508c-0.461-0.086-0.268,0.59,0.049,0.685c1.669,0.499,3.219-0.347,4.053-1.811
					c1.009-1.771,0.637-3.819,1.066-5.736C233.275,78.679,232.9,78.448,232.603,78.488z M228.789,79.108
					c-0.15-0.033-0.54-0.099-0.626-0.245c-0.067-0.114,0.043-0.213,0.136-0.308c0.681-0.701,1.708-0.593,2.575-0.404
					c0.249,0.054,0.478,0.12,0.711,0.224c0.123,0.055,0.243,0.116,0.36,0.181c0.049,0.027,0.098,0.051,0.145,0.08
					c0.03,0.02,0.06,0.039,0.09,0.058c-0.584,0.342-1.348,0.413-1.998,0.462C229.722,79.192,229.242,79.207,228.789,79.108z"/>
				<g id="XMLID_84_">
					<path id="XMLID_85_" style="fill:#B16668;" d="M268.157,60.067c3.051,1.56,7.319,4.892,6.659,20.442
						c-0.516,12.149-4.955,17.748-7.04,18.816c-2.085,1.068-4.64,1.313-8.698,0.888v6.912c0,0,4.683,12.417,1.846,18.729
						c0,0-6.489-3.469-10.482-7.31c-6.879-6.618-8.938-9.709-8.938-9.709l-0.25-18.397c0,0-2.704,1.978-6.927-1.282
						c-3.486-2.691-4.898-7.502-2.48-10.277c1.265-1.451,3.261-2.053,5.135-1.711c2.085,0.38,3.732,1.904,4.671,3.746
						c0.189,0.371,0.477,0.752,0.89,0.801c0.31,0.036,0.616-0.134,0.817-0.372c0.201-0.238,0.315-0.537,0.414-0.832
						c0.861-2.575,0.458-5.284,1.064-7.905c0.468-2.026,1.397-3.933,2.639-5.596c2.894-3.874,7.371-6.286,12.098-7.071
						C262.415,59.466,265.329,59.559,268.157,60.067z"/>
				</g>
				<g id="XMLID_83_">
					<path style="fill:#B16668;" d="M273.781,67.544v0.01c0,0.265-5.423-4.146-13.626-2.908c-4.824,0.727-10.158,2.721-14.539,5.58
						c0.491-1.14,1.12-2.22,1.857-3.213c2.898-3.88,7.378-6.287,12.103-7.073c2.839-0.472,5.757-0.383,8.576,0.128
						C270.048,61.041,272.426,62.691,273.781,67.544z"/>
				</g>
				<g id="XMLID_81_">
					<path id="XMLID_82_" style="fill:#263238;" d="M256.172,77.034c0.092,0.951-0.613,1.819-1.574,1.937
						c-0.961,0.119-1.815-0.556-1.906-1.507c-0.091-0.951,0.613-1.818,1.574-1.937C255.227,75.408,256.08,76.083,256.172,77.034z"/>
				</g>
				<g id="XMLID_79_">
					<path id="XMLID_80_" style="fill:#9A4A4D;" d="M256.685,88.644l6.11,1.546c-0.393,1.745-2.079,2.814-3.766,2.388
						C257.341,92.151,256.292,90.39,256.685,88.644z"/>
				</g>
				<g id="XMLID_77_">
					<path id="XMLID_78_" style="fill:#263238;" d="M271.885,72.92l-3.544-1.758c0.452-1.005,1.612-1.426,2.591-0.94
						C271.911,70.707,272.337,71.915,271.885,72.92z"/>
				</g>
				<g id="XMLID_75_">
					<path id="XMLID_76_" style="fill:#263238;" d="M254.662,71.571l-3.58,1.683c-0.506-0.979-0.114-2.149,0.875-2.614
						C252.945,70.175,254.157,70.592,254.662,71.571z"/>
				</g>
				<g id="XMLID_73_">
					<path id="XMLID_74_" style="fill:#263238;" d="M270.312,76.188c0.092,0.951-0.612,1.818-1.572,1.937
						c-0.96,0.119-1.813-0.556-1.904-1.507c-0.092-0.951,0.612-1.818,1.572-1.937C269.367,74.562,270.22,75.237,270.312,76.188z"/>
				</g>
				<g id="XMLID_71_">
					<polygon id="XMLID_72_" style="fill:#9A4A4D;" points="261.4,75.841 262.272,85.789 267.417,83.844 					"/>
				</g>
				<g id="XMLID_69_">
					<path id="XMLID_70_" style="fill:#9A4A4D;" d="M259.078,100.213c-4.28-0.636-13.353-2.924-14.92-6.284
						c0,0,0.75,2.737,3.487,4.808c2.738,2.071,11.433,3.922,11.433,3.922V100.213z"/>
				</g>
			</g>
			<path style="fill:#27DEBF;" d="M273.781,67.544c0,0-2.224-3.573-12.381-2.615c-4.856,0.458-11.402,2.438-15.784,5.297
				c-3.143,2.043-5.786,4.539-7.387,7.328c-0.393-0.177-0.806-0.305-1.248-0.383c-1.876-0.344-3.871,0.255-5.138,1.709
				c-0.02,0.02-0.029,0.039-0.049,0.059c-1.857-3.389-3.225-6.825-2.459-11.845c1.081-7.073,8.094-11.955,15.888-15.269
				c9.208-3.914,19.303-2.912,23.35,0.9C272.611,56.527,273.673,67.18,273.781,67.544z"/>
		</g>
		<g>
			<path style="fill:#B16668;" d="M230.828,194.723c-4.576-3.013-7.48-6.662-7.48-6.662c2.322,0.149,4.211,0.223,5.456-0.04
				c2.474-0.522,2.955-1.562,2.839-2.463c-0.09-0.701-1.813-0.477-4.539-1.333c-3.481-1.094-5.581-1.714-9.568-2.254
				c-1.458-0.197-2.825-1.313-3.904-2.649c-0.862-1.068-5.937-9.968-10.418-19.481l20.71-25.626
				c5.167-5.788,11.344-16.172,5.146-26.813c-14.227,2.999-14.118,2.649-42.578,44.774c-4.914,7.273-4.509,10.699,13,32.375
				c3.172,3.927,7.847,9.212,11.367,12.497c10.107,9.434,17.417,10.114,21.622,7.559
				C238.226,201.116,236.357,198.363,230.828,194.723z"/>
			<path style="fill:#27DEBF;" d="M230.639,107.046c-7.791,0.356-13.524,1.459-19.014,8.151
				c-5.867,7.151-19.457,26.794-19.457,26.794s3.644,11.226,18.284,14.994l18.436-23.677
				C228.889,133.307,235.632,120.112,230.639,107.046z"/>
			<path style="opacity:0.2;fill:#263238;" d="M230.639,107.046c-7.791,0.356-13.524,1.459-19.014,8.151
				c-5.867,7.151-19.457,26.794-19.457,26.794s3.644,11.226,18.284,14.994l18.436-23.677
				C228.889,133.307,235.632,120.112,230.639,107.046z"/>
		</g>
	</g>
</g>
<g id="Character_1">
	<g id="Character_19_">
		<path style="fill:#E6E6E6;" d="M116.325,115.699c-6.989,0.196-8.973,2.996-13.189,9.018c-4.216,6.021-18.545,28.822-18.545,28.822
			l-20.305,7.798l2.673,11.848c0,0,17.185-3.426,25.972-5.228c2.877-0.59,4.168-1.682,5.523-3.751
			c1.125-1.718,12.415-19.478,12.415-19.478L116.325,115.699z"/>
		<path style="fill:#E0E0E0;" d="M121.681,115.892c-6.612-1.654-9.529,2.038-11.73,6.076c-3.524,6.466-5.64,19.658-5.938,43.778
			c-0.191,15.511-5.589,34.259-6.551,48.971c-1.444,22.109-2.144,39.317-2.144,39.317s18.926-2.688,39.443-2.321L121.681,115.892z"
			/>
		<g id="XMLID_3556_">
			<path style="fill:#FFA8A7;" d="M159.784,340.815c0,0,3.962-27.141,2.307-43.052c-1.42-13.652-3.427-19.368-3.712-22.47
				c0,0-2.295-32.046-1.671-59.192c0.296-12.875-0.36-27.059-9.516-42.234l-0.328-0.6c-0.815,4.975-8.481,8.198-15.322,8.959
				c-6.589,0.733-14.802-0.585-24.606-3.91c-2.183,12.876-4.669,37.401-7.201,64.138c-1.238,13.07-1.025,24.066-1.24,32.465
				c-0.292,11.401,0.744,56.066,0.744,56.066l-0.015,1.882c-0.069,2.086-0.575,3.53-2.029,6.835
				c-1.472,3.347-4.114,8.12-7.52,11.558c-0.981,0.991-7.735,6.516-8.643,7.711c-2.928,3.196,2.852,5.243,7.209,4.808
				c4.597-0.459,11.765-1.962,13.873-4.683c1.405-1.812,2.63-8.284,4.073-10.12c4.867-6.193,6.87-8.86,6.972-10.887
				c0.184-3.663-1.029-5.155-1.41-7.24c0.518-4.311,9.274-26.87,9.854-39.46c0.276-6-1.051-16.641-1.051-16.641l7.696-43.758
				c1.706,12.305,4.951,40.023,6.128,48.847c1.622,12.152,7.614,32.715,11.404,48.856c1.423,6.063,2.126,8.772,2.473,12.725
				c0.001,0.015,0.088,1.409,0.088,1.423c0.038,1.793,0.184,20.921,0.759,24.974c1.199,8.465,8.716,7.654,10.14,0.886
				c1.211-5.758,0.531-23.734,0.576-25.935L159.784,340.815z"/>
			<path id="XMLID_3567_" style="fill:#37474F;" d="M160.03,340.704c2.11,0.106,0.45,8.229,0.821,13.503
				c0.397,5.653,2.107,9.828,2.482,14.465c0.429,5.298-0.115,7.493-2.152,11.769c-1.584,3.325-9.133,7.704-11.78,2.785
				c-2.679-4.978-3.073-10.451-2.576-15.695c0.514-5.421,0.973-9.382,1.22-13.509c0.218-3.638-2.302-12.284,0.45-12.716l0.088,1.423
				c0.917,1.995,10.241,3.662,11.474-0.075L160.03,340.704z"/>
			<g id="XMLID_3559_">
				<g id="XMLID_3561_">
					<path id="XMLID_3566_" style="fill:#263238;" d="M113.7,342.426c0.558,2.655-0.35,9.85-0.35,9.85s-1.222,2.452-5.34,3.974
						l-1.489-10.1L113.7,342.426z"/>
					<polygon id="XMLID_3564_" points="108.01,356.25 99.152,353.012 97.26,344.994 107.15,350.421 					"/>
					<path id="XMLID_3563_" style="fill:#37474F;" d="M99.468,332.755l0.016-1.882c-1.235,0.55-4.238,10.257-8.08,16.855
						c-3.508,6.025-10.171,9.226-12.385,11.825c-2.964,3.476,2.413,8.263,11.349,6.66c4.436-0.796,11.198-3.392,13.105-6.304
						c1.907-2.912,2.7-8.351,4.251-10.486c1.551-2.135,5.148-4.535,5.976-6.999c0.455-1.353,0.884-4.375,0.209-6.867
						c-0.62-2.286-1.136-5.044-1.916-4.823l-0.109,1.719c-0.635,1.191-2.825,2.53-7.314,2.624
						C102.435,335.124,100.379,334.729,99.468,332.755z"/>
				</g>
			</g>
			<path style="fill:#455A64;" d="M122.77,296.216c0.887-11.049-0.745-20.636-0.745-20.636l6.459-43.036
				c0,0,4.402,40.965,5.14,47.315c0.738,6.351,12.54,74.844,12.54,74.844c6.038,3.579,13.79,2.44,18.831-0.234
				c-0.023-27.704-0.86-55.455-1.868-63.128c-0.803-6.108-3.59-15.524-3.59-15.524s-0.641-40.41-0.606-55.746
				c0.035-15.336-1.122-25.603-4.04-32.501c-2.918-6.897-8.039-14.387-8.039-14.387s-2.245,7.566-20.007,7.585
				c-17.762,0.019-19.723-4.483-19.723-4.483s-5.198,18.164-6.934,45.605c-1.4,22.114-1.718,32.171-2.137,42.031
				c-0.357,8.397-0.582,18.102-0.773,35.071c-0.145,12.802-1.957,40.963-1.957,40.963s8.67,4.549,22.989-0.636
				C118.308,339.319,121.882,307.265,122.77,296.216z"/>
			<path style="fill:#37474F;" d="M128.483,232.544l-3.516-26.022c0,0-7.307-0.293-13.589-6.575c0,0,1.978,6.302,10.323,9.841
				l4.708,22.831l-3.438,36.649L128.483,232.544z"/>
		</g>
		<path id="XMLID_3242_" style="fill:#27DEBF;" d="M136.788,117.703l8.366,0.889c5.551,1.358,8.058,3.806,8.629,8.726
			c0.266,2.292,1.651,8.396-0.292,16.038c-1.76,6.924-6.444,23.876-6.444,23.876s6.069,15.251,8.945,23.001
			c-19.737,12.871-44.094,7.786-52.277,0c0.692-7.368,3.3-14.222,3.885-20.792c0,0-0.426-10.257-1.24-14.708
			c-6.243-6.814-5.446-13.333-2.645-18.588c5.173-9.704,12.981-18.231,15.502-18.22L136.788,117.703z"/>
		<path id="XMLID_3241_" style="opacity:0.6;fill:#FFFFFF;" d="M136.788,117.703l8.366,0.889c5.551,1.358,8.058,3.806,8.629,8.726
			c0.266,2.292,1.651,8.396-0.292,16.038c-1.76,6.924-6.444,23.876-6.444,23.876s6.069,15.251,8.945,23.001
			c-19.737,12.871-44.094,7.786-52.277,0c0.692-7.368,3.3-14.222,3.885-20.792c0,0-0.426-10.257-1.24-14.708
			c-6.243-6.814-5.446-13.333-2.645-18.588c5.173-9.704,12.981-18.231,15.502-18.22L136.788,117.703z"/>
		<path style="fill:#EBEBEB;" d="M121.586,111.824c-2.473,0-2.76,0.415-4.892,3.267c-1.271,1.701-9.289,14.933-9.289,14.933
			s6.384-8.394,11.192-10.938c1.962-1.038,2.978-1.184,2.978-1.184L121.586,111.824z"/>
		<path style="fill:#FAFAFA;" d="M137.262,117.703c0,0-6.894,18.122-8.461,30.414c-1.567,12.291,3.818,49.45,4.654,71.47
			c0.609,16.038,2.124,39.121,2.124,39.121s7.665,0.866,14.669-0.457c8.103-1.53,10.614-2.856,15.243-5.881
			c0,0-4.004-40.266-5.976-55.918c-1.857-14.736-9.776-29.258-9.776-29.258l9.519-39.412c0,0-0.469-6.647-6.724-8.504
			C146.58,117.511,137.262,117.703,137.262,117.703z"/>
		<path style="fill:#F5F5F5;" d="M149.454,154.528c0,0-1.29-4.691-3.077-12.697c-1.787-8.007-1.501-12.653-0.885-16.152
			l10.344,15.144l-6.095,26.36l-0.003,0.01c0,0,6.517,11.95,9.113,25.17c0,0,0,0,0,0.001c-6.232-17.637-13.06-22.925-13.06-22.925
			L149.454,154.528z"/>
		<g>
			<path style="fill:#27DEBF;" d="M139.86,139.96c-0.033-0.764,0.071-2.405,0.204-4.482c0.645-10.153,0.942-19.327-2.487-20.065
				l-0.302,1.399c2.508,0.54,1.674,13.642,1.36,18.575c-0.135,2.12-0.241,3.795-0.205,4.635L139.86,139.96z"/>
		</g>
		<path style="fill:#FFA8A7;" d="M158.672,222.287c1.325-2.523,1.311-4.348,3.375-6.639c0.768-0.854,1.293-1.582,1.805-3.363
			c0.573-1.99,0.438-4.038,0.492-6.185l11.852,0.176c0.098,3.941,0.628,9.602-0.12,13.806c-1.889,10.629-3.985,15.159-8.453,16.395
			c-7.131,1.973-9.057-1.046-6.771-6.374c1.687-3.931,1.983-6.974,1.983-6.974c-1.203,1.362-1.741,1.99-2.575,2.531
			c-1.657,1.074-3.008,0.35-3.441-0.213C156.484,225.01,157.635,224.262,158.672,222.287z"/>
		<path style="fill:#F0F0F0;" d="M147.105,118.22c0,0,7.667-0.483,12.153,3.19c4.485,3.673,7.271,13.931,10.564,24.188
			c3.293,10.258,6.236,20.239,7.319,27.432c0.906,6.011-0.276,37.835-0.276,37.835s-6.781,0.949-13.708-2.427l-3.204-33.936
			l-12.848-34.856C147.105,139.646,143.131,129.72,147.105,118.22z"/>
		<g id="XMLID_3202_">
			<polygon style="fill:#27DEBF;" points="51.965,142.76 89.967,156.167 100.427,201.388 99.579,202.291 63.45,188.797 
				51.117,143.663 			"/>
			<polygon style="opacity:0.35;" points="89.119,157.071 99.579,202.291 100.427,201.388 89.967,156.167 			"/>
			<polygon id="XMLID_3240_" style="opacity:0.25;" points="51.117,143.663 89.119,157.071 99.579,202.291 63.45,188.797 			"/>
			<g id="XMLID_3238_" style="opacity:0.2;">
				<path id="XMLID_3239_" d="M69.1,179.606c-0.352,0.889-3.263,2.844-7.48,2.493l-0.714-2.611L69.1,179.606z"/>
			</g>
			<g id="XMLID_3236_" style="opacity:0.1;">
				<path id="XMLID_3237_" d="M62.564,152.926c0,0-0.14-0.679-0.313-1.516c-0.173-0.837,2.057-0.398,4.981,0.982l6.859,2.077
					c2.924,1.38,5.688,2.408,5.861,3.245l0.313,1.516L62.564,152.926z"/>
			</g>
			<g id="XMLID_3234_">
				<path id="XMLID_3235_" style="fill:#37474F;" d="M60.306,146.068c-0.11-0.524,0.757-0.417,1.971-0.094l2.189,0.745
					c0,0-0.892-2.198,4.288-0.795c5.699,1.544,5.821,4.389,5.821,4.389s0.65,0.32,2.738,0.998c1.892,0.614,2.102,0.985,2.256,1.516
					l0.28,0.962l-19.37-6.822C60.478,146.966,60.416,146.592,60.306,146.068z"/>
			</g>
			<g id="XMLID_3232_">
				<path id="XMLID_3233_" style="fill:#37474F;" d="M62.342,148.976c1.794,0.814,2.539,1.211,2.807,2.501
					c0.306,1.474,0.37,2.089,0.37,2.089l10.087,3.98c0,0-0.546-2.17-0.68-2.894c-0.134-0.724,1.2-0.73,2.948,0.078l-0.416-1.81
					l-15.686-5.833L62.342,148.976z"/>
			</g>
			<g id="XMLID_3205_">
				<path id="XMLID_3228_" style="fill:#37474F;" d="M62.044,152.952c0,0-0.14-0.679-0.313-1.516
					c-0.173-0.837,2.057-0.398,4.981,0.982l6.859,2.077c2.924,1.38,5.688,2.408,5.861,3.245l0.313,1.516L62.044,152.952z"/>
			</g>
			<g id="XMLID_3203_">
				<path id="XMLID_3204_" style="fill:#FFA8A7;" d="M55.344,159.133c0,0,1.346,4.959,1.698,6.215
					c0.352,1.256,6.578,4.125,9.694,4.514c5.958,0.743,6.635,2.035,5.202,6.268c-1.321,3.904-5.202,5.373-10.582,4.739
					c-2.522-0.297-6.01-2.535-7.378-6.443c-1.745-4.986-0.805-10.31-1.498-13.222C51.789,158.293,53.827,157.397,55.344,159.133z"/>
			</g>
		</g>
		<g id="XMLID_2870_">
			<path id="XMLID_3201_" style="fill:#455A64;" d="M151.324,73.327l-5.346,4.374c-1.226-1.383-1.023-3.484,0.453-4.691
				C147.907,71.802,150.098,71.944,151.324,73.327z"/>
			<path style="fill:#455A64;" d="M137.36,112.479c0-3.352,7.81-8.371,11.841-15.429c4.031-7.058,2.024-18.626-3.504-20.408
				c0,0-0.104-10.54-14.323-13.339c-14.219-2.799-18.688-5.945-21.207-6.393c-2.52-0.448-3.029,8.512,0.31,10.863
				c0,0-3.375-1.186-6.396-4.102c-2.071-1.999-2.889,8.422,1.574,12.077c0,0-3.695,2.167-3.247,7.653
				c0.448,5.486,4.406,7.937,7.073,8.503L137.36,112.479z"/>
			<path id="XMLID_3200_" style="fill:#FFA8A7;" d="M113.107,72.96c-3.429,1.486-6.688,6.729-6.639,21.399
				c0.042,12.434,3.854,15.578,5.78,16.501c1.926,0.922,5.684,0.456,9.339-0.105l-0.013,7.148c0,0-2.739,2.687-1.78,4.386
				c0.903,1.601,4.513,3.124,10.024,1.395c6.25-1.961,7.68-6.135,7.68-6.135l0.124-15.638c0,0,2.103,2.21,5.801-1.03
				c3.053-2.674,4.151-7.261,1.859-9.777c-2.292-2.517-5.239-2.721-7.898,0.093l-1.911-1.007c-3.396-0.397-8.43-0.968-12.067-2.822
				C114.008,82.578,113.038,77.363,113.107,72.96z"/>
			<path id="XMLID_3098_" style="fill:#455A64;" d="M137.36,89.17l-0.042,6.907c-1.847,0.062-3.336-1.434-3.323-3.342
				C134.006,90.828,135.514,89.232,137.36,89.17z"/>
			<g id="XMLID_3044_">
				<path id="XMLID_3094_" style="fill:#263238;" d="M112.782,90.135c0.035,0.946-0.676,1.738-1.587,1.769
					c-0.911,0.031-1.678-0.712-1.712-1.659c-0.035-0.946,0.676-1.738,1.587-1.769C111.981,88.446,112.747,89.189,112.782,90.135z"/>
			</g>
			<g id="XMLID_3027_">
				<path id="XMLID_3036_" style="fill:#263238;" d="M125.941,90.872c0.037,1.016-0.726,1.866-1.704,1.899
					c-0.978,0.033-1.8-0.764-1.837-1.78c-0.038-1.017,0.726-1.866,1.703-1.899C125.081,89.06,125.904,89.857,125.941,90.872z"/>
			</g>
			<path id="XMLID_3011_" style="fill:#F28F8F;" d="M123.251,101.052l-5.325,1.655c0.41,1.585,1.934,2.5,3.404,2.043
				C122.801,104.292,123.661,102.637,123.251,101.052z"/>
			<path id="XMLID_3010_" style="fill:#263238;" d="M108.414,87.066l4.253-1.689c-0.387-1.236-1.772-1.77-2.947-1.303
				C108.546,84.541,108.027,85.831,108.414,87.066z"/>
			<polygon id="XMLID_3009_" style="fill:#F28F8F;" points="116.809,88.794 117.021,98.979 111.547,97.757 			"/>
			<path id="XMLID_3002_" style="fill:#F28F8F;" d="M121.588,110.755c3.849-0.45,11.792-2.66,13.085-5.887
				c0,0-0.449,2.035-2.847,4.095c-2.4,2.059-10.242,4.198-10.242,4.198L121.588,110.755z"/>
		</g>
		<path style="fill:#EBEBEB;" d="M137.544,111.872c1.009-0.206,1.905,0.23,2.726,1.626c0.821,1.396,2.631,4.343,2.631,4.343
			s0.932,9.76,0.001,12.183c-0.807,2.101-9.732,9.997-9.732,9.997s2.33,8.767,2.412,11.641c0.082,2.874-5.533,13.799-6.159,19.384
			c0,0-1.767-17.571-0.94-23.875c1.44-10.97,6.589-25.128,9.016-29.623L137.544,111.872z"/>
		<g>
			<g>
				<path style="fill:#455A64;" d="M137.773,172.255c-1.522,0.874-3.147,1.423-4.379,1.272l0.122-0.995
					c0.922,0.112,2.152-0.285,3.377-0.938c-1.022-0.83-1.922-1.788-2.511-2.699c-1.431-2.213-3.686-17.364-2.305-20.733
					c1.147-2.798,4.491-8.869,7.031-8.869c0.023,0,0.045,0.001,0.066,0.001c2.546,0.109,5.406,6.527,6.32,9.438
					c1.089,3.472-2.444,18.378-4.057,20.463c-0.665,0.858-1.643,1.734-2.732,2.475c1.167,0.754,2.395,1.249,3.285,1.222l0.038,1.001
					c-0.04,0.001-0.08,0.002-0.121,0.002C140.685,173.896,139.17,173.223,137.773,172.255z M133.005,148.542
					c-1.27,3.095,0.89,17.755,2.219,19.81c0.584,0.903,1.54,1.88,2.6,2.696c1.127-0.723,2.162-1.615,2.82-2.465
					c1.498-1.936,4.895-16.36,3.893-19.55c-1.225-3.905-3.91-8.673-5.405-8.737c-0.011-0.001-0.021-0.001-0.032-0.001
					C137.593,140.295,134.545,144.781,133.005,148.542z"/>
			</g>
			<g>
				<path style="fill:#263238;" d="M131.984,172.967c-0.035,0.812,0.596,1.498,1.408,1.533c0.812,0.035,1.498-0.596,1.533-1.408
					c0.035-0.812-0.596-1.498-1.408-1.533C132.705,171.525,132.019,172.155,131.984,172.967z"/>
			</g>
			<g>
				<path style="fill:#263238;" d="M140.539,173.331c-0.035,0.812,0.596,1.498,1.408,1.533c0.812,0.035,1.498-0.596,1.533-1.408
					c0.035-0.812-0.596-1.498-1.408-1.533C141.26,171.889,140.574,172.519,140.539,173.331z"/>
			</g>
			<g>
				<g>
					<path style="fill:#27DEBF;" d="M131.828,154.73l0.844-0.057c0.18-0.012,0.314-0.173,0.303-0.352
						c-0.171-2.798-0.077-4.859,0.26-5.684c1.481-3.614,4.549-8.148,5.885-8.091c1.336,0.057,4.008,4.835,5.178,8.562
						c0.266,0.851,0.184,2.913-0.223,5.685c-0.026,0.178,0.094,0.349,0.272,0.377l0.837,0.128c0.18,0.028,0.351-0.104,0.377-0.284
						c0.46-3.113,0.517-5.25,0.171-6.356c-0.627-1.999-3.576-9.488-6.548-9.614c-2.973-0.127-6.546,7.085-7.34,9.023
						c-0.44,1.07-0.564,3.204-0.37,6.347C131.487,154.596,131.646,154.742,131.828,154.73z"/>
				</g>
			</g>
		</g>
	</g>
</g>
<g id="Icons">
	<g id="Red_Cross_2_">
		<polygon id="XMLID_31_" style="fill:#27DEBF;" points="44.355,86.611 44.355,99.034 55.114,92.822 55.114,105.246 65.873,99.034 
			65.873,86.611 76.632,80.399 76.632,67.975 65.84,74.206 65.873,61.764 55.114,67.975 55.114,80.399 		"/>
		<polygon id="XMLID_30_" style="fill:#27DEBF;" points="44.355,99.034 39.744,96.372 39.744,83.948 44.355,86.611 		"/>
		<polygon id="XMLID_29_" style="fill:#27DEBF;" points="55.114,80.399 50.503,77.736 39.744,83.948 44.355,86.611 		"/>
		<polygon id="XMLID_28_" style="fill:#27DEBF;" points="55.114,67.975 50.503,65.313 50.503,77.736 55.114,80.399 		"/>
		<polygon id="XMLID_27_" style="fill:#27DEBF;" points="65.873,61.764 61.262,59.101 50.503,65.313 55.114,67.975 		"/>
		<polygon id="XMLID_26_" style="fill:#27DEBF;" points="55.114,105.246 50.503,102.584 50.503,95.484 55.114,92.822 		"/>
		<g style="opacity:0.2;">
			<polygon id="XMLID_25_" points="44.355,99.034 39.744,96.372 39.744,83.948 44.355,86.611 			"/>
			<polygon id="XMLID_24_" points="55.114,67.975 50.503,65.313 50.503,77.736 55.114,80.399 			"/>
			<polygon id="XMLID_23_" points="55.114,105.246 50.503,102.584 50.503,95.484 55.114,92.822 			"/>
		</g>
		<polygon id="XMLID_22_" style="fill:#27DEBF;" points="76.632,67.975 72.021,65.313 65.854,68.852 65.84,74.206 		"/>
		<g style="opacity:0.5;">
			<polygon id="XMLID_21_" style="fill:#FFFFFF;" points="55.114,80.399 50.503,77.736 39.744,83.948 44.355,86.611 			"/>
			<polygon id="XMLID_20_" style="fill:#FFFFFF;" points="65.873,61.764 61.262,59.101 50.503,65.313 55.114,67.975 			"/>
			<polygon id="XMLID_19_" style="fill:#FFFFFF;" points="76.632,67.975 72.021,65.313 65.854,68.852 65.84,74.206 			"/>
		</g>
	</g>
	<g id="Pill">
		<path id="XMLID_3644_" style="fill:#F5F5F5;" d="M437.014,67.77c0,1.225,0.809,2.45,2.428,3.384c3.237,1.869,8.485,1.869,11.722,0
			c1.618-0.935,2.428-2.159,2.428-3.384V56.869c0-4.584-3.716-8.3-8.3-8.3c-4.584,0-8.3,3.716-8.3,8.3L437.014,67.77z"/>
		<path id="XMLID_3642_" style="fill:#27DEBF;" d="M436.992,82.157c0,4.584,3.716,8.3,8.3,8.3c4.584,0,8.3-3.716,8.3-8.3V67.77
			c0,1.225-0.809,2.449-2.428,3.384c-3.237,1.869-8.485,1.869-11.722,0c-1.618-0.935-2.428-2.159-2.428-3.384L436.992,82.157z"/>
		<path id="XMLID_3640_" style="opacity:0.4;fill:#FFFFFF;" d="M448.468,86.633c-1.754,0-3.176-1.422-3.176-3.177v-16.89
			c2.125-0.002,4.251,0.465,5.872,1.401c0.171,0.099,0.328,0.202,0.481,0.307v15.181C451.645,85.211,450.223,86.633,448.468,86.633z
			"/>
		<path id="XMLID_3605_" style="fill:#F5F5F5;" d="M437.014,67.77c0,1.225,0.809,2.45,2.428,3.384c3.237,1.869,8.485,1.869,11.722,0
			c1.618-0.935,2.428-2.159,2.428-3.384V56.869c0-4.584-3.716-8.3-8.3-8.3c-4.584,0-8.3,3.716-8.3,8.3L437.014,67.77z"/>
		<path id="XMLID_3598_" style="opacity:0.1;" d="M451.164,71.154c-3.237,1.869-8.485,1.869-11.722,0
			c-1.618-0.935-2.428-2.159-2.428-3.384l-0.001,0.684l0.001,0.518c0,1.225,0.809,2.45,2.428,3.384
			c3.237,1.869,8.485,1.869,11.722,0c1.618-0.934,2.428-2.159,2.428-3.384V67.77C453.592,68.995,452.783,70.219,451.164,71.154z"/>
		<path id="XMLID_3597_" style="fill:#E0E0E0;" d="M450.175,50.167L450.175,50.167c-1.371-1.001-3.055-1.599-4.883-1.599
			c-4.584,0-8.3,3.716-8.3,8.3l0.022,10.901c0,1.225,0.809,2.45,2.428,3.384c0.71,0.41,1.52,0.724,2.38,0.954
			c0-5.072,0-13.488,0-16.731C441.822,50.601,447.797,48.852,450.175,50.167z"/>
		<path id="XMLID_3596_" style="fill:#FFFFFF;" d="M448.468,52.488c-1.754,0-3.176,1.422-3.176,3.177v16.89
			c2.125,0.002,4.251-0.465,5.872-1.401c0.171-0.099,0.328-0.202,0.481-0.307V55.665C451.645,53.911,450.223,52.488,448.468,52.488z
			"/>
		<path id="XMLID_1224_" style="opacity:0.1;" d="M446.332,90.385c0.158-0.02,0.315-0.043,0.47-0.072
			c0.112-0.021,0.223-0.043,0.333-0.068c0.123-0.028,0.243-0.06,0.364-0.093c0.127-0.035,0.255-0.069,0.379-0.111
			c0.063-0.021,0.124-0.046,0.186-0.068c0.547-0.196,1.069-0.444,1.557-0.744c0.013-0.008,0.027-0.016,0.041-0.025
			c0.175-0.109,0.347-0.224,0.513-0.346l0,0c-2.378,1.316-8.353-0.433-8.353-5.209c0-1.638,0-6.488,0-11.541
			c-0.861-0.23-1.671-0.545-2.38-0.954c-1.618-0.935-2.428-2.159-2.428-3.384l-0.022,14.388c0,4.584,3.716,8.3,8.3,8.3
			c0.26,0,0.516-0.015,0.77-0.039C446.152,90.41,446.242,90.397,446.332,90.385z"/>
	</g>
</g>
</svg>
