<?xml version="1.0" encoding="utf-8"?>
<!-- Generator: Adobe Illustrator 27.5.0, SVG Export Plug-In . SVG Version: 6.00 Build 0)  -->
<svg version="1.1" xmlns="http://www.w3.org/2000/svg" xmlns:xlink="http://www.w3.org/1999/xlink" x="0px" y="0px"
	 viewBox="0 0 500 500" style="enable-background:new 0 0 500 500;" xml:space="preserve">
<g id="BACKGROUND">
	<rect style="fill:#FFFFFF;" width="500" height="500"/>
</g>
<g id="OBJECTS">
	<path id="back" style="fill:#3E4189;" d="M15.897,285.351c5.421-18.855,14.108-36.104,25.646-49.441
		c6.051-6.995,12.945-13.2,19.663-19.557c8.893-8.415,19.653-17.698,24.762-29.086c3.441-7.669,2.946-16.267,5.4-24.228
		c7.688-24.934,21.952-56.785,37.985-77.089c13.7-17.349,33.673-26.828,53.881-35.792c26.463-11.74,58.214-10.833,83.964,2.397
		c25.75,13.23,44.975,38.516,50.84,66.865c4.213,20.365,3.609,45.116,20.763,56.874c8.899,6.099,20.353,6.709,31.141,6.71
		c19.092,0.002,38.313-1.245,57.184,1.651c18.871,2.897,37.818,10.487,50.093,25.109c10.116,12.051,14.905,28.419,12.879,44.022
		c-2.326,17.913-12.866,33.495-20.476,49.877c-7.61,16.382-12.143,36.485-2.734,51.905c2.586,4.238,6.12,7.901,8.2,12.409
		c3.18,6.892,2.558,15.09-0.222,22.153c-8.673,22.04-34.295,31.475-57.339,36.948c-73.219,17.392-148.945,20.188-223.891,17.982
		c-37.124-1.092-74.119-4.033-111.205-5.755c-9.449-0.439-15.49-5.945-23.582-9.743c-7.26-3.407-13.167-5.728-19.022-11.723
		C6.467,383.683,3.33,329.062,15.897,285.351z"/>
	<ellipse id="shadow" style="fill:#393335;" cx="245.975" cy="437.615" rx="225.121" ry="12.234"/>
	<g id="guy_2">
		<path style="fill:#324862;" d="M416.027,359.71c-4.896,5.146-9.353,11.943-7.845,18.885c0.423,1.945,1.306,3.807,1.374,5.797
			c0.114,3.36-2.066,6.29-3.742,9.204c-3.972,6.909-5.376,14.997-4.915,23.002c0.599-0.091,1.133-0.165,1.546-0.187
			c4.33-0.235,8.669-0.313,13.004-0.233c3.363,0.062,9.685,2.083,11.005-2.19c1.669-5.402,1.543-11.811,1.559-17.408
			c0.028-9.841-0.843-19.782,0.2-29.585c0.203-1.911,0.479-3.817,0.849-5.716c0.764-3.923,1.925-7.779,2.336-11.755
			c0.144-1.396,0.209-2.97,0.108-4.542C426.51,349.993,420.895,354.593,416.027,359.71z"/>
		<path style="fill:#2D3541;" d="M405.814,393.595c1.675-2.914,3.856-5.844,3.742-9.204c-0.068-1.99-0.952-3.851-1.374-5.797
			c-1.508-6.942,2.949-13.738,7.845-18.885c4.868-5.117,10.484-9.717,15.48-14.728c-0.14-2.193-0.61-4.384-1.724-6.093
			c-1.809-2.776-5.623-2.454-8.543-2.105l-21.603,2.585c-1.824,0.218-3.673,0.443-5.378,1.129c-1.704,0.686-3.276,1.901-3.986,3.596
			c-0.572,1.364-0.54,2.894-0.499,4.373c0.591,21.377,1.182,42.754,1.773,64.13c0.031,1.106,0.075,2.264,0.629,3.221
			c1.224,2.12,5.81,1.222,8.723,0.779C400.438,408.593,401.842,400.504,405.814,393.595z"/>
		<path style="fill:#416186;" d="M375.025,364.493c-3.402,3.099-5.988,7.51-5.581,12.094c0.246,2.77,1.557,5.445,1.272,8.212
			c-0.197,1.907-1.136,3.648-2.074,5.32c-3.634,6.48-7.527,12.84-10.596,19.598c0.246,3.605-0.076,7.197-1.584,10.445
			c14.209-2.018,28.661-2.319,42.942-0.894c-0.153-5.664-0.316-11.402-1.896-16.844c-0.672-2.314-1.599-4.576-1.865-6.971
			c-0.336-3.023,0.403-6.103-0.052-9.111c-0.435-2.87-1.942-5.566-1.892-8.468c0.057-3.283,2.072-6.151,3.433-9.139
			c1.549-3.402,2.27-7.107,2.503-10.822c0.208-3.304,0.037-6.621-0.245-9.915c-0.007-0.077-0.009-0.168-0.013-0.249
			c-3.986,3.445-8.276,6.538-12.807,9.226C382.611,359.321,378.427,361.394,375.025,364.493z"/>
		<path style="fill:#324862;" d="M397.852,342.097c-2.31-1.49-7.184-1.069-9.843-1.15c-3.417-0.104-6.837-0.014-10.254,0.089
			c-5.093,0.154-10.204,0.34-15.223,1.22c-2.631,0.461-5.26,1.124-7.612,2.391c-0.39,0.21-0.791,0.457-0.992,0.851
			c-0.229,0.45-0.147,0.991-0.04,1.485c0.414,1.911,1.12,3.758,1.389,5.694c0.503,3.614-0.543,7.262-0.527,10.911
			c0.02,4.346,1.546,8.586,1.508,12.932c-0.03,3.514-1.082,6.942-1.345,10.446c-0.421,5.603,1.178,11.129,2.272,16.641
			c0.397,1.999,0.719,4.056,0.859,6.108c3.07-6.758,6.963-13.118,10.596-19.598c0.938-1.672,1.877-3.413,2.074-5.32
			c0.285-2.767-1.026-5.441-1.272-8.212c-0.406-4.584,2.179-8.994,5.581-12.094c3.402-3.099,7.586-5.172,11.544-7.52
			c4.531-2.688,8.821-5.781,12.807-9.226C399.266,345.947,399.498,343.158,397.852,342.097z"/>
		<path style="fill:#306C91;" d="M443.367,420.711c-0.08,0.03-0.163,0.053-0.242,0.085c-2.681,1.074-5.476,3.06-8.17,2.021
			c-1.377-0.531-2.395-1.786-3.8-2.239c-1.943-0.626-3.997,0.438-5.706,1.556c-1.708,1.118-3.555,2.383-5.587,2.184
			c-1.888-0.185-3.397-1.589-5.12-2.382c-1.729-0.796-3.738-0.967-5.577-0.476c-3.281,0.877-6.039,3.76-9.429,3.558
			c-2.345-0.139-4.354-1.783-5.739-3.68c-0.825-1.13-1.468-2.384-1.954-3.697c-0.958,1.181-1.417,2.651-1.131,4.545
			c0.486,3.208,2.564,6.221,5.551,7.57c1.673,0.755,4.41,1.508,6.143,0.746c2.148-0.945,4.019-1.701,6.447-1.541
			c2.244,0.148,4.388,0.95,6.594,1.391c6.058,1.21,12.855,0.99,18.96,0.164c2.955-0.4,6.254-0.974,8.53-3.06
			c0.73-0.669,1.336-1.497,1.629-2.444C445.371,423.06,444.641,421.717,443.367,420.711z"/>
		<path style="fill:#3A89B5;" d="M434.853,416.828c-8.222,1.317-16.144,0.104-21.698-5.64c-2.112,0.215-4.222,0.53-6.269,0.83
			c-3.854,0.565-7.699,1.434-11.254,3.064c-1.486,0.681-2.735,1.506-3.588,2.558c0.486,1.312,1.129,2.566,1.954,3.697
			c1.385,1.897,3.394,3.541,5.739,3.68c3.391,0.202,6.148-2.681,9.429-3.558c1.839-0.491,3.848-0.32,5.577,0.476
			c1.723,0.793,3.233,2.197,5.12,2.382c2.032,0.199,3.878-1.066,5.587-2.184c1.708-1.118,3.762-2.182,5.706-1.556
			c1.404,0.453,2.423,1.708,3.8,2.239c2.694,1.039,5.49-0.947,8.17-2.021c0.08-0.032,0.162-0.054,0.242-0.085
			c-1.887-1.49-4.976-2.232-6.786-3.046C435.997,417.402,435.427,417.111,434.853,416.828z"/>
		<path style="fill:#4EAFE0;" d="M434.853,416.828c-1.349-0.664-2.686-1.353-4.025-2.037c-3.792-1.936-7.767-3.728-12.095-3.854
			c-1.834-0.053-3.707,0.06-5.577,0.251C418.709,416.932,426.631,418.145,434.853,416.828z"/>
		<path style="fill:#C8C53E;" d="M446.474,168.821c-0.068,0.135-0.078,0.292-0.022,0.433c0.559,1.423,3.982,9.162,12.209,8.742
			c0.257-0.013,2.458-4.971,4.348-9.283c-4.869-1.263-9.457-3.179-13.477-5.947L446.474,168.821z"/>
		<path style="fill:#DFDC45;" d="M472.398,155.655c-6.068,0.106-12.051-0.878-17.547-3.424l-5.32,10.535
			c4.02,2.768,8.607,4.684,13.477,5.947c1.14-2.602,2.167-4.97,2.584-5.874C466.253,161.406,469.408,158.4,472.398,155.655z"/>
		<path style="fill:#FFFD5B;" d="M473.33,134.364c1.384-4.443,3.317-11.805,2.083-12.224c-1.682-0.571-3.322,0.844-5.304,3.504
			c-1.639,2.2-3.213,4.763-4.572,7.169C468.55,132.559,471.05,133.122,473.33,134.364z"/>
		<path style="fill:#FFFD5B;" d="M490.724,138.732c-0.693-2.21-6.568,0.179-10.064,1.83c-0.527,0.248-1.013-0.401-0.628-0.837
			c3.033-3.434,8.294-10.024,6.114-12.204c-1.893-1.893-8.37,4.152-11.699,7.519c1.217,0.802,2.386,1.793,3.553,2.96
			c2.265,2.643,3.816,5.714,4.709,8.996C486.752,144.092,491.326,140.652,490.724,138.732z"/>
		<path style="fill:#FFFC33;" d="M474.447,135.04c-0.133,0.134-0.27,0.273-0.392,0.398c-0.395,0.404-1.064,0.002-0.892-0.536
			c0.054-0.171,0.112-0.356,0.168-0.538c-2.281-1.242-4.781-1.805-7.792-1.551c-1.474,2.61-2.696,5.035-3.463,6.603
			c-0.22,0.449-0.88,0.382-1.001-0.103c-0.521-2.089-1.468-5.896-1.86-7.53c-0.555-2.311-3.604-3.882-4.621,3.42
			c-0.926,6.652,0.756,13.918,1.062,15.158c0.031,0.124,0.014,0.249-0.043,0.363l-0.761,1.506c5.496,2.546,11.479,3.53,17.547,3.424
			c2.027-1.86,3.979-3.602,5.024-4.647c0.928-0.928,3.025-2.387,5.287-4.012c-0.894-3.283-2.444-6.354-4.709-8.996
			C476.833,136.833,475.664,135.842,474.447,135.04z"/>
		<path style="fill:#306C91;" d="M420.92,193.537l7.938,26.56c15.32-0.196,27.217-15.708,31.309-28.335
			c-6.761,4.17-14.291,6.823-22.167,7.238C431.617,199.355,425.867,197.187,420.92,193.537z"/>
		<path style="fill:#3A89B5;" d="M459.004,176.508c-9.268-5.907-21.184,3.157-21.184,3.157l-4.379-7.129
			c-4.889-19.961-26.072-24.341-26.072-24.341l13.551,45.341c4.947,3.65,10.697,5.818,17.08,5.463
			c7.876-0.415,15.406-3.068,22.167-7.238C462.441,184.747,462.314,178.618,459.004,176.508z"/>
		<path style="fill:#FFFC33;" d="M449.983,155.896c-1.165,0.131-2.315,0.369-3.385,0.841c-2.648,1.168-4.535,3.54-6.313,5.824
			c-4.871,6.26-9.742,12.521-14.613,18.781c3.353,2.363,7.043,4.73,10.892,6.151c2.407-2.58,4.815-5.161,7.222-7.741
			c0.603-0.646,1.225-1.307,2.019-1.694c0.984-0.48,2.123-0.491,3.192-0.726c2.892-0.635,5.108-2.837,7.489-4.623
			C456.745,166.181,454.995,159.885,449.983,155.896z"/>
		<path style="fill:#FFFD5B;" d="M469.156,167.786c-0.496-0.437-1.054-0.714-1.663-0.969c0.3-1.689-0.1-3.492-1.087-4.895
			c-0.659-0.937-1.298-0.57-1.361-1.714c-0.05-0.914-0.638-1.733-1.383-2.266c-0.744-0.533-1.633-0.82-2.516-1.06
			c-3.033-0.827-6.188-1.205-9.331-1.117c-0.611,0.017-1.223,0.065-1.832,0.133c5.012,3.989,6.762,10.285,6.504,16.813
			c0.136-0.102,0.27-0.208,0.407-0.306c0.624-0.45,1.294-0.877,2.05-1.019c0.836-0.157,1.691,0.048,2.531,0.186
			c1.942,0.32,3.942,0.284,5.87-0.107c1.126-0.228,2.427-0.795,2.576-1.934C470.007,168.874,469.651,168.223,469.156,167.786z"/>
		<path style="fill:#C8C53E;" d="M453.203,160.233c-0.83,0.224-0.65,1.47,0.201,1.485c3.004,0.053,5.996-0.224,9.005-0.079
			c1.371,0.066,2.726,0.229,4.079,0.413c-0.029-0.043-0.053-0.089-0.083-0.131c-0.659-0.937-1.298-0.57-1.361-1.714
			c-0.014-0.251-0.071-0.493-0.158-0.726C460.907,159.059,456.747,159.277,453.203,160.233z"/>
		<path style="fill:#C8C53E;" d="M455.427,165.883c-0.83,0.224-0.65,1.47,0.201,1.486c3.005,0.053,5.996-0.224,9.005-0.079
			c1.508,0.072,2.997,0.26,4.484,0.467c-0.486-0.419-1.031-0.691-1.625-0.94c0.095-0.536,0.112-1.083,0.07-1.625
			C463.448,164.699,459.107,164.89,455.427,165.883z"/>
		<path style="fill:#5AC9FF;" d="M421.347,260.157c-15.648,12.434-33.053,22.866-46.723,37.447c-1.696,1.809-3.449,4.128-2.82,6.526
			c0.896,3.42,5.599,3.879,9.035,3.049c4.256-1.028,8.255-2.895,12.221-4.751c8.225-3.848,16.451-7.697,24.676-11.545
			c5.6-2.62,11.292-5.261,17.227-6.884c-1.259-14.501-2.314-27.69-2.335-34.246C429.275,253.597,425.352,256.975,421.347,260.157z"
			/>
		<path style="fill:#3E96C5;" d="M349.408,302.234c9.69-7.681,19.352-17.358,26.134-27.713c1.312-2.003,2.546-4.143,2.895-6.512
			c0.349-2.369-0.362-5.031-2.307-6.428c-2.487-1.788-5.924-0.99-8.838-0.045c-5.609,1.82-11.119,3.942-16.515,6.321
			c-2.583,9.551-5.42,19.362-7.978,28.753c-1.403,5.151-2.74,10.2-3.985,15C341.94,308.319,345.501,305.331,349.408,302.234z"/>
		<path style="fill:#3E96C5;" d="M382.477,333.933c-3.125-3.653-8.855-3.352-13.472-2.011c-7.111,2.065-13.599,5.799-20.145,9.259
			c-3.129,1.654-6.368,3.278-9.879,3.724c-2.765,0.352-5.749-0.173-7.997-1.738c-0.697,2.946-1.082,4.625-1.082,4.625
			c7.007,0.962,14.023,1.925,21.086,2.312c10.458,0.573,20.911-0.122,31.367-0.919c0.093-0.268,0.185-0.537,0.278-0.805
			C384.285,343.602,385.764,337.774,382.477,333.933z"/>
		<path style="fill:#4EAFE0;" d="M439.045,334.937c-0.514,0.135-1.027,0.275-1.541,0.404c-6.568,1.651-13.513,2.787-20.07,1.094
			c-1.915-0.495-3.958-1.401-4.725-3.224c-0.837-1.987,0.159-4.236,1.214-6.117c5.147-9.177,12.119-17.208,19.548-24.66
			c0.948-0.951,1.908-1.903,2.861-2.863c-0.457-5.198-0.925-10.467-1.368-15.573c-5.935,1.623-11.627,4.264-17.227,6.884
			c-8.225,3.848-16.451,7.697-24.676,11.545c-3.966,1.855-7.965,3.723-12.221,4.751c-3.436,0.83-8.14,0.371-9.035-3.049
			c-0.628-2.398,1.125-4.717,2.82-6.526c13.67-14.581,31.075-25.013,46.723-37.447c4.005-3.183,7.928-6.561,11.28-10.404
			c-0.001-0.319,0-0.626,0.004-0.913c0.227-16.475-8.961-64.641-8.961-64.641s-2.527-15.028-5.852-24.072
			c-3.325-9.044-10.639-13.831-10.639-13.831l-36.707-1.197c-15.797,4.522-22.077,15.959-22.077,15.959s0.804,24.15,9.621,53.456
			c3.272,10.876-1.309,31.419-7.238,53.343c5.396-2.38,10.906-4.501,16.515-6.321c2.913-0.945,6.35-1.743,8.838,0.045
			c1.945,1.398,2.656,4.059,2.307,6.428c-0.349,2.369-1.582,4.509-2.895,6.512c-6.783,10.355-16.445,20.032-26.134,27.713
			c-3.907,3.097-7.468,6.085-10.593,9.376c-3.566,13.739-6.379,25.418-7.83,31.556c2.248,1.566,5.232,2.09,7.997,1.738
			c3.511-0.447,6.75-2.07,9.879-3.724c6.547-3.46,13.034-7.193,20.145-9.259c4.617-1.341,10.346-1.642,13.472,2.011
			c3.286,3.841,1.807,9.669,0.156,14.447c-0.093,0.268-0.186,0.537-0.278,0.805c6.094-0.464,12.188-0.963,18.284-1.265
			c11.392-0.565,22.839-0.447,34.157-1.863c1.821-0.228,3.825-0.697,4.185-2.497C439.245,342.238,439.238,339.181,439.045,334.937z"
			/>
		<path style="fill:#5AC9FF;" d="M433.47,302.435c-7.429,7.452-14.401,15.482-19.548,24.66c-1.055,1.881-2.051,4.13-1.214,6.117
			c0.768,1.823,2.81,2.729,4.725,3.224c6.557,1.693,13.502,0.557,20.07-1.094c0.514-0.129,1.027-0.269,1.541-0.404
			c-0.384-8.464-1.51-21.667-2.714-35.365C435.378,300.532,434.419,301.484,433.47,302.435z"/>
		<path style="fill:#3A89B5;" d="M373.634,251.492c13.025-1.71,26.017-5.756,36.478-13.704c7.395-5.619,13.393-13.326,16.451-22.139
			c0.737-2.125,1.295-4.134,1.536-6.152c-0.796-4.919-1.59-9.559-2.281-13.49c-0.624-1.237-1.529-2.293-2.951-2.981
			c-2.437-1.179-6.417,0.676-8.851,1.427c-7.939,2.449-14.332,8.079-21.539,11.983c-8.124,4.4-17.273,6.648-26.457,7.663
			c-2.62,0.289-5.275,0.488-7.864,0.953c2.188,8.087,0.328,21.154-3.131,36.083C360.999,252.554,367.474,252.301,373.634,251.492z"
			/>
		<path style="fill:#3A89B5;" d="M364.805,162.991c-0.239,0.904-0.445,1.864-0.194,2.765c0.251,0.901,1.109,1.701,2.035,1.565
			c0.669-0.098,1.179-0.63,1.63-1.134c3.298-3.688,6.394-7.558,9.268-11.585c1.204-1.688,2.399-3.434,4.053-4.683
			c0.424-0.32,1.027-0.605,1.452-0.286c0.334,0.25,0.356,0.734,0.343,1.152c-0.173,5.59-1.134,11.366,0.699,16.65
			c0.284,0.818,0.837,1.753,1.702,1.713c0.759-0.035,1.24-0.807,1.57-1.492c2.172-4.512,3.731-9.319,4.62-14.247
			c0.377-2.09,0.77-4.435,2.488-5.682c2.336,5.698,4.815,11.602,9.405,15.707c1.233,1.102,2.703,2.091,4.355,2.158
			c0.321,0.013,0.683-0.029,0.883-0.28c0.138-0.173,0.165-0.407,0.175-0.627c0.087-1.919-0.767-3.742-1.602-5.472
			c-1.731-3.591-3.483-7.217-5.971-10.332c-0.427-0.535-0.893-1.068-1.507-1.371c-0.581-0.287-1.245-0.345-1.891-0.391
			c-7.203-0.521-14.436-0.308-21.655-0.096c-1.772,0.052-2.996-0.26-4.204,1.107c-1.25,1.415-2.328,3.032-3.305,4.644
			C367.227,155.951,365.763,159.399,364.805,162.991z"/>
		<path style="fill:#98E3FE;" d="M438.328,187.32c-1.072-2.516-4.258-3.779-6.48-4.995c-2.064-1.131-4.348-2.635-6.809-2.354
			c-2.507,0.286-4.123,2.175-5.573,4.058c-1.015,1.318,1.17,2.953,2.289,1.766c0.121-0.129,0.249-0.27,0.381-0.415
			c2.376,1.201,11.737,5.106,11.246,7.633c-0.388,1.997,2.019,2.945,3.192,1.346C438.061,192.331,439.412,189.865,438.328,187.32z"
			/>
		<path style="fill:#EFAA82;" d="M377.7,134.198l0.442,10.691c0,0,13.96,3.269,20.586,0.442l0.884-8.57L377.7,134.198z"/>
		<path style="fill:#EFAA82;" d="M417.59,111.839c0,3.107-2.427,5.626-5.42,5.626c-2.993,0-5.42-2.519-5.42-5.626
			s2.427-5.625,5.42-5.625C415.163,106.213,417.59,108.732,417.59,111.839z"/>
		<ellipse style="fill:#EFAA82;" cx="368.781" cy="113.691" rx="5.42" ry="5.626"/>
		<path style="fill:#4EAFE0;" d="M409.999,87.015c-2.742,0.125-5.509-0.318-8.075-1.291c-2.199-0.834-4.252-2.052-6.514-2.697
			c-2.562-0.731-5.293-0.694-7.924-0.273c-9.261,1.481-17.252,7.491-26.425,9.447c-0.878,0.187-1.776,0.332-2.672,0.37
			c-0.275,1.62-0.178,3.284,0.417,4.877c0.059,0.157,0.122,0.312,0.19,0.465c0.876,1.984,2.283,3.924,4.105,5.135
			c1.707,1.135,3.207,0.907,5.069,0.425c2.503-0.647,4.852-0.737,7.406-0.83c2.187-0.08,4.378-0.084,6.566-0.08
			c4.31,0.008,8.618,0.119,12.926,0.228c6.091,0.155,15.146,1.508,20.433-2c4.463-2.961,5.061-8.693,2.667-12.977
			c-0.169-0.302-0.352-0.595-0.543-0.883c-0.043-0.011-0.084-0.028-0.128-0.038C415.053,86.323,412.507,86.901,409.999,87.015z"/>
		<path style="fill:#5AC9FF;" d="M403.062,78.106c-4.842-1.244-10.414-1.762-15.319-0.542c-4.489,1.117-8.505,3.846-13.163,4.337
			c-0.411,0.043-0.824,0.069-1.237,0.073c-1.961,0.019-3.939,0.106-5.84,0.586c-4.441,1.122-8.329,5.38-9.115,10.011
			c0.896-0.038,1.795-0.183,2.672-0.37c9.173-1.956,17.163-7.967,26.425-9.447c2.631-0.421,5.362-0.458,7.924,0.273
			c2.262,0.645,4.315,1.863,6.514,2.697c2.566,0.973,5.333,1.416,8.075,1.291c2.508-0.114,5.054-0.692,7.499-0.121
			c0.044,0.01,0.085,0.027,0.128,0.038C414.522,82.259,408.622,79.534,403.062,78.106z"/>
		<path style="fill:#FDCCB2;" d="M411.433,114.004c0.913-10.02-0.424-19.003-0.424-19.003c-21.78-5.492-42.045,2.746-42.045,2.746
			s-0.695,8.392,0.631,17.777C383.374,118.135,397.461,116.576,411.433,114.004z"/>
		<path style="fill:#EFAA82;" d="M387.394,120.451c-0.671-0.546-0.975-1.427-0.784-2.27c0.604-2.672,2.162-8.65,3.904-8.14
			c1.698,0.497,3.324,5.526,4.008,7.92c0.248,0.867-0.047,1.788-0.738,2.368C392.474,121.428,390.101,122.652,387.394,120.451z"/>
		<path style="fill:#DDF6FF;" d="M410.81,118.845c0.274-1.619,0.477-3.243,0.623-4.841c-13.972,2.572-28.059,4.131-41.839,1.52
			c0.227,1.61,0.517,3.248,0.877,4.879C383.767,122.752,397.339,121.295,410.81,118.845z"/>
		<path style="fill:#C6E8F3;" d="M389.607,140.929c13.87,0.232,19.286-10.784,21.203-22.084c-13.471,2.45-27.043,3.906-40.339,1.559
			C372.752,130.732,377.966,140.734,389.607,140.929z"/>
		<path style="fill:#DDF6FF;" d="M391.872,136.085c4.01-0.225,8.153-0.592,12.258-1.21c1.025-1.167,1.918-2.464,2.695-3.858
			c-5.181,1.008-10.37,1.835-15.764,2.08c-5.38,0.244-10.635-0.083-15.906-0.564c0.843,1.319,1.795,2.529,2.869,3.598
			C382.666,136.408,387.343,136.339,391.872,136.085z"/>
		<path style="fill:#DDF6FF;" d="M392.364,128.664c5.373-0.302,10.978-0.859,16.412-1.947c0.434-1.183,0.811-2.401,1.134-3.641
			c-6.048,1.234-12.062,2.316-18.357,2.601c-6.747,0.306-13.3-0.286-19.931-0.954c0.374,1.184,0.796,2.344,1.271,3.467
			C379.337,129.027,385.996,129.021,392.364,128.664z"/>
		<path style="fill:#FFFFFF;stroke:#232021;stroke-miterlimit:10;" d="M425.971,102.861"/>
		<path style="fill:#98E3FE;" d="M366.579,95.266c-1.713,0.919-1.098,5.179,0.842,5.048c1.568-0.106,2.786-0.257,3.889-0.436
			c-0.184-2.118-0.395-4.209-0.5-6.406C369.303,93.982,367.872,94.572,366.579,95.266z"/>
		<path style="fill:#B3EAFD;" d="M370.81,93.471c0.105,2.197,0.316,4.288,0.5,6.406c1.573-0.255,2.903-0.567,4.613-0.901
			c0.819-0.16,1.641-0.301,2.464-0.436c-0.245-2.273-0.429-4.547-0.512-6.82C375.461,92.148,373.047,92.712,370.81,93.471z"/>
		<path style="fill:#98E3FE;" d="M377.875,91.719c0.083,2.273,0.267,4.547,0.512,6.82c2.283-0.375,4.58-0.66,6.886-0.859
			c-0.074-2.301-0.183-4.617-0.601-6.837C382.506,91.03,380.195,91.307,377.875,91.719z"/>
		<path style="fill:#B3EAFD;" d="M387.446,90.643c-0.882,0.047-1.818,0.118-2.774,0.2c0.418,2.221,0.527,4.536,0.601,6.837
			c0.724-0.063,1.448-0.118,2.173-0.163c1.52-0.096,3.033-0.139,4.543-0.152c0-2.262,0-4.514,0-6.847
			C390.472,90.527,388.956,90.562,387.446,90.643z"/>
		<path style="fill:#98E3FE;" d="M398.915,90.725c-2.306-0.154-4.618-0.223-6.926-0.208c0,2.334,0,4.585,0,6.847
			c2.438-0.022,4.865,0.063,7.288,0.227C399.323,95.318,399.275,93.064,398.915,90.725z"/>
		<path style="fill:#B3EAFD;" d="M398.915,90.725c0.36,2.34,0.409,4.593,0.362,6.867c2.294,0.156,4.584,0.39,6.877,0.686
			c0-2.254,0-4.508,0-6.763C403.755,91.156,401.34,90.887,398.915,90.725z"/>
		<path style="fill:#98E3FE;" d="M410.807,92.333c-1.54-0.321-3.093-0.585-4.652-0.818c0,2.254,0,4.508,0,6.763
			c0.967,0.125,1.934,0.257,2.902,0.405C414.511,99.513,415.033,93.214,410.807,92.333z"/>
		<path style="fill:#261C33;" d="M402.871,109.169c-0.163,1.636-1.335,2.859-2.618,2.731c-1.283-0.128-2.19-1.558-2.027-3.194
			c0.163-1.636,1.335-2.859,2.618-2.731C402.127,106.103,403.035,107.533,402.871,109.169z"/>
		<path style="fill:#261C33;" d="M377.184,110.116c0.163,1.636,1.335,2.859,2.618,2.731c1.283-0.128,2.19-1.558,2.027-3.194
			c-0.163-1.636-1.335-2.859-2.618-2.731C377.929,107.05,377.021,108.48,377.184,110.116z"/>
		<path style="fill:#8E5421;" d="M404.58,100.745c-0.921-0.983-2.435-1.127-3.726-1.114c-1.312,0.013-2.559,0.286-3.691,0.958
			c-1.32,0.784-0.765,2.896,0.784,2.896c0.969,0,1.939-0.073,2.906-0.012c1.02,0.064,1.949,0.418,2.967,0.147
			C405.106,103.278,405.451,101.674,404.58,100.745z"/>
		<path style="fill:#8E5421;" d="M375.097,102.295c0.788-1.093,2.271-1.429,3.552-1.582c1.303-0.155,2.575-0.044,3.783,0.477
			c1.41,0.608,1.13,2.774-0.407,2.973c-0.96,0.124-1.932,0.176-2.884,0.36c-1.004,0.194-1.88,0.665-2.924,0.526
			C374.901,104.874,374.353,103.328,375.097,102.295z"/>
		<path style="fill:#98E3FE;" d="M373.5,142.715c-0.921-0.213-1.514-0.667-2.492-0.11c-2.192,1.25-0.722,3.705,0.8,4.644
			c1.601,0.987,3.245,1.702,4.923,2.246c0.418-1.972,0.863-3.943,1.099-5.915C376.384,143.33,374.94,143.048,373.5,142.715z"/>
		<path style="fill:#5AC9FF;" d="M377.831,143.581c-0.235,1.972-0.681,3.943-1.099,5.915c2.669,0.866,5.43,1.263,8.268,1.447
			c0-2.116,0-4.208,0-6.469C382.604,144.286,380.213,143.993,377.831,143.581z"/>
		<path style="fill:#98E3FE;" d="M394.26,144.623c-3.09,0.137-6.179,0.091-9.26-0.15c0,2.261,0,4.354,0,6.469
			c0.727,0.047,1.457,0.083,2.194,0.106c2.105,0.065,4.503,0.175,6.945,0.117C394.229,148.954,394.358,146.748,394.26,144.623z"/>
		<path style="fill:#98E3FE;" d="M405.064,143.365c-0.842,0.161-1.684,0.304-2.527,0.435c0.39,1.853,0.841,3.706,1.303,5.559
			c1.255-0.566,2.419-1.28,3.413-2.232C408.982,145.47,407.152,142.966,405.064,143.365z"/>
		<path style="fill:#5AC9FF;" d="M394.26,144.623c0.098,2.125-0.031,4.331-0.121,6.543c3.366-0.079,6.805-0.502,9.702-1.807
			c-0.462-1.853-0.914-3.706-1.303-5.559C399.782,144.229,397.021,144.501,394.26,144.623z"/>
		<path style="fill:#55BFF2;" d="M430.754,200.796c-2.584,0.643-5.215-0.999-7.875-0.881c-4.066,0.18-6.729,4.166-8.87,7.627
			c-2.142,3.461-5.319,7.255-9.353,6.714c-3.637-0.487-5.875-4.308-9.262-5.72c-2.573-1.073-5.547-0.628-8.155,0.357
			c-2.608,0.985-4.996,2.477-7.567,3.554c-1.395,0.585-2.904,1.052-4.403,0.846c-3.141-0.433-5.113-3.554-6.427-6.44
			c-1.315-2.886-2.672-6.136-5.56-7.444c-3.818-1.729-8.377,0.81-12.43-0.259c-4.641-1.225-6.78-6.497-7.936-11.156
			c-0.514-2.074-0.962-4.165-1.354-6.265c-0.746,20.52,10.336,45.14,38.644,48.23c43.071,4.702,59.058-26.896,58.305-33.062
			c-0.161-1.32-0.577-2.572-1.2-3.757c-0.435,0.743-0.863,1.489-1.282,2.239C434.761,197.645,433.275,200.17,430.754,200.796z"/>
		<path style="fill:#6DCFFF;" d="M362.086,166.685c-0.258,2.883,0.711,6.137,3.248,7.531c1.674,0.92,3.962,1.041,4.945,2.68
			c0.532,0.887,0.508,1.986,0.468,3.02c-0.132,3.418-0.265,6.836-0.397,10.255c-0.068,1.769-0.133,3.575,0.366,5.274
			c0.498,1.699,1.667,3.303,3.352,3.849c1.874,0.607,3.884-0.186,5.693-0.967c1.701-0.734,3.402-1.468,5.103-2.202
			c1.184-0.511,2.489-1.032,3.728-0.672c2.396,0.696,2.771,3.914,4.358,5.839c1.889,2.291,5.514,2.468,8.167,1.134
			c2.653-1.334,4.518-3.821,6.117-6.323c2.549-3.989,4.678-8.23,6.891-12.418c-4.427,1.645-9.22,4.846-19.813,5.084
			c-16.739,0.376-11.097-12.601-20.877-27.084c-2.726-4.036-5.626-6.214-8.393-7.26c-0.061,1.314-0.32,2.642-0.682,3.899
			C363.558,161.106,362.344,163.803,362.086,166.685z"/>
		<path style="fill:#5AC9FF;" d="M422.523,183.279c-3.384-0.98-5.83-0.548-8.4,0.406c-2.213,4.188-4.342,8.429-6.891,12.418
			c-1.599,2.502-3.464,4.989-6.117,6.323c-2.653,1.334-6.278,1.157-8.167-1.134c-1.587-1.925-1.962-5.143-4.358-5.839
			c-1.238-0.36-2.543,0.161-3.728,0.672c-1.701,0.734-3.402,1.468-5.103,2.202c-1.809,0.781-3.819,1.574-5.693,0.967
			c-1.684-0.546-2.853-2.15-3.352-3.849c-0.498-1.699-0.434-3.505-0.366-5.274c0.132-3.418,0.265-6.837,0.397-10.255
			c0.04-1.033,0.064-2.133-0.468-3.02c-0.982-1.638-3.27-1.76-4.945-2.68c-2.537-1.394-3.505-4.648-3.248-7.531
			c0.258-2.883,1.471-5.58,2.272-8.361c0.362-1.257,0.621-2.585,0.682-3.899c-7.161-2.708-13.425,2.181-13.425,2.181
			c-6.06,4.835-9.666,14.421-10.055,25.123c0.393,2.101,0.84,4.191,1.354,6.265c1.155,4.659,3.295,9.931,7.936,11.156
			c4.053,1.069,8.611-1.47,12.43,0.259c2.889,1.308,4.246,4.558,5.56,7.444c1.315,2.886,3.286,6.007,6.427,6.44
			c1.499,0.207,3.008-0.261,4.403-0.846c2.571-1.077,4.959-2.569,7.567-3.554c2.608-0.985,5.582-1.43,8.155-0.357
			c3.387,1.412,5.625,5.233,9.262,5.72c4.034,0.54,7.211-3.253,9.353-6.714c2.142-3.461,4.805-7.447,8.87-7.627
			c2.661-0.118,5.291,1.523,7.875,0.881c2.521-0.627,4.007-3.151,5.274-5.418c0.419-0.75,0.847-1.496,1.282-2.239
			C435.021,188.785,429.767,185.377,422.523,183.279z"/>
		<path style="fill:#3A89B5;" d="M399.597,428.159c-2.539-0.127-4.415-2.54-6.9-3.074c-2.89-0.621-5.59,1.392-8.209,2.763
			c-0.971,0.508-2.026,0.947-3.121,0.903c-3.003-0.123-4.78-3.626-7.662-4.477c-1.958-0.579-4.056,0.178-5.859,1.137
			c-1.803,0.959-3.543,2.149-5.55,2.524c-1.892,0.353-3.82-0.082-5.544-0.973c0.979,1.965,2.562,3.631,4.57,4.538
			c2.735,1.235,5.877,1.135,8.853,0.751c2.16-0.279,4.331-0.695,6.499-0.487c3.71,0.356,7.169,2.522,10.89,2.306
			c2.621-0.152,5.067-1.484,7.689-1.614c1.888-0.094,3.765,0.442,5.654,0.362c2.496-0.105,4.809-1.267,7.033-2.404
			c0.787-0.402,1.63-0.863,1.99-1.67c0.186-0.418,0.219-0.887,0.206-1.345c-0.037-1.312-0.436-2.581-1.054-3.745
			c-1.093,0.328-2.145,0.794-3.112,1.402C403.93,426.336,402.003,428.279,399.597,428.159z"/>
		<path style="fill:#4EAFE0;" d="M405.032,419.021c-9.517,1.611-18.874,0.637-25.925-6.049c-1.174,0.103-2.346,0.22-3.516,0.349
			c-5.159,0.566-10.382,1.341-15.101,3.504c-3.155,1.446-5.261,3.523-4.719,7.103c0.159,1.051,0.505,2.074,0.982,3.032
			c1.723,0.891,3.652,1.326,5.544,0.973c2.007-0.375,3.747-1.565,5.55-2.524c1.803-0.959,3.901-1.715,5.859-1.137
			c2.882,0.852,4.659,4.354,7.662,4.477c1.095,0.045,2.15-0.394,3.121-0.903c2.619-1.371,5.319-3.384,8.209-2.763
			c2.485,0.534,4.362,2.947,6.9,3.074c2.406,0.121,4.333-1.823,6.373-3.105c0.966-0.608,2.018-1.073,3.112-1.402
			c-0.364-0.686-0.804-1.335-1.293-1.935C406.974,420.718,406.024,419.846,405.032,419.021z"/>
		<path style="fill:#5AC9FF;" d="M405.032,419.021c-0.614-0.51-1.24-1.007-1.872-1.493c-1.83-1.407-3.704-2.811-5.852-3.653
			c-2.043-0.8-4.254-1.061-6.444-1.189c-3.917-0.23-7.844-0.058-11.757,0.286C386.157,419.658,395.515,420.631,405.032,419.021z"/>
	</g>
	<g id="girl_1">
		<path style="fill:#F2864A;" d="M39.305,419.995l4.001,6.208l19.037-3.929c0,0,0.06-2.451,0.125-5.086
			c-5.757-0.838-11.322-2.453-16.413-5.07C43.563,418.597,39.305,419.995,39.305,419.995z"/>
		<path style="fill:#D5642D;" d="M47.651,404.889c-0.269,2.927-0.855,5.3-1.597,7.228c5.091,2.617,10.657,4.232,16.413,5.07
			c0.073-2.991,0.151-6.22,0.151-6.366C62.619,410.821,48.824,392.129,47.651,404.889z"/>
		<path style="fill:#D5642D;" d="M134.652,421.273l-0.932-6.374l-17.777,0.366c-0.099,2.317-0.948,4.584-1.847,6.378
			C121.004,422.341,127.887,422.236,134.652,421.273z"/>
		<path style="fill:#F2864A;" d="M114.096,421.643c-1.088,2.17-2.25,3.645-2.25,3.645l6.73,7.242l16.534-8.12l-0.458-3.136
			C127.887,422.236,121.004,422.341,114.096,421.643z"/>
		<path style="fill:#F2864A;" d="M76.676,262.814c0.002-0.009,0.003-0.018,0.005-0.027c1.518-7.636,2.913-15.475,4.521-22.983
			c1.09-5.09,1.885-10.232,2.537-15.393c-1.836-12.535-6.497-24.168-16.003-33.028c-0.032,1.147-0.104,2.294-0.262,3.436
			c-1.101,7.95-3.872,15.548-5.02,23.509c-0.563,3.909-0.776,7.859-0.936,11.806c-0.363,8.957-0.455,17.926-0.225,26.888
			c0.067,2.618-0.283,5.031-0.737,7.39C65.255,261.72,70.852,261.644,76.676,262.814z"/>
		<path style="fill:#D5642D;" d="M60.556,264.412c-0.791,4.102-1.9,8.038-1.703,12.587c0.065,1.487,0.251,2.998,0.87,4.352
			c1.747,3.82,6.738,2.515,9.391,0.512c5.215-3.936,6.175-11.481,7.293-17.63c0.088-0.483,0.177-0.956,0.269-1.419
			C70.852,261.644,65.255,261.72,60.556,264.412z"/>
		<path style="fill:#D5642D;" d="M84.977,196.473c-1.136-3.835-3.586-7.118-5.485-10.639c-1.899-3.52-3.277-7.683-2.04-11.487
			c-3.874,0.762-7.329,2.117-11.203,2.878c0.817,4.679,1.62,9.432,1.487,14.157c9.506,8.86,14.167,20.493,16.003,33.028
			c0.633-5.008,1.131-10.034,1.627-15.054C85.791,205.053,86.206,200.621,84.977,196.473z"/>
		<path style="fill:#FFAF7E;" d="M57.965,267.375c-0.273,1.146-0.526,2.298-0.734,3.458c-0.176,0.978-0.468,2.086,0.237,2.932
			c0.628,0.754,1.699,0.868,2.567,0.501c0.912-0.385,1.575-1.194,2.106-2.03c0.873-1.375,1.518-2.869,2.394-4.243
			c1.23-1.928,3.04-3.818,3.615-6.067c0.273-1.067,0.252-2.303-0.455-3.147c-0.605-0.723-1.575-1.008-2.491-1.232
			c-0.847-0.207-2.062-0.59-2.886-0.2c-1.993,0.944-2.704,3.392-3.191,5.359C58.744,264.253,58.337,265.811,57.965,267.375z"/>
		<path style="fill:#CA484B;" d="M143.535,245.058c-0.651-5.99-1.677-10.939-3.215-14.343l-63.468,1.472
			c-0.508,1.621-1.005,3.245-1.504,4.869c0.31,0.2,0.622,0.396,0.933,0.586C96.126,249.742,121.049,251.422,143.535,245.058z"/>
		<path style="fill:#CA484B;" d="M135.281,284.816c-2.074,3.225-3.366,7.336-1.938,10.894c0.841,2.096,2.523,3.747,3.524,5.772
			c2.363,4.779,0.498,10.6-2.34,15.113c-3.65,5.806-8.765,10.512-13.31,15.648c-4.544,5.136-8.675,11.044-9.656,17.831
			c-0.265,1.829-0.221,3.897,1.029,5.258c1.517,1.651,4.125,1.57,6.325,1.133c6.235-1.238,12.108-4.304,18.458-4.603
			c1.516-0.072,3.227,0.129,4.25,1.193c-0.923-15.119,2.544-51.765,2.849-81.9c-0.602,1.555-1.333,3.063-2.246,4.501
			C140.169,278.892,137.355,281.591,135.281,284.816z"/>
		<path style="fill:#FE797B;" d="M55.928,388.431c1.037-2.807,1.114-6.157-0.6-8.61c-1.123-1.607-2.881-2.666-4.09-4.209
			c-3.266-4.167-1.603-10.254,0.686-15.028c2.992-6.241,6.824-12.079,11.359-17.308c2.74-3.159,5.774-6.151,7.694-9.867
			c1.92-3.716,2.539-8.438,0.322-11.984c-1.869-2.99-5.391-4.643-7.263-7.63c-3.147-5.022-0.548-11.613,2.653-16.601
			c3.201-4.988,7.157-10.222,6.582-16.121c-0.493-5.056-4.217-9.111-6.447-13.676c-0.072-0.148-0.136-0.3-0.206-0.449
			c-1.76,6.399-3.44,12.818-5.071,19.253c-0.904,3.57-2.732,6.578-3.452,10.198c-0.95,4.771-1.928,9.522-3.116,14.242
			c-7.704,30.61-20.895,59.733-26.019,91.007c0,0,7.048,2.445,15.293,5.264c2.152-3.732,4.489-7.356,7.016-10.845
			C53.023,393.644,54.892,391.238,55.928,388.431z"/>
		<path style="fill:#F25D60;" d="M144.46,379.674c-0.953-0.176-1.987-0.128-2.943,0.032c-1.877,0.314-3.768,0.942-5.642,0.607
			c-10.182-1.821,0.659-16.186,3.749-19.797c0.898-1.049,1.879-2.311,2.419-3.589c-0.189-1.057-0.329-2.351-0.421-3.872
			c-1.024-1.063-2.734-1.264-4.25-1.193c-6.349,0.3-12.223,3.365-18.458,4.603c-2.199,0.437-4.808,0.518-6.325-1.133
			c-1.25-1.361-1.294-3.429-1.029-5.258c0.981-6.787,5.112-12.695,9.656-17.831c4.544-5.136,9.66-9.842,13.31-15.648
			c2.838-4.513,4.703-10.334,2.34-15.113c-1.001-2.024-2.683-3.676-3.524-5.772c-1.428-3.558-0.136-7.669,1.938-10.894
			c2.074-3.225,4.888-5.925,6.944-9.161c0.913-1.437,1.644-2.945,2.246-4.501c0.098-9.68-0.13-18.69-0.936-26.097
			c-22.486,6.364-47.41,4.684-67.254-7.415c-0.311-0.19-0.623-0.386-0.933-0.586c-2.489,8.091-4.881,16.212-7.188,24.356
			c-0.522,1.843-1.035,3.689-1.542,5.536c0.069,0.15,0.133,0.301,0.206,0.449c2.23,4.565,5.953,8.62,6.447,13.676
			c0.575,5.899-3.381,11.133-6.582,16.121c-3.201,4.988-5.801,11.579-2.653,16.601c1.872,2.988,5.394,4.641,7.263,7.63
			c2.217,3.546,1.598,8.268-0.322,11.984c-1.92,3.716-4.953,6.707-7.694,9.867c-4.535,5.229-8.366,11.067-11.359,17.308
			c-2.289,4.774-3.952,10.861-0.686,15.028c1.209,1.543,2.968,2.602,4.09,4.209c1.714,2.453,1.637,5.803,0.6,8.61
			c-1.037,2.807-2.905,5.213-4.661,7.637c-2.527,3.488-4.865,7.113-7.016,10.845c10.125,3.461,22.055,7.486,24.978,8.244
			c0,0,10.175-33.249,13.388-48.945c1.023-4.997,2.41-9.907,4.234-14.671c4.115-10.752,10.968-30.367,12.869-39.795
			c0,0-4.205,46.023-2.689,55.547c1.515,9.524-2.597,28.787-2.814,34.415c-0.216,5.628,0.216,12.987,0.216,12.987
			s27.223,8.184,44.565,2.13c-2.311-4.504-4.292-11.19-2.096-15.553c0.979-1.945,3.226-3.382,4.581-5.137
			c1.128-1.462,2.16-2.999,3.112-4.583C144.61,387.682,144.576,383.635,144.46,379.674z"/>
		<path style="fill:#CA484B;" d="M144.596,391.551c-0.952,1.585-1.984,3.121-3.112,4.583c-1.355,1.755-3.602,3.192-4.581,5.137
			c-2.196,4.364-0.215,11.049,2.096,15.553c1.785-0.623,3.466-1.397,5.001-2.346C144,414.478,144.549,403.929,144.596,391.551z"/>
		<path style="fill:#CA484B;" d="M135.876,380.312c1.873,0.335,3.765-0.293,5.642-0.607c0.956-0.16,1.99-0.208,2.943-0.032
			c-0.249-8.517-0.872-16.63-2.192-21.689c-0.082-0.317-0.156-0.676-0.225-1.059c-0.54,1.277-1.521,2.54-2.419,3.589
			C136.535,364.126,125.693,378.492,135.876,380.312z"/>
		<path style="fill:#F25D60;" d="M80.774,140.003c0,0-11.925,3.51-21.619,37.497c0,0,8.138,7.898,18.19,5.385L80.774,140.003z"/>
		<path style="fill:#F25D60;" d="M134.257,200.115c0.215,0.836,0.509,1.687,0.388,2.542c-0.169,1.196-1.103,2.119-2,2.928
			c-4.32,3.898-9.15,7.578-11.631,12.842c-0.865,1.836-1.303,4.287,0.171,5.681c0.878,0.83,2.247,1.062,2.972,2.029
			c0.668,0.891,0.572,2.17,0.092,3.175c-0.48,1.005-1.28,1.813-2.006,2.657c-2.041,2.373-3.554,5.183-4.469,8.175
			c7.418-1.213,15.599-3.74,24.381-8.24c0,0-3.443-10.106-5.045-21.409c-1.084-7.65-0.954-15.842-0.815-21.825
			C134.076,191.981,133.263,196.245,134.257,200.115z"/>
		<path style="fill:#FE797B;" d="M114.64,133.706l-17.961,0.585c0,0-9.668,0.938-15.905,5.713c0,0-6.285,12.393-6.639,29.124
			c-0.319,15.054-0.422,21.221,4.139,27.078c0.494,0.634,0.837,1.357,1.031,2.117c2.168-0.094,4.343-0.524,6.464-1.017
			c3.433-0.798,6.879-1.764,10.403-1.72c1.532,0.019,3.157,0.273,4.315,1.276c0.325,0.282,0.611,0.628,0.732,1.041
			c0.375,1.279-0.883,2.396-1.969,3.17c-4.392,3.129-8.496,7.007-10.495,12.016c-0.198,0.495-0.376,1.023-0.304,1.551
			c0.144,1.056,1.214,1.722,2.229,2.048c1.015,0.326,2.133,0.489,2.943,1.181c1.076,0.92,1.286,2.553,0.907,3.917
			c-0.38,1.364-1.238,2.534-2.039,3.701c-2.596,3.785-4.754,7.934-5.886,12.369c7.413,2.475,18.105,4.426,31.172,2.29
			c0.915-2.993,2.428-5.803,4.469-8.175c0.726-0.844,1.526-1.652,2.006-2.657c0.48-1.005,0.576-2.284-0.092-3.175
			c-0.725-0.967-2.094-1.199-2.972-2.029c-1.474-1.394-1.037-3.846-0.171-5.681c2.481-5.263,7.31-8.944,11.631-12.842
			c0.897-0.809,1.83-1.733,2-2.928c0.121-0.855-0.174-1.706-0.388-2.542c-0.993-3.871-0.181-8.135,2.039-11.445
			c0.029-1.232,0.058-2.378,0.077-3.398l-3.807-16.315c-0.084-0.361,0.424-0.539,0.576-0.2c1.703,3.789,4.732,10.546,6.901,15.457
			c6.512-2.062,19.764-7.145,23.523-15.306C163.564,168.908,140.032,132.954,114.64,133.706z"/>
		<path style="fill:#F25D60;" d="M94.528,221.785c0.379-1.364,0.169-2.997-0.907-3.917c-0.81-0.692-1.928-0.855-2.943-1.181
			c-1.015-0.326-2.084-0.992-2.229-2.048c-0.072-0.528,0.107-1.056,0.304-1.551c1.999-5.008,6.103-8.886,10.495-12.016
			c1.086-0.773,2.344-1.891,1.969-3.17c-0.121-0.413-0.407-0.759-0.732-1.041c-1.158-1.003-2.783-1.256-4.315-1.276
			c-3.524-0.044-6.97,0.921-10.403,1.72c-2.121,0.493-4.296,0.923-6.464,1.017c0.218,0.856,0.245,1.759,0.054,2.643
			c-1.577,7.301-5.536,26.669-4.25,31.455c0,0,4.129,2.976,11.494,5.435c1.132-4.436,3.291-8.584,5.886-12.369
			C93.29,224.319,94.148,223.149,94.528,221.785z"/>
		<path style="fill:#F25D60;" d="M131.445,168.848l4.928,16.425c0,0,1.442-0.354,3.669-1.059
			c-2.168-4.911-4.965-11.751-6.423-15.641C132.564,165.758,130.713,166.537,131.445,168.848z"/>
		<path style="fill:#ECCE71;" d="M116.556,129.069c0,0,3.163-21.938,2.449-24.693c-0.714-2.755,8.425-11.584,8.425-11.584
			c2.192-0.466,4.524,0.39,6.206,1.871c1.682,1.481,2.783,3.52,3.55,5.626c1.774,4.869,1.906,10.171,1.748,15.35
			c-0.134,4.419-0.465,8.831-0.99,13.221c-0.025,0.205-0.05,0.41-0.075,0.615L116.556,129.069z"/>
		<path style="fill:#CAA845;" d="M131.173,93.168c-1.093-0.427-2.267-0.598-3.417-0.421c2.429,12.205,1.849,24.285,0.569,36.546
			l3.527,0.067C133.415,117.34,133.546,104.991,131.173,93.168z"/>
		<path style="fill:#CAA845;" d="M123.855,96.522c-0.972,1.082-1.99,2.283-2.845,3.438c1.145,9.721,0.63,19.398-0.366,29.186
			l3.547,0.068C125.531,118.357,125.676,107.252,123.855,96.522z"/>
		<path style="fill:#D5642D;" d="M96.705,136.478l0.003,0.287c0,0,3.273,10.674,5.55,10.104c1.771-0.443,8.018-7.772,10.908-11.309
			C107.635,138.963,100.832,140.849,96.705,136.478z"/>
		<path style="fill:#F2864A;" d="M124.95,97.424c-1.754-1.447-3.91,0.265-5.769,0.822c0.053-1.311,0.036-2.785,0.257-4.75
			c0.464-1.777,1.084-3.306,0.953-5.139c-0.167-2.334-1.131-4.724-3.048-6.066c-0.716-0.501-1.532-0.837-2.348-1.15
			c-5.392-2.067-11.105-3.292-16.871-3.615c-3.432-0.192-6.967-0.05-10.152,1.242c-3.611,1.465-5.848,4.187-6.995,7.836
			c-0.993,3.16-0.766,6.973-0.718,10.031c0.054,3.412,0.327,6.824,0.855,10.196c0.877,5.599,2.61,12.117,7.346,15.726
			c2.329,1.775,5.206,2.487,8.106,2.325l0.139,11.596c4.127,4.371,10.93,2.485,16.462-0.917c0.826-1.01,1.379-1.713,1.474-1.855
			c0,0-2.704-0.356-1.708-6.547s2.633-18.359,4.056-19.284c1.423-0.925,8.539-1.565,9.108-5.693
			C126.316,100.598,126.301,98.54,124.95,97.424z"/>
		<path style="fill:#D5642D;" d="M108.915,118.22c-4.048,2.592-8.222,4.911-12.699,6.668c0.117-0.004,0.233,0,0.35-0.006l0.04,3.343
			c4.801-2.486,9.235-5.789,12.7-9.337C109.643,118.542,109.346,117.944,108.915,118.22z"/>
		<path style="fill:#FDE599;" d="M126.41,79.548c-2.08-2.612-4.985-4.453-8.016-5.854c-10.608-4.904-23.237-4.751-34.106-0.456
			c-1.812,0.716-3.604,1.555-5.101,2.802c-2.3,1.916-2.927,4.38-3.78,7.095c-0.12,0.381-0.161,0.76-0.135,1.125
			c0.131,1.857,1.991,3.35,4.048,2.838c1.214-0.302,2.169-1.227,2.963-2.193c0.795-0.966,1.51-2.025,2.515-2.769
			c1.005-0.744,2.413-1.114,3.515-0.522c0.598,0.321,1.036,0.883,1.624,1.221c1.136,0.654,2.593,0.347,3.763-0.245
			c1.17-0.592,2.204-1.445,3.423-1.927c1.219-0.481,2.768-0.498,3.68,0.443c0.954,0.984,0.935,2.702,2.039,3.513
			c1.14,0.838,2.736,0.221,3.996-0.422c1.26-0.644,2.839-1.282,4-0.474c1.633,1.137,0.95,4.149,2.664,5.16
			c1.556,0.918,3.831-0.641,5.258,0.467c0.908,0.705,0.881,2.06,0.769,3.204l-0.347,3.55c-0.063,0.646-0.133,1.434,0.003,2.138
			c1.858-0.559,4.011-2.266,5.763-0.82c0.54,0.446,0.86,1.045,1.044,1.701c0.098-0.08,0.197-0.159,0.29-0.245
			c1.066-0.985,1.785-2.293,2.312-3.645C130.603,90.085,129.854,83.871,126.41,79.548z"/>
		<path style="fill:#1A100D;" d="M106.565,98.077c-0.224,1.611-1.225,2.803-2.235,2.662c-1.01-0.141-1.648-1.56-1.424-3.171
			c0.224-1.611,1.225-2.802,2.235-2.662C106.152,95.046,106.79,96.466,106.565,98.077z"/>
		<path style="fill:#1A100D;" d="M88.763,98.269c-0.224,1.611-1.225,2.803-2.235,2.662c-1.011-0.141-1.648-1.56-1.424-3.171
			c0.224-1.611,1.225-2.802,2.235-2.662C88.35,95.238,88.988,96.658,88.763,98.269z"/>
		<path style="fill:#FFAF7E;" d="M89.437,104.123c-0.325,0.384-0.686,0.857-0.542,1.34c0.121,0.406,0.557,0.628,0.967,0.738
			c0.813,0.218,1.671,0.176,2.51,0.118c1.016-0.071,2.168-0.24,2.74-1.082c0.237-0.349,0.339-0.771,0.422-1.185
			c0.459-2.289,0.484-4.665,0.073-6.964c-0.091-0.511-0.22-1.049-0.584-1.418c-0.303-0.307-0.899-0.509-1.249-0.169
			c-0.369,0.358-0.386,1.37-0.531,1.864C92.508,99.876,91.12,102.136,89.437,104.123z"/>
		<path style="fill:#A52B30;" d="M99.71,108.488c-1.092-0.354-2.645,1.075-3.592,1.407c-0.814,0.285-1.665,0.453-2.523,0.519
			c-0.463,0.036-0.928,0.042-1.391,0.024c-0.369-0.014-1.027-0.217-1.369-0.109c-0.75,0.238-0.672,1.146-0.193,1.558
			c0.476,0.41,1.137,0.709,1.737,0.885c2.293,0.675,4.987,0.67,6.896-0.965C100.104,111.096,101.451,109.052,99.71,108.488z"/>
		<path style="fill:#8E5421;" d="M110.041,89.142c-1.246-1.765-3.486-2.076-5.475-1.678c-1.061,0.212-2.089,0.606-3.035,1.13
			c-0.744,0.412-2.983,1.618-1.971,2.777c0.412,0.472,1.308,0.358,1.856,0.347c1.039-0.022,2.078-0.048,3.117-0.073
			c1.45-0.034,3.238,0.188,4.662-0.139C110.445,91.217,110.801,90.219,110.041,89.142z"/>
		<path style="fill:#8E5421;" d="M89.583,89.945c-1.247-1.765-3.486-2.076-5.475-1.678c-1.061,0.212-2.089,0.606-3.035,1.13
			c-0.744,0.412-2.983,1.618-1.971,2.777c0.412,0.472,1.308,0.358,1.856,0.347c1.039-0.022,2.078-0.048,3.117-0.072
			c1.45-0.034,3.238,0.188,4.662-0.139C89.987,92.02,90.344,91.021,89.583,89.945z"/>
		<path style="fill:#3D2B55;" d="M113.95,132.151c-0.063,0.165-0.114,0.336-0.146,0.517c-1.632,9.432-3.073,17.712-5.444,25.298
			c-2.447,7.829-4.45,16.716-7.226,24.384c-0.936,2.586-2.041,1.423-2.477-0.947c-0.724-3.944-2.716-16.932-3.154-21.415
			c-0.849-8.687-0.546-17.767,0.713-26.39c0.036-0.248,0.02-0.478-0.029-0.691c-1.289,0.486-2.622,0.889-3.925,1.217
			c-2.746,10.764-2.279,22.155-0.793,32.487c0.805,5.598,2.256,12.084,4.239,17.403c0.786,2.107,2.493,2.638,5.094,2.019
			c4.917-1.169,8.84-15.259,11.23-23.379c3.401-11.554,5.842-19.574,6.146-29.909C116.771,132.501,115.364,132.287,113.95,132.151z"
			/>
		<path style="fill:#ECFAFF;" d="M110.613,199.738l-18.418,2.382c-2.144,0.277-4.107-1.236-4.384-3.38l-1.363-10.543
			c-0.277-2.144,1.236-4.107,3.38-4.384l18.418-2.382c2.144-0.277,4.107,1.236,4.384,3.38l1.363,10.543
			C114.271,197.498,112.757,199.461,110.613,199.738z"/>
		<path style="fill:#3D2B55;" d="M95.438,196.74l-3.107,0.402c-0.969,0.125-1.856-0.559-1.981-1.527l-0.751-5.811
			c-0.125-0.969,0.559-1.856,1.527-1.981l3.107-0.402c0.969-0.125,1.856,0.558,1.981,1.527l0.751,5.811
			C97.09,195.727,96.407,196.614,95.438,196.74z"/>
		<path style="fill:#3D2B55;" d="M109.032,187.491l-9.439,1.221c-0.507,0.066-0.971-0.292-1.036-0.799
			c-0.066-0.507,0.292-0.971,0.799-1.036l9.439-1.221c0.507-0.066,0.971,0.292,1.037,0.799
			C109.896,186.962,109.539,187.426,109.032,187.491z"/>
		<path style="fill:#3D2B55;" d="M109.501,191.117l-9.439,1.221c-0.507,0.066-0.971-0.292-1.036-0.799
			c-0.066-0.507,0.292-0.971,0.799-1.036l9.439-1.221c0.507-0.066,0.971,0.292,1.036,0.799
			C110.365,190.587,110.008,191.051,109.501,191.117z"/>
		<path style="fill:#3D2B55;" d="M109.97,194.742l-9.439,1.221c-0.507,0.066-0.971-0.292-1.036-0.799
			c-0.065-0.507,0.292-0.971,0.799-1.036l9.439-1.221c0.507-0.066,0.971,0.292,1.036,0.799
			C110.834,194.213,110.476,194.677,109.97,194.742z"/>
		<path style="fill:#FF8E4E;" d="M129.92,227.302c-2.411,1.018-6.833,4.368-6.659,5.762c0.071,0.571,0.435,0.905,0.989,1.06
			c0.554,0.155,1.234,0.145,1.919,0.117c-0.238,0.862-0.528,2.07-0.315,2.869c0.213,0.798,0.859,1.52,1.679,1.625
			c0.699,0.09,1.413,0.145,2.066,0.18c-0.336,1.132-0.715,2.83,0.115,3.671c0.979,0.991,2.633,0.421,3.912-0.13
			c1.908-0.823,3.889-1.475,5.913-1.945c1.946-0.452,3.943-0.739,5.804-1.462c0.36-0.14,0.705-0.312,1.052-0.482
			c-0.045-4.467-0.996-8.843-3.649-12.536C140.168,225.653,134.794,225.243,129.92,227.302z"/>
		<path style="fill:#D5642D;" d="M137.807,237.034c1.116-0.228,0.642-1.927-0.47-1.706c-2.869,0.571-5.613,1.561-8.166,2.994
			c-0.192,0.108-0.382,0.232-0.571,0.361c-0.091,0.041-0.183,0.089-0.274,0.135c0.436,0.041,0.867,0.075,1.273,0.097
			c-0.122,0.412-0.249,0.9-0.322,1.394c0.26-0.156,0.52-0.313,0.786-0.46C132.506,238.498,135.079,237.592,137.807,237.034z"/>
		<path style="fill:#D5642D;" d="M136.897,232.574c0.849-0.012,1.047-1.273,0.202-1.496c-4.092-1.081-9.075,0.344-12.431,3.129
			c0.462,0.064,0.979,0.055,1.5,0.034c-0.108,0.393-0.223,0.858-0.3,1.322c1.202-0.911,2.458-1.701,3.948-2.222
			C132.158,232.523,134.464,232.607,136.897,232.574z"/>
		<path style="fill:#D5642D;" d="M169.792,188.847c-2.301-4.466-6.432-11.711-8.891-16.043c-4.61,5.032-12.585,8.531-18.188,10.515
			c2.432,3.264,7.231,9.365,9.471,12.73C158.388,194.652,164.176,192.007,169.792,188.847z"/>
		<path style="fill:#F2864A;" d="M169.792,188.847c-5.616,3.16-11.404,5.805-17.608,7.202c1.643,2.467,2.903,4.398,3.054,4.737
			c0.47,1.058-10.938,25.523-10.938,25.523s-0.586-0.137-1.554-0.278c2.654,3.693,3.604,8.068,3.649,12.536
			c1.591-0.777,3.048-1.825,4.389-2.987c2.332-2.02,4.33-4.398,6.086-6.934c12.684-18.312,19.326-24.551,17.615-29.784
			C173.875,196.99,171.977,193.088,169.792,188.847z"/>
		<path style="fill:#CA484B;" d="M98.479,278.476c-1.381-6.03-3.415-3.269-3.272,0.902c0.396,11.542,0.24,23.209-0.09,34.764
			c-0.217,7.586-1.248,14.099-2.145,20.406c2.913-8.554,5.653-17.369,6.749-22.802c0,0-1.214,13.291-2.102,27.066
			c0.948-8.593,1.278-17.479,1.997-25.791C100.625,301.332,101.08,289.836,98.479,278.476z"/>
		<path style="fill:#CAA845;" d="M117.982,431.16c0,0,10.1-5.065,15.494-7.985c3.033-1.641,6.336,1.8,4.518,4.73
			c-0.193,0.311-0.432,0.624-0.725,0.936c-3.497,3.74-17.972,5.898-17.972,5.898L117.982,431.16z"/>
		<path style="fill:#FDE599;" d="M87.775,436.777c-2.424-4.813,7.945-17.395,21.671-13.899c0.466,0.119,2.943,0.861,7.158,5.408
			c1.945,2.098,3.417,3.936,4.296,5.067c3.455-0.503,5.983-0.93,7.728-1.414c4.577-1.268,8.642-3.099,8.642-3.099
			s6.133,5.123-3.319,9.019C124.499,441.756,92.681,446.517,87.775,436.777z"/>
		<path style="fill:#CAA845;" d="M106.419,435.164c0.2,1.05-0.765,2.116-2.154,2.38c-1.389,0.264-2.677-0.374-2.877-1.424
			c-0.2-1.05,0.765-2.116,2.154-2.38C104.931,433.476,106.219,434.113,106.419,435.164z"/>
		<path style="fill:#CAA845;" d="M96.461,434.046c-0.069,1.067-1.269,1.858-2.68,1.767c-1.411-0.091-2.499-1.03-2.43-2.097
			c0.069-1.067,1.269-1.858,2.68-1.767C95.442,432.04,96.53,432.979,96.461,434.046z"/>
		<path style="fill:#CAA845;" d="M116.065,431.776c0.389,0.996-0.362,2.22-1.679,2.735c-1.317,0.515-2.7,0.125-3.089-0.87
			c-0.389-0.996,0.362-2.22,1.679-2.735C114.292,430.391,115.675,430.781,116.065,431.776z"/>
		<path style="fill:#CAA845;" d="M101.764,427.456c0.187,1.053-0.79,2.106-2.183,2.353c-1.392,0.247-2.672-0.406-2.859-1.459
			c-0.187-1.053,0.79-2.106,2.183-2.353C100.297,425.75,101.577,426.404,101.764,427.456z"/>
		<path style="fill:#CAA845;" d="M110.891,426.819c0.251,1.053-0.675,2.175-2.067,2.507c-1.392,0.332-2.724-0.253-2.974-1.305
			c-0.251-1.053,0.675-2.175,2.067-2.507C109.308,425.182,110.64,425.767,110.891,426.819z"/>
		<path style="fill:#CAA845;" d="M43.939,424.584c0,0,11.049-2.362,17.005-3.83c3.348-0.826,5.68,3.336,3.183,5.714
			c-0.265,0.252-0.575,0.495-0.937,0.724c-4.326,2.74-18.878,1.187-18.878,1.187L43.939,424.584z"/>
		<path style="fill:#FDE599;" d="M13.291,422.422c-1.136-5.268,12.065-14.837,24.47-8c0.421,0.232,2.632,1.573,5.567,7.035
			c1.354,2.52,2.317,4.669,2.883,5.985c3.47,0.383,6.024,0.605,7.835,0.576c4.749-0.076,9.143-0.825,9.143-0.825
			s4.647,6.501-5.481,7.894C47.581,436.479,15.589,433.083,13.291,422.422z"/>
		<path style="fill:#CAA845;" d="M31.741,425.55c-0.071,1.067-1.272,1.855-2.683,1.761c-1.411-0.094-2.497-1.035-2.426-2.102
			c0.071-1.067,1.272-1.855,2.683-1.761C30.726,423.543,31.812,424.483,31.741,425.55z"/>
		<path style="fill:#CAA845;" d="M22.198,421.161c-0.335,1.015-1.51,2.281-2.852,1.838c-1.343-0.443-2.16-1.625-1.824-2.641
			c0.335-1.015,1.695-1.479,3.038-1.036C21.902,419.766,22.534,420.146,22.198,421.161z"/>
		<path style="fill:#CAA845;" d="M41.928,424.698c0.127,1.062-0.909,2.058-2.313,2.225c-1.404,0.167-2.645-0.558-2.771-1.619
			c-0.126-1.061,0.909-2.058,2.313-2.225C40.561,422.912,41.802,423.637,41.928,424.698z"/>
		<path style="fill:#CAA845;" d="M29.174,416.92c-0.084,1.066-1.295,1.84-2.704,1.729c-1.41-0.111-2.484-1.065-2.4-2.131
			s1.295-1.84,2.704-1.729C28.183,414.9,29.258,415.854,29.174,416.92z"/>
		<path style="fill:#CAA845;" d="M38.168,418.599c-0.022,1.082-1.2,1.935-2.631,1.906c-1.431-0.029-2.573-0.93-2.55-2.012
			c0.022-1.082,1.2-1.935,2.631-1.906C37.048,416.617,38.19,417.518,38.168,418.599z"/>
	</g>
	<g id="guy_1">
		<path style="fill:#8E4126;" d="M297.146,418.251c-1.412-0.966-2.739-2.072-3.973-3.254c-1.179-1.128-2.321-2.344-3.776-3.083
			c-1.781-0.904-3.855-1.002-5.853-0.974c-4.935,0.072-9.825,2.046-14.728,2.615c-0.56,0.065-1.603,4.144-1.767,4.713
			c-0.229,0.798-0.421,1.608-0.579,2.424C276.518,423.688,287.21,421.66,297.146,418.251z"/>
		<path style="fill:#AC4D2B;" d="M315.285,426.115c-1.208-1.994-3.469-3.115-5.723-3.71c-2.254-0.595-4.607-0.77-6.844-1.426
			c-1.998-0.586-3.85-1.55-5.572-2.727c-9.937,3.409-20.629,5.437-30.675,2.443c-0.192,0.991-0.332,1.992-0.397,2.999
			c-0.054,0.832-0.103,1.841-0.077,2.893c1.955-0.027,3.91-0.056,5.865-0.075c4.714-0.046,9.58-0.042,13.926,1.785
			c2.188,0.92,4.178,2.278,6.404,3.099c3.463,1.277,7.281,1.177,10.941,0.695c4.468-0.589,8.829-1.722,13.134-3.072
			C316.109,427.992,315.821,426.998,315.285,426.115z"/>
		<path style="fill:#CAA845;" d="M271.862,426.511c-1.955,0.019-3.91,0.048-5.865,0.075c0.061,2.526,0.564,5.305,2.541,6.52
			c1.115,0.685,2.519,0.659,3.818,0.492c1.874-0.241,3.626-0.293,5.51-0.169c1.79,0.118,3.553,0.616,5.14,1.452
			c0.113,0.059,0.218,0.132,0.329,0.194c-0.801-2.615-1.313-5.269-1.443-7.937C278.631,426.484,275.21,426.478,271.862,426.511z"/>
		<path style="fill:#FDE599;" d="M316.266,429.018c-4.305,1.35-8.665,2.483-13.134,3.072c-3.659,0.482-7.478,0.583-10.941-0.695
			c-2.226-0.821-4.216-2.18-6.404-3.099c-1.26-0.53-2.566-0.893-3.896-1.159c0.131,2.668,0.642,5.323,1.443,7.937
			c1.69,0.951,3.202,2.22,4.977,3.003c2.266,1,4.821,1.122,7.295,1.002c5.926-0.289,11.702-1.87,17.423-3.441
			c0.993-0.273,2.052-0.588,2.698-1.39c0.667-0.829,0.731-1.979,0.711-3.043C316.424,430.478,316.376,429.741,316.266,429.018z"/>
		<path style="fill:#8E4126;" d="M350.398,414.052c-0.73-0.534-1.438-1.098-2.121-1.684c-1.239-1.062-2.446-2.214-3.939-2.872
			c-1.828-0.806-3.904-0.79-5.897-0.652c-4.924,0.341-9.698,2.58-14.563,3.416c-0.556,0.095-1.374,4.225-1.506,4.803
			c-0.167,0.732-0.3,1.472-0.409,2.215C331.905,420.65,341.452,418.213,350.398,414.052z"/>
		<path style="fill:#AC4D2B;" d="M370.964,422.259c-1.315-1.925-3.634-2.921-5.918-3.392c-2.283-0.471-4.642-0.517-6.912-1.049
			c-2.815-0.66-5.393-2.05-7.737-3.766c-8.945,4.162-18.493,6.599-28.435,5.227c-0.158,1.078-0.259,2.164-0.269,3.253
			c-0.008,0.834-0.002,1.844,0.081,2.893c1.951-0.134,3.901-0.27,5.852-0.396c4.705-0.304,9.563-0.566,14.003,1.021
			c2.234,0.799,4.296,2.046,6.564,2.744c3.528,1.086,7.335,0.777,10.962,0.096c4.429-0.832,8.721-2.202,12.946-3.785
			C371.888,424.089,371.546,423.112,370.964,422.259z"/>
		<path style="fill:#CAA845;" d="M327.627,425.029c-1.951,0.126-3.902,0.262-5.852,0.396c0.199,2.519,0.853,5.266,2.893,6.371
			c1.151,0.623,2.552,0.52,3.839,0.282c1.858-0.344,3.605-0.491,5.493-0.47c1.293,0.014,2.582,0.234,3.813,0.632
			c-0.405-2.35-0.624-4.748-0.729-7.211C333.976,424.655,330.768,424.826,327.627,425.029z"/>
		<path style="fill:#FDE599;" d="M372.393,427.28c-0.054-0.726-0.141-1.459-0.291-2.175c-4.225,1.583-8.517,2.953-12.946,3.785
			c-3.628,0.682-7.435,0.99-10.962-0.096c-2.268-0.698-4.329-1.946-6.564-2.744c-1.475-0.527-2.999-0.837-4.546-1.022
			c0.105,2.463,0.324,4.861,0.729,7.211c0.476,0.154,0.945,0.329,1.399,0.537c1.879,0.862,3.539,2.173,5.472,2.903
			c2.318,0.875,4.875,0.857,7.339,0.602c5.901-0.612,11.583-2.507,17.209-4.389c0.976-0.327,2.017-0.699,2.618-1.535
			C372.47,429.493,372.471,428.341,372.393,427.28z"/>
		<path style="fill:#1D372D;" d="M301.908,337.228c0.373-3.719,0.87-7.423,1.564-11.105c0.509-2.701,0.78-6.184-1.632-7.501
			c-0.805-0.44-1.753-0.511-2.669-0.57c-10.581-0.679-21.19-0.921-31.791-0.724c0.281,4.387,0.561,8.803,0.048,13.169
			c-0.291,2.478-0.836,4.909-1.466,7.324C277.431,333.429,290.931,332.523,301.908,337.228z"/>
		<path style="fill:#265140;" d="M289.731,407.503c-0.191-1.908-1.384-3.859-3.251-4.298c-1.411-0.332-2.857,0.238-4.292,0.448
			c-1.435,0.211-3.221-0.166-3.698-1.535c-0.261-0.749-0.04-1.572,0.194-2.33c1.435-4.657,3.323-9.175,5.625-13.47
			c0.973-1.815,6.405-7.747,4.403-9.891c-0.409-0.438-1.041-0.575-1.635-0.65c-4.896-0.614-9.659,1.507-14.442,2.719
			c-1.855,0.47-4.278,0.575-5.199-1.102c-0.443-0.806-0.366-1.792-0.206-2.697c0.932-5.279,4.189-9.837,5.894-14.919
			c0.326-0.971,0.585-2.079,0.104-2.983c-0.855-1.607-3.209-1.373-4.94-0.812c-2.444,0.792-4.819,1.79-7.108,2.956
			c-2.645,18.337-1.422,36.962,0.616,55.634c0,0,15.09,1.045,26.308,0.879c0.226-0.772,0.436-1.548,0.671-2.317
			C289.333,411.301,289.922,409.411,289.731,407.503z"/>
		<path style="fill:#316D56;" d="M299.164,388.623c2.048-17.032,1.036-34.37,2.744-51.395c-10.977-4.705-24.477-3.799-35.945,0.594
			c-0.677,2.598-1.453,5.178-2.126,7.776c-1.148,4.427-2.013,8.876-2.657,13.341c2.289-1.166,4.664-2.164,7.108-2.956
			c1.731-0.561,4.085-0.795,4.94,0.812c0.481,0.904,0.222,2.012-0.104,2.983c-1.705,5.082-4.962,9.64-5.894,14.919
			c-0.16,0.906-0.237,1.891,0.206,2.697c0.921,1.677,3.344,1.572,5.199,1.102c4.784-1.212,9.546-3.333,14.442-2.719
			c0.594,0.074,1.226,0.212,1.635,0.65c2.002,2.143-3.43,8.076-4.403,9.891c-2.302,4.295-4.19,8.812-5.625,13.47
			c-0.234,0.758-0.455,1.581-0.194,2.33c0.477,1.369,2.264,1.746,3.698,1.535c1.435-0.211,2.88-0.781,4.292-0.448
			c1.867,0.44,3.06,2.39,3.251,4.298c0.191,1.908-0.398,3.798-0.957,5.632c-0.234,0.769-0.445,1.545-0.671,2.317
			c4.37-0.065,8.154-0.313,10.227-0.879c-0.594-4.013-0.517-7.853-0.519-11.91C297.808,397.958,298.602,393.294,299.164,388.623z"/>
		<path style="fill:#1D372D;" d="M334.738,334.918c3.949,0.224,7.857,0.817,11.719,1.656c-0.269-5.015-0.344-10.032-0.069-15.056
			c0.151-2.744-0.036-6.233-2.6-7.222c-0.856-0.33-1.805-0.277-2.72-0.215c-10.579,0.713-25.388-21.41-35.872-19.826
			c0.853,4.312,5.97,31.927,6.033,36.323c0.04,2.766-0.237,5.516-0.597,8.261C318.143,335.573,326.538,334.452,334.738,334.918z"/>
		<path style="fill:#2B5D49;" d="M350.806,398.139c-0.62-4.664-0.444-9.391-0.499-14.096c-0.186-15.868-3.002-31.654-3.849-47.469
			c-3.862-0.839-7.771-1.432-11.719-1.656c-8.201-0.466-16.595,0.656-24.106,3.919c-0.314,2.394-0.692,4.785-0.986,7.18
			c-0.508,4.135-0.779,8.256-0.866,12.367c3.494-2.626,7.542-4.52,11.813-5.452c2.38-0.52,5.607-0.27,6.275,2.074
			c0.275,0.964-0.017,1.993-0.357,2.936c-2.647,7.352-8.185,13.383-10.861,20.724c-0.391,1.073-0.723,2.219-0.53,3.344
			c0.193,1.126,1.056,2.211,2.194,2.302c0.743,0.059,1.451-0.297,2.105-0.655c6.417-3.513,12.321-8.214,19.371-10.167
			c1.255-0.348,2.744-0.556,3.733,0.29c0.807,0.69,0.995,1.865,0.938,2.924c-0.147,2.729-1.531,5.219-2.907,7.58
			c-5.291,9.078-10.995,17.929-15.756,27.297c-0.435,0.855-0.858,1.717-1.276,2.582c9.072-0.733,24.476-2.234,29.357-4.284
			C351.766,405.977,351.34,402.161,350.806,398.139z"/>
		<path style="fill:#265140;" d="M340.556,384.284c1.376-2.361,2.759-4.851,2.907-7.58c0.057-1.06-0.131-2.234-0.938-2.924
			c-0.989-0.846-2.479-0.638-3.733-0.29c-7.05,1.953-12.954,6.654-19.371,10.167c-0.654,0.358-1.361,0.715-2.105,0.655
			c-1.138-0.091-2.002-1.177-2.194-2.302c-0.193-1.126,0.139-2.271,0.53-3.344c2.676-7.341,8.214-13.372,10.861-20.724
			c0.34-0.944,0.632-1.972,0.357-2.936c-0.668-2.343-3.895-2.593-6.275-2.074c-4.272,0.933-8.319,2.826-11.813,5.452
			c-0.398,18.938,3.315,37.641,7.879,56.281c0,0,2.797-0.175,6.864-0.503c0.418-0.865,0.841-1.727,1.276-2.582
			C329.561,402.213,335.265,393.362,340.556,384.284z"/>
		<path style="fill:#FEF9D4;" d="M344.548,305.148c1.285,2.29,4.635,1.961,7.169,1.272c-0.592-4.642-1.268-9.948-1.991-15.623
			c-1.384,3.818-4.64,7.079-5.47,11.134C344.035,303.009,344.009,304.189,344.548,305.148z"/>
		<path style="fill:#EEEAC8;" d="M314.598,320.78c0.741,3.597,4.005,6.114,7.672,5.923c18.129-0.942,31.687-2.714,31.687-2.714
			s-0.902-7.068-2.24-17.57c-2.534,0.689-5.884,1.018-7.169-1.272c-0.539-0.96-0.513-2.139-0.292-3.218
			c0.83-4.055,4.086-7.316,5.47-11.134c-0.096-0.756-0.193-1.518-0.291-2.286c-13.603,4.123-25.958,11.524-37.332,20.154
			L314.598,320.78z"/>
		<path style="fill:#EEEAC8;" d="M300.623,327.276c3.721,0.006,6.862-2.764,7.354-6.453l1.332-9.998
			c-1.449,1.139-2.885,2.292-4.303,3.462c-4.552,3.757-9.803,7.921-15.639,7.041c-1.099-0.166-2.244-0.564-2.899-1.463
			c-1.067-1.464-0.408-3.51,0.33-5.164c5.387-12.077,13.232-23.051,22.916-32.057c4.349-4.045,9.061-7.695,13.281-11.873
			c1.639-1.623,3.323-3.724,2.839-5.979c-0.369-1.721-1.917-2.954-2.514-4.61c-0.871-2.417,0.46-5.047,1.961-7.131
			c4.576-6.35,10.957-11.011,17.73-15.062c-1.523-12.02-2.61-20.65-2.701-21.516c-0.329-3.128-0.07-21.063-0.848-28.839
			c-0.778-7.777,1.944-40.44,1.944-40.44c-13.375-14.42-46.299-13.472-55.605-11.406c-12.442,2.762-24.892,16.109-24.892,16.109
			s7.554,53.309,7.76,59.269c0.206,5.96-3.288,25.278-6.782,41.389c-0.371,1.709-0.783,3.835-1.224,6.264
			c4.227-1.853,8.496-3.575,12.876-4.891c7.184-2.158,15.642-2.995,21.589,1.577c0.962,0.74,1.853,1.642,2.269,2.782
			c0.614,1.686,0.087,3.566-0.62,5.215c-2.572,5.998-7.366,10.718-12.097,15.214c-9.861,9.37-20.029,18.532-31.17,26.295
			c-1.367,9.595-2.309,16.516-2.309,16.516C264.759,325.884,283.147,327.247,300.623,327.276z"/>
		<path style="fill:#FEF9D4;" d="M325.282,253.05c-1.502,2.084-2.833,4.714-1.961,7.131c0.597,1.656,2.145,2.889,2.514,4.61
			c0.484,2.255-1.2,4.356-2.839,5.979c-4.221,4.179-8.932,7.829-13.281,11.873c-9.684,9.006-17.529,19.98-22.916,32.057
			c-0.738,1.654-1.397,3.7-0.33,5.164c0.655,0.898,1.799,1.297,2.899,1.463c5.836,0.879,11.087-3.285,15.639-7.041
			c1.417-1.17,2.854-2.323,4.303-3.462l1.273-9.552l1.522,7.392c11.374-8.63,23.729-16.031,37.332-20.154
			c-2.127-16.699-4.591-36.065-6.423-50.523C336.239,242.039,329.858,246.7,325.282,253.05z"/>
		<path style="fill:#FEF9D4;" d="M296.777,263.5c0.707-1.649,1.234-3.529,0.62-5.215c-0.415-1.14-1.307-2.043-2.269-2.782
			c-5.946-4.572-14.405-3.735-21.589-1.577c-4.38,1.316-8.649,3.038-12.876,4.891c-2.212,12.185-5.143,32.079-7.154,46.191
			c11.142-7.763,21.309-16.925,31.17-26.295C289.412,274.218,294.205,269.498,296.777,263.5z"/>
		<path style="fill:#D7D2A2;" d="M290.9,194.057c-2.129-7.662-4.54-15.442-8.957-22.137c-3.868-5.863-9.175-10.701-15.832-13.031
			c-0.057-0.4-0.316-0.766-0.733-0.852c-0.644-0.133-1.262,0.417-1.57,0.928c-0.251,0.416-0.346,0.893-0.32,1.367
			c-0.099,0.22-0.044,0.446,0.099,0.589c0.006,0.021,0.008,0.042,0.014,0.063c-0.813,3.233-0.03,6.432,1.221,9.539
			c1.57,3.901,3.475,7.688,5.234,11.507c1.911,4.15,3.824,8.299,5.737,12.449c1.112,2.414,2.05,6.236,4.959,7.056
			c1.254,0.354,2.574,0.11,3.82-0.156c1.896-0.404,4.064-0.675,5.86-1.394C293.018,198.95,291.462,196.08,290.9,194.057z"/>
		<path style="fill:#C0BA7E;" d="M309.505,230.808c7.07-2.402,14.243-5.4,21.692-4.884c3.507,0.243,6.974,1.253,10.461,1.366
			c-0.782-6.196-1.287-10.238-1.348-10.816c-0.101-0.96-0.147-3.318-0.184-6.345c-2.755-0.454-5.565-0.694-8.332-0.862
			c-15.197-0.918-30.715-0.087-45.124,4.829c-5.097,1.739-10.512,4.008-15.679,2.491c-0.87-0.255-1.713-0.617-2.551-0.987
			c-0.425,4.317-1.388,10.474-2.614,17.237c2.873,1.389,6.051,2.15,9.227,2.581C286.638,236.989,298.435,234.569,309.505,230.808z"
			/>
		<path style="fill:#C6E8F3;" d="M292.06,147.838c0.109,0.929,9.145,34.569,14.708,33.145c5.563-1.424,13.124-33.721,13.124-33.721
			l-6.465-8.685l-15.45-0.632L292.06,147.838z"/>
		<path style="fill:#FFF8F5;" d="M310.312,192.258c0,2.069-1.222,3.746-2.728,3.746c-1.507,0-2.728-1.677-2.728-3.746
			c0-2.069,1.222-3.746,2.728-3.746C309.09,188.511,310.312,190.189,310.312,192.258z"/>
		<ellipse style="fill:#FFF8F5;" cx="310.312" cy="241.378" rx="2.728" ry="3.746"/>
		<ellipse style="fill:#FFF8F5;" cx="310.312" cy="286.636" rx="2.728" ry="3.746"/>
		<path style="fill:#F5AE66;" d="M281.991,195.869l7.951,12.852c0,0,1.746,0.49,4.65,1.258c-0.501-5.02-1.622-9.958-4.107-14.066
			C286.798,195.531,283.254,195.351,281.991,195.869z"/>
		<path style="fill:#FFBF7E;" d="M300.955,197.358c0,0-5.372-0.916-10.47-1.445c2.485,4.107,3.606,9.046,4.107,14.066
			c2.806,0.742,6.691,1.744,11.149,2.82C307.089,203.863,300.955,197.358,300.955,197.358z"/>
		<path style="fill:#E4DFBD;" d="M349.461,210.286c-1.587,0.524-3.4,0.568-4.87-0.227c-1.798-0.972-2.863-3.046-4.76-3.807
			c-1.57-0.631-3.379-0.209-4.897,0.538c-1.518,0.747-2.871,1.802-4.399,2.53c-1.865,0.889-4.085,1.255-6.003,0.488
			c-2.549-1.018-4.123-3.807-6.742-4.628c-2.468-0.773-5.063,0.413-7.594,0.945c-1.541,0.324-3.158,0.354-4.726,0.119
			c0.448,1.962,0.63,4.167,0.27,6.554c6.125,1.478,13.319,3.094,20.236,4.357c10.516,1.921,20.359,4.037,24.913,0.66
			c0,0,2.934-4.262,4.395-11.15c-0.493,0.385-0.987,0.768-1.49,1.14C352.451,208.802,351.048,209.762,349.461,210.286z"/>
		<path style="fill:#FEF9D4;" d="M338.339,162.106c-1.892,11.398-3.295,26.387,0.565,33.898c0,0-11.345-1.229-23.412-0.869
			c-5.73,0.171-14.538,2.223-14.538,2.223s3.286,3.502,4.516,8.887c1.568,0.234,3.185,0.205,4.726-0.119
			c2.531-0.532,5.126-1.719,7.594-0.945c2.619,0.821,4.193,3.609,6.742,4.628c1.919,0.766,4.138,0.4,6.003-0.488
			c1.528-0.728,2.88-1.783,4.399-2.53c1.519-0.747,3.327-1.169,4.897-0.538c1.897,0.762,2.962,2.835,4.76,3.807
			c1.47,0.795,3.283,0.751,4.87,0.227c1.587-0.524,2.99-1.484,4.333-2.478c0.503-0.372,0.997-0.755,1.49-1.14
			c0.217-1.023,0.403-2.103,0.54-3.237c0.862-7.118,1.048-16.064-0.071-24.903C347.866,176.015,341.122,169.936,338.339,162.106z"/>
		<path style="fill:#FEFCEB;" d="M341.407,147.193c0,0-1.667,6.474-3.067,14.912c2.783,7.831,9.527,13.909,17.414,16.422
			C354.174,166.053,349.992,153.793,341.407,147.193z"/>
		<path style="fill:#2C213E;" d="M311.565,161.042l-3.493-12.987l-2.923-0.217l-0.98,4.378
			C306.347,155.445,308.62,158.58,311.565,161.042z"/>
		<path style="fill:#4EAFE0;" d="M312.691,165.226l-1.126-4.185c-2.945-2.462-5.218-5.596-7.396-8.826l-0.867,3.875
			C305.375,160.304,308.838,162.921,312.691,165.226z"/>
		<path style="fill:#2C213E;" d="M300.062,170.568l6.707,13.107l2.628-7.159c-3.238-2.092-6.218-4.74-9.033-7.296L300.062,170.568z"
			/>
		<path style="fill:#4EAFE0;" d="M301.748,163.034l-1.385,6.186c2.815,2.556,5.795,5.205,9.033,7.296l1.279-3.484
			C306.949,170.395,303.973,166.802,301.748,163.034z"/>
		<path style="fill:#2C213E;" d="M310.676,173.033l2.375-6.469l-0.36-1.337c-3.853-2.306-7.316-4.923-9.389-9.135l-1.554,6.943
			C303.973,166.802,306.949,170.395,310.676,173.033z"/>
		<path style="fill:#3D2B70;" d="M310.312,139.692c-0.952-1.08-2.254-1.748-3.691-1.748c-2.917,0-5.282,2.742-5.282,6.124
			c0,1.001,0.211,1.943,0.578,2.777C305.041,144.895,307.93,142.631,310.312,139.692z"/>
		<path style="fill:#4EAFE0;" d="M310.312,139.692c-2.382,2.939-5.271,5.203-8.395,7.153c0.516,1.173,1.352,2.118,2.369,2.703
			c2.723-2.005,5.142-4.312,7.514-6.668C311.59,141.644,311.06,140.54,310.312,139.692z"/>
		<path style="fill:#3D2B70;" d="M304.286,149.549c0.705,0.406,1.494,0.644,2.335,0.644c2.917,0,5.282-2.742,5.282-6.124
			c0-0.407-0.037-0.803-0.102-1.187C309.429,145.237,307.009,147.544,304.286,149.549z"/>
		<path style="fill:#DDF6FF;" d="M290.486,131.966c0,0,5.314-3.905,7.332-4.932c2.018-1.028,18.973,1.13,20.103,3.288
			c1.13,2.158-0.719,20.756-0.719,20.756l-9.248-10.892l-2.955-0.617l-8.862,13.05L290.486,131.966z"/>
		<path style="fill:#FFBF7E;" d="M297.025,124.526c-0.041,2.754-0.041,6.192-0.041,6.192s4.551,10.74,9.466,10.74
			s9.921-10.285,9.921-10.285l0.069-3.937C309.864,128.839,303.164,128.687,297.025,124.526z"/>
		<path style="fill:#D28D4E;" d="M316.44,127.236l0.113-6.439l-19.387,0.364c-0.071,0.107-0.114,1.596-0.141,3.365
			C303.164,128.687,309.864,128.839,316.44,127.236z"/>
		<path style="fill:#FFBF7E;" d="M329.004,83.716c0,0-4.674-8.89-7.332-11.731c-2.658-2.841-15.489,0.916-19.888,2.291
			c-4.399,1.375-15.672,13.747-16.13,16.222c-0.143,0.775-0.278,2.699-0.336,5.196c-0.096,4.113,0.018,9.778,0.638,14.427
			c0.206,1.545,0.467,2.981,0.797,4.206c1.925,7.149,18.788,10.815,23.554,10.723c4.766-0.092,15.214-6.782,17.23-9.806
			c2.016-3.024,0.825-13.747,0.825-13.747L329.004,83.716z"/>
		<path style="fill:#EF9663;" d="M293.169,110.277c0.459,1.737,0.2,3.312-0.578,3.517c-0.779,0.206-1.782-1.035-2.241-2.772
			c-0.459-1.737-0.2-3.312,0.579-3.517C291.706,107.299,292.71,108.541,293.169,110.277z"/>
		<path style="fill:#EF9663;" d="M326.684,110.84c-0.234,1.781-1.071,3.14-1.869,3.035c-0.798-0.105-1.256-1.634-1.022-3.415
			c0.234-1.781,1.071-3.14,1.869-3.035C326.46,107.53,326.918,109.059,326.684,110.84z"/>
		<path style="fill:#232021;" d="M333.532,81.51c-0.795-5.223-3.373-9.959-8.204-12.246c1.323-1.863,2.572-4.713,0.852-6.271
			c-1.47-1.331-3.458-0.235-5.044,1.174c0.367-2.195,0.198-4.493-2.223-4.509c-2.718-0.018-4.446,3.135-5.134,5.7
			c-5.001-4.834-14.117-5.246-20.338-3.362c-8.807,2.668-14.944,10.936-16.688,19.744c-1.045,5.28-0.746,12.592,5.106,14.913
			c2.794,1.108,5.992,0.344,6.662-2.377c1.245-5.051,3.044-8.916,7.213-12.063c1.009,1.03,2.511,1.499,4.052,1.214
			c2.483-0.459,4.154-2.425,5.753-4.285c0.76,1.619,2.641,2.511,4.691,2.182c3.218-0.516,5.805-3.373,7.426-6.145
			c1.437,2.177,3.63,3.333,5.65,5.07c3.397,2.922,4.677,6.871,4.814,11.231c0.022,0.709,0.483,1.069,0.994,1.132
			c0.177,0.27,0.466,0.512,0.899,0.499C333.668,92.997,334.042,84.862,333.532,81.51z"/>
		<path style="fill:#EF9663;" d="M285.318,95.694c-0.828-0.265-1.7-0.337-2.572-0.166c-3.306,0.648-5.342,4.46-4.547,8.513
			c0.795,4.054,4.119,6.814,7.425,6.166c0.113-0.022,0.222-0.057,0.332-0.087C285.335,105.472,285.222,99.807,285.318,95.694z"/>
		<path style="fill:#423235;" d="M315.719,98.937c-3.066-3.775-8.942-3.96-12.04-0.186c-0.568,0.692,0.004,1.965,0.762,1.731
			c1.69-0.52,3.205-0.747,4.964-0.769c2.008-0.026,3.364,0.195,5.152,1.218C315.478,101.458,316.587,100.005,315.719,98.937z"/>
		<path style="fill:#DDF6FF;" d="M312.871,93.782c-0.164,0.295-0.405,7.567,1.351,8.31c1.757,0.743,15.944,1.959,17.16,0.338
			c1.216-1.621,3.108-8.918,1.284-9.728C330.842,91.89,314.223,91.35,312.871,93.782z"/>
		<path style="fill:#FFF8F5;" d="M329.335,98.039c-1.191,1.168-2.74,1.519-3.46,0.785c-0.72-0.734-0.338-2.276,0.853-3.444
			c1.191-1.168,2.74-1.519,3.46-0.785C330.909,95.33,330.527,96.871,329.335,98.039z"/>
		<path style="fill:#DDF6FF;" d="M305.72,93.782c0.164,0.295,0.405,7.567-1.351,8.31c-1.757,0.743-15.944,1.959-17.16,0.338
			c-1.216-1.621-3.108-8.918-1.284-9.728C287.75,91.89,304.369,91.35,305.72,93.782z"/>
		<path style="fill:#423235;" d="M322.54,97.479c0,1.542-1.143,2.792-2.553,2.792s-2.553-1.25-2.553-2.792
			c0-1.542,1.143-2.792,2.553-2.792S322.54,95.937,322.54,97.479z"/>
		<path style="fill:#423235;" d="M300.371,97.479c0,1.542-1.143,2.792-2.553,2.792s-2.553-1.25-2.553-2.792
			c0-1.542,1.143-2.792,2.553-2.792S300.371,95.937,300.371,97.479z"/>
		<path style="fill:#EF9663;" d="M315.086,103.17c0,2.083-2.439,4.227-5.626,4.227c-3.187,0-5.916-2.145-5.916-4.227
			c0-2.082,2.584-3.771,5.771-3.771C312.502,99.399,315.086,101.088,315.086,103.17z"/>
		<path style="fill:#E95B62;" d="M300.914,109.867c-0.705-0.139-1.413-0.274-2.135-0.391c-1.728-0.279-2.732,1.916-1.182,2.803
			c0.979,0.56,2.048,1.02,3.166,1.403C300.71,112.395,300.826,111.09,300.914,109.867z"/>
		<path style="fill:#FFF8F5;" d="M308.881,110.872c-2.771,0.086-5.331-0.487-7.967-1.005c-0.088,1.223-0.204,2.527-0.15,3.815
			c5.096,1.746,11.348,1.689,16.236,0.123c0-1.264,0-2.554,0-3.947C314.266,110.285,311.65,110.786,308.881,110.872z"/>
		<path style="fill:#E95B62;" d="M319.487,109.509c-0.845,0.101-1.671,0.222-2.487,0.35c0,1.392,0,2.682,0,3.947
			c1.182-0.379,2.287-0.843,3.273-1.395C321.628,111.653,320.966,109.332,319.487,109.509z"/>
		<path style="fill:#FFCC9A;" d="M314.425,118.401c-2.915-1.85-6.877-1.578-9.682,0.315c-0.794,0.536-0.106,1.73,0.753,1.288
			c2.679-1.378,5.346-1.294,8.07-0.133C314.549,120.291,315.377,119.005,314.425,118.401z"/>
		<path style="fill:#232021;" d="M324.766,86.709c-1.536-1.158-3.967-1.296-5.809-1.164c-1.868,0.134-4.048,0.556-5.215,2.155
			c-0.378,0.518-0.132,1.509,0.463,1.767c1.622,0.703,3.09,0.421,4.805,0.325c1.754-0.098,3.714,0.129,5.396-0.336
			C325.763,89.081,325.751,87.451,324.766,86.709z"/>
		<path style="fill:#232021;" d="M293.213,86.709c1.536-1.158,3.967-1.296,5.809-1.164c1.868,0.134,4.048,0.556,5.215,2.155
			c0.378,0.518,0.132,1.509-0.463,1.767c-1.622,0.703-3.09,0.421-4.805,0.325c-1.754-0.098-3.714,0.129-5.396-0.336
			C292.216,89.081,292.228,87.451,293.213,86.709z"/>
		<path style="fill:#FEFCEB;" d="M292.155,130.76c0,0,3.392,28.535,14.613,52.915c0,0-16.678-10.508-16.818-17.551
			c-0.141-7.042,2.254-9.578,2.254-9.578s-6.248-1.088-7.888-6.479C281.607,141.161,282.537,134.286,292.155,130.76z"/>
		<path style="fill:#FEFCEB;" d="M318.141,130.332c0,0,0.455,4.28-0.402,10.817c-1.359,10.364-4.97,26.66-10.97,42.527
			c0,0,16.026-11.142,15.736-18.18c-0.29-7.038-2.835-9.422-2.835-9.422s6.17-1.468,7.477-6.949
			C329.306,140.068,327.957,133.262,318.141,130.332z"/>
		<path style="fill:#DADADA;" d="M323.125,188.634c0.939,0,1.59-0.152,1.65-0.166c0.723-0.176,1.166-0.902,0.995-1.627
			c-0.17-0.725-0.891-1.179-1.626-1.009c-0.02,0.005-2.025,0.444-3.678-0.644c-0.228,0.926-0.338,1.884-0.38,2.851
			C321.188,188.502,322.275,188.634,323.125,188.634z"/>
		<path style="fill:#2C213E;" d="M335.559,157.664c-1.839-1.948-3.986-2.231-5.652-2.26c-3.709-0.037-6.809,1.099-9.176,3.457
			c-3.763,3.751-5.604,10.42-5.472,19.822c0.056,3.969,1.164,6.819,3.295,8.471c0.499,0.387,1.017,0.669,1.532,0.885
			c0.042-0.967,0.152-1.925,0.38-2.851c-0.091-0.06-0.182-0.122-0.271-0.192c-1.434-1.126-2.182-3.263-2.226-6.351
			c-0.12-8.52,1.496-14.697,4.674-17.865c1.854-1.847,4.237-2.728,7.216-2.666c1.266,0.022,2.593,0.208,3.729,1.411
			c1.864,1.974,2.72,6.242,2.474,12.342c-0.168,4.19-0.839,6.933-1.649,8.739c0.734,0.552,1.463,1.173,2.1,1.88
			c1.319-2.501,2.077-6.016,2.257-10.51C339.053,164.934,338.003,160.252,335.559,157.664z"/>
		<path style="fill:#DADADA;" d="M334.414,180.605c-0.569,1.268-1.206,2.078-1.788,2.585c-1.135,0.988-2.132,0.901-2.142,0.902
			c-0.736-0.107-1.43,0.402-1.538,1.142c-0.11,0.741,0.401,1.43,1.142,1.539c0.213,0.031,2.15,0.261,4.18-1.422
			c0.874-0.724,1.622-1.682,2.246-2.865C335.878,181.778,335.148,181.156,334.414,180.605z"/>
		<path style="fill:#FEFCEB;" d="M272,170c0-0.572-0.009-1.145-0.02-1.717c-4.189-8.134-8.245-14.723-11.07-16.387
			c-3.89,2.791-12.065,14.765-6.521,39.471c0.482,2.15,1.011,4.193,1.577,6.143C265.426,192.514,271.313,180.312,272,170z"/>
		<path style="fill:#FEF9D4;" d="M291.6,208.944c-0.576-0.085-1.136-0.162-1.658-0.223c0,0-9.266-23.551-17.962-40.438
			c0.011,0.572,0.02,1.144,0.02,1.717c-0.687,10.312-6.574,22.514-16.034,27.51c5.941,20.461,16.355,30.052,28.311,31.097
			c10.154,0.887,20.736-2.075,28.701-5.208C304.26,221.035,296.405,216.689,291.6,208.944z"/>
		<path style="fill:#D7D2A2;" d="M312.979,223.399c7.731-3.04,12.997-6.242,12.997-6.242s-24.129-6.689-36.034-8.436
			C294.747,216.466,304.26,221.035,312.979,223.399z"/>
		<path style="fill:#FFBF7E;" d="M351.591,192.324c0.866-0.295,1.578-1.193,1.539-2.146c-0.028-0.675-0.457-1.318-1.069-1.603
			c-0.496-0.231-1.129-0.268-1.451-0.71c-0.25-0.343-0.217-0.815-0.108-1.226c0.108-0.41,0.281-0.813,0.275-1.238
			c-0.01-0.699-0.524-1.318-1.15-1.63c-0.626-0.312-1.347-0.369-2.046-0.365c-0.372,0.002-0.75,0.018-1.109-0.078
			s-0.705-0.328-0.83-0.678c-0.06-0.167-0.067-0.351-0.148-0.508c-0.077-0.148-0.212-0.257-0.351-0.349
			c-0.772-0.513-1.752-0.636-2.672-0.526c-1.154,0.138-2.385,0.547-3.482,0.906c-1.19,0.389-2.347,0.874-3.472,1.423
			c-2.683,1.309-5.178,2.967-7.689,4.582c-3.187,2.05-6.461,4.099-8.996,6.896c10.74-0.081,20.074,0.93,20.074,0.93
			c2.811-0.888,5.654-1.673,8.491-2.472C348.792,193.138,350.219,192.792,351.591,192.324z"/>
		<path style="fill:#D28D4E;" d="M337.676,188.27c3.498-1.992,6.859-3.55,10.438-4.852c-0.178-0.01-0.356-0.013-0.534-0.012
			c-0.372,0.002-0.75,0.018-1.109-0.078s-0.705-0.328-0.83-0.678c-0.06-0.167-0.067-0.351-0.148-0.508
			c-0.077-0.148-0.212-0.257-0.351-0.349c-0.084-0.056-0.18-0.09-0.268-0.138c-2.983,1.222-5.82,2.825-8.269,4.745
			C335.676,187.126,336.569,188.9,337.676,188.27z"/>
		<path style="fill:#D28D4E;" d="M340.694,192.677c4.013-1.678,7.802-2.88,11.848-3.758c-0.143-0.138-0.301-0.26-0.481-0.344
			c-0.496-0.231-1.129-0.268-1.451-0.71c-0.25-0.343-0.217-0.815-0.108-1.226c0.01-0.036,0.021-0.073,0.032-0.109
			c-3.775,0.815-7.474,2.228-10.676,4.161C338.848,191.3,339.519,193.169,340.694,192.677z"/>
		<path style="fill:#3D2B70;" d="M283.216,141.449c-1.923,10.273-1.855,22.605,2.099,32.407c0.717,1.776,3.613,0.712,3.15-1.127
			c-3.342-13.259-7.029-38.003,8.528-44.836c0.005-0.98,0.014-2.091,0.029-3.125C289.054,125.783,284.576,134.18,283.216,141.449z"
			/>
		<path style="fill:#3D2B70;" d="M316.474,125.289l-0.063,3.605c8.621,4.958,10.361,16.158,9.665,26.948
			c1.144-0.293,2.371-0.436,3.673-0.435c0.044-4.739-0.407-9.458-1.221-13.808C327.271,134.885,323.346,127.22,316.474,125.289z"/>
		<path style="fill:#DADADA;" d="M293.566,174.286c0.255,3.633-2.265,6.77-5.628,7.005c-3.363,0.236-6.296-2.519-6.55-6.152
			c-0.255-3.633,2.265-6.77,5.628-7.005C290.378,167.899,293.311,170.653,293.566,174.286z"/>
		<path style="fill:#FFF8F5;" d="M292.625,98.039c-1.191,1.168-2.74,1.519-3.46,0.785c-0.72-0.734-0.338-2.276,0.853-3.444
			c1.191-1.168,2.74-1.519,3.46-0.785C294.198,95.33,293.816,96.871,292.625,98.039z"/>
	</g>
	<g id="girl_2">
		<path style="fill:#FD7F83;" d="M160.274,422.951c-4.297,2.757-9.26,4.547-13.543,7.388c-1.585,1.051-3.168,2.447-3.687,4.213
			c8.742,6.327,22.003,1.671,31.72-1.568c4.627-1.851,10.18,0,15.732-0.925c0.978-0.489,1.956-1.111,2.934-1.79
			c-0.056-0.649-0.128-1.296-0.208-1.93C181.672,429.948,170.101,429.072,160.274,422.951z"/>
		<path style="fill:#DF6D71;" d="M193.221,428.338c-0.433-3.429-1.129-6.406-1.129-6.406c0.088-0.645,0.013-0.164-0.377-0.686
			c-1.853-2.481-4.768-4.009-7.781-4.723c-3.013-0.714-6.149-0.684-9.243-0.548c-2.715,0.119-5.551,0.355-7.86,1.79
			c-1.274,0.792-2.311,1.904-3.44,2.893c-0.977,0.856-2.032,1.598-3.119,2.294C170.101,429.072,181.672,429.948,193.221,428.338z"/>
		<path style="fill:#DDF6FF;" d="M193.4,430.289c-1.936,1.342-4.249,2.042-6.604,2.046c-4.28,0.008-8.436-0.79-12.033,0.649
			c-9.717,3.239-22.977,7.895-31.72,1.568c-0.091,0.309-0.16,0.627-0.179,0.959c-0.098,1.676,0.866,3.282,2.179,4.329
			c1.313,1.047,2.938,1.617,4.557,2.064c5.105,1.408,10.6,1.752,15.679,0.254c2.721-0.802,5.344-2.129,8.179-2.24
			c1.766-0.069,3.511,0.342,5.269,0.52c5.231,0.528,10.502-1.057,14.562-4.398c0.346-1.554,0.322-3.661,0.14-5.772
			C193.42,430.275,193.41,430.282,193.4,430.289z"/>
		<path style="fill:#DF6D71;" d="M252.691,416.469c-2.309-1.434-5.144-1.671-7.859-1.79c-3.094-0.136-6.23-0.165-9.243,0.548
			c-3.013,0.714-5.928,2.242-7.781,4.723c-0.39,0.522-0.465,0.041-0.377,0.686c0,0-0.857,3.663-1.261,7.545
			c11.036,2.003,23.538-0.459,34.611-5.59c-1.641-0.945-3.22-1.979-4.65-3.231C255.002,418.373,253.966,417.261,252.691,416.469z"/>
		<path style="fill:#FD7F83;" d="M226.17,428.182c-0.027,0.263-0.053,0.527-0.076,0.791c0.978,0.679,1.956,1.301,2.934,1.79
			c5.552,0.925,11.105-0.925,15.732,0.925c9.717,3.239,22.977,7.895,31.72,1.568c-0.52-1.766-2.103-3.162-3.687-4.213
			c-3.782-2.508-8.094-4.196-12.012-6.451C249.707,427.723,237.206,430.184,226.17,428.182z"/>
		<path style="fill:#DDF6FF;" d="M226.123,428.994c1.936,1.342,4.249,2.042,6.604,2.046c4.28,0.008,8.436-0.79,12.033,0.649
			c9.717,3.239,22.977,7.895,31.72,1.568c0.091,0.31,0.16,0.627,0.179,0.959c0.098,1.676-0.866,3.282-2.179,4.329
			c-1.313,1.047-2.938,1.617-4.557,2.063c-5.105,1.408-10.6,1.752-15.679,0.255c-2.721-0.802-5.344-2.129-8.179-2.24
			c-1.766-0.069-3.511,0.342-5.269,0.52c-5.231,0.528-10.502-1.057-14.562-4.398c-0.346-1.555-0.322-3.661-0.14-5.773
			C226.104,428.98,226.114,428.987,226.123,428.994z"/>
		<path style="fill:#3C8C8C;" d="M240.424,415.97c0.527-5.638,2.11-12.053-1.496-16.419c-1.383-1.674-3.358-2.755-4.859-4.325
			c-3.513-3.675-3.857-9.392-2.873-14.38c0.984-4.987,3.072-9.734,3.716-14.777c0.32-2.512,0.258-5.148-0.768-7.463
			c-1.818-4.098-6.295-6.493-8.262-10.521c-3.337-6.831,1.735-14.743,1.694-22.346c-0.029-5.334-2.592-10.274-4.122-15.384
			c-1.589-5.31-2.073-10.948-1.41-16.45c0.324-2.695,0.921-5.405,0.568-8.096c-0.676-5.156-4.44-8.173-9.394-7.293v0.007
			c0,0,0.001-0.007,0.001-0.007s2.31,17.576,2.093,22.746c-0.272,6.466-0.903,12.944-1.242,19.408
			c-0.149,2.84-0.234,5.748,0.615,8.462c0.75,2.396,2.193,4.524,2.985,6.907c0.969,2.919,0.914,6.065,0.836,9.139
			c-0.169,6.685-1.002,13.667-0.344,20.328c0.629,6.363,3.606,12.361,3.372,18.833c-0.146,4.029-1.566,7.935-1.665,11.965
			c-0.101,4.076,1.152,8.071,1.346,12.143c0.25,5.263-1.252,10.71,0.396,15.715c0,0,8.956,0.548,18.93-0.24
			C240.224,421.284,240.176,418.615,240.424,415.97z"/>
		<path style="fill:#56CACA;" d="M243.484,325.28c-1.848,2.686-3.355,6.171-1.962,9.118c1.171,2.478,4.003,3.682,6.674,4.299
			c2.69,0.621,5.46,0.869,8.17,1.378c-0.464-8.213-1.125-16.426-3.384-24.215C249.274,318.385,246.026,321.585,243.484,325.28z"/>
		<path style="fill:#56CACA;" d="M257.522,357.049c-4.311,2.777-9.532,4.518-14.312,6.574c-2.969,1.277-5.842,2.767-8.622,4.416
			c-0.85,4.322-2.536,8.473-3.391,12.806c-0.242,1.228-0.403,2.5-0.457,3.775c0.152-0.073,0.302-0.146,0.45-0.219
			c8.943-4.4,18.696-7.147,28.621-8.06c0.43-0.04,0.863-0.075,1.296-0.105c-0.42-1.682-0.872-3.36-1.272-5.042
			C258.727,366.542,258.016,361.809,257.522,357.049z"/>
		<path style="fill:#4AAFAF;" d="M231.19,384.402c-0.148,0.073-0.298,0.146-0.45,0.219c-0.165,3.904,0.682,7.835,3.33,10.605
			c1.501,1.57,3.476,2.651,4.859,4.325c3.606,4.366,2.023,10.781,1.496,16.419c-0.248,2.645-0.199,5.314,0.114,7.953
			c9.237-0.729,19.348-2.603,24.035-7.129c0.695-5.869-2.34-11.906-2.754-17.802c-0.324-4.618,0.86-9.226,0.736-13.854
			c-0.081-3.015-0.715-5.965-1.447-8.9c-0.434,0.03-0.866,0.065-1.296,0.105C249.886,377.255,240.133,380.002,231.19,384.402z"/>
		<path style="fill:#4AAFAF;" d="M257.522,357.049c-0.283-2.725-0.495-5.46-0.666-8.193c-0.182-2.913-0.325-5.847-0.491-8.781
			c-2.71-0.509-5.48-0.757-8.17-1.378c-2.671-0.616-5.503-1.821-6.674-4.299c-1.393-2.948,0.114-6.432,1.962-9.118
			c2.542-3.696,5.791-6.895,9.498-9.419c-0.528-1.821-1.134-3.622-1.855-5.391l-13.447-70.331l-49.248,0.672l-17.103,79.685
			c0.157,7.383,0.311,14.81-0.819,22.108c-0.265,1.715-0.601,3.421-0.897,5.132c6.726-4.515,14.079-8.097,21.788-10.588
			c4.988-1.611,10.234-2.764,15.447-2.288c0.258-0.753,0.498-1.511,0.686-2.283c1.733-7.116,2.091-14.947,2.783-22.231
			c0.74-7.797,2.887-31.681,2.899-31.823v-0.007c4.954-0.88,8.718,2.137,9.394,7.293c0.353,2.691-0.243,5.402-0.568,8.096
			c-0.662,5.503-0.179,11.141,1.41,16.45c1.53,5.11,4.092,10.05,4.122,15.384c0.042,7.603-5.031,15.515-1.694,22.346
			c1.968,4.028,6.445,6.423,8.262,10.521c1.027,2.315,1.089,4.951,0.768,7.463c-0.084,0.662-0.196,1.318-0.324,1.97
			c2.78-1.648,5.654-3.139,8.622-4.416C247.99,361.567,253.211,359.827,257.522,357.049z"/>
		<path style="fill:#379C9C;" d="M189.659,386.344c0.81-0.92,1.635-2.023,1.485-3.239c-0.241-1.953-2.68-2.699-4.647-2.744
			c-7.499-0.173-14.336,3.206-21.282,6.327c-0.597,1.319-1.179,2.644-1.541,4.039c-0.647,2.489-0.572,5.1-0.778,7.663
			c-0.265,3.304-0.997,6.599-1.56,9.884c0.38-0.282,0.756-0.573,1.138-0.85C171.778,400.67,182.058,394.971,189.659,386.344z"/>
		<path style="fill:#379C9C;" d="M191.401,337.148c-7.709,2.49-15.062,6.073-21.788,10.588c-0.305,1.762-0.568,3.529-0.667,5.314
			c-0.158,2.841,0.101,5.704-0.237,8.53c-0.359,3.002-1.388,5.908-1.572,8.926c-0.043,0.705-0.033,1.412-0.005,2.12
			c12.009-8.968,25.262-16.343,37.381-25.227c-0.16-1.65-0.23-3.297-0.004-4.928c0.364-2.635,1.473-5.089,2.339-7.61
			C201.635,334.384,196.389,335.537,191.401,337.148z"/>
		<path style="fill:#4AAFAF;" d="M167.213,381.256c-0.368,1.9-1.197,3.66-1.999,5.431c6.947-3.12,13.784-6.5,21.282-6.327
			c1.967,0.045,4.405,0.791,4.647,2.744c0.15,1.216-0.674,2.319-1.485,3.239c-7.6,8.627-17.881,14.326-27.185,21.08
			c-0.382,0.278-0.758,0.568-1.138,0.85c-0.612,3.574-1.023,7.137-0.406,10.69c0,0,16.912,10.099,38.595,2.704
			c0.179-5.268,0.466-10.53,0.645-15.798c0.123-3.62,0.246-7.254-0.122-10.858c-0.488-4.787-1.83-9.673-0.596-14.324
			c0.808-3.046,2.679-5.752,3.294-8.842c0.588-2.952-0.015-6.046,0.586-8.995c0.355-1.744,1.122-3.382,1.506-5.121
			c0.748-3.381,0.011-6.863-0.325-10.332c-12.119,8.884-25.373,16.259-37.381,25.227
			C167.245,375.517,167.762,378.422,167.213,381.256z"/>
		<path style="fill:#3C8C8C;" d="M206.313,254.102c13.173,0.592,25.651-1.318,37.424-5.876c-1.409-2.785-3.516-5.361-5.182-6.816
			c-5.265-4.596-12.783-2.938-19.129-2.506c-8.901,0.606-17.802,1.217-26.701,1.845c-3.829,0.27-9.383-0.051-12.736,2.517
			C180.937,253.066,198.646,253.758,206.313,254.102z"/>
		<path style="fill:#C6E8F3;" d="M169.912,153.937c-4.236,2.225-12.51,5.738-23.642,6.462c-16.542,1.077-10.571,29.56-10.571,29.56
			s12.768-1.53,24.413-2.597c2.107-2.002,4.005-4.215,5.681-6.576C169.919,172.598,171.57,163.178,169.912,153.937z"/>
		<path style="fill:#99D6E9;" d="M178.67,186.63c-1.28-0.64-9.59-0.09-18.56,0.73c5.17-4.91,7.81-10.88,9.52-17.51
			c1.09-5.18,1.24-10.58,0.28-15.91c1.62-0.85,2.66-1.52,3.03-1.76c0.1-0.07,0.16-0.11,0.16-0.11l3.42-0.77L178.67,186.63z"/>
		<path style="fill:#DDF6FF;" d="M129.169,154.535c0,0-7.565,18.393-10.6,23.874c-2.427,4.385,1.723,13.218,10.546,13.418
			c4.079,0.093,7.938-1.87,10.528-5.023c3.532-4.301,7.131-9.855,7.131-9.855S136.441,150.041,129.169,154.535z"/>
		<path style="fill:#77AABA;" d="M139.564,151.449c-2.602-1.596-5.966-1.616-8.417,0.203c-0.949,0.704-1.717,1.641-1.977,2.882
			c-0.866,4.137,10.967,25.204,17.605,22.414c6.638-2.79-0.673-20.298-0.962-21.164
			C145.635,155.255,142.198,153.065,139.564,151.449z"/>
		<path style="fill:#ECCE71;" d="M144.533,164.254c0.958-1.786,1.9-3.432,2.688-4.588c-0.711-2.124-1.329-3.642-1.409-3.881
			c-0.007-0.02-0.027-0.047-0.043-0.071c-3.491-1.563-8.661-3.268-8.661-3.268l-4.807,7.116
			C134.741,163.941,139.465,165.013,144.533,164.254z"/>
		<path style="fill:#DE9540;" d="M132.302,159.562l-1.171,1.733c2.009,4.266,5.268,9.394,8.579,12.653
			c0.923-1.967,2.904-6.117,4.823-9.695C139.465,165.013,134.741,163.941,132.302,159.562z"/>
		<path style="fill:#FDE599;" d="M165.015,147.69c-3.621-0.135-6.92,0.847-9.123,1.738c-0.542,0.219-1.08,0.126-1.502-0.142
			c-2.197,1.612-4.54,2.428-7.391,1.715c-5.455-2.728-4.3-8.761-4.045-14.344c-2.074,2.509-4.297,5.781-5.389,9.28
			c-2.358,7.558-2.539,11.85,5.865,13.06c0,0,2.056,1.633,6.228,0.605c4.172-1.028,8.839-4.822,10.773-5.669
			c1.01-0.442,4.551-1.223,6.237-2.701C168.214,149.877,168.109,147.805,165.015,147.69z"/>
		<path style="fill:#ECCE71;" d="M159.39,139.53c-2.32,1.24-3.77,3.21-4.7,5.15c-0.45,0.96-0.79,1.91-1.02,2.77
			c-0.21,0.77,0.15,1.47,0.72,1.84c-2.2,1.61-4.54,2.42-7.39,1.71c-5.46-2.73-4.3-8.76-4.05-14.34c0.69-0.83,1.35-1.57,1.95-2.21
			c1.53-1.62,2.67-2.6,2.67-2.6S160.75,138.8,159.39,139.53z"/>
		<path style="fill:#99D6E9;" d="M162.012,110.96h-1.46v-10.401c0-0.403,0.327-0.73,0.73-0.73l0,0c0.403,0,0.73,0.327,0.73,0.73
			V110.96z"/>
		<rect x="159.684" y="138.37" style="fill:#99D6E9;" width="3.196" height="9.382"/>
		<rect x="159.684" y="110.529" style="fill:#77AABA;" width="3.196" height="9.382"/>
		<path style="fill:#ECCE71;" d="M169.293,136.599c-0.02,0.436-0.098,0.889-0.358,1.24c-0.31,0.418-0.832,0.626-1.344,0.722
			c-0.428,0.08-0.876,0.095-1.296-0.021c-0.461-0.128-0.866-0.406-1.233-0.714c-1.517-1.274-3.71-4.504-2.274-6.481
			c1.314-1.81,4.369,0.288,5.305,1.519C168.898,133.924,169.354,135.262,169.293,136.599z"/>
		<rect x="158.124" y="113.974" style="fill:#FD7F83;" width="6.318" height="13.806"/>
		<rect x="158.124" y="127.78" style="fill:#99D6E9;" width="6.318" height="10.843"/>
		<path style="fill:#DDF6FF;" d="M165.545,140.104h-8.525c-1.007,0-1.823-0.816-1.823-1.823l0,0c0-1.007,0.816-1.823,1.823-1.823
			h8.525c1.007,0,1.823,0.816,1.823,1.823l0,0C167.368,139.288,166.552,140.104,165.545,140.104z"/>
		<path style="fill:#DDF6FF;" d="M164.311,148.804h-6.057c-0.715,0-1.295-0.58-1.295-1.295l0,0c0-0.715,0.58-1.295,1.295-1.295
			h6.057c0.715,0,1.295,0.58,1.295,1.295l0,0C165.606,148.224,165.026,148.804,164.311,148.804z"/>
		<path style="fill:#ECCE71;" d="M264.775,276.957c-0.564,2.195-1.446,4.293-2.451,6.32c-0.468,0.944-1.025,1.855-1.461,2.812
			c-0.294,0.645-0.565,1.575-1.442,1.582c-0.448,0.004-0.851-0.31-1.076-0.697c-0.226-0.387-0.306-0.839-0.372-1.282
			c-0.821-5.453-0.173-11.021-0.588-16.52c-0.14-1.855-0.401-3.728-0.109-5.566c0.132-0.829,0.388-1.663,0.921-2.312
			c0.407-0.496,0.955-0.857,1.522-1.156c1.354-0.713,3.191-0.951,4.329,0.328c0.959,1.078,0.966,3.399,1.155,4.752
			C265.746,269.112,265.748,273.169,264.775,276.957z"/>
		<path style="fill:#FDE599;" d="M253.189,270.412c0.23,1.42,0.516,2.843,1.061,4.174c0.625,1.527,1.59,2.915,2.805,4.032
			c0.167,0.154,0.347,0.307,0.566,0.367c0.676,0.185,1.224-0.568,1.437-1.236c0.519-1.632,0.411-3.385,0.384-5.097
			c-0.031-1.929,0.048-3.859,0.235-5.779c0.163-1.667,0.408-3.342,0.248-5.009c-0.04-0.412-0.111-0.839-0.354-1.174
			c-0.236-0.324-0.604-0.521-0.96-0.707c-0.773-0.404-1.557-0.811-2.406-1.011c-0.849-0.2-1.784-0.175-2.544,0.254
			c-1.67,0.941-1.225,3.309-1.143,4.896C252.628,266.228,252.852,268.329,253.189,270.412z"/>
		<path style="fill:#DDF6FF;" d="M268.815,250.09c-0.209-2.589-0.531-5.163-1.078-7.702c-0.533-2.476-0.917-4.619-0.674-7.172
			c0.247-2.602,0.851-5.151,1.284-7.724c0.65-3.856,0.875-8.017-0.938-11.481c-0.841-1.607-2.104-3.029-2.523-4.794
			c-0.675-2.846,0.423-5.707-0.465-8.595c-0.693-2.254-2.068-4.242-2.863-6.462c-2.162-6.039-0.754-9.542-0.892-15.954
			c-0.475-22.08-10.547-28.612-10.547-28.612c-3.421,9.247-5.033,19.466-5.496,29.315c-1.146,24.412-0.135,48.9,2.427,73.206
			C254.523,254.624,261.715,252.66,268.815,250.09z"/>
		<path style="fill:#C6E8F3;" d="M247.051,254.114c0.053,0.5,0.096,1.001,0.15,1.501c0.237,2.193,1.376,4.691,2.219,6.729
			c6.692,0.425,13.465-0.482,19.809-2.653c-0.073-3.2-0.155-6.412-0.413-9.602C261.715,252.66,254.523,254.624,247.051,254.114z"/>
		<path style="fill:#4AAFAF;" d="M194.04,244.243c0,0,27.176,7.925,46.876-1.359l-13.36-105.292l-5.427-4.461l-18.802,1.97
			L194.04,244.243z"/>
		<path style="fill:#379C9C;" d="M232.335,175.251l-1.461-11.514c-11.729,3.377-21.782,11.345-31.601,19.017l-1.548,18.196
			c10.828-8.524,21.927-16.702,33.171-24.671C231.375,175.939,231.855,175.596,232.335,175.251z"/>
		<path style="fill:#379C9C;" d="M236.557,208.524l-1.48-11.665c-6.901,1.401-13.561,4.078-19.826,7.344
			c-6.504,3.39-12.646,7.411-18.777,11.446l-1.265,14.87c2.223-1.269,4.499-2.458,6.767-3.634
			C213.56,220.874,225.183,214.926,236.557,208.524z"/>
		<path style="fill:#ADE2F3;" d="M252.403,240.642c-2.226-17.169-4.011-31.622-4.357-36.343c-0.495-6.766-0.438-17.588-0.055-27.768
			c-2.985,5.521-4.324,11.943-3.639,18.188c0.333,3.034,1.116,6.049,0.909,9.094c-0.277,4.077-2.302,7.821-4.544,11.237
			c-3.21,4.892-6.949,9.425-10.261,14.242c0.151,6.63,0.111,14.552,0.124,23.304c3.006-2.17,6.012-4.341,9.018-6.511
			C243.433,243.315,247.738,240.422,252.403,240.642z"/>
		<path style="fill:#ADE2F3;" d="M250.599,259.941c-1.228,4.798-1.698,9.933-0.252,14.67c0.746,2.444,2.106,4.848,4.339,6.089
			c0.974,0.541,2.058,0.828,3.16,1.03c-1.341-9.971-2.79-20.822-4.154-31.206C252.562,253.633,251.418,256.737,250.599,259.941z"/>
		<path style="fill:#C6E8F3;" d="M250.347,274.611c-1.447-4.737-0.976-9.872,0.252-14.67c0.819-3.203,1.963-6.308,3.094-9.417
			c-0.441-3.359-0.873-6.667-1.29-9.882c-4.665-0.22-8.97,2.674-12.806,5.443c-3.006,2.17-6.012,4.341-9.018,6.511
			c0.032,21.335,0.392,47.539,4.68,71.63c0,0,21.255,2.246,27.822-3.975c0,0-2.371-17.244-5.234-38.522
			c-1.102-0.201-2.186-0.488-3.16-1.03C252.453,279.459,251.094,277.055,250.347,274.611z"/>
		<path style="fill:#C6E8F3;" d="M245.26,203.812c0.207-3.045-0.576-6.06-0.909-9.094c-0.685-6.244,0.654-12.666,3.639-18.188
			c0.418-11.139,1.226-21.507,2.129-24.938c0,0-15.578-13.479-19.194-13.306c-3.616,0.173-1.715,44.066-1.715,44.066
			s-0.691,5.357-0.864,11.751c-0.096,3.56,0.304,13.678,1.443,23.488c0.368,3.172,0.562,7.135,0.666,11.701
			c3.312-4.817,7.051-9.351,10.261-14.242C242.958,211.633,244.983,207.889,245.26,203.812z"/>
		<path style="fill:#C6E8F3;" d="M158.908,321.447c10.265,6.642,35.133,3.019,35.133,3.019c2.81-10.942,4.404-33.893,5.306-57.549
			c-11.423,7.807-23.049,15.347-34.051,23.692C161.834,308.883,158.908,321.447,158.908,321.447z"/>
		<path style="fill:#ADE2F3;" d="M170.448,260.693c-1.661,10.798-3.47,21.032-5.153,29.917
			c11.003-8.345,22.629-15.885,34.051-23.692c0.211-5.531,0.384-11.098,0.526-16.561
			C189.885,253.261,180.058,256.713,170.448,260.693z"/>
		<path style="fill:#C6E8F3;" d="M200.491,193.824c0,0,0.366-50.053-3.592-53.57c-6.857,0.703-23.802,11.817-23.802,11.817
			c1.994,6.716,3.978,28.69,2.972,54.979c7.633-4.793,15.857-8.643,24.428-11.428C200.495,194.451,200.491,193.824,200.491,193.824z
			"/>
		<path style="fill:#C6E8F3;" d="M200.458,213.265c-8.654,7.347-17.811,14.129-26.512,21.402
			c-0.987,8.769-2.197,17.569-3.498,26.025c9.61-3.979,19.437-7.432,29.424-10.337C200.231,236.533,200.391,223.395,200.458,213.265
			z"/>
		<path style="fill:#ADE2F3;" d="M200.499,195.62c-8.572,2.785-16.796,6.636-24.428,11.428c-0.264,6.905-0.732,14.104-1.463,21.407
			c-0.207,2.065-0.428,4.137-0.661,6.211c8.702-7.273,17.858-14.055,26.512-21.402C200.514,204.876,200.507,198.546,200.499,195.62z
			"/>
		<path style="fill:#DDF6FF;" d="M200.491,193.824c0,0,3.18-53.489,5.172-56.912c1.992-3.423,14.51-5.083,17.893-0.533
			c3.383,4.551,4.982,56.718,4.982,56.718s7.152-18.455,6.482-28.191c-0.67-9.736-3.286-10.898-3.286-10.898
			s8.283-23.831-12.497-24.267c-20.78-0.436-29.903,8.573-22.58,28.336C196.657,158.076,188.721,173.189,200.491,193.824z"/>
		<path style="fill:#FDE599;" d="M221.23,141.723c1.235-2.183,2.171-4.157,2.326-5.345c-0.618-1.103-1.894-3.275-2.271-7.984
			c-4.324,2.27-8.648,1.661-12.972,0.102c-0.04,1.986-0.205,3.972-0.658,4.992c-1.101,2.484-1.992,3.423-1.992,3.423l2.266,4.559
			C212.117,142.667,216.66,142.613,221.23,141.723z"/>
		<path style="fill:#ECCE71;" d="M221.23,141.723c-4.57,0.889-9.113,0.944-13.3-0.253l5.818,11.705
			C213.748,153.175,218.322,146.865,221.23,141.723z"/>
		<path style="fill:#DE9540;" d="M221.284,128.394c-0.123-1.536-0.152-3.338-0.029-5.465l-13.087-0.137c0,0,0.202,2.853,0.144,5.704
			C212.636,130.055,216.96,130.665,221.284,128.394z"/>
		<path style="fill:#FDE599;" d="M213.606,125.577L213.606,125.577c-9.566,0-17.32-7.754-17.32-17.32V96.562
			c0-9.565,7.754-17.32,17.32-17.32l0,0c9.565,0,17.32,7.754,17.32,17.32v11.695C230.926,117.823,223.171,125.577,213.606,125.577z"
			/>
		<path style="fill:#FD8289;" d="M219.569,111.275c-0.143-0.148-0.342-0.237-0.597-0.207c-3.301,0.381-6.425,0.482-9.741,0.251
			c-0.115-0.008-0.216,0.012-0.306,0.05c-0.767-0.451-1.63,0.505-0.998,1.256c3.282,3.903,9.15,3.673,12.589,0.131
			C221.223,112.027,220.355,110.982,219.569,111.275z"/>
		<path style="fill:#3D2B70;" d="M211.42,81.524c0,0,3.861,7.238,18.336,8.769c0,0,2.029,20.909-0.784,25.962
			c1.997,1.318,4.445,1.93,6.723,1.197c1.227-0.395,2.403-1.093,3.692-1.06c0.821,0.021,1.603,0.341,2.41,0.492
			c0.995,0.187,2.038,0.113,2.997-0.213c0.897-0.304,1.74-0.828,2.686-0.89c1.032-0.068,2.02,0.427,3.051,0.503
			c1.529,0.112,2.959-0.695,4.261-1.502c0,0,0.497-31.623-16.349-44.193c-3.984-2.972-10.457-4.83-14.366-4.96
			c-10.995-0.366-17.318,3.338-17.318,3.338S208.721,81.089,211.42,81.524z"/>
		<path style="fill:#2C213E;" d="M206.917,69.861c0.284,1.55,0.94,4.832,1.852,7.525c1.94,2.009,4.564,3.13,7.483,3.703
			c6.367,1.25,12.193,1.103,16.16,7.141c3.577,5.445,3.931,12.169,4.298,18.473c0.197,3.382,0.323,6.781,0.502,10.175
			c0.709-0.273,1.423-0.505,2.175-0.486c0.549,0.014,1.081,0.161,1.614,0.303c-0.222-3.885-0.524-7.769-0.776-11.63
			c-0.36-5.516-0.874-11.265-3.416-16.274c-2.01-3.959-5.236-7.416-9.406-9.084c-5.831-2.333-14.033-0.299-17.881-6.381
			c-0.094-0.149-0.203-0.265-0.317-0.366c12.299-1.776,24.416,0.061,31.387,12.072c5.446,9.384,5.803,20.187,6.753,30.772
			c0.046-0.005,0.089-0.021,0.135-0.024c1.032-0.068,2.02,0.427,3.051,0.503c0.123,0.009,0.244,0.003,0.366,0.001
			c-0.834-12.967-1.962-26.778-10.141-37.043C232.316,68.649,219.318,67.586,206.917,69.861z"/>
		<path style="fill:#3D2B55;" d="M211.42,81.524c0,0-1.552,8.233-14.561,10.606c0,0-1.539,18.41,1.212,23.793
			c-1.504,0.131-3.019,0.285-4.512,0.434c-2.007,0.2-4.156,1.369-6.152,0.516c-0.887-0.379-1.558-1.118-2.269-1.769
			c-0.712-0.651-1.564-1.258-2.529-1.261c-0.781-0.003-1.505,0.392-2.272,0.543c-1.402,0.276-2.819-0.275-4.141-0.815
			c-1.262-7.213-0.919-14.933,1.232-21.933c2.152-7,6.108-13.463,11.504-18.414c2.489-2.283,5.324-4.269,8.537-5.309
			c2.585-0.837,5.513-1.012,7.946,0.199c2.397,1.193,4.021,3.594,4.833,6.146C211.059,76.811,211.398,78.846,211.42,81.524z"/>
		<path style="fill:#261C33;" d="M191.945,95.837c3.429-8.82,11.09-14.111,19.126-18.307c-0.188-1.056-0.456-2.11-0.825-3.271
			c-0.002-0.007-0.005-0.013-0.007-0.02c-9.19,3.504-17.49,10.13-21.445,19.292c-3.176,7.355-2.949,15.668-0.971,23.469
			c1.411,0.412,2.884-0.042,4.324-0.384C190.318,109.776,189.199,102.903,191.945,95.837z"/>
		<path style="fill:#261C33;" d="M185.128,91.153c1.759-4.872,4.502-9.42,8.081-13.17c1.78-1.865,3.751-3.537,5.921-4.931
			c0.956-0.614,1.94-1.189,2.958-1.695c0.736-0.365,3.387-1.356,5.625-1.514c-0.665-0.701-1.43-1.297-2.3-1.73
			c-0.955-0.475-1.986-0.731-3.043-0.823c-5.623,2.052-10.699,6.598-14.239,11.09c-7.947,10.082-10.532,23.465-8.601,36.071
			c0.269,0.002,0.538-0.013,0.806-0.066c0.767-0.151,1.49-0.546,2.272-0.543c0.277,0.001,0.543,0.056,0.8,0.143
			C182.266,106.377,182.393,98.731,185.128,91.153z"/>
		<path style="fill:#DE9540;" d="M238.778,96.795c-2.053-2.504-6.723,0.879-8.439,2.268c0.139,3.314,0.193,7.059-0.01,10.297
			C238.979,107.144,241.234,99.791,238.778,96.795z"/>
		<path style="fill:#DE9540;" d="M188.722,96.795c-2.405,2.933-0.276,10.033,7.935,12.408c-0.285-3.454-0.259-7.411-0.15-10.65
			C194.466,97.013,190.554,94.561,188.722,96.795z"/>
		<path style="fill:#261C33;" d="M223.912,97.021c0,1.677-0.967,3.037-2.161,3.037c-1.193,0-2.161-1.36-2.161-3.037
			s0.967-3.037,2.161-3.037C222.945,93.984,223.912,95.344,223.912,97.021z"/>
		<path style="fill:#FD8289;" d="M216.128,104.165c0,1.344-1.129,2.434-2.522,2.434c-1.393,0-2.522-1.09-2.522-2.434
			c0-1.064,0.77-2.44,1.732-3.336c0.445-0.415,1.141-0.42,1.584-0.002C215.332,101.706,216.128,103.113,216.128,104.165z"/>
		<path style="fill:#261C33;" d="M206.858,97.43c0,1.677-0.967,3.037-2.161,3.037c-1.193,0-2.161-1.36-2.161-3.037
			s0.967-3.037,2.161-3.037C205.891,94.393,206.858,95.753,206.858,97.43z"/>
		<path style="fill:#E95B62;" d="M221.759,109.934c-2.591,0.837-5.086,1.2-7.585,1.189c-2.499-0.01-5.003-0.394-7.614-1.051
			c-0.976-0.246-1.104,0.592-0.257,1.059c5.116,2.818,10.491,2.939,15.74,0.076C223.008,110.682,222.815,109.593,221.759,109.934z"
			/>
		<path style="fill:#FDECB6;" d="M152.545,132.657c-1.335-0.955-3.054-1.38-4.665-1.167c-0.11,0.118-0.221,0.234-0.307,0.365
			c-0.608,0.924,0.079,2.331,0.613,3.354c0.102,0.196,0.199,0.378,0.28,0.54c1.514,3.035,4.242,4.862,7.518,4.176
			c0.009-0.359-0.008-0.72-0.047-1.077C155.67,136.439,154.516,134.068,152.545,132.657z"/>
		<path style="fill:#FDE599;" d="M159.564,134.416c-0.893-2.927-3.869-5.035-6.923-4.768c-1.471,0.128-3.658,0.658-4.762,1.842
			c1.612-0.212,3.331,0.212,4.665,1.167c1.971,1.411,3.126,3.782,3.391,6.191c0.039,0.357,0.057,0.718,0.047,1.077
			c0.301-0.063,0.606-0.14,0.916-0.246c1.045-0.36,2.305-1.158,2.664-2.271C159.87,136.459,159.853,135.361,159.564,134.416z"/>
	</g>
</g>
</svg>
