<?xml version="1.0" encoding="utf-8"?>
<!-- Generator: Adobe Illustrator 27.5.0, SVG Export Plug-In . SVG Version: 6.00 Build 0)  -->
<svg version="1.1" id="Layer_1" xmlns="http://www.w3.org/2000/svg" xmlns:xlink="http://www.w3.org/1999/xlink" x="0px" y="0px"
	 viewBox="0 0 1080 1080" style="enable-background:new 0 0 1080 1080;" xml:space="preserve">
<rect style="fill:#FFFFFF;" width="1080" height="1080"/>
<g>
	<g>
		<ellipse style="fill:#E8E8E8;" cx="185.015" cy="492.182" rx="62.356" ry="19.736"/>
		<path style="fill:#FFD0A2;" d="M171.468,471.885c-0.076,0.826,1.502,5.635,0.676,6.386c-0.826,0.751-20.134,21.637-16.528,25.994
			c5.634-1.052,26.069-16.19,26.069-16.19c0.451-2.817-1.127-6.348-2.329-8.227c-1.202-1.878-0.859-7.964-0.859-7.964l-4.701-4.057
			L171.468,471.885z"/>
		<path style="fill:#F5F1DA;" d="M155.616,504.265c5.635-1.052,26.069-16.19,26.069-16.19c0.433-2.704-1.001-6.05-2.18-7.977
			c-6.398,4.76-14.158,10.261-12.839,4.307C160.97,491.139,153.215,501.364,155.616,504.265z"/>
		<path style="fill:#FFD0A2;" d="M203.901,470.253c0.076,0.826-1.502,5.635-0.676,6.386c0.826,0.751,20.134,21.637,16.528,25.994
			c-5.635-1.052-26.069-16.19-26.069-16.19c-0.451-2.817,1.127-6.348,2.329-8.227c1.202-1.878,0.859-7.964,0.859-7.964l4.701-4.057
			L203.901,470.253z"/>
		<path style="fill:#F5F1DA;" d="M219.753,502.633c-5.634-1.052-26.069-16.19-26.069-16.19c-0.433-2.704,1.001-6.05,2.18-7.977
			c6.398,4.76,14.158,10.261,12.839,4.307C214.4,489.507,222.155,499.732,219.753,502.633z"/>
		<path style="fill:#3AAEB0;" d="M149.606,386.916c2.93,20.059,21.863,84.969,21.863,84.969c2.93,0.676,7.029,0,7.029,0
			c6.493-50.035,5.366-135.906,5.366-135.906l7.888-53.641H152.31L149.606,386.916z"/>
		<path style="fill:#E8E8E8;" d="M184.958,288.244c4.131-1.413-6.052-3.973-15.518-5.905h-14.183l-3.473,20.314l-2.179,84.263
			c2.93,20.059,21.863,84.969,21.863,84.969c0.822,0.19,1.734,0.271,2.624,0.292c-7.819-27.925-23.202-75.039-16.428-76.697
			c15.581,3.435,14.229,9.295,15.581,3.435C174.596,393.056,157.455,288.91,184.958,288.244z"/>
		<path style="fill:#3AAEB0;" d="M185.216,343.868c-2.013,58.156,11.72,126.214,11.72,126.214c1.803,1.352,7.212,0,7.212,0
			c11.72-45.302,10.593-139.129,10.593-139.129l-25.243,2.998L185.216,343.868z"/>
		<polygon style="fill:#DDC4B7;" points="155.691,211.268 197.837,211.268 207.679,304.585 184.958,288.243 159.973,288.875 		"/>
		<path style="fill:#DBD8C3;" d="M205.876,211.268c4.658,4.958,4.357,4.215,6.01,7.893c1.653,3.677-1.657,43.495,13.746,55.515
			c-12.995,10.368-29.223,1.803-29.223,1.803v-31.704L205.876,211.268z"/>
		<path style="fill:#F5F1DA;" d="M184.54,186.476c8.715,4.207,23.139,22.839,23.139,22.839
			c-1.052,7.212-11.419,78.133-10.668,82.941c-3.456-39.818-4.609-76.503-4.357-78.659c0.251-2.156-12.02-11.795-12.02-11.795
			L184.54,186.476z"/>
		<path style="fill:#DBD8C3;" d="M139.764,203.906c1.653-3.907,16.828-6.572,16.828-6.572l2.423,42.483l5.564,44.626
			c0,0-0.774,97.065,6.889,111.038c-26.596-6.311-31.363-7.663-32.811-14.875c-1.448-7.212-1.298-69.289,9.671-89.638
			C147.577,266.562,139.764,203.906,139.764,203.906z"/>
		<path style="fill:#F5F1DA;" d="M170.048,187.348c-9.962,2.245-26.19,16.557-26.19,16.557c4.846,12.96,18.791,52.867,20.721,80.537
			c-5.132-57.097-3.855-63.483-3.028-69.718c0.826-6.236,9.992-19.007,9.917-19.834S170.048,187.348,170.048,187.348z"/>
		<path style="fill:#E8E8E8;" d="M191.527,197.635c-1.188-3.66-4.612-7.874-6.79-8.249c-2.177-0.376-11.588-1.277-14.846,0
			c-3.258,1.277-6.162,5.823-6.424,8.209s14.128,6.311,14.128,6.311L191.527,197.635z"/>
		<path style="fill:#5C7B8A;" d="M163.006,244.668c-10.792-20.556-12.806-40.554-5.257-52.191c4.096-6.312,10.571-9.37,18.738-8.854
			c5.507,0.351,10,2.551,13.356,6.539c8.779,10.433,6.836,29.38,6.749,30.181l-1.792-0.195c0.02-0.188,1.944-18.991-6.339-28.83
			c-3.026-3.594-7.092-5.578-12.088-5.896c-7.483-0.479-13.392,2.303-17.111,8.036c-7.085,10.923-4.989,30.695,5.341,50.372
			L163.006,244.668z"/>
		<path style="fill:#261308;" d="M148.186,133.04c-5.635-4.282-11.355,0.622-12.144,3.777c-15.127,4.282-8.256,23.495,0,23.112
			c-0.563,12.949,18.369,12.498,18.932,7.089c5.86,6.536,9.748-5.383,9.748-5.383L148.186,133.04z"/>
		<path style="fill:#381C0B;" d="M155.691,100.209c4.846-5.522,27.395-14.424,42.045,0.451c14.65,14.875,13.039,59.576-1.326,70.62
			c-14.365,11.044-13.11,8.302-13.11,8.302l-19.897-4.891c-12.559-3.353-22.137-27.919-24.166-37.273
			C137.21,128.064,138.014,100.51,155.691,100.209z"/>
		<path style="fill:#FFD0A2;" d="M169.175,176.109c0.941,6.836,2.969,20.584-5.708,21.486c-2.592,14.424-1.916,17.129-1.916,17.129
			c7.325,6.874,28.511,5.184,31.103-1.127c1.465-10.48-1.127-15.962-1.127-15.962c-4.846-1.843-6.162-3.421-6.293-9.619
			c-0.131-6.198,0.78-12.509,0.78-12.509L169.175,176.109z"/>
		<path style="fill:#E8E8E8;" d="M169.602,179.341c1.496,0.582,3.111,1.105,4.865,1.579c2.898,0.783,7.075,0.941,9.804-0.31
			c0.43-0.197,0.845-0.405,1.258-0.614c0.223-2.653,0.487-4.488,0.487-4.488l-16.839,0.602
			C169.307,177.068,169.46,178.165,169.602,179.341z"/>
		<path style="fill:#FFD0A2;" d="M146.788,131.558c4.832,31.409,7.804,42.254,26.896,47.415c2.897,0.783,7.075,0.941,9.803-0.31
			c17.204-7.888,20.134-25.318,17.279-48.232c-8.79,1.803-38.428-12.621-42.146-17.918
			C145.999,124.796,146.788,131.558,146.788,131.558z"/>
		<path style="fill:#FFFFFF;" d="M178.668,165.596c-2.206,0.101-4.55-0.367-6.507-1.433c-0.471-0.256-0.622-0.861-0.321-1.304l0,0
			c0.254-0.373,0.754-0.515,1.148-0.295c3.46,1.932,8.016,1.508,10.139-0.281c0.332-0.279,0.807-0.293,1.144-0.02l0.01,0.008
			c0.425,0.345,0.46,1.003,0.045,1.358C182.924,164.831,180.865,165.496,178.668,165.596z"/>
		<path style="fill:#261308;" d="M190.212,141.475c0.459,0,0.884,0.255,1.243,0.683l3.912-0.429l-3.16,1.906
			c0.195,0.628,0.315,1.346,0.315,2.122c0,2.365-1.034,4.282-2.31,4.282c-1.276,0-2.31-1.917-2.31-4.282
			C187.902,143.392,188.936,141.475,190.212,141.475z"/>
		<path style="fill:#B5B5B5;" d="M186.014,145.461c0,0.646,0.814,1.169,1.817,1.169c1.004,0,1.817-0.523,1.817-1.169
			c0-0.646-0.813-1.169-1.817-1.169C186.828,144.292,186.014,144.815,186.014,145.461z"/>
		<path style="fill:#261308;" d="M165.044,140.798c0.459,0,0.884,0.255,1.243,0.683l3.912-0.429l-3.16,1.906
			c0.195,0.628,0.315,1.346,0.315,2.122c0,2.365-1.034,4.282-2.31,4.282s-2.31-1.917-2.31-4.282
			C162.734,142.716,163.768,140.798,165.044,140.798z"/>
		<path style="fill:#B5B5B5;" d="M160.846,144.785c0,0.646,0.814,1.169,1.817,1.169s1.817-0.523,1.817-1.169
			c0-0.646-0.813-1.169-1.817-1.169S160.846,144.139,160.846,144.785z"/>
		<path style="fill:#261308;" d="M155.691,137.022c2.479-0.902,12.734-0.28,13.185-0.956c0.451-0.676,0.845-4.846-1.521-4.508
			C164.988,131.896,156.987,133.247,155.691,137.022z"/>
		<path style="fill:#261308;" d="M196.834,136.357c-2.479-0.901-12.461-0.799-12.912-1.475c-0.451-0.676-0.845-4.846,1.521-4.508
			C187.811,130.713,195.538,132.582,196.834,136.357z"/>
		<path style="fill:#FFD0A2;" d="M209.083,151.418c-2.262,2.53-5.467,3.354-7.159,1.842c-1.691-1.513-1.229-4.79,1.034-7.32
			c2.262-2.53,5.467-3.355,7.159-1.842C211.808,145.611,211.345,148.888,209.083,151.418z"/>
		<path style="fill:#E8E8E8;" d="M202.278,150.976c0.223-4.482,6.244-8.082,7.758-4.514
			C205.521,144.3,202.278,150.976,202.278,150.976z"/>
		<path style="fill:#FFD0A2;" d="M143.859,154.715c3.049,1.793,6.492,1.594,7.691-0.444c1.199-2.039-0.301-5.145-3.349-6.938
			c-3.049-1.793-6.493-1.594-7.692,0.444C139.31,149.816,140.81,152.922,143.859,154.715z"/>
		<path style="fill:#E8E8E8;" d="M150.474,152.117c-1.644-4.379-8.764-6.041-9.135-2.019
			C145.135,146.519,150.474,152.117,150.474,152.117z"/>
		<path style="fill:#E8E8E8;" d="M175.645,153.452c-0.037,1.231,0.599,2.126,2.76,2.162c1.664,0.027,2.146-0.786,2.044-1.896
			C179.732,155.041,177.266,156.027,175.645,153.452z"/>
		<path style="fill:#E8E8E8;" d="M214.752,343.751l-2.299-9.52l-0.603-2.935l-17.473,2.075c0.139,5.035,0.384,8.858,0.956,9.875
			c2.028,3.606,5.635,40.343,4.561,48.006c-1.074,7.663,4.68,5.635,8.737,5.409c4.057-0.225-1.352,46.429-4.481,73.42
			C213.213,435.041,214.592,370.979,214.752,343.751z"/>
		<path style="fill:#3B3B3B;" d="M179.943,153.757c0,0.482-0.786,0.873-1.756,0.873c-0.97,0-1.756-0.391-1.756-0.873
			c0-0.482,0.786-0.517,1.756-0.517C179.156,153.24,179.943,153.274,179.943,153.757z"/>
		<path style="fill:#DBD8C3;" d="M201.819,328.767c-0.15,34.033,4.583,59.276,2.104,66.713
			c17.129-9.241,18.932-10.142,19.158-14.424c0.225-4.282-3.756-58.457-4.583-66.755c-0.826-8.298-12.096-48.641-12.096-48.641
			L201.819,328.767z"/>
		<path style="fill:#E8E8E8;" d="M173.909,166.454c3.306,1.653,8.602,0.676,9.241,0
			C178.192,170.774,174.999,167.206,173.909,166.454z"/>
		<polygon style="fill:#5C7B8A;" points="189.498,271.971 170.115,348.15 212.788,345.114 233.523,274.731 		"/>
		<path style="fill:#FFD0A2;" d="M229.616,290.734c-1.747,1.979-5.184,4.057-9.297,4.902c-4.113,0.845-1.183,11.326,8.001,8.452
			C237.505,301.214,229.616,290.734,229.616,290.734z"/>
		<path style="fill:#5D5D5D;" d="M170.115,245.883c0,2.972-2.308,5.381-5.156,5.381c-2.847,0-5.156-2.409-5.156-5.381
			c0-2.972,2.308-5.381,5.156-5.381C167.807,240.502,170.115,242.911,170.115,245.883z"/>
		<path style="fill:#5C7B8A;" d="M204.937,250.135l-1.803-0.052c0.681-23.792-1.664-28.018-7.54-28.943
			c-2.467-0.385-4.626,0.188-6.424,1.71c-3.71,3.143-5.721,10.215-5.813,20.449l-1.803-0.017c0.1-10.928,2.27-18.265,6.451-21.808
			c2.184-1.85,4.907-2.582,7.87-2.116C203.645,220.582,205.594,227.197,204.937,250.135z"/>
		<circle style="fill:#5D5D5D;" cx="182.624" cy="244.668" r="2.817"/>
		<path style="fill:#3B3B3B;" d="M184.737,244.668c0,1.167-0.946-0.449-2.113-0.449c-1.167,0-2.113,1.616-2.113,0.449
			c0-1.167,0.946-2.113,2.113-2.113C183.791,242.555,184.737,243.501,184.737,244.668z"/>
		<path style="fill:#5D5D5D;" d="M206.965,251.264c0,1.556-1.261,2.817-2.817,2.817c-1.556,0-2.817-1.261-2.817-2.817
			c0-1.556,1.261-2.817,2.817-2.817C205.704,248.447,206.965,249.708,206.965,251.264z"/>
		<path style="fill:#FFD0A2;" d="M168.838,311.037c6.762,9.466,16.453,13.823,18.632,10.067c2.179-3.756-1.202-6.987-4.883-8.865
			c-3.681-1.878-7.663-6.085-7.663-6.085L168.838,311.037z"/>
		<path style="fill:#E8E8E8;" d="M164.717,314.384c-0.088-6.29-0.13-12.009-0.148-16.727c-6.687-8.288-12.141-17.031-13.061-23.357
			c-1.249-8.588,1.107-21.66-10.113-56.857c2.333,19.819,6.402,56.25,6.933,73.524c-1.346,2.497-2.529,5.626-3.566,9.202
			C153.696,308.106,161.042,312.458,164.717,314.384z"/>
		<path style="fill:#F5F1DA;" d="M139.764,203.906c-8.414,17.73-16.378,70.469,0,87.298c16.378,16.828,29.75,22.388,29.75,22.388
			c3.456-3.756,7.772-6.311,7.772-6.311c-10.627-10.668-22.147-25.543-23.524-35.009
			C152.385,262.805,155.391,247.893,139.764,203.906z"/>
		<path style="fill:#3B3B3B;" d="M206.261,251.25c0,1.167-0.946-0.449-2.113-0.449c-1.167,0-2.113,1.616-2.113,0.449
			c0-1.167,0.946-2.113,2.113-2.113C205.315,249.137,206.261,250.083,206.261,251.25z"/>
		<path style="fill:#E8E8E8;" d="M161.551,214.724c4.377,4.108,13.702,5.155,21.053,3.988
			c-22.227,2.193-20.103-12.501-19.137-21.117C160.875,212.019,161.551,214.724,161.551,214.724z"/>
	</g>
	<g>
		<path style="fill:#381C0B;" d="M692.34,669.903c10.263,5.747,11.275,39.621,16.572,41.616c5.298,1.995,11.158-0.709,11.158-0.709
			c0,3.832-10.142,16.453-10.142,16.453l-38.753-17.129l-1.301-30.539L692.34,669.903z"/>
		
			<ellipse transform="matrix(0.9988 -0.0492 0.0492 0.9988 -48.2258 34.4345)" style="fill:#E8E8E8;" cx="676.02" cy="997.76" rx="62.356" ry="19.736"/>
		<path style="fill:#FFD0A2;" d="M688.552,976.822c0.116,0.822-1.223,5.702-0.361,6.411c0.862,0.71,21.173,20.621,17.786,25.15
			c-5.679-0.774-26.833-14.889-26.833-14.889c-0.589-2.792,0.813-6.396,1.922-8.331c1.108-1.935,0.466-7.996,0.466-7.996
			l4.496-4.283L688.552,976.822z"/>
		<path style="fill:#F5F1DA;" d="M705.977,1008.383c-5.679-0.774-26.833-14.889-26.833-14.889c-0.565-2.68,0.702-6.092,1.785-8.074
			c6.624,4.44,14.646,9.553,13.035,3.671C699.984,995.537,708.233,1005.367,705.977,1008.383z"/>
		<path style="fill:#FFD0A2;" d="M656.078,976.786c-0.035,0.829,1.777,5.554,0.989,6.345c-0.789,0.791-19.046,22.6-15.23,26.775
			c5.576-1.328,25.242-17.452,25.242-17.452c0.312-2.836-1.438-6.285-2.73-8.102c-1.293-1.817-1.249-7.912-1.249-7.912l-4.894-3.821
			L656.078,976.786z"/>
		<path style="fill:#F5F1DA;" d="M641.837,1009.906c5.576-1.328,25.242-17.452,25.242-17.452c0.299-2.722-1.297-5.994-2.569-7.86
			c-6.156,5.069-13.637,10.945-12.611,4.933C646.539,996.533,639.296,1007.126,641.837,1009.906z"/>
		<path style="fill:#3AAEB0;" d="M706.212,890.881c-1.94,20.179-17.66,85.941-17.66,85.941c-2.893,0.819-7.021,0.345-7.021,0.345
			c-8.945-49.655-12.04-135.477-12.04-135.477l-10.515-53.188l39.394-1.939L706.212,890.881z"/>
		<path style="fill:#E8E8E8;" d="M666.052,794.065c-4.195-1.209,5.849-4.266,15.209-6.661l14.166-0.697l4.467,20.119l6.318,84.054
			c-1.94,20.179-17.659,85.941-17.659,85.941c-0.811,0.23-1.719,0.355-2.606,0.421c6.437-28.276,19.486-76.089,12.639-77.412
			c-15.393,4.197-13.755,9.984-15.393,4.197C681.553,898.242,693.554,793.379,666.052,794.065z"/>
		<path style="fill:#3AAEB0;" d="M668.529,849.635c4.869,57.987-5.502,126.638-5.502,126.638c-1.734,1.439-7.204,0.354-7.204,0.354
			c-13.932-44.671-17.419-138.44-17.419-138.44l25.36,1.754L668.529,849.635z"/>
		<polygon style="fill:#DDC4B7;" points="691.5,715.744 649.405,717.816 644.162,811.504 666.052,794.065 691.038,793.467 		"/>
		<path style="fill:#DBD8C3;" d="M641.376,718.211c-4.409,5.181-4.145,4.425-5.615,8.178c-1.47,3.754,3.793,43.361-11.001,56.124
			c13.489,9.716,29.276,0.365,29.276,0.365l-1.558-31.665L641.376,718.211z"/>
		<path style="fill:#F5F1DA;" d="M661.467,692.4c-8.497,4.63-21.989,23.948-21.989,23.948c1.405,7.152,15.246,77.477,14.732,82.316
			c1.495-39.939,0.843-76.637,0.486-78.778s11.426-12.372,11.426-12.372L661.467,692.4z"/>
		<path style="fill:#DBD8C3;" d="M707.046,707.608c-1.843-3.821-17.131-5.736-17.131-5.736l-0.332,42.55l-3.364,44.845
			c0,0,5.544,96.909-1.422,111.243c26.253-7.61,30.949-9.195,32.04-16.47c1.091-7.275-2.11-69.269-14.065-89.054
			C702.322,770.572,707.046,707.608,707.046,707.608z"/>
		<path style="fill:#F5F1DA;" d="M675.985,692.559c10.06,1.753,26.972,15.25,26.972,15.25c-4.203,13.182-16.17,53.727-16.737,81.458
			c2.319-57.28,0.73-63.596-0.402-69.783c-1.132-6.187-10.914-18.493-10.88-19.322C674.972,699.333,675.985,692.559,675.985,692.559
			z"/>
		<path style="fill:#E8E8E8;" d="M655.038,703.889c1.007-3.714,4.22-8.091,6.376-8.573c2.156-0.482,11.511-1.845,14.828-0.73
			s6.441,5.513,6.82,7.884c0.38,2.371-13.801,6.997-13.801,6.997L655.038,703.889z"/>
		<path style="fill:#5C7B8A;" d="M685.836,749.463c9.768-21.062,10.797-41.135,2.685-52.386c-4.401-6.103-11.019-8.839-19.151-7.922
			c-5.483,0.622-9.863,3.039-13.018,7.187c-8.256,10.852-5.384,29.68-5.257,30.477l1.781-0.283
			c-0.029-0.187-2.875-18.872,4.914-29.106c2.846-3.739,6.81-5.92,11.783-6.484c7.451-0.847,13.489,1.642,17.486,7.185
			c7.614,10.561,6.492,30.412-2.859,50.573L685.836,749.463z"/>
		<path style="fill:#381C0B;" d="M686.041,604.82c-5.111-5.277-28.071-13.061-41.972,2.517
			c-13.901,15.577-10.095,60.145,4.795,70.469c14.891,10.324,13.502,7.648,13.502,7.648l19.632-5.863
			c12.378-3.966,20.738-28.974,22.304-38.415C705.87,631.733,703.711,604.251,686.041,604.82z"/>
		<path style="fill:#FFD0A2;" d="M676.304,681.29c-0.603,6.874-1.954,20.705,6.757,21.179c3.298,14.28,2.755,17.014,2.755,17.014
			c-6.978,7.226-28.222,6.579-31.121,0.403c-1.978-10.396,0.341-15.998,0.341-15.998c4.749-2.079,5.986-3.719,5.812-9.916
			c-0.174-6.197-1.394-12.455-1.394-12.455L676.304,681.29z"/>
		<path style="fill:#E8E8E8;" d="M676.037,684.54c-1.465,0.654-3.053,1.256-4.781,1.816c-2.856,0.925-7.021,1.288-9.807,0.172
			c-0.44-0.176-0.864-0.363-1.286-0.552c-0.353-2.639-0.707-4.459-0.707-4.459l16.849-0.227
			C676.22,682.254,676.121,683.358,676.037,684.54z"/>
		<path style="fill:#FFD0A2;" d="M696.474,635.693c-3.282,31.608-5.717,42.587-24.533,48.68c-2.855,0.925-7.02,1.287-9.807,0.172
			c-17.571-7.033-21.354-24.298-19.629-47.324c8.868,1.369,37.761-14.495,41.215-19.968
			C696.93,628.901,696.474,635.693,696.474,635.693z"/>
		<path style="fill:#261308;" d="M653.764,646.542c-0.458-0.023-0.896,0.211-1.276,0.621l-3.886-0.621l3.063,2.059
			c-0.226,0.618-0.381,1.329-0.419,2.104c-0.116,2.362,0.823,4.328,2.097,4.391c1.274,0.063,2.402-1.801,2.518-4.164
			C655.978,648.57,655.039,646.605,653.764,646.542z"/>
		<path style="fill:#B5B5B5;" d="M657.761,650.73c-0.032,0.645-0.87,1.128-1.872,1.078c-1.002-0.049-1.789-0.612-1.758-1.257
			c0.032-0.645,0.87-1.128,1.872-1.078C657.006,649.522,657.793,650.085,657.761,650.73z"/>
		<path style="fill:#261308;" d="M678.935,647.104c-0.458-0.022-0.896,0.211-1.276,0.621l-3.886-0.621l3.063,2.059
			c-0.226,0.617-0.381,1.329-0.419,2.104c-0.116,2.362,0.823,4.328,2.097,4.391c1.274,0.063,2.402-1.801,2.518-4.163
			C681.148,649.132,680.209,647.166,678.935,647.104z"/>
		<path style="fill:#B5B5B5;" d="M682.932,651.292c-0.032,0.645-0.87,1.128-1.872,1.078c-1.002-0.049-1.789-0.612-1.757-1.257
			c0.032-0.645,0.87-1.128,1.872-1.078C682.177,650.084,682.964,650.647,682.932,651.292z"/>
		<path style="fill:#261308;" d="M687.851,641.588c-2.521-0.779-12.732,0.346-13.216-0.307c-0.483-0.653-1.082-4.798,1.298-4.577
			C678.313,636.925,686.371,637.881,687.851,641.588z"/>
		<path style="fill:#261308;" d="M646.724,642.946c2.432-1.022,12.406-1.411,12.823-2.108c0.417-0.697,0.606-4.881-1.741-4.427
			C655.46,636.865,647.833,639.112,646.724,642.946z"/>
		<path style="fill:#FFD0A2;" d="M635.231,658.59c2.384,2.416,5.626,3.082,7.241,1.488c1.615-1.594,0.992-4.844-1.392-7.26
			c-2.384-2.416-5.626-3.082-7.241-1.488C632.224,652.924,632.847,656.175,635.231,658.59z"/>
		<path style="fill:#E8E8E8;" d="M642.006,657.815c-0.443-4.466-6.634-7.766-7.971-4.128
			C638.438,651.306,642.006,657.815,642.006,657.815z"/>
		<path style="fill:#FFD0A2;" d="M700.538,658.678c-2.957,1.941-6.406,1.912-7.704-0.065c-1.298-1.977,0.047-5.153,3.004-7.094
			c2.957-1.941,6.406-1.912,7.704,0.066C704.841,653.561,703.495,656.737,700.538,658.678z"/>
		<path style="fill:#E8E8E8;" d="M693.803,656.408c1.427-4.454,8.457-6.465,9.024-2.465
			C698.861,650.554,693.803,656.408,693.803,656.408z"/>
		<path style="fill:#E8E8E8;" d="M668.728,658.978c0.097,1.227-0.494,2.153-2.651,2.295c-1.661,0.109-2.182-0.68-2.135-1.793
			C664.724,660.767,667.236,661.631,668.728,658.978z"/>
		<path style="fill:#E8E8E8;" d="M639.023,850.97l1.828-9.621l0.458-2.961l17.554,1.214c0.109,5.035,0.052,8.866-0.469,9.91
			c-1.849,3.702-3.645,40.572-2.196,48.173c1.449,7.601-4.397,5.858-8.46,5.832c-4.063-0.026,3.633,46.306,8.084,73.111
			C645.047,942.074,640.521,878.157,639.023,850.97z"/>
		<path style="fill:#3B3B3B;" d="M664.451,659.494c0.024,0.482,0.828,0.834,1.797,0.786c0.969-0.048,1.735-0.477,1.711-0.959
			c-0.024-0.482-0.811-0.477-1.779-0.43C665.211,658.94,664.427,659.013,664.451,659.494z"/>
		<path style="fill:#DBD8C3;" d="M651.203,835.369c1.823,33.984-1.664,59.429,1.178,66.736
			c-17.563-8.388-19.408-9.199-19.843-13.465c-0.436-4.266,0.878-58.571,1.296-66.899c0.418-8.328,9.69-49.177,9.69-49.177
			L651.203,835.369z"/>
		<path style="fill:#E8E8E8;" d="M671.101,671.88c-3.22,1.813-8.558,1.098-9.229,0.454
			C667.036,676.405,670.05,672.684,671.101,671.88z"/>
		<polygon style="fill:#5C7B8A;" points="660.717,778.035 683.821,853.17 641.051,852.235 616.882,782.956 		"/>
		<path style="fill:#FFD0A2;" d="M621.57,798.748c1.842,1.891,5.377,3.797,9.527,4.439c4.15,0.642,1.739,11.254-7.576,8.835
			S621.57,798.748,621.57,798.748z"/>
		<path style="fill:#5D5D5D;" d="M678.795,751.026c0.146,2.968,2.57,5.261,5.414,5.121c2.844-0.14,5.031-2.66,4.885-5.628
			c-0.146-2.968-2.57-5.261-5.414-5.121C680.836,745.538,678.648,748.058,678.795,751.026z"/>
		<path style="fill:#5C7B8A;" d="M644.224,756.985l1.798-0.141c-1.85-23.73,0.285-28.066,6.108-29.278
			c2.445-0.506,4.63-0.04,6.501,1.392c3.86,2.957,6.216,9.921,6.811,20.139l1.8-0.105c-0.637-10.91-3.165-18.132-7.515-21.464
			c-2.273-1.74-5.028-2.337-7.964-1.726C644.061,727.404,642.441,734.107,644.224,756.985z"/>
		<path style="fill:#5D5D5D;" d="M663.427,750.566c0.077,1.554,1.398,2.752,2.952,2.675c1.554-0.077,2.752-1.398,2.675-2.952
			c-0.076-1.554-1.398-2.752-2.952-2.675C664.549,747.69,663.351,749.012,663.427,750.566z"/>
		<path style="fill:#3B3B3B;" d="M664.131,750.531c0.057,1.166,0.923-0.495,2.088-0.552c1.166-0.057,2.19,1.51,2.133,0.345
			c-0.057-1.166-1.049-2.064-2.214-2.007C664.972,748.375,664.073,749.366,664.131,750.531z"/>
		<path style="fill:#5D5D5D;" d="M642.254,758.212c0.076,1.554,1.398,2.752,2.952,2.675c1.554-0.076,2.752-1.398,2.675-2.952
			c-0.077-1.554-1.398-2.752-2.952-2.675C643.375,755.336,642.177,756.658,642.254,758.212z"/>
		<path style="fill:#FFD0A2;" d="M683.273,816.039c-6.288,9.787-15.754,14.615-18.114,10.971c-2.361-3.645,0.857-7.037,4.442-9.094
			c3.584-2.057,7.355-6.455,7.355-6.455L683.273,816.039z"/>
		<path style="fill:#E8E8E8;" d="M687.553,819.18c-0.221-6.287-0.46-12.001-0.674-16.714c6.272-8.607,11.289-17.607,11.897-23.971
			c0.826-8.639-2.17-21.58,7.306-57.285c-1.356,19.91-3.629,56.497-3.311,73.776c1.467,2.428,2.802,5.495,4.014,9.016
			C698.253,812.367,691.129,817.075,687.553,819.18z"/>
		<path style="fill:#F5F1DA;" d="M707.046,707.608c9.276,17.295,19.822,69.579,4.291,87.193
			c-15.531,17.613-28.614,23.823-28.614,23.823c-3.636-3.582-8.073-5.921-8.073-5.921c10.09-11.178,20.865-26.601,21.775-36.123
			C697.335,767.057,693.6,752.31,707.046,707.608z"/>
		<path style="fill:#3B3B3B;" d="M642.956,758.164c0.057,1.166,0.923-0.495,2.088-0.552c1.165-0.057,2.19,1.51,2.132,0.344
			c-0.057-1.166-1.049-2.064-2.214-2.007C643.797,756.007,642.899,756.998,642.956,758.164z"/>
		<path style="fill:#E8E8E8;" d="M685.817,719.484c-4.17,4.318-13.432,5.823-20.832,5.018c22.307,1.098,19.464-13.474,18.076-22.032
			C686.36,716.749,685.817,719.484,685.817,719.484z"/>
		<path style="fill:#FFFFFF;" d="M661.076,666.354c2.592,1.747,10.631,1.24,12.697,0c-1.935,5.747-9.956,5.588-9.833,5.527
			C663.724,669.678,661.076,666.354,661.076,666.354z"/>
		<path style="fill:#3AAEB0;" d="M635.996,628.743c11.201-5.231,57.735,2.193,67.674,15.535c5.582-12.352,1.052-30.082,1.052-30.082
			c-10.044-13.823-39.344-23.891-55.121-14.725C633.824,608.637,635.996,628.743,635.996,628.743z"/>
		<path style="fill:#3AAEB0;" d="M701.805,638.645c8.119-3.573,14.387-0.655,14.905,2.153
			C717.228,643.607,698.084,640.282,701.805,638.645z"/>
		<path style="fill:#3AAEB0;" d="M703.513,638.892c6.175,4.36,10.564,6.326,10.001,7.716c-0.563,1.39-6.092-0.35-10.427-7.334
			C703.755,639.062,703.513,638.892,703.513,638.892z"/>
	</g>
	<g>
		<path style="fill:#F2C777;" d="M397.788,86.483c-12.621,0.3-24.341,20.585-22.989,39.066c1.352,18.481,0.3,35.009,16.378,44.175
			c16.077,9.166,46.128,6.16,51.838,3.005c-4.508-3.155-3.082-5.109-3.082-5.109c2.781,2.705,7.289,1.803,10.144,1.052
			c-3.005-4.808-2.104-10.818-2.104-10.818c6.461,7.062,13.523,4.658,13.523,4.658c-3.756-5.559-7.212-16.227-7.363-27.196
			c-0.087-6.38-1.635-22.032-6.611-35.46C443.943,90.198,415.668,65.297,397.788,86.483z"/>
		<path style="fill:#FFD0A2;" d="M490.495,208.64c0.901-6.01,7.588-18.707,7.588-19.608s2.103-15.326,3.831-14.349
			c1.728,0.977-0.826,12.396,0.526,13.222s5.86,5.71,5.184,9.09c-0.676,3.381-7.137,12.772-11.72,14.049
			c-5.484,1.728-5.785,0-5.785,0L490.495,208.64z"/>
		<path style="fill:#E6BB92;" d="M502.323,197.314c-2.093,1.83-4.199,2.845-4.704,2.267c-0.505-0.578,0.782-2.53,2.874-4.36
			c2.093-1.83,4.199-2.845,4.704-2.267C505.703,193.532,504.416,195.484,502.323,197.314z"/>
		<path style="fill:#EDE9D2;" d="M431.933,177.049c6.423,5.747,23.853,46.016,25.356,51.425c2.704-1.653,4.207,2.254,4.207,2.254
			c1.202-2.254,3.606-2.705,3.606-2.705c4.207-6.611,25.393-22.238,25.393-22.238c2.254,2.705,5.409,5.259,5.409,5.259
			c-4.057,18.031-34.559,53.19-38.615,55.144c-4.057,1.953-18.932-9.316-18.932-9.316s-1.803-36.662-1.277-38.916
			C437.606,215.702,431.933,177.049,431.933,177.049z"/>
		<path style="fill:#F2F2F2;" d="M443.165,260.259c4.719,3.142,11.568,7.159,14.124,5.928c4.057-1.953,34.559-37.113,38.615-55.144
			c0,0-0.657-0.533-1.583-1.365C491.39,224.546,459.54,260.034,443.165,260.259z"/>
		<ellipse style="fill:#E8E8E8;" cx="420.031" cy="492.182" rx="62.356" ry="19.736"/>
		<path style="fill:#FFD0A2;" d="M390.125,348.677c-10.142,19.383-18.932,63.107,3.381,124.862
			c-1.578,13.974-1.352,16.453-1.352,16.453c19.158,3.832,36.512,3.155,36.512,3.155c-1.127-2.254-28.624-19.608-28.624-19.608
			c0.676-6.311,4.178-108.391,20.796-120.909C415.142,338.085,390.125,348.677,390.125,348.677z"/>
		<path style="fill:#E8E8E8;" d="M420.837,352.631c-0.617-1.577-1.472-2.843-2.487-3.874l-29.067,1.601l0,0.001
			c5.173,1.679,22.298,5.585,24.401,5.585c-10.368,28.248-18.57,111.082-13.642,117.596
			C400.718,467.228,404.219,365.149,420.837,352.631z"/>
		<path style="fill:#FFD0A2;" d="M426.924,341.349c-10.142,19.383-18.932,63.107,3.381,124.862
			c-1.578,13.974-1.352,16.453-1.352,16.453c19.158,3.831,36.512,3.155,36.512,3.155c-1.127-2.254-28.624-19.608-28.624-19.608
			c0.621-5.795,3.624-92.357,16.981-116.151C455.01,347.944,426.924,341.349,426.924,341.349z"/>
		<path style="fill:#E8E8E8;" d="M449.539,347.596l-27.285,4.999l0,0.002c8.603,1.805,26.628,1.017,26.628,1.017
			c-6.987,26.257-15.248,94.353-12.04,112.596c0.621-5.795,3.624-92.357,16.981-116.151
			C454.141,349.491,452.336,348.597,449.539,347.596z"/>
		<path style="fill:#F5F1DA;" d="M408.243,478.788c6.429,5.482-1.94,9.221-15.277-0.253c-0.981,9.589-0.813,11.456-0.813,11.456
			c19.158,3.832,36.512,3.155,36.512,3.155C427.945,491.706,416.445,484.093,408.243,478.788z"/>
		<path style="fill:#F5F1DA;" d="M445.043,471.459c6.429,5.482-1.94,9.221-15.277-0.253c-0.981,9.589-0.813,11.456-0.813,11.456
			c19.158,3.831,36.512,3.155,36.512,3.155C464.744,484.377,453.244,476.764,445.043,471.459z"/>
		<path style="fill:#3AAEB0;" d="M383.814,325.169c-1.127,9.309,2.254,24.41,2.254,24.41c25.694,6.987,71.221,0,71.221,0
			c1.803-12.171,0-24.41,0-24.41l-34.73-22.656L383.814,325.169z"/>
		<path style="fill:#E8E8E8;" d="M383.584,326.237c4.444,3.938,28.4,7.656,40.143,6.98c18.167,3.268,34.116-2.461,34.116-2.461
			c-0.401-4.385-0.554-5.586-0.554-5.586s-31.8-7.842-35.035-6.94C419.018,319.131,383.584,326.237,383.584,326.237z"/>
		<path style="fill:#D4D1BC;" d="M435.652,186.552c8.456,18.817,10.443,32.455,10.03,35.009c-0.413,2.554-4.62,21.486-2.817,31.403
			c1.803,9.917,13.673,62.82,14.424,72.204c-4.959,9.534-31.854,3.975-31.854,3.975c0.601-13.673-2.705-25.543-2.705-25.543
			l-5.86-37.113l6.69-29.261l5.305-17.493l2.73-19.611L435.652,186.552z"/>
		<polygon style="fill:#3AAEB0;" points="401.958,184.374 410.973,208.49 414.128,220.548 423.561,237.227 427.764,227.647 
			433.286,187.98 431.933,177.049 		"/>
		<path style="fill:#DBD8C3;" d="M400.332,175.983c-4.207,1.104-8.715,3.959-8.715,3.959c2.404,24.492,3.005,67.314,0,82.34
			c-3.005,15.025-11.269,62.888-11.269,62.888c28.999,10.436,42.372,5.027,42.372,5.027c1.352-11.57,0.68-92.969,0.68-92.969
			l-9.432-16.679l-8.564-26.525l-3.446-10.626L400.332,175.983z"/>
		<path style="fill:#E8E8E8;" d="M395.747,210.834l-0.341,1.69c3.172-1.199,12.173-1.69,12.173-1.69l-3.402,15.756
			c3.74,0.302,13.738,0.458,19.529,11.987c-0.97-3.402-0.97-3.402-0.97-3.402l-5.115-11.889l-6.649-14.797l-4.802-3.515
			l-8.554,2.163L395.747,210.834z"/>
		<path style="fill:#F5F1DA;" d="M409.145,168.033c-5.497,1.128-7.58,1.543-8.427,3.382c-0.847,1.839-6.649,40.907-6.649,40.907
			c5.635-3.493,12.734-3.381,12.734-3.381c-2.028,5.635-3.493,14.875-2.705,14.875c5.184-1.352,17.693,6.874,19.608,14.762
			c-3.832-23.778-18.905-53.01-18.406-53.378c0.499-0.368,8.827-5.672,8.827-5.672l-4.508-11.495H409.145z"/>
		<path style="fill:#E8E8E8;" d="M423.707,238.578c4.929-7.301,9.811-12.906,14.544-15.46c-1.803-5.259-4.965-14.349-4.965-14.349
			c4.74,0,10.449,3.08,10.449,3.08c-0.3-1.427-1.036-5.188-1.036-5.188l-9.782-3.903c0,0-3.584,4.575-3.456,5.559
			C429.589,209.302,423.707,238.578,423.707,238.578z"/>
		<path style="fill:#F5F1DA;" d="M423.707,168.597c5.071,0.338,8.226,4.17,11.156,10.931c2.93,6.761,10.818,30.539,10.818,30.539
			c-8.677-1.916-12.621-3.268-12.621-3.268c6.198,6.536,6.873,13.072,6.873,13.072c-8.338,5.635-16.226,18.707-16.226,18.707
			c-1.577-7.751,8.79-52.514,6.874-56.684c-7.55,1.352-8.452,2.705-8.677,0.338C421.678,179.866,423.707,168.597,423.707,168.597z"
			/>
		<path style="fill:#F2F2F2;" d="M408.888,175.382c-2.491,1.645-3.951,8.699-3.587,9.818c2.561-0.022,12.793-1.074,12.793-1.074
			l12.487-2.232c-2.942-5.036-4.518-7.733-5.871-8.019S408.888,175.382,408.888,175.382z"/>
		<path style="fill:#5C7B8A;" d="M406.249,230.757c-10.792-20.556-12.806-40.554-5.257-52.191c4.096-6.312,10.571-9.37,18.738-8.854
			c5.507,0.351,10,2.551,13.356,6.539c8.779,10.433,6.836,29.38,6.749,30.182l-1.792-0.195c0.02-0.188,1.944-18.991-6.339-28.83
			c-3.026-3.594-7.092-5.578-12.088-5.896c-7.483-0.479-13.392,2.303-17.111,8.036c-7.085,10.923-4.989,30.695,5.341,50.372
			L406.249,230.757z"/>
		<ellipse style="fill:#5D5D5D;" cx="408.203" cy="231.972" rx="5.156" ry="5.381"/>
		<path style="fill:#5C7B8A;" d="M448.18,236.224l-1.803-0.052c0.681-23.792-1.664-28.018-7.54-28.943
			c-2.467-0.385-4.626,0.188-6.424,1.71c-3.71,3.144-5.721,10.215-5.813,20.449l-1.803-0.017c0.1-10.928,2.27-18.265,6.451-21.808
			c2.184-1.85,4.907-2.582,7.87-2.116C446.888,206.67,448.837,213.286,448.18,236.224z"/>
		<path style="fill:#5D5D5D;" d="M428.684,230.757c0,1.556-1.261,2.817-2.817,2.817c-1.556,0-2.817-1.261-2.817-2.817
			c0-1.556,1.261-2.817,2.817-2.817C427.423,227.94,428.684,229.201,428.684,230.757z"/>
		<path style="fill:#3B3B3B;" d="M427.98,230.757c0,1.167-0.946-0.449-2.113-0.449c-1.167,0-2.113,1.616-2.113,0.449
			c0-1.167,0.946-2.113,2.113-2.113C427.034,228.644,427.98,229.59,427.98,230.757z"/>
		<path style="fill:#5D5D5D;" d="M450.208,237.353c0,1.556-1.261,2.817-2.817,2.817c-1.556,0-2.817-1.261-2.817-2.817
			c0-1.556,1.261-2.817,2.817-2.817C448.947,234.536,450.208,235.797,450.208,237.353z"/>
		<path style="fill:#3B3B3B;" d="M449.504,237.339c0,1.167-0.946-0.449-2.113-0.449c-1.167,0-2.113,1.616-2.113,0.449
			c0-1.167,0.946-2.113,2.113-2.113C448.558,235.226,449.504,236.172,449.504,237.339z"/>
		<path style="fill:#F2F2F2;" d="M387.174,286.301c-1.767,9.878-3.606,20.363-4.93,27.953c21.066,3.095,22.533,3.306,30.701-16.744
			C396.776,287.263,389.284,286.321,387.174,286.301z"/>
		<path style="fill:#EDE9D2;" d="M382.798,311.999c21.075,3.097,22.541,3.31,30.71-16.743
			c-19.552-12.39-26.424-11.177-26.424-11.177C383.363,294.811,382.798,311.999,382.798,311.999z"/>
		<path style="fill:#F5F1DA;" d="M391.778,179.941c-10.217,8.039-28.924,65.06-20.134,83.767
			c8.79,18.707,23.29,29.525,45.227,32.004c4.583-6.987,4.583-6.987,4.583-6.987c-16.002-8.79-27.597-25.756-28.899-31.585
			c-1.302-5.829,1.258-29.493,1.258-29.493C395.083,193.84,391.778,179.941,391.778,179.941z"/>
		<polygon style="fill:#5C7B8A;" points="437.08,255.369 408.888,322.082 448.724,325.169 473.742,270.921 		"/>
		<path style="fill:#FFD0A2;" d="M426.336,162.512c-1.052,7.813-4.508,17.58,3.606,19.683c-8.715,11.269-15.176,7.062-24.642,3.005
			c5.259-3.155,3.606-22.689,3.606-22.689H426.336z"/>
		<path style="fill:#E8E8E8;" d="M409.131,167.194c2.44,0.843,5.109,1.33,8.04,1.332c3.231,0.002,6.045-0.68,8.488-1.897
			c0.25-1.397,0.499-2.786,0.678-4.117h-17.43C408.907,162.512,409.07,164.446,409.131,167.194z"/>
		<path style="fill:#FFD0A2;" d="M401.244,97.151c-7.513,5.109-14.725,24.942-14.124,33.958c0.601,9.015,8.406,34.849,30.051,34.859
			c20.735,0.01,24.341-28.098,22.238-45.527C414.316,110.373,401.244,97.151,401.244,97.151z"/>
		<path style="fill:#FFD0A2;" d="M382.796,142.725c3.049,1.793,6.493,1.594,7.691-0.444c1.199-2.039-0.301-5.145-3.349-6.938
			c-3.049-1.793-6.492-1.594-7.692,0.444C378.248,137.825,379.747,140.932,382.796,142.725z"/>
		<path style="fill:#E8E8E8;" d="M389.412,140.127c-1.644-4.379-8.764-6.041-9.134-2.019
			C384.072,134.528,389.412,140.127,389.412,140.127z"/>
		<path style="fill:#E8E8E8;" d="M415.214,141.358c-0.036,1.231,0.599,2.127,2.76,2.162c1.664,0.027,2.146-0.786,2.044-1.896
			C419.3,142.948,416.834,143.934,415.214,141.358z"/>
		<path style="fill:#3B3B3B;" d="M419.511,141.663c0,0.482-0.786,0.873-1.756,0.873c-0.97,0-1.756-0.391-1.756-0.873
			c0-0.482,0.786-0.516,1.756-0.516C418.725,141.147,419.511,141.181,419.511,141.663z"/>
		<path style="fill:#E8E8E8;" d="M414.1,157.451c3.306,1.653,8.602,0.676,9.241,0C418.382,161.771,415.189,158.202,414.1,157.451z"
			/>
		<path style="fill:#261308;" d="M409.684,148.101c0.197,0.098,0.402,0.191,0.613,0.278c4.353,1.799,11.647,1.354,15.259-1.232
			C425.727,156.564,413.632,159.117,409.684,148.101z"/>
		<path style="fill:#261308;" d="M409.538,125.151c0.097-0.194-1.476,0.862-3.852,1.52c-0.348-0.461-0.767-0.731-1.219-0.731
			c-1.198,0-2.169,1.892-2.169,4.227c0,2.334,0.971,4.226,2.169,4.226s2.169-1.892,2.169-4.226c0-0.664-0.085-1.283-0.225-1.842
			C408.119,127.165,409.446,125.335,409.538,125.151z"/>
		<path style="fill:#261308;" d="M434.1,125.151c0.097-0.194-1.476,0.862-3.852,1.52c-0.348-0.461-0.767-0.731-1.219-0.731
			c-1.198,0-2.169,1.892-2.169,4.227c0,2.334,0.971,4.226,2.169,4.226s2.169-1.892,2.169-4.226c0-0.664-0.085-1.283-0.225-1.842
			C432.681,127.165,434.008,125.335,434.1,125.151z"/>
		<ellipse style="fill:#757575;" cx="404.775" cy="137.353" rx="7.196" ry="4.981"/>
		<path style="fill:#FFFFFF;" d="M404.775,131.972c-4.512,0-8.17,2.409-8.17,5.381s3.658,5.381,8.17,5.381
			c4.512,0,8.17-2.409,8.17-5.381S409.287,131.972,404.775,131.972z M404.775,141.269c-3.284,0-5.946-1.753-5.946-3.916
			s2.662-3.916,5.946-3.916c3.284,0,5.946,1.753,5.946,3.916S408.059,141.269,404.775,141.269z"/>
		<ellipse style="fill:#757575;" cx="429.047" cy="136.653" rx="7.197" ry="4.981"/>
		<path style="fill:#FFFFFF;" d="M429.047,131.272c-4.512,0-8.17,2.409-8.17,5.381c0,2.972,3.658,5.381,8.17,5.381
			c4.512,0,8.17-2.409,8.17-5.381C437.217,133.682,433.559,131.272,429.047,131.272z M429.047,140.569
			c-3.284,0-5.946-1.753-5.946-3.916c0-2.163,2.662-3.916,5.946-3.916c3.284,0,5.946,1.753,5.946,3.916
			C434.993,138.816,432.331,140.569,429.047,140.569z"/>
		<path style="fill:#FFFFFF;" d="M412.537,139.034l-1.42-0.482c0.715-2.104,2.85-3.476,5.572-3.582
			c2.309-0.089,5.054,0.798,5.989,2.981l-1.201,0.731c-0.502-1.171-2.752-1.979-4.718-1.911
			C415.224,136.831,413.097,137.384,412.537,139.034z"/>
		<path style="fill:#CCA865;" d="M398.395,123.841c2.254-3.456,8.915-1.052,10.28-2.104c1.365-1.052,2.041-3.832-0.964-4.207
			C404.706,117.155,398.395,119.935,398.395,123.841z"/>
		<path style="fill:#CCA865;" d="M434.345,123.24c-2.254-3.456-8.915-1.052-10.28-2.104c-1.365-1.052-2.041-3.831,0.964-4.207
			C428.034,116.554,434.345,119.334,434.345,123.24z"/>
		<path style="fill:#B5B5B5;" d="M404.114,128.182c0,0.646-0.814,1.169-1.817,1.169c-1.003,0-1.817-0.523-1.817-1.169
			c0-0.646,0.814-1.169,1.817-1.169C403.301,127.013,404.114,127.536,404.114,128.182z"/>
		<path style="fill:#B5B5B5;" d="M428.676,128.182c0,0.646-0.814,1.169-1.817,1.169s-1.817-0.523-1.817-1.169
			c0-0.646,0.814-1.169,1.817-1.169S428.676,127.536,428.676,128.182z"/>
		<path style="fill:#FFFFFF;" d="M410.522,148.462c1.059,1.552,3.541,2.455,8.452,2.056c3.749-0.305,5.334-1.991,5.946-2.962
			C421.207,149.735,414.65,150.063,410.522,148.462z"/>
		<path style="fill:#FFFFFF;" d="M412.913,153.167c3.503,3.171,8.203,2.702,10.774-0.33
			C421.307,152.492,416.729,152.737,412.913,153.167z"/>
		<path style="fill:#F2F2F2;" d="M392.554,257.141c-1.302-5.829,1.258-29.493,1.258-29.493c0.09-2.393,0.155-4.675,0.202-6.87
			c-1.969,10.617-6.473,30.442-3.619,37.877c2.855,7.437,18.32,26.81,29.378,30.715c0.572-0.092,1.067-0.223,1.509-0.382
			c0.168-0.256,0.172-0.262,0.172-0.262C405.451,279.936,393.857,262.97,392.554,257.141z"/>
		<path style="fill:#FFD0A2;" d="M416.87,295.713c6.787,5.297,13.598,4.001,15.063,2.198c1.465-1.803-2.197-9.128-10.48-9.184
			C413.058,291.487,416.87,295.713,416.87,295.713z"/>
		<path style="fill:#E8E8E8;" d="M407.439,182.312l-0.007,0.003c-0.538,1.318-1.231,2.345-2.131,2.884
			c7.58,3.249,13.234,6.585,19.661,2.003C418.074,191.644,407.194,186.016,407.439,182.312z"/>
	</g>
	<g>
		<ellipse style="fill:#E8E8E8;" cx="679.165" cy="492.182" rx="62.356" ry="19.736"/>
		<path style="fill:#F5F1DA;" d="M644.996,478.277c-6.969,5.464-13.388,17-11.476,22.991c13.537-2.167,31.096-22.124,31.783-24.327
			c0.687-2.203-1.104-8.067-1.104-8.067L644.996,478.277z"/>
		<path style="fill:#F5F1DA;" d="M709.059,473.875c8.145,3.474,18.921,17.511,18.625,23.793
			c-13.637,1.41-35.762-13.323-36.996-15.273c-1.234-1.95-1.021-8.078-1.021-8.078L709.059,473.875z"/>
		<path style="fill:#3AAEB0;" d="M635.679,344.903c-7.419,37.329,5.077,134.598,5.077,134.598
			c7.082,2.695,22.599-3.487,25.556-11.055c2.957-7.568-5.143-56.261-3.57-74.746c1.572-18.485,4.748-64.845,8.43-63.74
			c3.681,1.105,6.843,44.452,7.595,70.177c0.753,25.725,9.801,75.684,9.801,75.684c3.872,2.594,17.251,1.533,22.313-2.261
			c5.458-8.477-2.766-123.652-2.517-131.552c0.249-7.9-8.997-43.779-8.997-43.779s-9.062-10.419-11.013-11.221
			c-1.952-0.803-30.616-5.939-30.616-5.939l-17.135,38.955L635.679,344.903z"/>
		<path style="fill:#E8E8E8;" d="M640.757,479.502c1.115,0.424,2.438,0.628,3.889,0.641c-3.841-30.401-8.273-121.005-2.789-127.09
			c3.456-3.381,20.735,0,20.735,0c0.729-2.411,2.115-5.308,2.115-5.308h-29.531C628.865,386.922,640.757,479.502,640.757,479.502z"
			/>
		<path style="fill:#E8E8E8;" d="M705.865,475.862c2.001-0.59,3.764-1.361,5.016-2.3c5.457-8.477-2.767-123.652-2.517-131.552
			c0.109-3.454-1.597-12.254-3.551-21.067l-8.648-26.307c-2.809-3.095-6.624-7.139-7.811-7.627c-0.066-0.027-0.167-0.06-0.292-0.097
			l-25.471,8.217c5.86,4.658,22.989,4.808,22.989,4.808l1.352,47.119c4.357,2.315,18.932,3.549,18.932,3.549
			C706.767,357.335,714.129,472.981,705.865,475.862z"/>
		<path style="fill:#FFFFFF;" d="M663.073,293.295c13.628,5.373,28.268,0.893,28.268,0.893l-0.179-93.42l-6.305-19.475
			l-28.521,0.582l-3.956,22.94l1.436,67.264L663.073,293.295z"/>
		<path style="fill:#E8E8E8;" d="M658.654,186.725c-0.946,21.542,2.435,71.592,4.689,81.96c2.254,10.368,2.182,27.254,2.182,27.254
			l-5.788-24.549c0,0-7.202-47.56-6.982-49.023c0.22-1.463-0.005-23.635-0.005-23.635L658.654,186.725z"/>
		<path style="fill:#D4D1BC;" d="M637.901,186.564c7.445-1,15.742-5.463,15.742-5.463l1.677,56.428c0,0,5.871,30.582,6.891,34.816
			c6.945,27.898,2.638,78.176,2.638,78.176c-7.692,0.993-32.025-3.236-32.025-3.236l-0.114-74.636L637.901,186.564z"/>
		<path style="fill:#E8E8E8;" d="M643.66,199.195c-1.803,1.575-1.803,5.105-1.803,5.105c2.404,14.952,22.032,73.456,22.851,82.548
			c-2.853-17.697-2.497-14.503-2.497-14.503l-4.878-27.85c0,0-3.594-39.369-4.051-40.194
			C652.825,203.474,643.66,199.195,643.66,199.195z"/>
		<path style="fill:#D4D1BC;" d="M686.478,182.138c5.079,3.52,11.231,4.338,11.231,4.338
			c0.839,28.199,15.461,159.887,15.461,159.887c-8.217,1.965-27.404-0.866-27.404-0.866c0.361-19.265-2.982-72.503-2.982-72.503
			l2.507-29.823L686.478,182.138z"/>
		<path style="fill:#E8E8E8;" d="M698.728,201.934l1.055,5.184c-8.267,20.622-15.336,59.314-16.986,66.845
			c-0.058-7.343,0.258-11.401,0.258-11.401s3.502-39.146,3.615-40.195C686.783,221.317,698.728,201.934,698.728,201.934z"/>
		<path style="fill:#F5F1DA;" d="M679.722,171.739c6.505,2.677,20.061,27.818,20.061,27.818
			c-6.314,22.042-16.799,61.911-16.999,73.437c-0.469-58.173,1.025-84.65,0.271-86.816s-6.072-5.958-6.072-5.958L679.722,171.739z"
			/>
		<path style="fill:#F5F1DA;" d="M659.079,173.277c-6.851,3.03-16.276,24.974-16.276,24.974
			c4.158,24.844,19.407,74.093,19.407,74.093c-4.518-39.519-5.708-82.916-3.556-85.619c2.152-2.702,9.063-0.043,9.063-0.043
			l-5.178-13.296L659.079,173.277z"/>
		<polygon style="fill:#275369;" points="610.519,325.821 657.827,283.327 661.588,340.285 618.398,377.596 		"/>
		<path style="fill:#FFD0A2;" d="M661.033,173.816c1.039,6.428,0.559,11.19-2.379,12.91c4.155,11.911,21.802,11.315,24.401-0.547
			c-3.43-8.758-2.398-17.951-2.398-17.951L661.033,173.816z"/>
		<path style="fill:#381C0B;" d="M691.213,94.833c9.186,1.279,11.147,12.214,11.148,22.594c0.002,10.38-5.695,41.544-14.74,45.192
			c-21.626-10.095-50.6-15.398-50.6-15.398c-8.126-9.378-10.978-33.851-6.17-45.232C635.66,90.607,691.213,94.833,691.213,94.833z"
			/>
		<path style="fill:#E8E8E8;" d="M661.033,173.816c0.122,0.753,0.22,1.48,0.299,2.185c2.279,0.523,4.63,0.727,7.022,0.551
			c4.433-0.326,8.544-1.895,12.16-4.416c-0.028-2.39,0.142-3.908,0.142-3.908L661.033,173.816z"/>
		<path style="fill:#FFD0A2;" d="M695.093,133.669c1.565,21.269-10.512,39.493-26.974,40.704
			c-16.462,1.211-31.076-15.049-32.641-36.318c-0.585-7.951-0.57-20.749,2.175-27.12c4.597-10.67,14.491-12.826,24.799-13.584
			c10.578-0.778,21.25,1.098,27.33,11.442C693.165,114.545,694.534,126.066,695.093,133.669z"/>
		<path style="fill:#381C0B;" d="M691.213,94.833c0,0-22.392-36.953-65.555,4.684c31.204,18.779,56.236,8.696,63.742,0.531
			L691.213,94.833z"/>
		<path style="fill:#1C0E06;" d="M680.493,134.282c-0.083,2.636-1.367,4.735-2.866,4.687c-1.5-0.047-2.648-2.223-2.565-4.859
			c0.083-2.636,1.367-4.735,2.866-4.687C679.428,129.471,680.576,131.646,680.493,134.282z"/>
		<path style="fill:#1C0E06;" d="M655.193,134.637c-0.083,2.636-1.367,4.735-2.867,4.687c-1.5-0.047-2.648-2.223-2.565-4.859
			c0.083-2.636,1.367-4.735,2.867-4.687C654.127,129.825,655.276,132,655.193,134.637z"/>
		<path style="fill:#B5B5B5;" d="M657.973,132.665c-0.016,0.5-1.116,0.871-2.456,0.828c-1.341-0.042-2.415-0.482-2.399-0.982
			c0.016-0.5,1.115-0.871,2.456-0.829C656.915,131.725,657.989,132.165,657.973,132.665z"/>
		<path style="fill:#B5B5B5;" d="M682.968,132.878c-0.016,0.5-1.115,0.871-2.456,0.828c-1.341-0.042-2.415-0.482-2.399-0.982
			c0.016-0.5,1.115-0.871,2.456-0.828C681.909,131.938,682.983,132.378,682.968,132.878z"/>
		<path style="fill:#FFFFFF;" d="M664.216,155.351c7.572,1.557,14.949-2.493,14.949-2.493
			C675.021,164.094,665.741,160.506,664.216,155.351z"/>
		<path style="fill:#381C0B;" d="M646.938,125.376c2.649-1.708,8.557-0.965,10.03-0.672c1.474,0.294,2.58-3.44,0.15-4.753
			C654.689,118.64,647.401,120.51,646.938,125.376z"/>
		<path style="fill:#381C0B;" d="M682.401,125.007c-2.536-1.872-8.478-1.503-9.968-1.303c-1.489,0.2-2.358-3.596,0.15-4.753
			C675.092,117.795,682.247,120.122,682.401,125.007z"/>
		<path style="fill:#F5F1DA;" d="M637.901,186.564c-3.974,0.616-11.697,2.596-16.123,41.008
			c-4.426,38.412,1.512,92.968,1.512,92.968c2.877,2.809,12.25,3.353,12.25,3.353c3.779-17.921,5.748-77.664,5.748-77.664
			C633.792,222.762,637.901,186.564,637.901,186.564z"/>
		<path style="fill:#FFD0A2;" d="M625.284,319.986c-2.33,11.171,0.125,31.266,6.571,30.604c6.446-0.661,3.685-14.958,2.691-18.697
			c2.509,6.628,2.863,7.161,3.219,3.699c0.356-3.462-3.717-15.329-3.717-15.329L625.284,319.986z"/>
		<path style="fill:#FFD0A2;" d="M718.055,319.883c1.62,11.296-2.097,31.196-8.489,30.129c-6.392-1.067-2.734-15.161-1.506-18.829
			c-2.922,6.457-3.309,6.966-3.446,3.488c-0.137-3.478,4.677-15.064,4.677-15.064L718.055,319.883z"/>
		<path style="fill:#F5F1DA;" d="M697.709,186.476c9.014,6.71,16.919,38.098,20.012,65.38c3.092,27.282,0.753,70.044,0.753,70.044
			c-1.523,1.27-11.027-0.348-11.027-0.348c-3.141-20.529-7.976-75.05-9.02-79.037C699.475,224.425,697.709,186.476,697.709,186.476z
			"/>
		<path style="fill:#FFD0A2;" d="M629.222,144.756c2.052,2.881,5.277,4.105,7.203,2.733s1.825-4.82-0.227-7.701
			c-2.052-2.881-5.277-4.105-7.203-2.733C627.068,138.426,627.17,141.874,629.222,144.756z"/>
		<path style="fill:#E8E8E8;" d="M636.322,145.083c0.286-4.669-5.537-9.092-7.516-5.57
			C633.731,137.793,636.322,145.083,636.322,145.083z"/>
		<path style="fill:#FFD0A2;" d="M702.111,141.907c-2.1,2.846-5.345,4.015-7.248,2.611c-1.903-1.404-1.743-4.85,0.357-7.696
			c2.1-2.846,5.345-4.015,7.248-2.611C704.37,135.615,704.211,139.061,702.111,141.907z"/>
		<path style="fill:#E8E8E8;" d="M695.006,142.115c-0.207-4.673,5.689-8.997,7.609-5.442
			C697.719,134.87,695.006,142.115,695.006,142.115z"/>
		<path style="fill:#E8E8E8;" d="M663.163,143.628c-0.056,1.873,0.912,3.237,4.202,3.291c2.532,0.042,3.266-1.197,3.111-2.886
			C669.384,146.047,665.629,147.548,663.163,143.628z"/>
		<path style="fill:#3B3B3B;" d="M669.704,144.092c0,0.734-1.197,1.329-2.673,1.329c-1.476,0-2.673-0.595-2.673-1.329
			c0-0.734,1.197-0.786,2.673-0.786C668.508,143.306,669.704,143.358,669.704,144.092z"/>
		<path style="fill:#E8E8E8;" d="M678.136,193.344c-11.405,3.531-16.071-2.268-17.646-8.613l-0.003,0.001
			c-0.451,0.86-1.053,1.536-1.833,1.993C661.674,195.384,671.82,197.427,678.136,193.344z"/>
	</g>
	<g>
		<ellipse style="fill:#E8E8E8;" cx="185.015" cy="997.975" rx="62.356" ry="19.736"/>
		<path style="fill:#F5F1DA;" d="M150.846,984.07c-6.969,5.464-13.388,17-11.476,22.991c13.537-2.167,31.096-22.124,31.783-24.327
			c0.687-2.203-1.104-8.067-1.104-8.067L150.846,984.07z"/>
		<path style="fill:#F5F1DA;" d="M214.909,979.669c8.145,3.474,18.921,17.511,18.625,23.793
			c-13.637,1.41-35.762-13.323-36.996-15.273c-1.234-1.949-1.021-8.078-1.021-8.078L214.909,979.669z"/>
		<path style="fill:#3AAEB0;" d="M141.529,850.697c-7.419,37.329,5.077,134.599,5.077,134.599
			c7.082,2.695,22.599-3.487,25.556-11.055c2.958-7.568-5.142-56.261-3.57-74.746s4.748-64.845,8.43-63.74
			s6.843,44.452,7.595,70.177c0.753,25.725,9.801,75.684,9.801,75.684c3.872,2.594,17.251,1.534,22.313-2.261
			c5.458-8.477-2.767-123.652-2.517-131.552c0.249-7.9-8.997-43.779-8.997-43.779s-9.062-10.419-11.013-11.222
			c-1.952-0.803-30.616-5.939-30.616-5.939l-17.135,38.955L141.529,850.697z"/>
		<path style="fill:#E8E8E8;" d="M146.606,985.296c1.115,0.424,2.438,0.628,3.889,0.641c-3.841-30.401-8.273-121.005-2.789-127.09
			c3.456-3.381,20.735,0,20.735,0c0.729-2.411,2.115-5.308,2.115-5.308h-29.532C134.714,892.716,146.606,985.296,146.606,985.296z"
			/>
		<path style="fill:#E8E8E8;" d="M211.715,981.655c2.001-0.59,3.764-1.361,5.016-2.3c5.458-8.477-2.766-123.652-2.517-131.552
			c0.109-3.454-1.597-12.254-3.551-21.067l-8.648-26.307c-2.809-3.095-6.624-7.139-7.811-7.627c-0.066-0.027-0.168-0.06-0.292-0.097
			l-25.471,8.217c5.86,4.658,22.989,4.808,22.989,4.808l1.352,47.119c4.357,2.315,18.932,3.549,18.932,3.549
			C212.616,863.129,219.979,978.775,211.715,981.655z"/>
		<path style="fill:#FFFFFF;" d="M168.922,799.089c13.628,5.373,28.268,0.893,28.268,0.893l-0.179-93.42l-6.304-19.475
			l-28.521,0.582l-3.956,22.94l1.436,67.265L168.922,799.089z"/>
		<path style="fill:#E8E8E8;" d="M164.504,692.519c-0.946,21.542,2.435,71.592,4.689,81.96c2.254,10.368,2.182,27.254,2.182,27.254
			l-5.788-24.549c0,0-7.202-47.56-6.982-49.023s-0.005-23.635-0.005-23.635L164.504,692.519z"/>
		<path style="fill:#D4D1BC;" d="M143.75,692.358c7.445-1.001,15.742-5.463,15.742-5.463l1.677,56.427
			c0,0,5.871,30.582,6.891,34.816c6.945,27.898,2.638,78.176,2.638,78.176c-7.692,0.993-32.024-3.236-32.024-3.236l-0.114-74.636
			L143.75,692.358z"/>
		<path style="fill:#E8E8E8;" d="M149.509,704.988c-1.803,1.575-1.803,5.105-1.803,5.105c2.404,14.951,22.032,73.456,22.851,82.548
			c-2.854-17.697-2.497-14.503-2.497-14.503l-4.878-27.85c0,0-3.594-39.369-4.051-40.194
			C158.675,709.268,149.509,704.988,149.509,704.988z"/>
		<path style="fill:#D4D1BC;" d="M192.327,687.932c5.079,3.52,11.231,4.338,11.231,4.338
			c0.839,28.199,15.461,159.886,15.461,159.886c-8.217,1.965-27.404-0.866-27.404-0.866c0.361-19.265-2.982-72.503-2.982-72.503
			l2.507-29.823L192.327,687.932z"/>
		<path style="fill:#E8E8E8;" d="M204.578,707.728l1.055,5.184c-8.267,20.622-15.336,59.314-16.986,66.845
			c-0.058-7.343,0.258-11.401,0.258-11.401s3.502-39.146,3.615-40.195S204.578,707.728,204.578,707.728z"/>
		<path style="fill:#F5F1DA;" d="M185.571,677.533c6.506,2.677,20.061,27.818,20.061,27.818
			c-6.314,22.042-16.8,61.911-16.999,73.437c-0.469-58.172,1.025-84.65,0.271-86.816c-0.754-2.166-6.072-5.958-6.072-5.958
			L185.571,677.533z"/>
		<path style="fill:#F5F1DA;" d="M164.929,679.071c-6.851,3.03-16.276,24.974-16.276,24.974
			c4.158,24.844,19.407,74.093,19.407,74.093c-4.518-39.519-5.708-82.916-3.556-85.619c2.152-2.702,9.063-0.043,9.063-0.043
			l-5.178-13.296L164.929,679.071z"/>
		<path style="fill:#FFD0A2;" d="M166.883,679.609c1.039,6.428,0.559,11.19-2.379,12.91c4.154,11.911,21.802,11.315,24.401-0.547
			c-3.43-8.758-2.399-17.951-2.399-17.951L166.883,679.609z"/>
		<path style="fill:#381C0B;" d="M197.062,600.627c9.186,1.279,11.147,12.214,11.149,22.594c0.002,10.38-5.695,41.544-14.739,45.192
			c-21.626-10.095-50.6-15.398-50.6-15.398c-8.126-9.378-10.978-33.851-6.17-45.232S197.062,600.627,197.062,600.627z"/>
		<path style="fill:#E8E8E8;" d="M166.883,679.609c0.122,0.753,0.22,1.48,0.299,2.185c2.279,0.523,4.63,0.727,7.022,0.551
			c4.433-0.326,8.544-1.895,12.16-4.416c-0.028-2.39,0.142-3.908,0.142-3.908L166.883,679.609z"/>
		<path style="fill:#FFD0A2;" d="M200.943,639.462c1.565,21.269-10.512,39.493-26.974,40.704
			c-16.462,1.211-31.076-15.049-32.64-36.318c-0.585-7.951-0.57-20.749,2.175-27.12c4.597-10.67,14.491-12.826,24.799-13.584
			c10.578-0.778,21.25,1.099,27.33,11.442C199.014,620.339,200.383,631.86,200.943,639.462z"/>
		<path style="fill:#1C0E06;" d="M186.343,640.076c-0.083,2.636-1.367,4.735-2.867,4.687c-1.5-0.047-2.648-2.223-2.565-4.859
			c0.083-2.636,1.367-4.735,2.867-4.687C185.278,635.265,186.426,637.44,186.343,640.076z"/>
		<path style="fill:#1C0E06;" d="M161.042,640.43c-0.083,2.636-1.367,4.735-2.867,4.687c-1.5-0.047-2.648-2.223-2.565-4.859
			s1.367-4.735,2.867-4.687C159.977,635.619,161.125,637.794,161.042,640.43z"/>
		<path style="fill:#B5B5B5;" d="M163.823,638.459c-0.016,0.5-1.115,0.871-2.456,0.829c-1.341-0.042-2.415-0.482-2.399-0.982
			c0.016-0.5,1.116-0.871,2.456-0.828C162.764,637.519,163.839,637.959,163.823,638.459z"/>
		<path style="fill:#B5B5B5;" d="M188.817,638.672c-0.016,0.5-1.116,0.871-2.456,0.829c-1.341-0.042-2.415-0.482-2.399-0.982
			c0.016-0.5,1.116-0.871,2.456-0.829C187.759,637.732,188.833,638.172,188.817,638.672z"/>
		<path style="fill:#381C0B;" d="M152.788,631.17c2.649-1.708,8.556-0.965,10.03-0.672c1.473,0.294,2.58-3.44,0.15-4.753
			C160.538,624.433,153.251,626.304,152.788,631.17z"/>
		<path style="fill:#381C0B;" d="M188.251,630.801c-2.536-1.872-8.478-1.504-9.967-1.303c-1.489,0.2-2.358-3.596,0.15-4.753
			C180.941,623.589,188.096,625.915,188.251,630.801z"/>
		<path style="fill:#F5F1DA;" d="M143.75,692.358c-3.973,0.616-11.697,2.596-16.123,41.008c-4.426,38.412,1.512,92.968,1.512,92.968
			c2.877,2.809,12.251,3.353,12.251,3.353c3.779-17.921,5.748-77.664,5.748-77.664C139.641,728.556,143.75,692.358,143.75,692.358z"
			/>
		<path style="fill:#FFD0A2;" d="M131.133,825.779c-2.33,11.171,0.124,31.266,6.571,30.604c6.446-0.661,3.685-14.958,2.691-18.697
			c2.509,6.628,2.863,7.161,3.219,3.699c0.357-3.462-3.717-15.329-3.717-15.329L131.133,825.779z"/>
		<path style="fill:#FFD0A2;" d="M223.904,825.677c1.62,11.296-2.097,31.195-8.489,30.129c-6.392-1.067-2.734-15.161-1.506-18.829
			c-2.922,6.457-3.309,6.966-3.446,3.488c-0.137-3.478,4.677-15.064,4.677-15.064L223.904,825.677z"/>
		<path style="fill:#F5F1DA;" d="M203.558,692.27c9.014,6.71,16.919,38.098,20.012,65.38c3.092,27.282,0.753,70.044,0.753,70.044
			c-1.523,1.27-11.027-0.348-11.027-0.348c-3.141-20.529-7.976-75.05-9.02-79.037C205.325,730.219,203.558,692.27,203.558,692.27z"
			/>
		<path style="fill:#FFD0A2;" d="M135.072,650.549c2.052,2.881,5.277,4.105,7.203,2.733c1.926-1.372,1.825-4.82-0.227-7.701
			c-2.052-2.881-5.277-4.105-7.203-2.733C132.918,644.22,133.02,647.668,135.072,650.549z"/>
		<path style="fill:#E8E8E8;" d="M142.172,650.876c0.286-4.669-5.537-9.091-7.516-5.57
			C139.581,643.587,142.172,650.876,142.172,650.876z"/>
		<path style="fill:#FFD0A2;" d="M207.96,647.701c-2.1,2.846-5.345,4.015-7.248,2.611c-1.903-1.404-1.743-4.85,0.357-7.696
			c2.1-2.846,5.345-4.015,7.248-2.611C210.22,641.409,210.06,644.855,207.96,647.701z"/>
		<path style="fill:#E8E8E8;" d="M200.856,647.908c-0.207-4.673,5.689-8.997,7.609-5.443
			C203.569,640.663,200.856,647.908,200.856,647.908z"/>
		<path style="fill:#E8E8E8;" d="M169.013,649.421c-0.056,1.873,0.912,3.237,4.202,3.291c2.533,0.042,3.267-1.197,3.111-2.886
			C175.233,651.841,171.479,653.342,169.013,649.421z"/>
		<path style="fill:#3B3B3B;" d="M175.554,649.885c0,0.734-1.197,1.329-2.673,1.329c-1.476,0-2.673-0.595-2.673-1.329
			c0-0.734,1.197-0.786,2.673-0.786C174.357,649.099,175.554,649.151,175.554,649.885z"/>
		<path style="fill:#E8E8E8;" d="M183.986,699.138c-11.405,3.531-16.071-2.268-17.646-8.613l-0.003,0.001
			c-0.451,0.86-1.053,1.536-1.833,1.993C167.524,701.177,177.669,703.22,183.986,699.138z"/>
		<path style="fill:#89CECF;" d="M200.674,649.423c-3.125,2.414-15.584,2.765-19.767,0.734c-4.184-2.032-12.382-1.236-15.919,0.719
			c-3.538,1.956-17.31,0.636-23.283-4.547c0,0-0.032,0.091-0.09,0.259c2.561,19.906,16.608,34.737,32.355,33.578
			C187.785,679.15,198.507,666.149,200.674,649.423z"/>
		<path style="fill:#3AAEB0;" d="M134.358,627.059c6.332-9.691,57.973-13.289,73.623,0.568c3.817-14.88,0.549-27.768-2.349-31.633
			c-5.192-6.927-55.251-15.476-66.182-2.066C129.309,606.37,134.358,627.059,134.358,627.059z"/>
		<path style="fill:#3AAEB0;" d="M206.389,625.338c5.858-6.661,12.772-6.656,14.424-4.327
			C222.466,623.34,203.704,628.391,206.389,625.338z"/>
		<path style="fill:#3AAEB0;" d="M208.042,624.843c7.438,1.352,12.246,1.286,12.321,2.784c0.075,1.498-5.672,2.249-12.546-2.258
			C208.333,624.895,208.042,624.843,208.042,624.843z"/>
	</g>
	<g>
		<ellipse style="fill:#E8E8E8;" cx="900.119" cy="489.852" rx="62.356" ry="19.736"/>
		<path style="fill:#F5F1DA;" d="M869.009,472.026c-1.61,6.21-1.38,16.101-1.38,16.101c10.236,2.76,36.918,1.38,36.918,1.38
			c-4.025-5.635-5.75-10.006-13.111-11.156c-7.361-1.15-11.914-1.549-13.087-4.282c-1.174-2.733-1.864-3.653-1.864-3.653
			L869.009,472.026z"/>
		<path style="fill:#F5F1DA;" d="M905.137,465.702c-1.61,6.21-1.38,16.101-1.38,16.101c10.236,2.76,36.918,1.38,36.918,1.38
			c-4.025-5.635-5.75-10.006-13.111-11.156c-7.361-1.15-11.914-1.549-13.088-4.283c-1.174-2.733-1.864-3.653-1.864-3.653
			L905.137,465.702z"/>
		<path style="fill:#329799;" d="M897.202,355.063c-7.361,28.292,5.98,111.789,5.98,111.789c6.671,3.91,13.341,0,13.341,0
			c2.76-12.191,16.546-118.229,16.546-118.229l-32.432-61.301L897.202,355.063z"/>
		<path style="fill:#E8E8E8;" d="M903.746,365.559c6.128-2.254,24.752-3.957,28.399-9.867c0.492-11.319-27.599-56.899-27.599-56.899
			h-4.492l-2.853,56.27c-7.361,28.292,5.98,111.789,5.98,111.789c1.317,0.772,2.633,1.231,3.898,1.484
			C895.449,423.478,897.618,367.813,903.746,365.559z"/>
		<path style="fill:#3AAEB0;" d="M861.073,361.388c-7.361,28.292,5.98,111.788,5.98,111.788c6.67,3.91,13.341,0,13.341,0
			c2.76-12.191,18.401-118.229,18.401-118.229L861.073,361.388z"/>
		<path style="fill:#F5F1DA;" d="M926.658,188.874c10.78,16.101,20.211,44.393,20.211,44.393l-24.926,7.821L926.658,188.874z"/>
		<path style="fill:#E8E8E8;" d="M863.896,366.686c2.479,0,34.044-5.954,34.044-5.954l-17.982-2.569l-18.885,3.224
			c-7.361,28.292,5.98,111.788,5.98,111.788c0.982,0.576,1.961,0.966,2.922,1.24C862.18,436.255,861.417,366.686,863.896,366.686z"
			/>
		<path style="fill:#D4D1BC;" d="M869.929,178.614c-0.805,0.521-3.68,1.405-3.68,1.405c3.45,34.733-1.035,86.027-1.38,88.097
			c-0.345,2.07-8.626,85.681-6.095,94.882c27.372-1.15,42.323-2.53,42.323-2.53c0.69-4.37,2.3-60.725,2.3-60.725
			c0,20.702,2.3,61.185,2.3,61.185c3.68,0.46,27.602-5.521,27.602-5.521c2.53-14.491,2.07-65.095,2.07-65.095
			c-1.84-24.842-2.76-66.475-2.99-68.085c-0.92-16.331-4.08-31.742-5.72-33.353c-1.64-1.61-7.161-6.21-7.161-6.21l-15.411-11.271
			l-33.122,7.221H869.929z"/>
		<path style="fill:#AFD3D6;" d="M882.005,173.808c-2.53,2.07-3.68,7.821-3.91,8.281c-0.23,0.46,5.175,27.142,5.175,27.142
			l14.836,20.242l11.501-18.861c0,0,3.68-22.082,4.025-23.577c0.345-1.495-4.945-14.376-4.945-14.376L882.005,173.808z"/>
		<polygon style="fill:#275369;" points="894.986,294.453 939.049,294.453 967.341,220.617 919.958,220.617 		"/>
		<path style="fill:#E8E8E8;" d="M903.293,170.806c8.444-0.353,14.398,2.656,14.398,2.656c4.426,13.851,8.218,34.676,8.218,34.676
			c-3.644,1.98-13.724,5.22-13.724,5.22c3.992,5.302,5.101,10.017,5.101,10.017c-7.122,6.495-18.133,11.913-18.721,17.714
			c-0.88-6.964-0.675-13.684-0.675-13.684c7.15-17.215,14.812-23.201,9.803-50.185C902.938,171.509,903.293,170.806,903.293,170.806
			z"/>
		<path style="fill:#E8E8E8;" d="M883.613,172.185c-8.394,0.984-13.799,4.894-13.799,4.894c-2.185,14.376-2.645,35.538-2.645,35.538
			c3.91,1.38,14.376,2.99,14.376,2.99c-3.105,5.865-3.457,10.696-3.457,10.696c8.058,5.29,18.984,9.151,20.479,14.786
			c-0.23-7.016-0.69-13.866-0.69-13.866c-9.776-15.871-18.286-20.574-17.596-48.01C884.075,172.823,883.613,172.185,883.613,172.185
			z"/>
		<path style="fill:#F5F1DA;" d="M883.613,169.03c-8.394,0.984-13.799,4.894-13.799,4.894c-2.185,14.376-2.645,35.538-2.645,35.538
			c3.91,1.38,14.376,2.99,14.376,2.99c-3.105,5.866-3.457,10.696-3.457,10.696c8.058,5.29,18.984,12.306,20.479,17.941
			c-0.23-7.016-0.69-17.021-0.69-17.021c-9.776-15.871-18.286-20.574-17.596-48.01C884.075,169.668,883.613,169.03,883.613,169.03z"
			/>
		<path style="fill:#FFD0A2;" d="M905.773,261.483c8.894-2.914,14.261-6.057,18.095-2.837c3.834,3.22,0.613,9.047-4.217,9.661
			c-4.83,0.613-14.644,0.613-14.644,0.613L905.773,261.483z"/>
		<path style="fill:#F5F1DA;" d="M904.042,167.876c8.444-0.353,14.398,2.656,14.398,2.656c4.426,13.851,8.218,34.676,8.218,34.676
			c-3.644,1.98-13.724,5.221-13.724,5.221c3.992,5.302,5.101,10.017,5.101,10.017c-7.122,6.495-18.882,14.843-19.469,20.644
			c-0.88-6.964,0.074-16.614,0.074-16.614c7.15-17.215,14.812-23.201,9.803-50.184C903.687,168.579,904.042,167.876,904.042,167.876
			z"/>
		<path style="fill:#F5F1DA;" d="M907.767,259.03c-1.61,5.29,0,11.041,0,11.041c-13.571,4.37-54.744,12.421-63.255,2.99
			c-8.511-9.431,5.52-85.797,10.581-89.937c5.06-4.14,11.156-3.105,11.156-3.105s2.415,10.811,2.415,72.647
			C884.765,252.206,907.767,259.03,907.767,259.03z"/>
		<path style="fill:#E8E8E8;" d="M887.525,166.828c-3.795,0.805-7.246,9.431-7.246,9.431c4.025,10.466,10.469,15.641,10.469,15.641
			c1.032-4.14,4.655-10.466,4.655-10.466c3.623,2.3,6.843,9.891,6.843,9.891c4.715-4.255,9.431-11.961,9.431-11.961
			c-0.575-5.405-0.909-7.884-2.404-9.264c-1.495-1.38-6.566-5.342-6.566-5.342L887.525,166.828z"/>
		<path style="fill:#E8E8E8;" d="M861.751,300.839c-1.084,12.496-2.191,26.519-2.852,38.158c1.532,0.972,4.631,1.706,10.799,1.315
			c14.491-0.92,20.242-18.746,21.852-41.518C885.753,301.592,867.767,301.678,861.751,300.839z"/>
		<path style="fill:#F5F1DA;" d="M859.923,296.063c2.138,1.241,24.957,1.61,31.627-1.61c-1.61,22.772-7.361,40.598-21.852,41.518
			c-14.491,0.92-12.076-4.37-12.076-4.37C856.818,328.61,859.923,296.063,859.923,296.063z"/>
		<path style="fill:#DAF3F5;" d="M887.525,165.758c-3.795,0.805-7.246,9.431-7.246,9.431c4.025,10.466,10.469,15.641,10.469,15.641
			c1.032-4.14,4.655-10.466,4.655-10.466c3.623,2.3,6.843,9.891,6.843,9.891c4.715-4.255,9.431-11.961,9.431-11.961
			c-0.575-5.405-0.909-7.884-2.404-9.264s-6.566-5.342-6.566-5.342L887.525,165.758z"/>
		<path style="fill:#FFD0A2;" d="M885.915,158.972c0.92,3.91-0.92,11.386-0.92,11.386c0.115,11.041,20.701,10.466,20.816,1.495
			c-1.495-10.121-0.575-15.296-0.575-15.296L885.915,158.972z"/>
		<path style="fill:#F2C777;" d="M872.804,80.613c4.781-6.893,17.057-10.965,28.882-6.372c7.746,3.008,13.644,9.428,16.597,17.195
			c9.615,25.291-2.75,50.078-2.75,50.078h-46.036C854.556,126.617,847.502,76.626,872.804,80.613z"/>
		<path style="fill:#E8E8E8;" d="M886.16,162.359c3.062,1.084,6.551,1.536,10.544,1.239c3.233-0.241,5.952-1.218,8.256-2.687
			c0.02-2.881,0.276-4.354,0.276-4.354l-19.321,2.415C886.142,159.939,886.2,161.124,886.16,162.359z"/>
		<path style="fill:#FFD0A2;" d="M864.293,118.949c3.68,24.612,10.581,44.853,32.202,43.243
			c21.622-1.61,20.702-35.653,20.702-35.653c-2.07-4.37-3.45-18.861-6.211-23.002c-5.29,7.36-20.011,9.431-35.423-12.191
			C865.673,103.768,864.293,118.949,864.293,118.949z"/>
		<path style="fill:#CCA865;" d="M876.427,120.329c2.358-1.668,11.328-1.495,12.306-1.553c0.977-0.058,2.53-3.795,1.265-4.255
			c-1.265-0.46-4.658-0.46-7.131,0.518C880.395,116.017,876.427,120.329,876.427,120.329z"/>
		<path style="fill:#CCA865;" d="M912.835,119.779c-2.358-1.668-11.328-1.495-12.306-1.553c-0.978-0.058-2.53-3.795-1.265-4.255
			c1.265-0.46,4.658-0.46,7.13,0.518C908.867,115.466,912.835,119.779,912.835,119.779z"/>
		<path style="fill:#1C0E06;" d="M886.663,125.85c0,2.382-0.978,4.313-2.185,4.313c-1.207,0-2.185-1.931-2.185-4.313
			c0-2.382,0.978-4.313,2.185-4.313C885.684,121.537,886.663,123.468,886.663,125.85z"/>
		<path style="fill:#1C0E06;" d="M906.437,125.648c0,2.382-0.978,4.313-2.185,4.313c-1.207,0-2.185-1.931-2.185-4.313
			s0.978-4.313,2.185-4.313C905.458,121.336,906.437,123.267,906.437,125.648z"/>
		<path style="fill:#381C0B;" d="M899.298,130.46c-0.342,0.175-0.74,0.078-1.011-0.195c-0.582-0.587-1.557-0.961-2.7-1.008
			c-1.228-0.054-2.365,0.295-3.056,0.896c-0.294,0.255-0.704,0.324-1.035,0.119l-0.14-0.087c-0.472-0.293-0.537-0.957-0.129-1.335
			c1.047-0.97,2.654-1.503,4.436-1.431c1.669,0.069,3.09,0.657,3.998,1.617c0.393,0.416,0.297,1.087-0.212,1.347L899.298,130.46z"/>
		<rect x="899.773" y="126.715" style="fill:#3B3B3B;" width="14.074" height="7.297"/>
		<path style="fill:#FFFFFF;" d="M896.01,146.722c-3.084,0-6.218-0.936-8.339-2.526c-0.439-0.329-0.481-0.974-0.102-1.37l0,0
			c0.321-0.336,0.837-0.377,1.209-0.099c3.194,2.39,9.448,3.025,12.881,0.581c0.372-0.265,0.881-0.208,1.192,0.127l0.001,0.001
			c0.376,0.405,0.319,1.056-0.131,1.377C900.871,146.132,898.456,146.722,896.01,146.722z"/>
		<path style="fill:#E8E8E8;" d="M892.672,148.363c3.364,1.61,7.447,0,7.447,0C896.755,152.819,892.672,148.363,892.672,148.363z"/>
		<rect x="876.883" y="126.485" style="fill:#3B3B3B;" width="14.074" height="7.297"/>
		<path style="fill:#FFD0A2;" d="M859.901,135.676c2.052,2.881,5.277,4.105,7.203,2.733c1.926-1.372,1.825-4.82-0.227-7.701
			c-2.052-2.881-5.277-4.105-7.203-2.733C857.747,129.346,857.849,132.794,859.901,135.676z"/>
		<path style="fill:#E8E8E8;" d="M867.001,136.003c0.286-4.669-5.537-9.091-7.516-5.57
			C864.41,128.713,867.001,136.003,867.001,136.003z"/>
		<path style="fill:#E8E8E8;" d="M891.738,135.948c-0.056,1.873,0.912,3.237,4.202,3.291c2.533,0.042,3.267-1.197,3.111-2.886
			C897.958,138.367,894.204,139.868,891.738,135.948z"/>
		<path style="fill:#3B3B3B;" d="M898.279,136.412c0,0.734-1.197,1.329-2.673,1.329s-2.673-0.595-2.673-1.329
			c0-0.734,1.197-0.786,2.673-0.786S898.279,135.678,898.279,136.412z"/>
		<path style="fill:#381C0B;" d="M889.394,125.648h-10.983c-1.397,0-2.53,1.133-2.53,2.53v3.968c0,1.397,1.133,2.53,2.53,2.53
			h10.983c1.397,0,2.53-1.133,2.53-2.53v-3.968C891.924,126.781,890.792,125.648,889.394,125.648z M890.748,131.457
			c0,1.102-0.893,1.995-1.995,1.995h-9.701c-1.102,0-1.995-0.893-1.995-1.995v-2.589c0-1.102,0.893-1.995,1.995-1.995h9.701
			c1.102,0,1.995,0.893,1.995,1.995V131.457z"/>
		<path style="fill:#381C0B;" d="M912.302,125.85h-10.983c-1.397,0-2.53,1.133-2.53,2.53v3.968c0,1.397,1.133,2.53,2.53,2.53h10.983
			c1.397,0,2.53-1.133,2.53-2.53v-3.968C914.832,126.983,913.699,125.85,912.302,125.85z M913.656,131.658
			c0,1.102-0.893,1.995-1.995,1.995h-9.701c-1.102,0-1.996-0.893-1.996-1.995v-2.589c0-1.102,0.893-1.995,1.996-1.995h9.701
			c1.102,0,1.995,0.893,1.995,1.995V131.658z"/>
		<path style="fill:#737373;" d="M884.706,123.743c0,0.488-0.79,0.883-1.766,0.883c-0.975,0-1.766-0.395-1.766-0.883
			c0-0.488,0.791-0.883,1.766-0.883C883.915,122.86,884.706,123.255,884.706,123.743z"/>
		<path style="fill:#737373;" d="M904.251,123.743c0,0.488-0.79,0.883-1.765,0.883s-1.765-0.395-1.765-0.883
			c0-0.488,0.79-0.883,1.765-0.883S904.251,123.255,904.251,123.743z"/>
		<path style="fill:#808080;" d="M856.485,109.784L856.485,109.784c-2.038-1.297-2.239-4.067-0.448-5.665
			c11.817-10.544,42.78-19.091,65.915-8.445c1.984,0.913,2.716,3.274,1.59,5.088l-0.006,0.01c-0.991,1.596-3.088,2.207-4.83,1.399
			c-12.685-5.886-26.744-4.397-34.327-2.877c-10.628,2.129-19.043,6.326-23.203,10.063
			C859.884,110.515,857.957,110.721,856.485,109.784z"/>
		
			<ellipse transform="matrix(0.2284 -0.9736 0.9736 0.2284 615.2126 950.6937)" style="fill:#D1D1D1;" cx="907.394" cy="87.212" rx="13.523" ry="13.523"/>
		<path style="fill:#737373;" d="M895.568,93.764c0.587,1.057,1.312,2.026,2.15,2.885l14.553-22.039
			c-1.111-0.43-2.287-0.73-3.518-0.853L895.568,93.764z"/>
		<path style="fill:#737373;" d="M899.798,98.399c0.564,0.384,1.166,0.714,1.786,1.01l14.629-22.435
			c-0.588-0.507-1.221-0.959-1.891-1.36L899.798,98.399z"/>
		<path style="fill:#B5B5B5;" d="M909.862,87.212c0,1.363-1.105,2.468-2.468,2.468c-1.363,0-2.468-1.105-2.468-2.468
			c0-1.363,1.105-2.468,2.468-2.468C908.757,84.744,909.862,85.849,909.862,87.212z"/>
	</g>
	<g>
		<path style="fill:#5D5D5D;" d="M462.432,588.736c-4.781-6.893-17.057-10.965-28.882-6.372
			c-7.746,3.009-13.644,9.428-16.597,17.195c-2.587,6.805-3.583,13.574-3.657,19.833c-0.2,17.003,6.406,30.245,6.406,30.245h46.036
			C480.68,634.74,487.734,584.749,462.432,588.736z"/>
		<path style="fill:#A8A8A8;" d="M419.703,649.637h0.862l-1.661-22.657c0,0-0.822-1.675-1.035-2.78s-0.392,0.15-1.444,0
			c-1.052-0.15-0.225-0.451-1.052-3.456c-0.826-3.005-0.225,0.526-1.578,1.051l-0.496-0.736
			C413.526,637.253,419.703,649.637,419.703,649.637z"/>
		<ellipse style="fill:#E8E8E8;" cx="435.117" cy="997.975" rx="62.356" ry="19.736"/>
		<path style="fill:#F5F1DA;" d="M466.227,980.149c1.61,6.211,1.38,16.101,1.38,16.101c-10.236,2.76-36.918,1.38-36.918,1.38
			c4.025-5.635,5.75-10.006,13.111-11.156s11.914-1.549,13.087-4.283c1.174-2.733,1.864-3.653,1.864-3.653L466.227,980.149z"/>
		<path style="fill:#F5F1DA;" d="M430.099,973.825c1.61,6.211,1.38,16.101,1.38,16.101c-10.236,2.76-36.918,1.38-36.918,1.38
			c4.025-5.635,5.75-10.006,13.111-11.156c7.361-1.15,11.914-1.549,13.088-4.282c1.174-2.733,1.864-3.653,1.864-3.653
			L430.099,973.825z"/>
		<path style="fill:#329799;" d="M438.034,863.187c7.361,28.292-5.98,111.788-5.98,111.788c-6.671,3.91-13.341,0-13.341,0
			c-2.76-12.191-16.546-118.229-16.546-118.229l32.433-61.301L438.034,863.187z"/>
		<path style="fill:#E8E8E8;" d="M431.49,873.682c-6.128-2.254-24.752-3.957-28.399-9.867
			c-0.492-11.319,27.599-56.899,27.599-56.899h4.492l2.853,56.27c7.361,28.292-5.98,111.788-5.98,111.788
			c-1.317,0.772-2.632,1.231-3.899,1.484C439.787,931.602,437.618,875.936,431.49,873.682z"/>
		<path style="fill:#3AAEB0;" d="M474.163,869.511c7.361,28.292-5.98,111.789-5.98,111.789c-6.671,3.91-13.341,0-13.341,0
			c-2.76-12.191-18.401-118.229-18.401-118.229L474.163,869.511z"/>
		<path style="fill:#F5F1DA;" d="M408.578,696.998c-10.781,16.101-20.211,44.393-20.211,44.393l24.926,7.821L408.578,696.998z"/>
		<path style="fill:#E8E8E8;" d="M471.34,874.809c-2.479,0-34.044-5.954-34.044-5.954l17.982-2.569l18.885,3.224
			c7.361,28.292-5.98,111.789-5.98,111.789c-0.982,0.576-1.961,0.966-2.922,1.24C473.056,944.378,473.819,874.809,471.34,874.809z"
			/>
		<path style="fill:#D4D1BC;" d="M465.307,686.737c0.805,0.521,3.68,1.405,3.68,1.405c-3.45,34.733,1.035,86.026,1.38,88.097
			c0.345,2.07,8.626,85.682,6.096,94.882c-27.372-1.15-42.323-2.53-42.323-2.53c-0.69-4.37-2.3-60.725-2.3-60.725
			c0,20.702-2.3,61.185-2.3,61.185c-3.68,0.46-27.602-5.52-27.602-5.52c-2.53-14.491-2.07-65.095-2.07-65.095
			c1.84-24.842,2.76-66.475,2.99-68.085c0.92-16.331,4.08-31.742,5.72-33.353s7.161-6.211,7.161-6.211l15.411-11.271l33.122,7.221
			H465.307z"/>
		<path style="fill:#AFD3D6;" d="M453.231,681.932c2.53,2.07,3.68,7.821,3.91,8.281c0.23,0.46-5.175,27.142-5.175,27.142
			l-14.836,20.242l-11.501-18.862c0,0-3.68-22.082-4.025-23.577c-0.345-1.495,4.945-14.376,4.945-14.376L453.231,681.932z"/>
		<polygon style="fill:#275369;" points="440.25,802.576 396.187,802.576 367.895,728.74 415.279,728.74 		"/>
		<path style="fill:#E8E8E8;" d="M431.943,678.929c-8.444-0.353-14.398,2.656-14.398,2.656c-4.426,13.851-8.218,34.675-8.218,34.675
			c3.644,1.98,13.724,5.221,13.724,5.221c-3.992,5.302-5.101,10.016-5.101,10.016c7.122,6.495,18.133,11.914,18.721,17.714
			c0.879-6.964,0.675-13.684,0.675-13.684c-7.15-17.215-14.812-23.201-9.803-50.184
			C432.298,679.632,431.943,678.929,431.943,678.929z"/>
		<path style="fill:#E8E8E8;" d="M451.623,680.308c8.394,0.984,13.799,4.894,13.799,4.894c2.185,14.376,2.645,35.538,2.645,35.538
			c-3.91,1.38-14.376,2.99-14.376,2.99c3.105,5.865,3.457,10.696,3.457,10.696c-8.058,5.29-18.983,9.151-20.479,14.786
			c0.23-7.016,0.69-13.866,0.69-13.866c9.776-15.871,18.286-20.574,17.596-48.01C451.161,680.947,451.623,680.308,451.623,680.308z"
			/>
		<path style="fill:#F5F1DA;" d="M451.623,677.153c8.394,0.984,13.799,4.894,13.799,4.894c2.185,14.376,2.645,35.538,2.645,35.538
			c-3.91,1.38-14.376,2.99-14.376,2.99c3.105,5.865,3.457,10.696,3.457,10.696c-8.058,5.29-18.983,12.306-20.479,17.941
			c0.23-7.016,0.69-17.021,0.69-17.021c9.776-15.871,18.286-20.574,17.596-48.01C451.161,677.791,451.623,677.153,451.623,677.153z"
			/>
		<path style="fill:#FFD0A2;" d="M429.463,769.607c-8.894-2.914-14.261-6.057-18.095-2.837c-3.834,3.22-0.613,9.047,4.217,9.661
			c4.83,0.613,14.645,0.613,14.645,0.613L429.463,769.607z"/>
		<path style="fill:#F5F1DA;" d="M431.194,675.999c-8.444-0.353-14.398,2.656-14.398,2.656c-4.426,13.851-8.218,34.675-8.218,34.675
			c3.644,1.98,13.724,5.221,13.724,5.221c-3.992,5.302-5.101,10.016-5.101,10.016c7.122,6.495,18.882,14.844,19.47,20.644
			c0.879-6.964-0.074-16.614-0.074-16.614c-7.15-17.214-14.812-23.201-9.803-50.184
			C431.549,676.703,431.194,675.999,431.194,675.999z"/>
		<path style="fill:#F5F1DA;" d="M427.469,767.153c1.61,5.29,0,11.041,0,11.041c13.571,4.37,54.744,12.421,63.255,2.99
			c8.511-9.431-5.52-85.797-10.581-89.937c-5.06-4.14-11.156-3.105-11.156-3.105s-2.415,10.811-2.415,72.647
			C450.471,760.329,427.469,767.153,427.469,767.153z"/>
		<path style="fill:#E8E8E8;" d="M447.711,674.951c3.795,0.805,7.245,9.431,7.245,9.431c-4.025,10.466-10.469,15.641-10.469,15.641
			c-1.032-4.14-4.655-10.466-4.655-10.466c-3.623,2.3-6.843,9.891-6.843,9.891c-4.715-4.255-9.431-11.961-9.431-11.961
			c0.575-5.405,0.909-7.884,2.404-9.264c1.495-1.38,6.566-5.342,6.566-5.342L447.711,674.951z"/>
		<path style="fill:#A8A8A8;" d="M461.315,649.637h4.425c6.977-6.957,12.233-21.565,13.278-34.757
			c-0.216,0.002-0.428-0.302-0.613-1.197c-0.504-2.432-0.826-0.751-1.461,0.526c-0.635,1.277-0.717,5.334-1.769,5.409
			c-1.052,0.075-0.526-1.277-1.728-2.404c-1.202-1.127-1.052,4.658-3.231,4.536c-2.178-0.122-0.376-1.305-1.427-1.756
			c-1.052-0.451-0.751,1.878-1.503,3.456c-0.751,1.578-1.277-0.751-2.704-3.907L461.315,649.637z"/>
		<path style="fill:#E8E8E8;" d="M473.485,808.962c1.084,12.496,2.191,26.519,2.852,38.157c-1.532,0.972-4.631,1.706-10.799,1.315
			c-14.491-0.92-20.242-18.746-21.852-41.518C449.483,809.715,467.469,809.802,473.485,808.962z"/>
		<path style="fill:#F5F1DA;" d="M475.313,804.186c-2.138,1.241-24.957,1.61-31.627-1.61c1.61,22.772,7.361,40.598,21.852,41.518
			s12.076-4.37,12.076-4.37C478.418,836.733,475.313,804.186,475.313,804.186z"/>
		<path style="fill:#DAF3F5;" d="M447.711,673.881c3.795,0.805,7.245,9.431,7.245,9.431c-4.025,10.466-10.469,15.641-10.469,15.641
			c-1.032-4.14-4.655-10.466-4.655-10.466c-3.623,2.3-6.843,9.891-6.843,9.891c-4.715-4.255-9.431-11.961-9.431-11.961
			c0.575-5.405,0.909-7.884,2.404-9.264c1.495-1.38,6.566-5.342,6.566-5.342L447.711,673.881z"/>
		<path style="fill:#FFD0A2;" d="M449.321,667.095c-0.92,3.91,0.92,11.386,0.92,11.386c-0.115,11.041-20.702,10.466-20.817,1.495
			C430.92,669.856,430,664.68,430,664.68L449.321,667.095z"/>
		<path style="fill:#E8E8E8;" d="M449.076,670.482c-3.062,1.084-6.551,1.536-10.545,1.239c-3.233-0.241-5.952-1.218-8.256-2.686
			c-0.02-2.882-0.276-4.354-0.276-4.354l19.321,2.415C449.094,668.062,449.036,669.247,449.076,670.482z"/>
		<path style="fill:#FFD0A2;" d="M469.353,636.245c-4.091,20.25-11.75,35.476-30.612,34.071
			c-21.622-1.61-20.702-35.653-20.702-35.653c-0.788-7.757,1.26-24.052,4.02-28.192c5.29,7.361,25.834,21.622,41.245,0
			C464.957,628.453,469.951,633.283,469.353,636.245z"/>
		<path style="fill:#5D5D5D;" d="M458.809,628.453c-2.358-1.668-11.328-1.495-12.306-1.553s-2.53-3.795-1.265-4.255
			c1.265-0.46,4.658-0.46,7.13,0.518C454.841,624.14,458.809,628.453,458.809,628.453z"/>
		<path style="fill:#5D5D5D;" d="M422.401,627.902c2.358-1.668,11.328-1.495,12.306-1.553c0.977-0.057,2.53-3.795,1.265-4.255
			c-1.265-0.46-4.658-0.46-7.131,0.518S422.401,627.902,422.401,627.902z"/>
		<path style="fill:#1C0E06;" d="M448.574,633.973c0,2.382,0.978,4.313,2.185,4.313c1.207,0,2.185-1.931,2.185-4.313
			s-0.978-4.313-2.185-4.313C449.552,629.66,448.574,631.591,448.574,633.973z"/>
		<path style="fill:#1C0E06;" d="M428.799,633.772c0,2.382,0.978,4.313,2.185,4.313s2.185-1.931,2.185-4.313
			c0-2.382-0.978-4.313-2.185-4.313S428.799,631.39,428.799,633.772z"/>
		<path style="fill:#381C0B;" d="M435.939,638.583c0.342,0.175,0.74,0.078,1.011-0.195c0.582-0.587,1.557-0.961,2.7-1.008
			c1.228-0.054,2.365,0.295,3.056,0.896c0.294,0.255,0.704,0.324,1.035,0.119l0.14-0.087c0.472-0.293,0.537-0.957,0.129-1.335
			c-1.047-0.97-2.654-1.503-4.436-1.431c-1.669,0.069-3.09,0.657-3.998,1.617c-0.393,0.416-0.297,1.087,0.212,1.347L435.939,638.583
			z"/>
		
			<rect x="421.389" y="634.839" transform="matrix(-1 -1.224647e-16 1.224647e-16 -1 856.8519 1276.974)" style="fill:#3B3B3B;" width="14.074" height="7.297"/>
		<path style="fill:#FFFFFF;" d="M439.226,654.845c3.083,0,6.218-0.936,8.339-2.526c0.439-0.329,0.481-0.974,0.102-1.371l0,0
			c-0.321-0.336-0.837-0.377-1.209-0.099c-3.194,2.39-9.448,3.025-12.881,0.581c-0.372-0.265-0.882-0.208-1.192,0.127l-0.001,0.001
			c-0.376,0.405-0.319,1.056,0.131,1.377C434.365,654.255,436.78,654.845,439.226,654.845z"/>
		<path style="fill:#E8E8E8;" d="M442.564,656.486c-3.364,1.61-7.447,0-7.447,0C438.481,660.943,442.564,656.486,442.564,656.486z"
			/>
		
			<rect x="444.279" y="634.608" transform="matrix(-1 -1.224647e-16 1.224647e-16 -1 902.6321 1276.5131)" style="fill:#3B3B3B;" width="14.074" height="7.297"/>
		<path style="fill:#FFD0A2;" d="M475.335,643.799c-2.052,2.881-5.277,4.105-7.203,2.733c-1.926-1.372-1.825-4.82,0.227-7.701
			c2.052-2.881,5.277-4.105,7.203-2.733C477.489,637.47,477.387,640.917,475.335,643.799z"/>
		<path style="fill:#E8E8E8;" d="M468.235,644.126c-0.286-4.669,5.537-9.091,7.516-5.57
			C470.826,636.836,468.235,644.126,468.235,644.126z"/>
		<path style="fill:#381C0B;" d="M443.312,636.302v3.968c0,1.397,1.133,2.53,2.53,2.53h10.983c1.397,0,2.53-1.133,2.53-2.53v-3.968
			c0-1.397-1.133-2.53-2.53-2.53h-10.983C444.445,633.772,443.312,634.904,443.312,636.302z M444.488,636.991
			c0-1.102,0.893-1.995,1.996-1.995h9.701c1.102,0,1.996,0.893,1.996,1.995v2.589c0,1.102-0.893,1.996-1.996,1.996h-9.701
			c-1.102,0-1.996-0.893-1.996-1.996V636.991z"/>
		<path style="fill:#381C0B;" d="M420.404,636.503v3.968c0,1.397,1.133,2.53,2.53,2.53h10.983c1.397,0,2.53-1.133,2.53-2.53v-3.968
			c0-1.397-1.133-2.53-2.53-2.53h-10.983C421.537,633.973,420.404,635.106,420.404,636.503z M421.58,637.193
			c0-1.102,0.893-1.995,1.996-1.995h9.701c1.102,0,1.995,0.893,1.995,1.995v2.589c0,1.102-0.893,1.995-1.995,1.995h-9.701
			c-1.102,0-1.996-0.893-1.996-1.995V637.193z"/>
		<path style="fill:#737373;" d="M450.53,631.866c0,0.487,0.79,0.883,1.766,0.883c0.975,0,1.766-0.395,1.766-0.883
			c0-0.488-0.79-0.883-1.766-0.883C451.321,630.983,450.53,631.378,450.53,631.866z"/>
		<path style="fill:#737373;" d="M430.985,631.866c0,0.487,0.79,0.883,1.766,0.883s1.766-0.395,1.766-0.883
			c0-0.488-0.79-0.883-1.766-0.883S430.985,631.378,430.985,631.866z"/>
		<path style="fill:#5D5D5D;" d="M436.67,646.49c-4.995-0.577-9.878,2.352-9.878,2.352c1.803,2.179,9.296,2.97,11.597,1.823
			c6.434,2.309,13.397,0,13.397,0c-2.633-2.137-7.544-3.875-9.541-4.526c-0.207-0.067-1.1,0.621-2.066,0.688
			C438.573,646.94,436.67,646.49,436.67,646.49z"/>
		<path style="fill:#FFD0A2;" d="M443.498,644.071c0.056,1.873-0.912,3.237-4.202,3.291c-2.533,0.042-3.267-1.197-3.111-2.886
			C437.278,646.49,441.032,647.991,443.498,644.071z"/>
		<path style="fill:#3B3B3B;" d="M436.957,644.535c0,0.734,1.197,1.329,2.673,1.329c1.476,0,2.673-0.595,2.673-1.329
			c0-0.734-1.197-0.786-2.673-0.786C438.154,643.749,436.957,643.801,436.957,644.535z"/>
		<path style="fill:#E8E8E8;" d="M443.498,644.071c0.056,1.873-0.912,3.237-4.202,3.291c-2.533,0.042-3.267-1.197-3.111-2.886
			C437.278,646.49,441.032,647.991,443.498,644.071z"/>
	</g>
	<g>
		
			<ellipse transform="matrix(0.9988 -0.0492 0.0492 0.9988 -47.9512 45.6005)" style="fill:#E8E8E8;" cx="903.188" cy="997.76" rx="62.356" ry="19.736"/>
		<path style="fill:#C7C3B1;" d="M942.78,979.104c2.016,6.135,1.753,14.11,1.402,14.373c-20.244,6.836-40.051,5.697-40.051,5.697
			c0.351-4.382,19.894-18.93,25.415-20.683C941.641,978.49,942.78,979.104,942.78,979.104z"/>
		<path style="fill:#F5F1DA;" d="M944.398,989.23c-0.099-2.891-0.518-6.779-1.618-10.126c0,0-1.139-0.614-13.233-0.614
			c-4.473,1.42-18.147,11.237-23.365,17.244C918.899,996.056,935.952,992.576,944.398,989.23z"/>
		<path style="fill:#C7C3B1;" d="M904.537,980.591c2.016,6.135,1.753,14.11,1.402,14.373c-20.245,6.836-40.051,5.696-40.051,5.696
			c0.351-4.382,19.894-18.93,25.415-20.683C903.397,979.978,904.537,980.591,904.537,980.591z"/>
		<path style="fill:#F5F1DA;" d="M906.154,990.717c-0.099-2.891-0.518-6.779-1.618-10.126c0,0-1.139-0.613-13.233-0.613
			c-4.473,1.42-18.148,11.237-23.365,17.244C880.656,997.544,897.709,994.063,906.154,990.717z"/>
		<path style="fill:#349C9E;" d="M869.339,852.028c-1.315,51.531,19.719,127.777,19.719,127.777
			c5.521,3.155,16.827,1.578,16.827,1.578c6.31-42.067,2.366-133.561,2.366-133.561l-9.333-47.54l-5.916-7.147L869.339,852.028z"/>
		<path style="fill:#E8E8E8;" d="M899.754,981.775c3.416-0.015,6.13-0.393,6.13-0.393c6.31-42.067,2.366-133.561,2.366-133.561
			l-7.333-37.349l-6.207-5.645l-25.409,49.235c0,0.018-0.001,0.036-0.001,0.054c4.901,3.476,25.706,6.276,26.932,7.851
			C897.432,863.511,911.996,974.629,899.754,981.775z"/>
		<path style="fill:#3AAEB0;" d="M903.781,846.507c2.629,56.527,23.137,133.298,23.137,133.298c10.78,2.629,17.09,0,17.09,0
			c4.732-48.639,2.103-140.923,2.103-140.923l-32.339-8.413L903.781,846.507z"/>
		<path style="fill:#E8E8E8;" d="M936.23,980.966c4.997-0.016,7.777-1.161,7.777-1.161c3.882-39.9,2.811-109.157,2.3-132.761
			l-32.224,10.367c18.957-1.928,26.318-3.155,26.493-2.278C940.75,855.999,948.474,980.098,936.23,980.966z"/>
		<path style="fill:#DBD8C3;" d="M935.725,760.928c17.747,50.611,19.456,83.081,18.536,85.973
			c-0.92,2.892-42.724,12.094-47.982,11.174c-5.258-0.92-11.568-62.705-11.568-62.705l1.956-29.689l9.612-6.857L935.725,760.928z"/>
		<path style="fill:#DBD8C3;" d="M873.677,776.834c-5.258,19.324-9.596,73.353-8.939,75.325c0.657,1.972,27.606,7.362,29.578,6.441
			c1.972-0.92,4.601-90.18,4.601-90.18L873.677,776.834z"/>
		<path style="fill:#E8E8E8;" d="M935.725,760.928l-29.447-2.103l-9.612,6.857l-0.235,3.568l-22.755,7.585
			c-0.313,1.149-0.622,2.425-0.927,3.801c16.436,2.771,30-8.781,36.565-16.048c7.454,3.103,16.554,4.073,27.944,0.789
			C936.76,763.909,936.251,762.428,935.725,760.928z"/>
		<path style="fill:#F5F1DA;" d="M885.657,686.682c-3.567,2.339-2.354,1.287-12.096,2.601c-9.743,1.315-19.493,28.921-22.045,45.747
			s-3.998,41.409,18.612,45.221c22.611,3.812,41.113-22.085,41.113-22.085l-14.822-28.379l-1.446-34.393L885.657,686.682z"/>
		<path style="fill:#E6BB92;" d="M910.584,665.884c-0.756,11.963,3.681,22.742,3.681,22.742l-21.843,10.407l-4.011-24.999
			L910.584,665.884z"/>
		<path style="fill:#FFD0A2;" d="M921.276,644.675c-3.297,14.022-13.113,31.35-28.537,31.813
			c-15.424,0.463-29.553-13.793-31.462-37.948c-1.909-24.154,1.059-31.374,1.059-31.374l12.349-2.98l20.858-5.083
			c0,0,13.431,4.207,13.814,4.382c0.383,0.175,6.211,3.856,8.994,6.485c2.783,2.629,5.453,14.98,5.85,15.6
			C924.598,626.19,921.276,644.675,921.276,644.675z"/>
		<path style="fill:#5C4B51;" d="M889.189,711.467c-18.037,8.027-31.701,18.342-36.134,29.021c-8.692,0.268-7.686-5.194-7.051-7.901
			c0.273-1.163-0.895-2.115-1.961-1.575c-9.608,4.859-1.898,18.426,7.565,15.173c-0.519,5.521,1.611,11.048,7.083,16.321
			c18.01,17.352,57.776-5.258,57.776-5.258l8.84-31.944L889.189,711.467z"/>
		<path style="fill:#E8E8E8;" d="M858.691,762.505c18.004,17.347,57.749-5.243,57.775-5.258l0.003-0.007l1.071-3.872
			c-4.324,3.56-25.494,19.641-44.79,10.357c-21.615-10.4-13.798-32.201,14.264-51.258l0,0c-16.951,7.876-29.707,17.778-33.959,28.02
			c-8.692,0.268-7.686-5.194-7.051-7.901c0.273-1.163-0.895-2.115-1.961-1.576c-9.608,4.859-1.898,18.426,7.565,15.173
			C851.089,751.706,853.219,757.233,858.691,762.505z"/>
		<path style="fill:#5C4B51;" d="M938.025,689.94c6.77-5.849,14.921-9.859,17.484-6.967c2.563,2.892-1.315,13.409-1.315,13.409
			c1.38,3.812-8.413,14.438-9.136,12.05C944.335,706.044,938.025,689.94,938.025,689.94z"/>
		<path style="fill:#EAD2AC;" d="M940.852,693.885c2.892-5.587,11.371-11.503,12.751-9.991c1.38,1.512-1.775,22.611-10.254,24.353
			C940.72,695.002,940.852,693.885,940.852,693.885z"/>
		<path style="fill:#5C4B51;" d="M903.188,687.759c-5.451-7.095-12.625-12.666-15.719-10.35s-1.417,13.398-1.417,13.398
			c-2.121,3.456,5.328,15.839,6.518,13.646C893.759,702.259,903.188,687.759,903.188,687.759z"/>
		<path style="fill:#EAD2AC;" d="M899.624,691.052c-1.706-6.055-8.817-13.56-10.474-12.357c-1.657,1.202-2.823,22.504,5.131,25.92
			C899.527,692.173,899.624,691.052,899.624,691.052z"/>
		<path style="fill:#DBDBDB;" d="M887.014,712.468c-0.075,8.598,8.169,17.768,18.965,15.58c1.277,2.7,8.898,5.142,17.495,3.877
			l1.832-6.622l-36.117-13.836C888.452,711.795,887.735,712.132,887.014,712.468z"/>
		<path style="fill:#FFD0A2;" d="M884.785,732.533c-1.117-3.155-8.15-10.582-9.859-9.728c-1.709,0.854,1.38,3.547,2.038,4.83
			c-4.864-3.121-9.991-5.224-12.949-3.252c-2.958,1.972-2.892,10.188,7.559,11.963c10.451,1.775,11.897,1.775,11.897,1.775
			L884.785,732.533z"/>
		<path style="fill:#F5F1DA;" d="M920.418,727.932c-0.599,5.127,0,9.531,0,9.531c-1.125-1.052-1.585,0-1.585,0
			c-0.92-0.854-2.958-0.329-2.958-0.329c-7.036-3.215-22.526-6.15-29.988-6.067c-1.024,0.011-1.952,0.594-2.418,1.505
			c-0.957,1.87-1.65,3.214-2.145,4.168c-0.677,1.304-0.483,2.878,0.483,3.986c11.034,12.649,26.982,35.381,62.661,19.544
			c9.136-24.057-5.127-38.123-5.127-38.123L920.418,727.932z"/>
		<path style="fill:#E8E8E8;" d="M939.34,722.148l-18.922,5.784c-0.03,0.26-0.056,0.517-0.08,0.773
			c1.031,0.22,2.601,0.437,4.968,0.526c5.588,0.211,13.342-2.577,14.525-2.84c1.183-0.263,7.232,24.167,2.103,31.25
			c-5.129,7.083-33.522,3.586-41.015-1.804c-7.493-5.39-18.667-16.169-19.126-20.006h0c-0.172,0.333-0.331,0.641-0.471,0.91
			c-0.677,1.304-0.483,2.878,0.483,3.986c11.034,12.649,26.982,35.381,62.661,19.544C953.603,736.214,939.34,722.148,939.34,722.148
			z"/>
		<path style="fill:#5C4B51;" d="M891.621,701.049c5.456-15.249,18.443-18.141,29.368-17.55s24.596,5.39,25.253,22.414
			c7.296,19.456-13.343,20.836-13.343,20.836c-11.568,5.587-24.648,2.432-26.357-1.183
			C891.621,728.589,881.564,709.922,891.621,701.049z"/>
		<path style="fill:#FE938C;" d="M912.777,714.385c-3.541,4.444-1.339,9.012,3.032,6.35c4.371-2.662,6.543-8.057,6.543-8.057
			l-2.27-1.572L912.777,714.385z"/>
		<path style="fill:#ADADAD;" d="M915.245,714.854c-1.091,1.312-1.835,2.492-1.66,2.637c0.174,0.145,1.201-0.8,2.292-2.112
			c1.091-1.311,1.835-2.492,1.66-2.637C917.363,712.597,916.337,713.542,915.245,714.854z"/>
		<path style="fill:#EAD2AC;" d="M921.276,712.07c8.972,5.609,17.78-2.496,8.797-9.661c-8.983-7.165-21.953-1.469-22.961,4.315
			C906.103,712.508,912.479,717.678,921.276,712.07z"/>
		<path d="M916.839,702.166c2.034-0.589,7.8-0.789,8.413,0c0.613,0.789-4.207,5.609-4.207,5.609S915.663,702.507,916.839,702.166z"
			/>
		<path style="fill:#ADADAD;" d="M927.487,708.432c0,0.363-0.294,0.657-0.657,0.657c-0.363,0-0.657-0.294-0.657-0.657
			s0.294-0.657,0.657-0.657C927.193,707.775,927.487,708.07,927.487,708.432z"/>
		<circle style="fill:#ADADAD;" cx="927.985" cy="711.763" r="0.657"/>
		<path style="fill:#ADADAD;" d="M931.716,708.641c0,0.363-0.294,0.657-0.657,0.657c-0.363,0-0.657-0.294-0.657-0.657
			c0-0.363,0.294-0.657,0.657-0.657C931.421,707.983,931.716,708.278,931.716,708.641z"/>
		<circle style="fill:#ADADAD;" cx="916.466" cy="707.775" r="0.657"/>
		<path style="fill:#ADADAD;" d="M911.898,708.246c0,0.363-0.294,0.657-0.657,0.657c-0.363,0-0.657-0.294-0.657-0.657
			c0-0.363,0.294-0.657,0.657-0.657C911.604,707.589,911.898,707.883,911.898,708.246z"/>
		<path style="fill:#ADADAD;" d="M914.922,711.467c0,0.363-0.294,0.657-0.657,0.657c-0.363,0-0.657-0.294-0.657-0.657
			c0-0.363,0.294-0.657,0.657-0.657C914.628,710.81,914.922,711.104,914.922,711.467z"/>
		<path style="fill:#BFBFBF;" d="M919.72,719.584c4.371,1.315,6.803-1.282,6.803-1.282
			C924.913,724.646,919.72,719.584,919.72,719.584z"/>
		<circle style="fill:#FFFFFF;" cx="935.243" cy="700.326" r="4.645"/>
		<path d="M937.127,700.326c0,1.041-0.844,1.884-1.884,1.884s-1.884-0.844-1.884-1.884c0-1.041,0.844-1.884,1.884-1.884
			S937.127,699.285,937.127,700.326z"/>
		<path style="fill:#B5B5B5;" d="M938.661,699.68c0,0.284-0.701,0.515-1.567,0.515c-0.865,0-1.567-0.231-1.567-0.515
			c0-0.284,0.701-0.515,1.567-0.515C937.96,699.165,938.661,699.395,938.661,699.68z"/>
		<path style="fill:#FFFFFF;" d="M910.584,699.68c0,2.565-2.08,4.645-4.645,4.645s-4.645-2.08-4.645-4.645
			c0-2.565,2.08-4.645,4.645-4.645S910.584,697.114,910.584,699.68z"/>
		<path d="M907.823,699.68c0,1.041-0.844,1.884-1.884,1.884s-1.884-0.844-1.884-1.884c0-1.041,0.844-1.884,1.884-1.884
			S907.823,698.639,907.823,699.68z"/>
		<path style="fill:#B5B5B5;" d="M909.357,699.033c0,0.284-0.701,0.515-1.566,0.515c-0.865,0-1.567-0.23-1.567-0.515
			c0-0.284,0.701-0.515,1.567-0.515C908.655,698.518,909.357,698.749,909.357,699.033z"/>
		<path style="fill:#381C0B;" d="M919.72,597.877c7.548,1.928,10.648,10.166,8.923,25.766c-1.725,15.6-3.434,22.26-10.292,23.487
			c-2.826-18.93-12.127-39.788-12.127-39.788c-17.867,8.589-33.116,6.836-42.231,2.98c-2.98,17.528-1.658,35.932-1.658,35.932
			c-0.632-2.203-1.301-4.706-1.914-7.402c-3.73-16.396-5.408-39.911,15.666-46.233C900.626,585.257,917.606,593.495,919.72,597.877z
			"/>
		<ellipse style="fill:#2E1815;" cx="898.021" cy="637.336" rx="2.342" ry="5.236"/>
		<path style="fill:#B5B5B5;" d="M902.904,635.101c0,0.448-1,0.811-2.235,0.811c-1.234,0-2.235-0.363-2.235-0.811
			s1-0.811,2.235-0.811C901.904,634.29,902.904,634.653,902.904,635.101z"/>
		<path style="fill:#2E1815;" d="M877.828,638.789c0,2.892-1.048,5.236-2.342,5.236s-2.341-2.344-2.341-5.236
			c0-2.892,1.048-5.236,2.341-5.236S877.828,635.897,877.828,638.789z"/>
		<path style="fill:#B5B5B5;" d="M880.37,636.554c0,0.448-1,0.811-2.235,0.811c-1.234,0-2.235-0.363-2.235-0.811
			s1.001-0.811,2.235-0.811C879.369,635.744,880.37,636.107,880.37,636.554z"/>
		<path style="fill:#542D26;" d="M877.834,645.067l-1.413-0.6c0.721-1.59,2.663-2.751,5.194-3.104
			c3.234-0.452,6.414,0.499,8.093,2.424l-1.18,0.962c-1.526-1.75-4.458-2.222-6.692-1.908
			C879.867,643.115,878.332,643.968,877.834,645.067z"/>
		<path style="fill:#381C0B;" d="M906.11,626.102c-5.81-1.944-8.622-0.468-11.971,0.094c-3.35,0.563-5.599-3.517,0.164-4.57
			C900.066,620.574,906.11,626.102,906.11,626.102z"/>
		<path style="fill:#381C0B;" d="M864.253,626.699c5.77-1.844,8.505-0.322,11.791,0.297s5.599-3.418-0.053-4.568
			C870.339,621.279,864.253,626.699,864.253,626.699z"/>
		<path style="fill:#FFD0A2;" d="M927.898,649.664c-2.048,3.381-5.348,5.128-7.372,3.902c-2.024-1.226-2.005-4.96,0.043-8.341
			c2.048-3.381,5.348-5.128,7.372-3.902C929.965,642.549,929.946,646.283,927.898,649.664z"/>
		<path style="fill:#E8E8E8;" d="M920.246,650.076c1.216-5.455,5.39-9.892,7.92-6.376
			C924.255,642.189,920.246,650.076,920.246,650.076z"/>
		<path style="fill:#E8E8E8;" d="M943.879,786.623c-3.38,0.94-18.713,3.419-32.638,0.07c0.063,32.002,26.34,36.664,39.766,29.689
			C949.395,807.966,947.096,797.978,943.879,786.623z"/>
		<path style="fill:#E8E8E8;" d="M866.879,822.089c13.903-2.925,12.826-14.417,18.103-35.466c0,0-8.401,2.519-13.891,2.674
			C869.445,799.058,867.988,811.133,866.879,822.089z"/>
		<polygon style="fill:#424242;" points="860.991,640.751 861.813,648.29 862.865,648.792 876.208,648.431 877.588,647.633 
			875.945,640.51 875.024,639.755 861.714,639.94 		"/>
		<polygon style="fill:#424242;" points="888.63,639.593 889.452,647.131 890.504,647.633 903.847,647.272 905.227,646.474 
			903.584,639.352 902.663,638.596 889.353,638.781 		"/>
		<path style="fill:#B5B5B5;" d="M924.201,703.109c0,0.387-1.31,0.701-2.925,0.701c-1.615,0-2.925-0.314-2.925-0.701
			c0-0.387,1.31-0.701,2.925-0.701C922.891,702.408,924.201,702.722,924.201,703.109z"/>
		<path style="fill:#ABABAB;" d="M900.1,695.003c-0.744,0.103-1.341-0.625-1.079-1.329c0.345-0.927,1.086-1.841,2.112-2.55
			c1.607-1.111,3.436-1.448,5.082-0.977c0.597,0.171,0.856,0.881,0.559,1.426l-0.061,0.112c-0.225,0.412-0.703,0.579-1.158,0.462
			c-1.475-0.379-2.809,0.418-3.227,0.708c-0.72,0.497-1.167,1.084-1.341,1.549c-0.122,0.329-0.448,0.538-0.796,0.586L900.1,695.003z
			"/>
		<path style="fill:#ABABAB;" d="M939.409,695.003c0.744,0.103,1.341-0.625,1.079-1.329c-0.345-0.927-1.086-1.841-2.112-2.55
			c-1.607-1.111-3.436-1.448-5.082-0.977c-0.597,0.171-0.856,0.881-0.559,1.426l0.061,0.112c0.225,0.412,0.703,0.579,1.158,0.462
			c1.475-0.379,2.809,0.418,3.227,0.708c0.72,0.497,1.167,1.084,1.341,1.549c0.122,0.329,0.448,0.538,0.796,0.586L939.409,695.003z"
			/>
		<path style="fill:#E8E8E8;" d="M878.828,644.807c-0.16,0.765,0.027,1.602,0.744,2.311c2.129,2.104,5.488,0.675,6.175-1.993
			C883.132,648.632,879.573,647.117,878.828,644.807z"/>
		<path style="fill:#616161;" d="M882.532,646.087c-0.249,0.474-1.115,0.51-1.935,0.08c-0.82-0.43-1.283-1.163-1.034-1.637
			c0.249-0.474,1.115-0.51,1.935-0.08C882.318,644.88,882.781,645.613,882.532,646.087z"/>
		<polygon style="fill:#424242;" points="892.607,638.924 889.452,644.708 890.142,647.798 894.776,638.596 		"/>
		<path style="fill:#424242;" d="M896.551,638.727c-0.196,0.411-4.437,8.862-4.437,8.862s1.15,0.142,1.183-0.022
			c0.033-0.164,3.878-8.779,3.878-8.779L896.551,638.727z"/>
		<path style="fill:#542D26;" d="M905.827,645.686l-1.312-6.263c-0.197-0.94-1.036-1.607-1.996-1.587l-12.668,0.265
			c-1.177,0.025-2.078,1.057-1.942,2.227l0.722,6.231c0.118,1.021,0.992,1.785,2.019,1.767l13.259-0.233
			C905.161,648.07,906.084,646.912,905.827,645.686z M902.812,646.943l-11.19,0.179c-0.867,0.014-1.604-0.575-1.704-1.362
			l-0.609-4.803c-0.115-0.901,0.645-1.697,1.639-1.716l10.692-0.204c0.811-0.016,1.518,0.498,1.685,1.223l1.107,4.828
			C904.649,646.034,903.869,646.927,902.812,646.943z"/>
		<path style="fill:#542D26;" d="M878.092,646.631l-1.312-6.263c-0.197-0.94-1.035-1.607-1.996-1.587l-12.668,0.265
			c-1.177,0.025-2.078,1.057-1.942,2.227l0.722,6.231c0.118,1.021,0.992,1.785,2.019,1.767l13.259-0.233
			C877.425,649.015,878.349,647.858,878.092,646.631z M875.076,647.889l-11.19,0.179c-0.867,0.014-1.604-0.575-1.704-1.362
			l-0.609-4.803c-0.115-0.901,0.646-1.697,1.639-1.716l10.692-0.204c0.811-0.016,1.519,0.498,1.685,1.223l1.107,4.828
			C876.913,646.98,876.134,647.872,875.076,647.889z"/>
		<path style="fill:#F5F1DA;" d="M910.814,784.196c15.578,3.746,32.93,0.197,33.325-0.329c4.207,8.545,8.019,28.658,8.019,29.118
			C939.34,821.201,910.879,817.498,910.814,784.196z"/>
		<path style="fill:#F5F1DA;" d="M869.47,786.431c4.995,0.789,16.169-2.563,16.169-2.563c-5.521,22.019-4.075,33.587-20.113,35.822
			C867.893,794.975,869.47,786.431,869.47,786.431z"/>
		<path style="fill:#381C0B;" d="M862.914,649.27c0.899,8.125-5.937,24.021,0.449,27.229c6.386,3.208,38.465,7.866,48.607-7.76
			c10.142-15.626,6.686-24.041,6.686-24.041l-0.999-1.618c-2.156,5.675-22.891,10.483-33.259,9.206
			C874.03,651.009,862.914,649.27,862.914,649.27z"/>
		<path style="fill:#522910;" d="M882.12,652.548c4.677,3.318,16.13,6.88,24.51,0.377C895.01,658.401,883.697,642.75,882.12,652.548
			z"/>
		<path style="fill:#522910;" d="M882.05,652.502c-5.093,2.635-16.93,4.57-24.325-3.036
			C868.471,656.505,881.85,642.58,882.05,652.502z"/>
		<path style="fill:#FFFFFF;" d="M892.047,659.599c-6.902,1.679-9.725,1.762-13.85-0.614
			C874.071,656.608,880.482,668.553,892.047,659.599z"/>
	</g>
</g>
</svg>
