<?xml version="1.0" encoding="utf-8"?>
<!-- Generator: Adobe Illustrator 27.5.0, SVG Export Plug-In . SVG Version: 6.00 Build 0)  -->
<svg version="1.1" id="Layer_1" xmlns="http://www.w3.org/2000/svg" xmlns:xlink="http://www.w3.org/1999/xlink" x="0px" y="0px"
	 viewBox="0 0 232.713 232.712" style="enable-background:new 0 0 232.713 232.712;" xml:space="preserve">
<g>
	<rect style="fill:#A4D1E4;" width="232.713" height="232.712"/>
	<rect y="180.768" style="fill:#D3E5E5;" width="232.713" height="51.944"/>
	<g>
		<g>
			<g>
				<g>
					<path d="M97.781,96.714c0,0-9.641,0.821-14.154,4.412c-0.269,0.229-0.506,0.484-0.718,0.762
						c1.854-1.203,4.412-1.931,5.036,2.561c0.847,6.105,3.624,26.422,4.479,32.679h6.793L97.781,96.714z"/>
					<path style="fill:#5B5B5A;" d="M82.909,101.888c-2.652,3.44-1.29,10.622,0.513,23.342c1.743,11.897,1.743,11.897,1.743,11.897
						h7.259c-0.855-6.257-3.632-26.573-4.479-32.679C87.32,99.956,84.763,100.685,82.909,101.888z"/>
				</g>
				<g>
					<path style="fill:#3F3E3D;" d="M89.307,114.124c0,0,0.188-0.111,0.481-0.226c0.293-0.12,0.692-0.245,1.098-0.339
						c0.405-0.09,0.819-0.15,1.136-0.171c0.313-0.02,0.533-0.002,0.533-0.002s-0.189,0.113-0.483,0.229
						c-0.293,0.118-0.692,0.243-1.097,0.338c-0.406,0.088-0.819,0.148-1.136,0.168C89.524,114.144,89.307,114.124,89.307,114.124z"
						/>
					<path style="fill:#3F3E3D;" d="M90.897,125.824c0,0,0.273-0.138,0.696-0.289c0.422-0.156,0.993-0.331,1.572-0.476
						c0.579-0.141,1.166-0.252,1.613-0.308c0.446-0.061,0.752-0.067,0.752-0.067s-0.275,0.137-0.698,0.29
						c-0.422,0.156-0.993,0.331-1.571,0.474c-0.579,0.143-1.167,0.252-1.613,0.31C91.201,125.82,90.897,125.824,90.897,125.824z"/>
				</g>
				<g style="opacity:0.5;">
					<path style="fill:#5B5B5A;" d="M92.424,137.127c-0.855-6.257-3.632-26.573-4.479-32.679c-0.624-4.492-3.182-3.764-5.036-2.561
						c-1.694,2.198-1.749,5.924-1.1,11.639c-0.273-4.052-0.213-9.449,1.953-10.075c2.732-0.624,3.443,11.149,4.998,19.758
						c1.832,10.149-2.57,13.11-4.536,7.503c0.941,6.413,0.941,6.414,0.941,6.414H92.424z"/>
				</g>
			</g>
			<g>
				<rect x="14.334" y="151.704" style="fill:#A19E89;" width="206.968" height="63.804"/>
				<g style="opacity:0.5;">
					<path style="fill:#A19E89;" d="M221.301,151.704H14.334v4.964c17.251,0.029,200.399,3.429,202.997,58.84h3.971V151.704z"/>
				</g>
				<g>
					<polygon style="fill:#DBDAC2;" points="20.741,135.215 216.286,135.215 228.406,149.911 6.436,149.911 					"/>
					<rect x="6.436" y="149.918" style="fill:#BEBCA5;" width="221.97" height="2.914"/>
				</g>
			</g>
			<g>
				<path style="fill:#DBDAC2;" d="M95.354,135.287c0,0,0.175,3.096,4.325,3.155c4.149,0.059,9.526,0.41,13.732,0.819
					c4.206,0.408,4.839,0.543,5.609-0.995c0.642-1.286,2.219,0.934,4.499,1.169c2.279,0.234,3.563-2.221,3.915-1.343
					c0.35,0.875,2.22,0.641,3.272,0.116c1.052-0.525,4.206-2.337-3.681-2.454C119.137,135.636,95.354,135.287,95.354,135.287z"/>
				<g>
					<path style="fill:#3F3E3D;" d="M125.989,124.535c0,0-1.493-3.656-1.979-4.872c-0.488-1.219-0.519-1.646,0.243-1.859
						c0.762-0.213,1.28-0.456,1.736,0.611c0.457,1.065,1.95,5.389,1.95,5.389L125.989,124.535z"/>
					<path style="fill:#19C199;" d="M124.642,124.649c-0.159,0-0.311-0.093-0.374-0.252c-0.008-0.02-0.818-2.021-1.266-3.035
						c-0.349-0.79-0.514-1.325-0.327-1.723c0.066-0.141,0.208-0.325,0.515-0.411c0.713-0.171,3.378-0.659,3.491-0.679
						c0.219-0.04,0.429,0.105,0.469,0.322c0.039,0.22-0.106,0.428-0.324,0.469c-0.027,0.007-2.733,0.5-3.425,0.666
						c-0.005,0.082,0.028,0.331,0.338,1.031c0.453,1.026,1.269,3.039,1.277,3.059c0.083,0.205-0.015,0.441-0.222,0.525
						C124.744,124.642,124.693,124.649,124.642,124.649z"/>
				</g>
				<path style="fill:#747A85;" d="M157.12,113.476c0.035-0.049,0.074-0.101,0.109-0.15c1.169-2.954-4.185-13.54-5.663-14.586
					c-0.132,0.126-0.268,0.268-0.408,0.413C150.444,102.547,149.715,110.389,157.12,113.476z"/>
				<path style="fill:#F5F6FA;" d="M130.905,96.078c-1.401-0.354-2.421-0.354-2.421-0.354l-25.337-2.046c0,0-9.2,4.934-11.04,5.938
					c-1.841,1.004-2.016,5.873-0.136,15.001c1.88,9.127,4.563,20.872,4.563,20.872h40.472l-0.15-11.207c0,0,0.016,0.03,0.046,0.076
					c-0.084-0.636-0.861-6.478-2.097-11.756C133.794,108.283,131.771,99.737,130.905,96.078z"/>
				<g style="opacity:0.5;">
					<path style="fill:#A1A5AB;" d="M105.862,109.785c-0.804,2.214,0.104,2.214,3.525,3.926c3.423,1.712,6.342,3.827,7.852,4.932
						c1.511,1.108,1.913,3.626,2.315,8.558c-0.099-2.919,0.606-7.247,0.606-7.247c4.259-4.259,9.361-9.565,8.557-10.571
						c-0.805-1.007-3.524-4.832-3.524-4.832l4.658-8.69c-0.828-0.135-1.367-0.135-1.367-0.135l-25.337-2.046
						c0,0-0.5,0.268-1.284,0.69l6.016,8.974C107.878,103.341,106.669,107.569,105.862,109.785z"/>
				</g>
				<path style="fill:#EBECF1;" d="M151.158,99.153c-3.192,3.368-8.332,11.897-8.332,11.897s-2.585-4.987-5.417-10.157
					c-1.673-3.055-4.484-4.305-6.505-4.816c0.866,3.659,2.889,12.205,3.9,16.524c1.236,5.278,2.013,11.12,2.097,11.756
					c0.345,0.534,2.675,3.837,6.416,2.08c6.271-2.861,10.552-8.549,13.801-12.961C149.715,110.389,150.444,102.547,151.158,99.153z"
					/>
				<polygon style="fill:#FDC088;" points="119.891,90.455 119.726,90.308 119.491,87.256 112.997,87.178 113.154,90.776 
					116.87,94.683 				"/>
				<polygon style="fill:#D9AE91;" points="119.891,90.455 119.726,90.308 119.491,87.256 112.997,87.178 113.154,90.776 
					116.87,94.683 				"/>
				<path style="fill:#FFFFFF;" d="M129.507,95.316l-6.729-4.146l-0.236,1.642l-0.095-0.083l-4.034,22.089l-7.765-23.258
					l-0.39-1.331l-7.747,3.209c0,0,2.268,4.539,6.258,9.154c-2.112,6.574-2.58,8.218-2.58,8.218l12.205,7.744l0.548,1.253
					l9.311-10.562l-3.992-4.617L129.507,95.316z"/>
				<path style="fill:#FDC088;" d="M150.948,102.468l3.069-2.908c0,0-0.539-2.586,0.539-4.201c1.077-1.616,1.67-1.562,2.424-4.416
					c0.753-2.855,3.446-0.754,2.1,2.099c-0.969,2.209-0.646,1.94,1.346,0.108c1.994-1.83,7.379-5.763,9.049-5.17
					c0.807,0.323-0.539,1.778-2.855,3.609c-2.316,1.832-3.069,2.908-3.069,2.908s0.378,0.7,1.509-0.215
					c1.13-0.916,6.515-4.201,7.861-3.178c1.347,1.023-1.292,1.778-3.069,3.178c-1.778,1.4-3.824,3.231-3.824,3.231
					s5.979-3.663,8.402-2.639c1.454,0.755-0.324,2.154-2.64,2.747c-2.315,0.593-4.362,1.831-4.362,1.831s7.003-0.053,6.949,1.454
					c-0.053,1.509-7.864,1.67-7.864,1.67s-4.847,6.14-9.368,3.177c-1.563,1.616-4.149,4.362-4.149,4.362
					S150.786,107.961,150.948,102.468z"/>
				<g>
					<path style="fill:#A5693C;" d="M162.22,93.456c0,0,0.367,0.193,0.858,0.572c0.245,0.188,0.519,0.423,0.795,0.696
						c0.278,0.269,0.552,0.582,0.812,0.905c0.12,0.169,0.251,0.329,0.362,0.503c0.114,0.17,0.221,0.339,0.312,0.513
						c0.096,0.168,0.186,0.334,0.254,0.5c0.074,0.164,0.147,0.315,0.192,0.465c0.106,0.294,0.165,0.547,0.201,0.725
						c0.036,0.176,0.051,0.277,0.051,0.277s-0.051-0.091-0.128-0.252c-0.038-0.082-0.079-0.181-0.137-0.291
						c-0.061-0.108-0.13-0.23-0.199-0.363c-0.065-0.136-0.162-0.27-0.245-0.42c-0.084-0.152-0.192-0.299-0.293-0.458
						c-0.096-0.16-0.219-0.311-0.328-0.474c-0.109-0.165-0.24-0.318-0.36-0.479c-0.245-0.317-0.503-0.624-0.752-0.909
						c-0.247-0.285-0.486-0.545-0.693-0.77c-0.208-0.221-0.38-0.412-0.506-0.536C162.291,93.531,162.22,93.456,162.22,93.456z"/>
					<path style="fill:#A5693C;" d="M158.562,94.338c-0.045,0.35-0.123,0.687-0.212,1.021l-0.057-0.173
						c0.26,0.149,0.495,0.319,0.722,0.506c0.23,0.185,0.441,0.392,0.636,0.616c0.192,0.226,0.37,0.467,0.501,0.738
						c0.068,0.135,0.126,0.274,0.162,0.421c0.043,0.143,0.055,0.296,0.055,0.441c-0.064-0.134-0.126-0.259-0.202-0.378
						c-0.03-0.062-0.078-0.116-0.117-0.174c-0.039-0.058-0.078-0.114-0.125-0.167c-0.169-0.22-0.361-0.423-0.558-0.619
						c-0.389-0.398-0.814-0.773-1.242-1.138l-0.098-0.084l0.042-0.091C158.215,94.945,158.372,94.635,158.562,94.338z"/>
					<path style="fill:#A5693C;" d="M160.192,99.847c0,0-0.258,0.077-0.612,0.226c-0.179,0.071-0.378,0.17-0.587,0.274
						c-0.204,0.118-0.423,0.236-0.615,0.392c-0.103,0.067-0.195,0.151-0.288,0.23c-0.096,0.076-0.177,0.165-0.261,0.244
						c-0.087,0.079-0.154,0.17-0.229,0.248c-0.075,0.079-0.134,0.163-0.194,0.239c-0.056,0.078-0.12,0.143-0.161,0.21
						c-0.045,0.064-0.082,0.122-0.117,0.169c-0.069,0.094-0.111,0.149-0.111,0.149s0.012-0.066,0.037-0.18
						c0.015-0.059,0.033-0.128,0.052-0.208c0.018-0.082,0.06-0.164,0.099-0.257c0.042-0.095,0.081-0.2,0.147-0.296
						c0.066-0.097,0.121-0.211,0.207-0.307c0.087-0.096,0.159-0.212,0.265-0.297c0.101-0.091,0.2-0.189,0.314-0.267
						c0.111-0.083,0.228-0.156,0.346-0.221c0.116-0.073,0.243-0.115,0.36-0.169c0.24-0.09,0.469-0.152,0.674-0.175
						C159.924,99.789,160.192,99.847,160.192,99.847z"/>
				</g>
				<g>
					<path style="fill:#F5F6FA;" d="M153.259,100.329l-0.027-0.024l-2.283,2.163c-0.162,5.493,2.046,7.648,2.046,7.648
						s1.668-1.77,3.132-3.304C153.175,103.569,153.259,100.329,153.259,100.329z"/>
				</g>
				<g>
					<path style="fill:#A1A5AB;" d="M152.131,101.348l-1.182,1.121c-0.162,5.493,2.046,7.648,2.046,7.648s0.393-0.419,0.966-1.022
						C152.65,106.733,152.202,104.137,152.131,101.348z"/>
				</g>
				<g>
					<path style="fill:#FFFFFF;" d="M115.98,130.824c0.942-2.357,2.108-3.944,2.778-4.738c-1.473-0.113-9.538-0.589-12.594-0.195
						c-1.208-0.704-3.423-0.2-3.423-0.2s-1.913-12.484-2.616-18.927c-0.705-6.443-5.84-7.549-5.84-7.549
						c-3.992-0.369-3.992,4.731-3.188,10.37c0.806,5.636,4.799,22.8,5.201,25.066c0.403,2.266,1.31,2.618,2.568,2.87
						c1.259,0.253,4.227-0.252,9.463,0.302c4.643,0.491,7.876,0.648,8.551,0.675C115.301,136.352,114.78,133.826,115.98,130.824z"/>
					<path style="fill:#747A85;" d="M120.929,131.044c-0.461-2.853-2.079-4.95-2.079-4.95c-0.027-0.002-0.06-0.005-0.091-0.008
						c-0.671,0.794-1.836,2.381-2.778,4.738c-1.2,3.002-0.68,5.528,0.9,7.673c0.087,0.006,0.137,0.006,0.137,0.006
						S121.39,133.899,120.929,131.044z"/>
				</g>
				<path style="fill:#FDC088;" d="M116.358,130.092c0,0,3.318-0.283,3.915-0.318c0.602-0.071,0.354-1.658,0.743-2.821
					c0.387-1.166,1.763-2.081,4.091-2.824c2.328-0.741,2.576-0.917,4.056,0c1.482,0.917,2.751,2.258,2.364,4.304
					c1.092,1.482,0.529,2.611-0.071,3.173c1.235,1.2,0.987,2.331,0.353,2.928c0.634,1.589-0.316,2.752-1.976,3.106
					c-1.094,0.248-2.01-0.142-0.423-2.577c0.071-0.317-0.457,0.214-1.482,1.13c-1.023,0.918-2.258,2.436-3.843,2.4
					c-1.589-0.035-3.281-1.059-3.917-2.152c-2.469,0.069-4.302,0.105-4.302,0.105S114.348,133.901,116.358,130.092z"/>
				<g>
					<path style="fill:#A5693C;" d="M127.542,124.649c0,0,0.227,0.134,0.506,0.41c0.139,0.137,0.294,0.307,0.421,0.538
						c0.06,0.116,0.131,0.246,0.126,0.44c0.003,0.046-0.012,0.1-0.035,0.154l-0.016,0.038c0.001-0.002-0.015,0.034,0.001,0
						l-0.005,0.011l-0.02,0.045c-0.02,0.055-0.057,0.12-0.063,0.169c-0.03,0.098-0.063,0.203-0.085,0.325
						c-0.024,0.116-0.049,0.233-0.071,0.346c-0.037,0.23-0.075,0.445-0.106,0.629c-0.057,0.377-0.094,0.629-0.094,0.629
						s-0.1-0.245-0.138-0.635c-0.02-0.193-0.028-0.421-0.012-0.667c0.011-0.121,0.012-0.247,0.04-0.377
						c0.018-0.122,0.051-0.263,0.096-0.407c0.021-0.076,0.051-0.121,0.078-0.181l0.02-0.042l0.005-0.011
						c0.022-0.04,0.006-0.012,0.01-0.022v-0.004c0.003-0.005,0.009-0.011,0.007-0.027c0.005-0.055-0.014-0.165-0.059-0.261
						c-0.079-0.198-0.19-0.389-0.283-0.548C127.672,124.871,127.542,124.649,127.542,124.649z"/>
					<path style="fill:#A5693C;" d="M128.314,126.252c0,0,0.252,0.042,0.6,0.173c0.176,0.061,0.375,0.147,0.582,0.249
						c0.212,0.094,0.422,0.229,0.635,0.355c0.208,0.131,0.406,0.286,0.591,0.431c0.091,0.067,0.168,0.156,0.247,0.231
						c0.076,0.074,0.147,0.149,0.21,0.216c0.068,0.067,0.111,0.147,0.155,0.209c0.042,0.066,0.078,0.121,0.108,0.169
						c0.057,0.094,0.086,0.148,0.086,0.148s-0.054-0.033-0.146-0.094c-0.044-0.032-0.098-0.07-0.159-0.115
						c-0.062-0.042-0.118-0.096-0.197-0.143c-0.159-0.093-0.328-0.214-0.516-0.336c-0.197-0.111-0.389-0.257-0.596-0.378
						c-0.202-0.131-0.405-0.263-0.594-0.386c-0.189-0.125-0.363-0.247-0.514-0.355C128.509,126.416,128.314,126.252,128.314,126.252
						z"/>
					<path style="fill:#A5693C;" d="M128.957,129.372c0,0,0.111,0.207,0.225,0.531c0.117,0.322,0.24,0.759,0.331,1.202
						c0.089,0.443,0.147,0.893,0.165,1.235c0.019,0.343-0.002,0.579-0.002,0.579s-0.113-0.209-0.227-0.531
						c-0.117-0.322-0.24-0.759-0.332-1.204c-0.088-0.445-0.145-0.893-0.162-1.235C128.936,129.607,128.957,129.372,128.957,129.372z
						"/>
					<path style="fill:#A5693C;" d="M129.249,130.572c0,0,0.169-0.015,0.405,0.029c0.238,0.037,0.542,0.136,0.827,0.274
						c0.138,0.079,0.279,0.155,0.401,0.243c0.12,0.091,0.227,0.183,0.312,0.271c0.165,0.183,0.243,0.33,0.243,0.33
						s-0.17-0.043-0.374-0.141c-0.218-0.083-0.491-0.208-0.762-0.342c-0.271-0.134-0.536-0.29-0.731-0.421
						C129.375,130.685,129.249,130.572,129.249,130.572z"/>
					<path style="fill:#A5693C;" d="M129.57,133.318c0,0,0.18-0.015,0.434,0.032c0.255,0.042,0.585,0.142,0.894,0.301
						c0.148,0.083,0.301,0.169,0.429,0.273c0.131,0.101,0.242,0.212,0.321,0.322c0.083,0.106,0.135,0.209,0.158,0.287
						c0.022,0.075,0.031,0.119,0.031,0.119s-0.036-0.026-0.098-0.074c-0.057-0.045-0.144-0.101-0.247-0.162
						c-0.104-0.06-0.225-0.125-0.36-0.193c-0.133-0.071-0.275-0.143-0.42-0.217c-0.286-0.149-0.576-0.305-0.789-0.441
						C129.708,133.433,129.57,133.318,129.57,133.318z"/>
				</g>
				<g>
					<path style="fill:#F5F6FA;" d="M118.423,129.918c-1.022,0.084-2.064,0.174-2.064,0.174c-2.01,3.809-0.492,6.454-0.492,6.454
						s0.795-0.014,2.04-0.045C117.219,133.814,117.965,131.163,118.423,129.918z"/>
				</g>
				<g>
					<path style="fill:#A1A5AB;" d="M116.936,130.042c-0.347,0.031-0.577,0.05-0.577,0.05c-2.01,3.809-0.492,6.454-0.492,6.454
						s0.198-0.003,0.549-0.01C115.916,134.362,116.003,132.068,116.936,130.042z"/>
				</g>
				<g>
					<polygon style="fill:#EBECF1;" points="121.573,97.524 122.447,92.728 119.891,90.455 117.059,94.417 120.581,98.867 					"/>
					<polygon style="fill:#EBECF1;" points="116.543,94.34 113.154,90.776 110.649,91.56 112.775,97.928 113.846,99.545 					"/>
				</g>
				<g>
					<polygon style="fill:#19C199;" points="120.032,98.172 117.059,94.417 116.87,94.683 116.543,94.34 114.593,98.105 
						116.787,101.016 115.887,107.249 118.414,114.817 120.182,105.13 118.826,101.016 					"/>
					<polygon style="fill:#DBDBDE;" points="114.593,98.105 113.846,99.545 112.775,97.928 115.887,107.249 116.787,101.016 					
						"/>
					<polygon style="fill:#DBDBDE;" points="120.581,98.867 120.032,98.172 118.826,101.016 120.182,105.13 121.573,97.524 					"/>
				</g>
				<path style="fill:#A1A5AB;" d="M116.837,119.297c-0.245-1.781-1.466-8.648-1.932-11.26c0.128-0.133,0.192-0.318,0.162-0.51
					c-0.289-1.842-0.881-2.997-1.856-3.641c-1.049-0.691-2.435-0.765-4.719-0.235l-1.577-11.866
					c-0.043-0.33-0.349-0.564-0.678-0.519c-0.33,0.045-0.564,0.348-0.519,0.68l1.599,12.042c-2.76,1.003-3.423,3.244-3.366,4.368
					c0.009,0.201,0.117,0.373,0.273,0.474c0.078,2.574,0.33,10.571,0.582,12.632c0.301,2.468,1.308,1.964,3.222,2.163
					c0.049,0.857,0.102,0.959,0.855,0.959c0.756,0,1.158,0.049,1.158-1.109c0-1.156,0.102-1.661-0.554-1.76
					c-0.809-0.125-1.259,0.503-1.259,0.503s-2.264,0-2.517-1.611c-0.284-2.524-0.669-9.301-0.804-11.796
					c0.157-0.114,0.256-0.303,0.25-0.513c-0.004-0.104-0.054-2.548,3.168-3.364c2.168-0.549,3.429-0.561,4.218-0.038
					c0.674,0.443,1.096,1.338,1.331,2.818c0.03,0.197,0.153,0.356,0.318,0.442c0.302,2.028,1.076,7.256,1.434,10.134
					c0.203,2.014-0.049,2.569-1.107,3.021c-0.806,0.254-0.806,0.254-0.806,0.254s-0.352-0.506-1.058-0.254
					c-0.704,0.254-0.753,0.706-0.554,1.911c0.203,1.209,0.957,0.907,1.763,0.758c0.806-0.153,0.654-0.252,0.404-1.309
					C116.534,121.916,117.139,121.512,116.837,119.297z"/>
				<g>
					<path style="fill:#D6D8DB;" d="M104.252,106.965c0,0,0.504,9.615,0.855,12.735c0.252,1.61,2.519,1.61,2.519,1.61
						s0.449-0.628,1.257-0.503c0.656,0.1,0.555,0.604,0.555,1.763c0,1.157-0.403,1.106-1.158,1.106c-0.755,0-0.806-0.1-0.857-0.956
						c-1.913-0.201-2.919,0.303-3.222-2.164c-0.301-2.467-0.603-13.44-0.603-13.44L104.252,106.965z"/>
					<path style="fill:#D6D8DB;" d="M113.465,106.411c0,0,1.105,7.349,1.56,10.975c0.201,2.012-0.051,2.567-1.107,3.02
						c-0.806,0.251-0.806,0.251-0.806,0.251s-0.354-0.503-1.058-0.251c-0.705,0.251-0.755,0.704-0.554,1.913
						c0.201,1.205,0.956,0.903,1.763,0.754c0.804-0.15,0.654-0.251,0.402-1.308c2.265-0.755,2.868-1.158,2.567-3.372
						c-0.302-2.216-2.114-12.283-2.114-12.283L113.465,106.411z"/>
					<path style="fill:#3F3E3D;" d="M107.323,103.694c-0.299,0-0.558-0.222-0.599-0.526l-1.611-12.131
						c-0.043-0.33,0.189-0.633,0.519-0.678c0.329-0.045,0.635,0.188,0.68,0.519l1.61,12.132c0.045,0.331-0.188,0.635-0.517,0.678
						C107.376,103.691,107.35,103.694,107.323,103.694z"/>
					<path style="fill:#3F3E3D;" d="M103.949,108.022c-0.319,0-0.587-0.251-0.602-0.575c-0.062-1.215,0.713-3.738,4.08-4.592
						c2.564-0.648,4.062-0.612,5.179,0.125c0.975,0.643,1.566,1.802,1.857,3.641c0.052,0.329-0.173,0.638-0.503,0.689
						c-0.33,0.055-0.639-0.173-0.69-0.503c-0.234-1.48-0.656-2.375-1.329-2.82c-0.792-0.521-2.052-0.51-4.22,0.039
						c-3.221,0.817-3.171,3.263-3.168,3.365c0.012,0.332-0.246,0.614-0.578,0.629C103.967,108.02,103.958,108.022,103.949,108.022z"
						/>
				</g>
				<path style="fill:#A1A5AB;" d="M132.092,110.134c-0.049-1.002-0.227-4.255-0.538-7.516c-0.332-3.475-0.674-5.525-1.001-6.747
					c-0.204-0.03-0.408-0.059-0.612-0.089c0.057,0.062,0.102,0.131,0.129,0.212c0.09,0.273-0.201,0.642-0.492,0.983
					c0.563,2.784,1.064,8.161,1.302,13.107c-1.646,0.321-2.894,2.207-2.868,4.473c0.029,2.48,1.569,4.472,3.438,4.451
					c1.872-0.022,3.365-2.048,3.336-4.527C134.762,112.338,133.61,110.563,132.092,110.134z"/>
				<g>
					<path style="fill:#3F3E3D;" d="M130.98,101.975c-0.789-8.279-1.64-8.488-2.202-8.627c-0.26-0.063-0.758-0.059-1.188,0.679
						c0,0.002,0,0.002-0.002,0.005c0.369,0.214,0.729,0.445,1.094,0.672c0.281,0.176,0.703,0.308,0.814,0.646
						c0.089,0.272-0.201,0.641-0.492,0.982c0.578,2.864,1.094,8.473,1.323,13.531c0.015,0.324,0.282,0.576,0.603,0.576
						c0.009,0,0.02,0,0.029,0c0.332-0.015,0.59-0.297,0.575-0.63C131.532,109.77,131.354,105.871,130.98,101.975z"/>
					<path style="fill:#D6D8DB;" d="M134.214,113.835c0.029,2.48-1.466,4.508-3.336,4.529c-1.871,0.021-3.411-1.973-3.44-4.449
						c-0.027-2.481,1.466-4.508,3.336-4.529C132.644,109.363,134.186,111.354,134.214,113.835z"/>
					<path style="fill:#EBECF1;" d="M132.441,114.193c0,1.685-0.879,3.05-1.961,3.05c-1.085,0-1.964-1.365-1.964-3.05
						c0-1.685,0.879-3.05,1.964-3.05C131.562,111.144,132.441,112.509,132.441,114.193z"/>
					<path style="opacity:0.5;fill:#A1A5AB;" d="M131.117,114.193c0,0.546-0.286,0.989-0.636,0.989
						c-0.353,0-0.639-0.443-0.639-0.989c0-0.548,0.287-0.99,0.639-0.99C130.83,113.203,131.117,113.646,131.117,114.193z"/>
				</g>
				<g style="opacity:0.5;">
					<path style="fill:#A1A5AB;" d="M151.365,107.387c0.264,1.295,0.704,2.748,1.412,4.311c1.409,2.114-1.478,5.471-5.504,9.361
						c-4.026,3.894-7.372,4.623-9.262-1.745c-2.55-8.589-3.74-11.064-5.014-16.03c-0.732-2.852-1.443-5.392-1.821-7.039
						c-0.336-0.116,0.035-0.089-0.271-0.166c0.866,3.659,2.889,12.205,3.9,16.524c1.236,5.278,2.013,11.12,2.097,11.756
						c0.345,0.534,2.675,3.837,6.416,2.08c6.271-2.861,10.552-8.549,13.801-12.961C153.844,112.113,152.163,109.816,151.365,107.387
						z"/>
					<path style="fill:#A1A5AB;" d="M140.875,113.934c-0.86,2.457-0.983,3.867,0.06,2.025c0.861-3.498,1.781-5.031,1.535-2.822
						c-0.062,2.456,0.184,5.154,0.552,0.366c0.212-1.709,0.844-3.582,1.544-5.244c-1.041,1.632-1.739,2.792-1.739,2.792
						s-1.167-2.25-2.79-5.295c0.089,0.31,0.198,0.637,0.347,0.997C141.735,110.007,141.733,111.478,140.875,113.934z"/>
				</g>
				<g style="opacity:0.5;">
					<path style="fill:#A1A5AB;" d="M99.89,130.589c-1.611,3.492,0.672-0.268,1.88-2.279c1.208-2.015,1.611-0.806,1.341,1.342
						c-0.267,2.147,0.672-3.089,2.685-2.82c2.015,0.268,6.041-1.208,9.262-0.941c0.126,0.011,0.246,0.01,0.363,0.002
						c-3.047-0.144-7.24-0.261-9.256-0.002c-1.208-0.704-3.423-0.2-3.423-0.2s-1.913-12.484-2.616-18.927
						c-0.335-3.048-1.659-4.902-2.963-6.009c0.93,2.176,2.358,6.717,3.129,15.204C101.635,126.563,101.501,127.1,99.89,130.589z"/>
					<path style="fill:#A1A5AB;" d="M118.145,126.871c-1.238,1.286-3.072,3.631-3.758,6.806c-0.806,2.685-2.148,2.147-7.517,1.88
						c-5.369-0.269-8.591,0.806-9.799-2.415c-1.063-2.835-4.2-15.012-4.941-17.903c1.478,7.333,3.863,17.686,4.169,19.411
						c0.403,2.266,1.31,2.618,2.568,2.87c1.259,0.253,4.227-0.252,9.463,0.302c4.643,0.491,7.876,0.648,8.551,0.675
						c-1.58-2.145-2.1-4.671-0.9-7.673C116.678,129.081,117.494,127.765,118.145,126.871z"/>
				</g>
				<g style="opacity:0.5;">
					<path style="fill:#A1A5AB;" d="M115.949,93.715c-0.753,1.699-2.141,4.691-2.361,4.19c-0.447-1.113-1.737-4.641-2.417-6.507
						l-0.522,0.162l2.126,6.368l1.071,1.617l2.697-5.205L115.949,93.715z"/>
				</g>
				<g style="opacity:0.5;">
					<path style="fill:#A1A5AB;" d="M121.916,92.254c-0.276,2.997-1.482,5.113-1.482,5.113l-2.961-3.528l-0.414,0.578l3.522,4.449
						l0.992-1.343l0.875-4.796L121.916,92.254z"/>
				</g>
				<g>
					<path style="fill:#19C199;" d="M120.032,98.172l-0.279-0.351c-0.576,1.621-1.224,3.054-2.468,2.278
						c-0.74-0.461-1.743-1.382-2.58-2.211l-0.112,0.216l2.195,2.912l-0.588,4.077l0.011-0.003c0,0,0.696-3.285,1.454-3.474
						c0.759-0.19,2.519,3.513,2.519,3.513l-1.356-4.113L120.032,98.172z"/>
				</g>
				<g>
					<path style="fill:#30160A;" d="M95.403,75.587c0,0-2.777-6.42-4.074-12.099c-1.296-5.679-1.667-8.395-1.667-8.951
						c0-0.556-1.235-0.864-1.235-0.864s0.618-1.606,1.544-1.853l-2.346-0.37c0,0,0.864-1.913,3.765-2.901
						c0,0-2.778-1.667-4.073-4.136c0,0,2.468,1.543,4.134,1.172c1.668-0.371,4.074-2.284,8.272-4.32
						c4.197-2.037,10.127-6.387,21.914-6.05c4.32,0.123,9.508,2.099,10.866,6.728c0,0,2.222-0.247,4.938,0.247
						c2.717,0.494,4.568,9.445,6.605,10.618l-1.605,0.062c0,0,1.544,1.296,1.728,2.099c0,0-1.296-0.248-1.974-0.062l0.987,0.864
						c0,0-1.974,0.617-2.223,1.605c-0.246,0.987-2.16,8.703-2.346,11.358c-0.183,2.654-9.629,10-10.37,10.247
						C127.503,79.229,95.403,75.587,95.403,75.587z"/>
					<g style="opacity:0.5;">
						<path style="fill:#30160A;" d="M106.428,38.826c-1.367,0.706-2.612,1.616-3.938,2.387c-1.841,1.07-8.957,7.597-12.766,4.866
							c2.213,1.586,5.254,1.548,7.964,1.646c0.186,0.007-4.617,2.267-7.142,2.424c1.896,0.632,3.959,0.601,5.938,0.446
							c0.233-0.018-3.212,1.1-4.878,1.205c1.916,0.853,3.921,1.402,5.619,1.685c4.386,0.735,9.2,1.364,13.674,0.929
							c5.169-0.503,13.681-2.461,17.515-6.282c-1.571-0.413-3.27-0.377-4.872-0.578c-1.119-0.14-3.818-0.526-3.483-2.113
							c0.503-2.387,4.019-2.789,8.582-1.288c-2.712-2.982-4.1-2.15-5.154-3.084c-1.277-1.138,4.748-1.319,5.618-0.251
							c-1.989-2.441-0.98-3.067,1.547-1.313c-2.214-2.63-5.855-3.794-9.166-3.889C116.204,35.466,111.108,36.404,106.428,38.826z"/>
					</g>
					<g style="opacity:0.5;">
						<path style="fill:#30160A;" d="M120.278,49.965c-0.527-0.021-2.484,0.115-2.706-0.669c-0.159-0.558,0.511-1.04,0.825-1.403
							c0.516-0.594,0.619-1.314-0.413-1.398c-0.54-0.043-1.089-0.018-1.613-0.174c-0.77-0.228-0.863-1.163-0.38-1.712
							c2.136-2.423,5.376-2.365,8.333-2.618c-1.094-0.5-2.31-0.713-3.345-1.325c-0.407-0.239-0.882-0.731-0.339-1.145
							c0.732-0.558,1.757-0.566,2.771-0.357c-0.404-0.292-0.714-0.66-0.723-1.125c-0.03-1.511,2.703-1.193,3.519-1.007
							c1.025,0.233,2.118,0.576,3.044,1.134c-2.181-1.694-5.082-2.475-7.768-2.551c-5.28-0.151-10.376,0.787-15.057,3.21
							c-0.41,0.212-0.809,0.446-1.202,0.684c1.401-0.619,2.778-1.298,4.214-1.836c1.817-0.681,3.734-1.112,5.664-1.317
							c1.662-0.175,3.585-0.319,5.209,0.201c0.525,0.169,0.882,0.656,0.421,1.088c-0.66,0.619-1.938,0.761-2.778,0.937
							c-1.019,0.211-2.03,0.418-3.042,0.685c-1.692,0.445-2.426,1.922-0.079,1.536c1.303-0.215,2.7-0.585,3.945,0.036
							c0.14,0.069,0.128,0.282,0,0.355c-3.702,2.123-8.576,1.709-11.758,4.863c-0.215,0.213-0.852,0.827-0.236,0.984
							c0.513,0.132,1.058,0.109,1.581,0.066c0.483-0.039,0.962-0.118,1.445-0.171c1.1-0.119,2.819-0.45,3.827,0.185
							c0.873,0.551,0.326,1.572-0.328,2.063c-0.636,0.48-1.502,0.828-2.027,1.436c-0.6,0.694,1.704,0.69,2.084,0.757
							c0.426,0.074,1.694-0.164,1.449,0.304c-0.555,1.064-6.152,1.839-8.008,1.851c-3.527,0.023-8.983-0.416-15.085-1.742
							c-0.039-0.007-0.079,0.007-0.118,0.01c1.916,0.853,3.921,1.402,5.619,1.685c4.386,0.735,9.2,1.364,13.674,0.929
							c4.971-0.484,13.032-2.314,17.053-5.851C125.496,49.491,122.916,50.068,120.278,49.965z"/>
					</g>
					<g style="opacity:0.5;">
						<path style="fill:#30160A;" d="M137.402,44.076c0.054,0.085,0.025,0.23-0.072,0.274c-0.591,0.268-1.233,0.249-1.871,0.274
							c-0.417,0.017-1.19-0.039-1.493,0.324c-0.234,0.278,0.326,0.583,0.474,0.699c0.674,0.521,0.725,1.097,0.152,1.731
							c-0.247,0.277-1.995,0.329-1.589,0.811c0.392,0.466,0.378,1.107,0.333,1.689c-0.084,1.09-0.827,1.037-1.487,0.614
							c-0.207,3.222,1.674,5.893,3.962,8.003c-0.237-0.435-0.441-0.89-0.624-1.322c-0.345-0.805-0.77-1.889-0.452-2.768
							c0.486-1.343,2.442,0.373,3.518,1.281c-0.729-1.479-1.826-2.926-1.484-4.633c0.024-0.127,0.188-0.183,0.293-0.119
							c0.449,0.27,2.663,2.475,2.475,0.954c-0.117-0.93-0.652-2.061-0.349-2.995c0.043-0.133,0.173-0.173,0.292-0.121
							c1.179,0.533,1.449,1.79,2.342,2.618c0.357,0.332,0.741,0.619,1.14,0.882c-1.716-2.384-3.384-9.203-5.704-9.626
							c-0.664-0.121-1.298-0.196-1.877-0.241C136.094,42.927,136.909,43.291,137.402,44.076z"/>
					</g>
					<path style="fill:#FDC088;" d="M95.651,69.908c0,0-1.728-1.791-3.21-1.111c-1.482,0.679-1.515,4.535,0.308,6.358
						c0.372,0.37,1.791,0.74,2.903,0.124V69.908z"/>
					<path style="fill:#A5693C;" d="M94.443,71.996c-0.521-0.557-1.013-0.782-1.758-0.816c-0.026,0-0.027,0.044-0.002,0.047
						c0.657,0.078,1.245,0.58,1.622,1.089c0.372,0.502,0.477,1.113,0.794,1.626c0.083,0.134,0.264,0.037,0.266-0.096
						C95.37,73.22,94.856,72.437,94.443,71.996z"/>
					<path style="fill:#D9AE91;" d="M94.253,68.917c0.104,0.193,0.174,0.411,0.215,0.648c0.059,0.323,0.11,0.989-0.17,1.247
						c-0.297,0.276-0.674,0.12-1.02,0.025c-0.198-0.052-0.447-0.147-0.651-0.126c-0.491,0.051-0.438,0.521-0.452,0.817
						c-0.01,0.219-0.075,0.383-0.205,0.55c-0.072,0.095-0.231,0.158-0.323,0.042c-0.14-0.175-0.231-0.36-0.29-0.552
						c0.039,1.271,0.485,2.679,1.391,3.586c0.372,0.37,1.791,0.74,2.903,0.124v-5.371C95.651,69.908,95.049,69.289,94.253,68.917z"
						/>
					<path style="fill:#FDC088;" d="M134.725,70.34l0.37,4.938c0,0,0.618,0.431,2.592-0.803c1.976-1.235,2.346-3.704,2.346-5.37
						c0-1.667-3.024-3.334-4.754,0.864L134.725,70.34z"/>
					<path style="fill:#A5693C;" d="M138.559,70.115c-1.661-0.27-2.325,1.703-2.006,3.033c0.023,0.086,0.167,0.073,0.174-0.014
						c0.108-1.291,0.217-2.808,1.829-2.939C138.601,70.192,138.605,70.123,138.559,70.115z"/>
					<path style="fill:#D9AE91;" d="M139.918,70.022c-0.108,0.136-0.294,0.035-0.345-0.091c-0.516-1.259-1.767-0.912-2.574-0.141
						c-0.187,0.182-0.693,0.683-0.981,0.359c-0.305-0.342-0.191-0.986,0.022-1.571c-0.27,0.368-0.527,0.824-0.761,1.391l-0.555,0.37
						l0.37,4.938c0,0,0.618,0.431,2.592-0.803c1.683-1.053,2.201-3.002,2.316-4.586C139.975,69.934,139.949,69.98,139.918,70.022z"
						/>
					<path style="fill:#FDC088;" d="M94.539,54.29c0,0,16.543,5.556,34.692-4.569c0,0-0.494,3.581,6.914,10.989
						c0,0-0.494,7.407-0.866,9.26c0,0,0.188,1.173,0.434,1.975c0.246,0.802,1.482,6.853-6.851,11.853
						c-8.335,4.999-10.865,6.419-14.631,6.419c-3.765,0-11.236-2.901-15.618-5.741c-4.383-2.84-4.383-5.679-3.828-8.889
						c0.557-3.209,0.309-4.383-0.371-7.963c-0.678-3.58-2.283-6.729-1.788-9.136C93.12,56.08,94.539,54.29,94.539,54.29z"/>
					<path style="fill:#A5693C;" d="M112.715,77.563c-1.224-0.534-2.466-1.124-3.083-2.394c-0.466-0.959,0.474-1.421,1.166-1.776
						c0.476-0.246,0.836-0.53,1.134-0.977c0.044-0.065-0.039-0.134-0.093-0.077c-0.965,0.991-3.171,0.921-2.736,2.798
						c0.355,1.524,2.189,2.394,3.573,2.553C112.749,77.698,112.787,77.595,112.715,77.563z"/>
					<path style="fill:#A5693C;" d="M105.65,79.784c0,0-0.462,0.494-0.37,0.772c0.092,0.278,3.087,0.987,8.024-0.494
						c4.938-1.481,8.674-3.117,10.649-4.506c0,0-2.285,2.685-10.741,4.845c-4.428,1.132-6.868,1.101-7.933,0.803
						C104.311,80.933,104.459,80.475,105.65,79.784z"/>
					<path style="fill:#D9AE91;" d="M103.553,59.937c-1.154-0.578-2.652-0.055-3.017,1.257c-0.229,0.823-0.198,1.67-0.182,2.515
						c0.071,0.288,0.174,0.537,0.342,0.673c0.363,0.293,1.035-0.905,1.236-1.1c0.294-0.285,0.565-0.498,0.938-0.669
						c1.197-0.553,2.421,0.384,3.314,1.274C105.808,62.372,104.902,60.613,103.553,59.937z"/>
					<path style="fill:#D9AE91;" d="M119.072,58.356c-0.945,0.87-1.374,2.588-1.569,3.834c-0.118,0.749,0.246,1.173,0.926,0.063
						c0.309-0.926,1.527-1.949,2.346-1.914c1.481,0.062,1.851,0.741,2.733,1.514c0.318,0.281,1.352,0.764,1.554-0.183
						c0.062-0.287,0.049-0.569-0.057-0.844c-0.186-0.478-0.468-0.914-0.809-1.298C122.843,58.002,120.91,56.667,119.072,58.356z"/>
					<path style="fill:#D9AE91;" d="M114.774,75.468c-1.49-0.148-3.183,0.232-4.601-0.352c-1.427-0.589,0.018-1.611,0.933-2.309
						c-1.413,0.515-3.2,1.476-3.476,2.92c-0.284,1.469,1.851,2.264,2.946,2.608c1.454,0.454,2.924,0.453,4.119-0.615
						c0.342-0.308,1.463-1.178,1.23-1.748C115.769,75.579,115.13,75.504,114.774,75.468z"/>
					<path style="opacity:0.6;fill:#D9AE91;" d="M135.28,69.97c0.372-1.853,0.866-9.26,0.866-9.26
						c-7.408-7.408-6.914-10.989-6.914-10.989c-18.149,10.124-34.692,4.569-34.692,4.569s-0.449,0.565-0.929,1.487
						c0.074-0.061,0.145-0.126,0.229-0.178c1.037-0.649,2.286-0.453,3.411-0.137c3.5,0.981,7.103,1.681,10.759,1.592
						c3.654-0.088,7.507-0.682,11.035-1.655c1.794-0.496,3.516-1.127,5.199-1.924c1.326-0.628,2.559-1.561,3.944-2.037
						c0.081-0.028,0.197,0.015,0.233,0.094c0.504,1.099,0.837,2.255,1.263,3.383c0.479,1.258,1.16,2.417,1.665,3.663
						c0.948,2.336,1.551,4.802,1.694,7.324c0.064,1.139-0.069,2.107-0.469,3.18c-0.429,1.146-0.726,2.103-0.632,3.339
						c0.18,2.289-0.277,4.541-1.533,6.487c-1.433,2.214-3.662,3.701-5.843,5.117c-2.286,1.486-4.76,3.176-7.441,3.836
						c-2.324,0.573-4.875,0.742-7.219,0.182c-2.618-0.624-5.231-1.978-7.558-3.299c-2.01-1.14-4.817-2.57-5.925-4.724
						c-0.941-1.825-0.432-3.695-0.045-5.597c0.654-3.213-0.863-6.001-1.971-8.91c-0.558-1.463-1.13-2.96-1.545-4.47
						c-0.254-0.913-0.24-1.766-0.215-2.648c-0.006,0.031-0.015,0.063-0.021,0.095c-0.495,2.407,1.11,5.556,1.788,9.136
						c0.68,3.581,0.927,4.754,0.371,7.963c-0.555,3.21-0.555,6.049,3.828,8.889c4.382,2.84,11.853,5.741,15.618,5.741
						c3.765,0,6.296-1.42,14.631-6.419c8.333-5.001,7.097-11.051,6.851-11.853C135.467,71.143,135.28,69.97,135.28,69.97z"/>
					<path style="fill:#262212;" d="M123.846,59.743c-0.618-1.196-2.058-2.49-3.422-2.07c-1.574,0.484-2.007,2.027-2.406,3.458
						c-0.017,0.063,0.06,0.097,0.108,0.07c0.03,0.012,0.067,0.004,0.086-0.031c0.508-0.993,1.376-1.711,2.406-2.119
						c1.374-0.543,2.484,0.647,3.347,1.511c0.094,0.093,0.238-0.03,0.201-0.141C124.08,60.167,123.97,59.944,123.846,59.743z"/>
					<path style="fill:#262212;" d="M104.957,61.996c0.048-0.458-0.894-1.367-1.127-1.581c-0.595-0.551-1.301-0.86-2.106-0.573
						c-1.046,0.371-1.133,1.881-1.046,2.787c0.001,0.008,0.006,0.012,0.009,0.019c0.011,0.07,0.023,0.139,0.04,0.208
						c0.014,0.049,0.084,0.036,0.092-0.007c0.193-0.926,0.487-1.64,1.5-1.857c0.975-0.209,1.973,0.412,2.522,1.192
						C104.914,62.136,104.95,62.072,104.957,61.996z"/>
					<g>
						<path style="fill:#150E00;" d="M105.548,69.706c0.24,1.761-0.049,3.255-0.643,3.336c-0.596,0.081-1.274-1.281-1.514-3.041
							c-0.24-1.761,0.048-3.255,0.644-3.335C104.629,66.585,105.307,67.946,105.548,69.706z"/>
						<path style="fill:#FFFFFF;" d="M104.989,67.957c0.195,0.662,0.117,1.269-0.177,1.357c-0.294,0.087-0.692-0.38-0.89-1.041
							c-0.195-0.661-0.115-1.269,0.179-1.357C104.395,66.829,104.792,67.296,104.989,67.957z"/>
					</g>
					<g>
						<path style="fill:#150E00;" d="M122.255,68.078c0.026,1.778-0.44,3.225-1.041,3.234c-0.6,0.009-1.109-1.424-1.134-3.202
							c-0.027-1.776,0.439-3.223,1.04-3.233C121.721,64.868,122.228,66.302,122.255,68.078z"/>
						<path style="fill:#FFFFFF;" d="M121.912,66.274c0.114,0.681-0.037,1.274-0.34,1.325c-0.302,0.051-0.641-0.46-0.756-1.14
							c-0.114-0.681,0.038-1.274,0.34-1.325C121.457,65.083,121.796,65.593,121.912,66.274z"/>
					</g>
					<path style="fill:#33000C;" d="M105.439,81.243c0.144,0.181,0.351,0.484,0.627,0.994c0.603,1.112,1.622,3.519,2.594,3.981
						c0.972,0.464,3.471,1.251,6.249,0.694c2.777-0.555,5.974-2.222,7.223-3.147c1.25-0.926,1.25-1.898,1.389-2.732
						c0.116-0.698,0.425-3.729,0.251-5.295c-0.68,0.64-3.417,2.838-10.559,4.663C108.988,81.482,106.576,81.503,105.439,81.243z"/>
					<path style="fill:#FFFFFF;" d="M123.772,75.739c-0.68,0.64-3.417,2.838-10.559,4.663c-2.876,0.735-4.908,0.978-6.275,0.978
						c0.36,1.087,1.014,1.88,1.859,2.48c-0.221,0.769-0.269,1.538-0.222,2.308c0.028,0.017,0.057,0.037,0.086,0.051
						c0.972,0.464,3.471,1.251,6.249,0.694c2.777-0.555,5.974-2.222,7.223-3.147c1.25-0.926,1.25-1.898,1.389-2.732
						C123.637,80.336,123.946,77.305,123.772,75.739z"/>
					<path style="fill:#CCCAC7;" d="M123.772,75.739c-0.68,0.64-3.417,2.838-10.559,4.663c-2.876,0.735-4.908,0.978-6.275,0.978
						c0.36,1.087,1.014,1.88,1.859,2.48c-0.221,0.769-0.269,1.538-0.222,2.308c0.028,0.017,0.057,0.037,0.086,0.051
						c0.972,0.464,3.471,1.251,6.249,0.694c2.777-0.555,5.974-2.222,7.223-3.147c1.25-0.926,1.25-1.898,1.389-2.732
						C123.637,80.336,123.946,77.305,123.772,75.739z M121.418,83.214c-2.873,1.984-6.542,3.684-10.103,3.321
						c-0.882-0.089-1.845-0.462-1.734-1.441c0.105-0.922,0.015-0.943,0.792-1.081c5.093-0.524,9.296-2.372,10.856-3.009
						c0.36-0.147,1.514-0.705,1.769-0.102C123.343,81.723,121.961,82.839,121.418,83.214z M123.137,79.342
						c0.003,0.052-0.012,0.106-0.058,0.155c-1.049,1.115-2.918,1.712-4.326,2.231c-1.728,0.639-4.121,1.481-7.94,1.829
						c-0.407,0.036-1.272,0.131-1.643-0.116c-0.473-0.315-1.289-1.422-0.648-1.497c0.972-0.114,2.262-0.491,3.191-0.699
						c1.011-0.227,1.998-0.518,2.985-0.834c2.063-0.662,4.29-1.488,6.247-2.448c0.756-0.37,1.219-0.618,1.775-0.864
						C123.328,76.828,123.541,78.759,123.137,79.342z"/>
					<path style="fill:#93918D;" d="M108.796,83.86c0,0,6.02,0.323,13.845-3.752C122.641,80.108,115.091,85.065,108.796,83.86z"/>
				</g>
			</g>
		</g>
	</g>
	<g>
		<rect x="24.123" y="145.098" style="fill:#AFAD93;" width="80.283" height="2.189"/>
		<g>
			<polygon style="fill:#333433;" points="101.431,144.373 101.63,143.381 97.563,142.886 97.563,143.878 			"/>
			<polygon style="fill:#333433;" points="89.632,142.59 89.832,141.598 85.766,141.1 85.766,142.093 			"/>
			<polygon style="fill:#333433;" points="95.679,143.579 95.877,142.59 91.815,142.093 91.815,143.084 			"/>
			<polygon style="fill:#333433;" points="81.572,141.932 81.678,140.989 77.841,140.852 77.919,141.779 			"/>
			<polygon style="fill:#333433;" points="76.418,141.885 76.523,140.942 72.682,140.803 72.765,141.729 			"/>
			<polygon style="fill:#333433;" points="71.511,141.786 71.614,140.84 67.779,140.704 67.857,141.63 			"/>
			<polygon style="fill:#333433;" points="65.759,141.687 65.868,140.744 62.026,140.605 62.106,141.531 			"/>
			<polygon style="fill:#333433;" points="59.565,141.489 59.67,140.545 55.832,140.407 55.91,141.334 			"/>
			<polygon style="fill:#333433;" points="53.269,141.341 53.375,140.398 49.536,140.258 49.615,141.182 			"/>
			<polygon style="fill:#333433;" points="48.759,141.189 48.862,140.25 45.025,140.11 45.106,141.035 			"/>
			<g>
				<g>
					<g>
						<polygon style="fill:#454745;" points="101.485,145.116 102.775,146.037 42.813,144.793 40.056,142.033 83.411,142.279 						
							"/>
						<polygon style="fill:#6B6B6B;" points="83.981,142.361 83.228,141.484 40.056,140.577 40.056,142.033 82.981,143.294 						
							"/>
						
							<rect x="92.09" y="133.768" transform="matrix(0.1373 -0.9905 0.9905 0.1373 -62.1633 216.1498)" style="fill:#9A9997;" width="1.826" height="19.986"/>
					</g>
					<polygon style="fill:#333433;" points="82.957,144.175 82.726,146.619 82.032,146.654 35.506,144.769 35.77,142.26 					"/>
					<polygon style="fill:#9A9997;" points="82.032,144.175 82.032,146.686 34.578,144.769 34.843,142.26 					"/>
					<polygon style="fill:#6B6B6B;" points="82.032,144.175 82.097,145.465 34.613,142.886 34.843,142.26 					"/>
				</g>
				<polygon style="fill:#9A9997;" points="102.878,144.378 83.081,141.633 102.818,144.821 				"/>
			</g>
		</g>
		<g>
			<path style="fill:#7F7E7C;" d="M68.726,92.883c0,0,2.429-0.212,2.478,2.22c0.049,2.432-1.151,39.579-1.151,39.579
				s0.404,3.882-1.863,3.927l-49.356-0.947c0,0-4.211,0.302-4.549-3.153c-0.225-2.279-0.171-40.686-0.171-40.686
				s0.127-1.787,3.032-2.171L68.726,92.883z"/>
			<path style="fill:#454745;" d="M70.581,118.037c-0.269,8.752-0.527,16.645-0.527,16.645s0.404,3.882-1.863,3.927l-49.356-0.947
				c0,0-4.211,0.302-4.549-3.153c-0.095-0.956-0.14-8.29-0.161-16.472H70.581z"/>
			<g>
				<path style="fill:#9A9997;" d="M65.66,96.187l4.927-2.693c0.342,0.331,0.599,0.836,0.618,1.61
					c0.049,2.432-1.151,39.579-1.151,39.579s0.269,2.577-0.86,3.558l-5.028-3.441L65.66,96.187z"/>
				<path style="fill:#585958;" d="M14.115,93.823c0,0,0.072-0.966,1.267-1.631l0.857,2.507l0.59,39.976
					c0,0-0.925,0.922-1.721,1.748c-0.426-0.458-0.74-1.073-0.821-1.914C14.061,132.23,14.115,93.823,14.115,93.823z"/>
			</g>
			<g>
				<path style="fill:#6B6B6B;" d="M65.141,96.575c0,0,2.175-0.191,2.217,1.987c0.045,2.18-1.028,35.478-1.028,35.478
					s0.361,3.48-1.673,3.521l-44.241-0.849c0,0-3.774,0.268-4.078-2.825c-0.202-2.046-0.157-36.473-0.157-36.473
					s0.113-1.601,2.724-1.944L65.141,96.575z"/>
				<path style="opacity:0.4;fill:#6B6B6B;" d="M16.517,121.711c1.911,1.511,4.097,2.721,6.307,3.739
					c4.995,2.307,10.437,3.536,15.931,3.724c4.139,0.144,8.327-0.118,12.425-0.728c5.197-0.771,10.896-2.207,15.489-5.115
					c-0.185,5.998-0.338,10.709-0.338,10.709s0.361,3.48-1.673,3.521l-44.241-0.849c0,0-3.774,0.268-4.078-2.825
					c-0.076-0.767-0.116-6.085-0.137-12.433C16.306,121.541,16.414,121.625,16.517,121.711z"/>
				<path style="opacity:0.5;fill:#9A9997;" d="M65.759,109.202c-0.529-1.2-1.105-2.395-1.804-3.507
					c-0.586-0.931-1.22-1.553-2.191-2.093c-1.865-1.049-3.989-1.595-6.091-1.944c-2.276-0.375-4.584-0.54-6.892-0.624
					c-2.273-0.083-4.547-0.092-6.819-0.182c-3.059-0.118-6.119-0.313-9.18-0.29c-2.867,0.023-5.883,0.139-8.659,0.907
					c-1.818,0.503-3.396,1.556-4.509,3.086c-1.241,1.708-1.945,3.711-2.415,5.787c-0.004-6.285,0.003-11.347,0.003-11.347
					s0.11-1.536,2.616-1.866l44.431,1.058c0,0,2.093-0.182,2.135,1.914c0.015,0.706-0.093,4.83-0.244,9.985
					C66.016,109.789,65.89,109.493,65.759,109.202z"/>
				<polygon style="opacity:0.6;fill:#565756;" points="32.728,115.557 33.372,113.691 50.325,113.394 49.83,116.616 49.25,136.971 
					49.978,138.129 31.835,138.129 				"/>
				<g>
					<path style="fill:#9A9997;" d="M27.35,123.186c1.202-4.78,2.542-7.944,6.195-9.206l16.201-0.324l-2.864,2.759l-2.889,6.759
						c0,0-1.303,15.803-1.124,19.154c0.175,3.344,2.566,4.106,2.566,4.106s-15.913,0.379-15.962,0.379c0,0-1.529-0.046-2.363-0.709
						c-0.464-0.362-0.768-0.905-0.952-1.712C25.564,141.809,26.151,127.965,27.35,123.186z"/>
					<path style="opacity:0.2;fill:#9A9997;" d="M44.872,121.122l-17.058,0.343c1.109-3.822,2.538-6.382,5.731-7.485l16.201-0.324
						l-2.864,2.759L44.872,121.122z"/>
					<path style="opacity:0.2;fill:#9A9997;" d="M42.862,140.665c-0.014,0.695-0.014,1.265,0.008,1.663
						c0.175,3.344,2.566,4.106,2.566,4.106s-15.913,0.379-15.962,0.379c0,0-1.529-0.046-2.363-0.709
						c-0.464-0.362-0.768-0.905-0.952-1.712c-0.139-0.602-0.214-1.816-0.23-3.386L42.862,140.665z"/>
					<path style="fill:#515251;" d="M43.393,144.472c0.754,1.549,2.043,1.961,2.043,1.961s-15.913,0.379-15.962,0.379
						c0,0-1.529-0.046-2.363-0.709c-0.449-0.349-0.746-0.87-0.933-1.631H43.393z"/>
					<path style="fill:#7F7E7C;" d="M49.358,115.824c0,0-4.372,2.789-4.954,11.448c-0.583,8.659-1.612,16.678,0.357,17.719
						c1.965,1.04,11.244,0.311,11.244,0.311l0.131,1.08l-10.375,0.1c0,0-2.807,0.166-3.398-2.414
						c-0.591-2.584-0.006-16.43,1.194-21.21c1.202-4.78,2.543-7.938,6.189-9.201L49.358,115.824z"/>
				</g>
			</g>
			<path style="fill:#FFFFFF;" d="M68.945,93.549c1.172,0.25,1.575,1.19,1.713,1.843c0.081,0.339,0.138,0.815,0.138,1.496
				c0,2.378-1.089,37.969-1.089,37.969s0,2.477-0.793,2.477c0,0,0.397-0.792,0.397-3.27c0-2.48,0.792-36.584,0.792-36.584
				s-0.056-1.259-0.328-1.989c-0.084-0.174-0.185-0.326-0.303-0.459c-0.021-0.012-0.042-0.022-0.062-0.029
				c-0.163-0.054-0.183-0.109-0.129-0.158c-0.782-0.674-1.923-0.636-1.923-0.636L16.867,92.23
				C16.867,92.23,67.095,93.154,68.945,93.549z"/>
			<path style="fill:#FFFFFF;" d="M49.746,113.656c0,0-4.169,1.043-5.588,6.246c-1.908,7.015-1.418,8.506-1.864,15.351
				c0,0,0.743-10.508,2.627-15.814C46.757,114.271,49.746,113.656,49.746,113.656z"/>
		</g>
	</g>
	<g>
		<rect x="14.954" y="25.585" style="fill:#BFE4F0;" width="52.663" height="51.258"/>
		<rect x="12.769" y="22.963" style="fill:#788093;" width="52.666" height="51.258"/>
		<rect x="16.215" y="26.317" style="fill:#FDF5EA;" width="45.773" height="44.551"/>
		<g>
			<g>
				<g>
					<path style="fill:#A5DCBF;" d="M58.269,51.519L54.921,41.2c-0.051-0.155-0.133-0.291-0.238-0.405l0,0
						c-0.034-0.043-0.079-0.082-0.131-0.121c-0.12-0.092-0.259-0.16-0.407-0.199c-1.093-0.389-3.363-0.468-4.392-0.483v-0.003
						h-0.528v0.003c-1.029,0.015-3.299,0.094-4.391,0.483c-0.148,0.039-0.286,0.106-0.405,0.199
						c-0.054,0.039-0.099,0.079-0.134,0.121l0,0c-0.105,0.114-0.188,0.25-0.238,0.405l-3.349,10.319
						c-0.189,0.582,0.137,1.209,0.728,1.4c0.59,0.192,1.22-0.123,1.409-0.705l2.637-8.121c0,0,0.216,6.933,0.216,7.034v13.011
						c0,0.877,0.649,1.586,1.454,1.586s1.457-0.71,1.457-1.586V53.45c0,0,0.001-0.577,0.881-0.588
						c0.879,0.011,0.881,0.588,0.881,0.588v10.688c0,0.877,0.653,1.586,1.455,1.586c0.806,0,1.456-0.71,1.456-1.586V51.127
						c0-0.101,0.215-7.034,0.215-7.034l2.637,8.121c0.189,0.582,0.821,0.897,1.409,0.705C58.133,52.728,58.459,52.101,58.269,51.519
						z"/>
					<g>
						<path style="fill:#19A7C3;" d="M51.95,41.54c-1.052-0.308-1.319,0.837-1.321,0.842c-0.002-0.004-0.274-1.149-1.323-0.842
							c-1.052,0.309-1.449,1.907,1.323,3.479l0,0l0,0l0,0l0,0C53.4,43.447,53.001,41.849,51.95,41.54z"/>
						<path style="fill:#EE0007;" d="M51.875,41.537c-0.989-0.291-1.244,0.789-1.246,0.794c-0.002-0.005-0.257-1.085-1.247-0.794
							c-0.993,0.291-1.368,1.797,1.247,3.279l0,0l0,0l0,0l0,0C53.241,43.334,52.866,41.828,51.875,41.537z"/>
					</g>
				</g>
				<g>
					<path style="fill:#A5DCBF;" d="M54.36,34.831c0,2.69-2.181,4.869-4.871,4.869s-4.871-2.18-4.871-4.869
						c0-2.69,2.181-4.87,4.871-4.87S54.36,32.141,54.36,34.831z"/>
					<path style="fill:#A5DCBF;" d="M49.489,29.961c-2.69,0-4.871,2.18-4.871,4.87c0,2.69,2.181,4.869,4.871,4.869
						s4.871-2.18,4.871-4.869C54.36,32.141,52.178,29.961,49.489,29.961z M49.489,39.292c-2.534,0-4.587-2.053-4.587-4.587
						c0-2.534,2.054-4.588,4.587-4.588s4.588,2.054,4.588,4.588C54.077,37.239,52.022,39.292,49.489,39.292z"/>
					<g>
						<path style="opacity:0.5;fill:#242424;" d="M47.038,36.181c0.086,1.289,1.152,2.309,2.455,2.309
							c1.304,0,2.371-1.023,2.455-2.315C50.312,36.177,48.676,36.18,47.038,36.181z"/>
						<path style="fill:#FFFFFF;" d="M47.024,36.116c0.087,1.29,1.151,2.309,2.453,2.309c1.304,0,2.373-1.022,2.455-2.315
							C50.297,36.111,48.661,36.114,47.024,36.116z"/>
					</g>
					<g>
						<path style="opacity:0.5;fill:#242424;" d="M48.497,34.315c0,0.215-0.174,0.39-0.388,0.39c-0.215,0-0.389-0.175-0.389-0.39
							s0.174-0.389,0.389-0.389C48.323,33.926,48.497,34.101,48.497,34.315z"/>
						<path style="opacity:0.5;fill:#242424;" d="M51.266,34.315c0,0.215-0.175,0.39-0.39,0.39c-0.215,0-0.388-0.175-0.388-0.39
							s0.173-0.389,0.388-0.389C51.091,33.926,51.266,34.101,51.266,34.315z"/>
						<path style="fill:#FFFFFF;" d="M48.484,34.249c0,0.216-0.175,0.39-0.39,0.39c-0.214,0-0.389-0.174-0.389-0.39
							c0-0.215,0.175-0.389,0.389-0.389C48.31,33.861,48.484,34.035,48.484,34.249z"/>
						<path style="fill:#FFFFFF;" d="M51.253,34.249c0,0.216-0.175,0.39-0.39,0.39c-0.216,0-0.39-0.174-0.39-0.39
							c0-0.215,0.174-0.389,0.39-0.389C51.078,33.861,51.253,34.035,51.253,34.249z"/>
					</g>
				</g>
				<g style="opacity:0.5;">
					<path style="fill:#242424;" d="M45.508,64.074c0.007,0.068,0.017,0.135,0.028,0.197C45.497,63.896,45.476,63.733,45.508,64.074
						z"/>
				</g>
			</g>
		</g>
		<g>
			<rect x="27.162" y="30.034" style="fill:#A5DCBF;" width="3.568" height="10.193"/>
			<rect x="23.849" y="33.346" style="fill:#A5DCBF;" width="10.193" height="3.569"/>
		</g>
		<g>
			<rect x="19.879" y="44.205" style="fill:#A5DCBF;" width="17.439" height="2.306"/>
			<rect x="19.879" y="48.307" style="fill:#A5DCBF;" width="7.072" height="2.309"/>
			<rect x="19.879" y="52.41" style="fill:#A5DCBF;" width="13.372" height="2.308"/>
			<rect x="19.879" y="56.513" style="fill:#A5DCBF;" width="6.26" height="2.308"/>
			<rect x="19.879" y="60.616" style="fill:#A5DCBF;" width="17.439" height="2.309"/>
		</g>
	</g>
	<rect style="fill:none;" width="232.713" height="232.712"/>
</g>
</svg>
