<?xml version="1.0" encoding="utf-8"?>
<!-- Generator: Adobe Illustrator 27.5.0, SVG Export Plug-In . SVG Version: 6.00 Build 0)  -->
<svg version="1.1" xmlns="http://www.w3.org/2000/svg" xmlns:xlink="http://www.w3.org/1999/xlink" x="0px" y="0px"
	 viewBox="0 0 500 500" style="enable-background:new 0 0 500 500;" xml:space="preserve">
<g id="BACKGROUND">
	<rect style="fill:#FFFFFF;" width="500" height="500"/>
</g>
<g id="OBJECTS">
	<g>
		<defs>
			<rect id="SVGID_1_" width="500" height="500"/>
		</defs>
		<clipPath id="SVGID_00000046325933441324293120000004496174167427536011_">
			<use xlink:href="#SVGID_1_"  style="overflow:visible;"/>
		</clipPath>
		<g style="clip-path:url(#SVGID_00000046325933441324293120000004496174167427536011_);">
			<rect y="433.496" style="fill:#C4D0E6;" width="500" height="7.675"/>
			<g>
				<rect x="257.248" y="425.769" style="fill:#9CA6B8;" width="8.913" height="15.453"/>
				<rect x="336.191" y="425.769" style="fill:#9CA6B8;" width="8.913" height="15.453"/>
			</g>
			<rect x="250" y="299.375" style="fill:#D8E8FB;" width="102.352" height="134.12"/>
			<g>
				<rect x="255.904" y="305.767" style="fill:#F3F7FB;" width="90.545" height="26.123"/>
				<path style="fill:#9CA6B8;" d="M305.431,319.099c0,2.35-1.905,4.255-4.255,4.255c-2.35,0-4.255-1.905-4.255-4.255
					c0-2.35,1.905-4.255,4.255-4.255C303.526,314.844,305.431,316.749,305.431,319.099z"/>
			</g>
			<g>
				<rect x="255.904" y="337.276" style="fill:#F3F7FB;" width="90.545" height="26.123"/>
				<circle style="fill:#9CA6B8;" cx="301.176" cy="350.608" r="4.255"/>
			</g>
			<g>
				<rect x="255.904" y="368.785" style="fill:#F3F7FB;" width="90.545" height="26.123"/>
				<circle style="fill:#9CA6B8;" cx="301.176" cy="382.117" r="4.255"/>
			</g>
			<g>
				<rect x="255.904" y="400.294" style="fill:#F3F7FB;" width="90.545" height="26.123"/>
				<circle style="fill:#9CA6B8;" cx="301.176" cy="413.626" r="4.255"/>
			</g>
			<rect x="261.189" y="279.877" style="fill:#9CA6B8;" width="18.689" height="19.499"/>
			<path style="fill:#9CA6B8;" d="M331.45,299.375h-7.875c-2.739,0-4.96-2.221-4.96-4.96v-8.275h17.796v8.275
				C336.41,297.155,334.189,299.375,331.45,299.375z"/>
			<rect x="259.853" y="275.521" style="fill:#9CA6B8;" width="21.361" height="5.819"/>
			<polygon style="fill:#9CA6B8;" points="308.547,294.329 308.547,283.443 306.547,283.443 306.547,294.329 302.76,294.329 
				302.76,283.443 300.76,283.443 300.76,294.329 296.973,294.329 296.973,283.443 294.973,283.443 294.973,294.329 
				291.185,294.329 291.185,283.443 289.185,283.443 289.185,294.329 286.741,294.329 286.741,299.375 310.991,299.375 
				310.991,294.329 			"/>
			<g>
				<g>
					<rect x="37.962" y="124.73" style="fill:#D8E8FB;" width="206.51" height="148.08"/>
					<g>
						<polygon style="fill:#E6F1FF;" points="123.582,272.81 76.902,272.81 37.962,233.88 37.962,187.19 						"/>
						<polygon style="fill:#E6F1FF;" points="170.812,272.81 144.972,272.81 37.962,165.79 37.962,139.95 						"/>
					</g>
					<g>
						<polygon style="fill:#E6F1FF;" points="244.472,208.39 244.472,255.09 114.122,124.73 160.812,124.73 						"/>
						<polygon style="fill:#E6F1FF;" points="244.472,161.16 244.472,187 182.192,124.73 208.032,124.73 						"/>
					</g>
				</g>
				<rect x="137.606" y="124.727" style="fill:#FFFFFF;" width="7.222" height="148.099"/>
				
					<rect x="137.606" y="95.522" transform="matrix(-1.836970e-16 1 -1 -1.836970e-16 339.9941 57.5599)" style="fill:#FFFFFF;" width="7.222" height="206.51"/>
			</g>
			<path style="fill:#D8E8FB;" d="M289.068,184.694c0,6.282,5.093,11.375,11.375,11.375h12.48v18.937h6.751v-18.937h127.247v18.937
				h6.751v-18.937h12.481c6.282,0,11.375-5.093,11.375-11.375H289.068z"/>
			<path style="fill:#9CA6B8;" d="M451.509,149.612h3.665c1.484,0,2.687,1.203,2.687,2.687v29.734c0,1.484-1.203,2.687-2.687,2.687
				h-3.665c-1.484,0-2.687-1.203-2.687-2.687v-29.734C448.822,150.815,450.025,149.612,451.509,149.612z"/>
			<path style="fill:#9CA6B8;" d="M411.214,182.18v-3.665c0-1.484,1.203-2.687,2.687-2.687h29.734c1.484,0,2.687,1.203,2.687,2.687
				v3.665c0,1.484-1.203,2.687-2.687,2.687h-29.734C412.417,184.867,411.214,183.664,411.214,182.18z"/>
			<path style="fill:#9CA6B8;" d="M404.868,173.13v-3.665c0-1.484,1.203-2.687,2.687-2.687h29.734c1.484,0,2.687,1.203,2.687,2.687
				v3.665c0,1.484-1.203,2.687-2.687,2.687h-29.734C406.072,175.817,404.868,174.614,404.868,173.13z"/>
			<path style="fill:#9CA6B8;" d="M372.931,155.865h-19.018v23.274c0,3.068,2.487,5.555,5.555,5.555h7.907
				c3.068,0,5.555-2.487,5.555-5.555V155.865z"/>
			<path style="fill:#9CA6B8;" d="M351.075,170.279h-9.509v11.637c0,1.534,1.243,2.778,2.777,2.778h3.954
				c1.534,0,2.778-1.244,2.778-2.778V170.279z"/>
			<rect x="130.923" y="124.727" style="fill:#FFFFFF;" width="7.222" height="148.099"/>
			<rect x="130.923" y="124.727" style="fill:#FFFFFF;" width="7.222" height="148.099"/>
			<g>
				<path style="fill:#9CA6B8;" d="M310.751,120.946c-0.659-0.265-1.479,0.17-2.055,1l-3.64-1.461
					c0.493-1.696,0.425-3.444-0.104-5.03l1.57-0.671c0.487,0.671,1.168,1.013,1.705,0.784c0.682-0.291,0.868-1.386,0.415-2.445
					c-0.452-1.059-1.372-1.681-2.053-1.39c-0.537,0.229-0.76,0.958-0.613,1.774l-1.57,0.671c-0.78-1.479-1.996-2.737-3.562-3.553
					l1.461-3.64c0.997,0.158,1.878-0.134,2.143-0.793c0.336-0.837-0.446-1.94-1.747-2.462c-1.301-0.522-2.628-0.267-2.965,0.571
					c-0.265,0.66,0.171,1.479,1,2.055l-1.461,3.64c-1.696-0.493-3.444-0.425-5.03,0.104l-0.671-1.569
					c0.671-0.488,1.013-1.168,0.784-1.705c-0.291-0.682-1.386-0.868-2.445-0.415s-1.681,1.372-1.39,2.053
					c0.229,0.537,0.958,0.76,1.773,0.612l0.671,1.57c-1.479,0.78-2.736,1.996-3.553,3.562l-3.64-1.461
					c0.158-0.997-0.134-1.878-0.793-2.143c-0.837-0.336-1.94,0.446-2.462,1.747c-0.522,1.301-0.267,2.628,0.571,2.965
					c0.66,0.265,1.479-0.17,2.054-1l3.64,1.461c-0.493,1.696-0.425,3.443,0.104,5.03l-1.57,0.671
					c-0.487-0.671-1.168-1.013-1.705-0.784c-0.682,0.291-0.867,1.386-0.415,2.445c0.452,1.059,1.372,1.682,2.053,1.39
					c0.537-0.229,0.76-0.958,0.612-1.774l1.57-0.67c0.78,1.479,1.996,2.737,3.562,3.553l-1.461,3.64
					c-0.997-0.158-1.879,0.133-2.143,0.793c-0.336,0.837,0.446,1.94,1.747,2.462c1.301,0.522,2.629,0.267,2.965-0.571
					c0.265-0.659-0.17-1.479-1-2.054l1.461-3.64c1.696,0.493,3.444,0.425,5.03-0.104l0.67,1.57
					c-0.671,0.487-1.013,1.168-0.784,1.705c0.291,0.682,1.386,0.867,2.445,0.415c1.059-0.452,1.681-1.372,1.39-2.053
					c-0.229-0.537-0.958-0.76-1.774-0.612l-0.671-1.57c1.479-0.78,2.737-1.996,3.553-3.562l3.64,1.461
					c-0.158,0.997,0.134,1.878,0.793,2.143c0.837,0.336,1.94-0.446,2.462-1.747C311.844,122.609,311.589,121.282,310.751,120.946z"
					/>
				<path style="fill:#D8E8FB;" d="M296.921,90.504c-15.233,0-27.626,12.393-27.626,27.627s12.393,27.626,27.626,27.626
					c15.233,0,27.626-12.393,27.626-27.626S312.154,90.504,296.921,90.504z M296.921,94.731c5.597,0,10.739,1.977,14.77,5.267
					l-32.903,32.903c-3.29-4.031-5.267-9.174-5.267-14.77C273.522,105.228,284.019,94.731,296.921,94.731z M296.921,141.53
					c-5.787,0-11.086-2.116-15.175-5.609l32.965-32.965c3.493,4.089,5.61,9.388,5.61,15.175
					C320.321,131.033,309.824,141.53,296.921,141.53z"/>
			</g>
			<g>
				<g>
					
						<line style="fill:none;stroke:#D8E8FB;stroke-width:2;stroke-miterlimit:10;" x1="111.159" y1="49.825" x2="111.159" y2="-2.224"/>
					<path style="fill:#9CA6B8;" d="M111.159,102.403L111.159,102.403c-4.583,0-8.298-3.715-8.298-8.298v-8.299h16.597v8.299
						C119.457,98.688,115.742,102.403,111.159,102.403z"/>
					<path style="fill:#D8E8FB;" d="M143.041,90.646H79.277v0c0-17.145,13.899-31.044,31.044-31.044h1.676
						C129.142,59.601,143.041,73.5,143.041,90.646L143.041,90.646z"/>
					<rect x="101.796" y="53.516" style="fill:#D8E8FB;" width="18.725" height="15.522"/>
					<path style="fill:#D8E8FB;" d="M115.083,59.017h-7.849v-9.088c0-2.167,1.757-3.924,3.924-3.924l0,0
						c2.167,0,3.924,1.757,3.924,3.924V59.017z"/>
				</g>
				<g>
					
						<line style="fill:none;stroke:#D8E8FB;stroke-width:2;stroke-miterlimit:10;" x1="388.841" y1="49.825" x2="388.841" y2="-2.224"/>
					<path style="fill:#9CA6B8;" d="M388.841,102.403L388.841,102.403c-4.583,0-8.298-3.715-8.298-8.298v-8.299h16.597v8.299
						C397.14,98.688,393.424,102.403,388.841,102.403z"/>
					<path style="fill:#D8E8FB;" d="M420.723,90.646h-63.764v0c0-17.145,13.899-31.044,31.044-31.044h1.676
						C406.824,59.601,420.723,73.5,420.723,90.646L420.723,90.646z"/>
					<rect x="379.479" y="53.516" style="fill:#D8E8FB;" width="18.725" height="15.522"/>
					<path style="fill:#D8E8FB;" d="M392.766,59.017h-7.849v-9.088c0-2.167,1.757-3.924,3.924-3.924l0,0
						c2.167,0,3.924,1.757,3.924,3.924V59.017z"/>
				</g>
			</g>
			<g>
				<g>
					<path style="fill:#BAD7FB;" d="M62.553,385.661c-0.787-4.188-3.131-7.969-6.092-11.034c-2.487-2.574-5.658-5.198-5.653-8.777
						c0.005-3.997,3.939-6.704,5.936-10.167c2.418-4.193,1.675-10.006-1.826-13.349c-3.501-3.343-9.461-3.776-13.322-0.857
						c-3.861,2.919-5.038,8.9-2.449,12.991c1.252,1.979,3.282,3.612,3.624,5.928c0.315,2.139-0.953,4.213-2.51,5.713
						c-1.557,1.5-3.44,2.643-4.912,4.227c-3.097,3.333-3.948,8.568-2.066,12.711c1.576,3.47,4.714,5.919,7.269,8.746
						c2.555,2.827,4.672,6.693,3.519,10.325c-1.185,3.734-5.265,5.648-7.659,8.749c-2.151,2.786-2.846,6.637-1.804,9.999
						c1.042,3.362,3.792,6.146,7.142,7.227l2.138-1.74c2.372-0.436,4.793-0.889,6.898-2.066c2.105-1.177,3.876-3.228,4.064-5.633
						c0.311-3.99-3.648-7.394-3.293-11.38c0.19-2.135,1.609-3.965,3.2-5.402c1.591-1.436,3.415-2.624,4.837-4.228
						C62.421,394.459,63.34,389.85,62.553,385.661z"/>
					<g>
						<path style="fill:#D8E8FB;" d="M45.502,414.618c-0.074-3.494,1.586-6.982,4.344-9.127c2.94-2.287,7.177-3.314,8.722-6.703
							c1.269-2.785,0.135-6.058-1.334-8.742c-1.531-2.796-3.434-5.414-4.523-8.409c-1.089-2.995-1.234-6.58,0.637-9.161
							c1.887-2.604,5.252-3.542,8.242-4.723c2.991-1.182,6.173-3.26,6.483-6.46c0.266-2.754-1.725-5.205-2.199-7.931
							c-0.484-2.787,0.751-5.744,2.92-7.559c3.438-2.877,8.905-2.682,12.432,0.085c3.527,2.767,5.047,7.677,4.184,12.076
							c-0.863,4.399-3.894,8.213-7.738,10.519c-2.101,1.26-4.588,2.252-5.748,4.41c-1.098,2.042-0.669,4.554,0.034,6.763
							c1.342,4.218,3.578,8.153,4.465,12.49c0.887,4.337,0.043,9.482-3.596,12.004c-2.518,1.745-6.096,2.067-7.839,4.586
							c-2.769,4.002,1.357,9.992-1.069,14.21c-2.357,4.099-8.438,3.322-12.167,1.864C47.996,423.342,45.583,418.444,45.502,414.618z
							"/>
						<path style="fill:none;stroke:#FFFFFF;stroke-width:1.0282;stroke-miterlimit:10;" d="M56.501,423.083
							c-3.024-2.793-3.805-7.72-1.791-11.311c1.569-2.797,4.436-4.561,7.07-6.392c2.634-1.83,5.301-4.075,6.06-7.192
							c0.882-3.622-1.053-7.271-2.923-10.496c-1.87-3.225-3.813-6.867-2.947-10.492c0.632-2.648,2.669-4.728,4.828-6.385
							c2.159-1.658,4.548-3.061,6.38-5.074c3.273-3.594,4.356-9.039,2.71-13.612"/>
					</g>
					<g>
						<path style="fill:#D8E8FB;" d="M29.85,352.542c1.773,2.776,1.879,6.532,0.267,9.405c-0.67,1.194-1.623,2.273-1.918,3.61
							c-0.453,2.053,0.814,4.159,2.502,5.412c1.688,1.253,3.75,1.865,5.706,2.634c2.781,1.092,5.471,2.578,7.484,4.785
							c2.013,2.208,3.281,5.219,2.909,8.183c-0.486,3.875-3.62,7.186-3.495,11.089c0.111,3.473,2.745,6.268,5.142,8.784
							c2.397,2.516,4.874,5.548,4.556,9.009c-0.186,2.022-1.346,3.859-2.844,5.229c-3.425,3.132-8.753,3.951-12.993,2.062
							c-4.24-1.888-7.183-6.346-7.334-10.984c-0.17-5.206,2.842-10.451,1.308-15.429c-1.123-3.645-4.395-6.123-7.35-8.535
							c-2.955-2.412-5.972-5.402-6.208-9.209c-0.153-2.464,0.905-4.816,1.719-7.147c0.814-2.331,1.382-4.981,0.308-7.204
							c-1.098-2.273-3.629-3.506-5.039-5.6c-1.448-2.15-1.496-5.156-0.117-7.351C17.798,345.968,26.853,347.848,29.85,352.542z"/>
						<path style="fill:none;stroke:#FFFFFF;stroke-width:1.0282;stroke-miterlimit:10;" d="M45.499,418.233
							c-3.652-0.501-6.187-4.126-6.839-7.754c-0.652-3.628,0.107-7.338,0.492-11.004c0.385-3.666,0.323-7.626-1.718-10.696
							c-2.649-3.984-7.99-5.518-10.617-9.517c-2.189-3.334-2.024-7.621-1.954-11.609c0.071-3.988-0.187-8.379-2.92-11.283"/>
					</g>
				</g>
				<path style="fill:#9CA6B8;" d="M67.98,410.773H48.238h-1.362H27.133c-1.582,5.616-1.301,11.753,0.79,17.197
					c2.09,5.443,5.976,10.161,10.889,13.22h8.063h1.362h8.063c4.913-3.059,8.799-7.777,10.889-13.22
					C69.281,422.527,69.562,416.39,67.98,410.773z"/>
			</g>
		</g>
		<g style="clip-path:url(#SVGID_00000046325933441324293120000004496174167427536011_);">
			<g>
				<rect x="229.625" y="322.707" style="fill:#2F2A53;" width="5.991" height="118.483"/>
				<rect x="271.654" y="322.707" style="fill:#2F2A53;" width="5.991" height="118.483"/>
				
					<rect x="250.956" y="362.08" transform="matrix(-1.836970e-16 1 -1 -1.836970e-16 638.3806 129.9319)" style="fill:#2F2A53;" width="6.538" height="44.152"/>
			</g>
			<g>
				<path style="fill:#748BE9;" d="M276.81,327.859H52.763c-2.845,0-5.152-2.307-5.152-5.152l0,0h234.351l0,0
					C281.962,325.553,279.655,327.859,276.81,327.859z"/>
				<path style="fill:#2F2A53;" d="M283.462,325.013H46.111c-2.843,0-5.147-2.304-5.147-5.147l0,0c0-2.843,2.305-5.147,5.147-5.147
					h237.351c2.843,0,5.147,2.304,5.147,5.147l0,0C288.609,322.708,286.305,325.013,283.462,325.013z"/>
			</g>
			<g>
				<rect x="54.333" y="322.707" style="fill:#2F2A53;" width="5.991" height="118.483"/>
				<rect x="96.362" y="322.707" style="fill:#2F2A53;" width="5.991" height="118.483"/>
				
					<rect x="75.663" y="362.08" transform="matrix(-1.836970e-16 1 -1 -1.836970e-16 463.088 305.2244)" style="fill:#2F2A53;" width="6.538" height="44.152"/>
			</g>
		</g>
		<g style="clip-path:url(#SVGID_00000046325933441324293120000004496174167427536011_);">
			<g>
				<path style="fill:#FF5754;" d="M431.316,396.295c-3.613,2.312-7.171,4.677-11.006,6.616c-0.943,0.477-1.919,0.846-2.908,1.128
					l21.733,23.677c1.88,2.052,5.031,2.463,7.393,0.845c2.588-1.772,3.249-5.307,1.477-7.895L431.316,396.295z"/>
			</g>
			<g>
				<polygon style="fill:#27A4AB;" points="433.711,433.496 433.582,440.156 438.989,439.926 440.96,438.864 437.592,434.315 				
					"/>
				<path style="fill:#27A4AB;" d="M430.29,432.319c-4.184,1.395-6.7,4.267-8.049,6.367c-0.925,1.41,0.008,2.478,0.008,2.478
					l11.852,0.008v-10.443C432.986,431.296,431.737,431.834,430.29,432.319z"/>
				<path style="fill:#27A4AB;" d="M446.188,415.676c-0.852-0.756-1.522-1.168-1.849-1.024c-0.456,0.22-0.884,0.959-1.254,1.908
					c-1.168,2.937-4.014,4.914-7.176,4.947c-1.485,0.016-2.594,0.418-2.278,1.71c0.075,0.354,0.161,0.707,0.241,1.088
					c0.021,0.075,0.043,0.161,0.048,0.241c0.134,0.724,0.252,1.495,0.284,2.331c0.016,0.08,0.011,0.161,0.021,0.246
					c0.077,1.883-0.16,4.08-1.002,6.664l7.384,7.384l14.851-14.831c0,0-0.616-0.798-1.559-1.977
					c-0.67-0.841-1.501-1.876-2.406-2.953c-0.413-0.499-0.841-1.002-1.265-1.501c-0.305-0.348-0.605-0.691-0.906-1.034
					c-0.434-0.477-0.858-0.954-1.27-1.377c-0.064-0.075-0.134-0.145-0.198-0.209C447.254,416.667,446.686,416.11,446.188,415.676z"
					/>
				<path style="fill:#F2F2F2;" d="M422.242,438.681c-0.93,1.414-0.001,2.482-0.001,2.482l11.86,0.01v-2.492H422.242z"/>
				<path style="fill:#F2F2F2;" d="M453.897,424.36l-15.05,15.05l1.762,1.762l15.125-15.1
					C455.734,426.072,455.026,425.347,453.897,424.36z"/>
				<path style="fill:#F2F2F2;" d="M437.389,424.369l0.199,1.603c0.035,0.269-0.164,0.515-0.427,0.544l-2.955,0.357
					c-0.035-0.831-0.152-1.603-0.281-2.329c-0.012-0.082-0.035-0.164-0.053-0.24l2.973-0.363
					C437.114,423.907,437.366,424.1,437.389,424.369z"/>
				<path style="fill:#F2F2F2;" d="M447.855,417.289c0.064,0.064,0.134,0.134,0.198,0.209l-0.461,0.589
					c-0.166,0.22-0.482,0.257-0.686,0.086l-1.276-0.997c-0.22-0.166-0.252-0.477-0.086-0.686l0.643-0.815
					C446.686,416.11,447.254,416.667,447.855,417.289z"/>
				<polygon style="fill:#F2F2F2;" points="434.101,438.681 440.748,438.681 440.609,441.172 433.224,441.172 				"/>
			</g>
			<polygon style="fill:#27A4AB;" points="376.357,326.197 392.123,381.949 422.665,415.676 438.847,402.25 412.773,365.527 
				406.667,314.719 386.929,315.352 			"/>
			<path style="fill:#1B141C;" d="M423.004,191.799c-0.207-1.883-1.074-3.644-2.195-5.17c-0.46-0.626-0.829-1.259-1.602-1.34
				c0.721-0.328,1.188-1.098,1.258-1.888c0.071-0.789-0.217-1.583-0.684-2.224c-0.466-0.641-0.924-1.203-1.596-1.622
				c0.985-1.96,0.63-4.512-0.852-6.129c-1.482-1.617-3.971-2.012-6.01-1.202c0.197-0.89-0.058-1.867-0.664-2.548
				c-0.606-0.68-1.375-0.951-2.281-0.858c0.432-2.122-0.878-4.38-2.818-5.343c-1.94-0.962-4.339-0.732-6.244,0.298
				c-1.649,0.891-2.885,2.597-3.236,4.439c-0.544-0.645-1.489-0.918-2.293-0.664c-0.804,0.254-1.334,0.916-1.408,1.756
				c-1.505-1.185-3.586-1.6-5.43-1.082c-1.844,0.518-3.405,1.954-4.074,3.749c-0.669,1.795-0.259,3.902,0.797,5.5
				c-1.05,0.257-1.881,1.238-1.962,2.316c-0.081,1.078,0.739,2.203,1.739,2.614c-1.402,0.39-2.565,1.547-2.961,2.947
				c-0.396,1.4-0.012,2.995,0.979,4.061c0.99,1.066,2.552,1.567,3.978,1.275l24.874,9.029c0.816,0.937,2.181,1.355,3.382,1.037
				c1.201-0.318,2.221-1.365,2.466-2.582c1.715,0.803,3.887,0.24,5.207-1.118C422.696,195.694,423.212,193.682,423.004,191.799z"/>
			<rect x="392.857" y="204.321" style="fill:#FF5754;" width="15.85" height="21.37"/>
			<path style="fill:#DA2727;" d="M392.857,204.321v6.61c3.61,0.15,11.89-0.23,15.26-6.58l-2.32-0.03H392.857z"/>
			<path style="fill:#FF5754;" d="M378.087,288.935h43.39l1.728-58.889c0.156-5.3-2.735-10.016-7.097-11.495l-15.612-5.297
				l-16.888,5.394c-4.438,1.418-7.403,6.174-7.246,11.541L378.087,288.935z"/>
			<path style="fill:#D06C54;" d="M382.774,323.927h34.016c4.649,0,8.088-6.036,7.367-12.813l-2.796-26.288h-43.157l-2.796,26.288
				C374.686,317.891,378.125,323.927,382.774,323.927z"/>
			<g>
				<path style="fill:#FF5754;" d="M396.932,226.406c-0.816-5.516-5.949-9.327-11.465-8.511c-4.219,0.624-8.346,1.574-12.458,2.575
					c-4.098,1.053-8.178,2.167-12.217,3.427c-2.025,0.611-4.047,1.232-6.057,1.896c-2.017,0.639-4.024,1.316-6.026,2.008
					c-0.961,0.333-1.92,0.671-2.878,1.012l-10.84-43.032c-0.527-2.102-2.502-3.587-4.738-3.425
					c-2.505,0.182-4.388,2.359-4.207,4.864l4.008,55.299c4.623-0.852,8.253,3.474,10.557,8.029l1.279-0.195
					c4.214-0.642,8.367-1.497,12.506-2.406c2.069-0.457,4.133-0.929,6.186-1.439c2.061-0.485,4.109-1.014,6.155-1.552
					c4.102-1.038,8.162-2.223,12.206-3.468c4.029-1.297,8.043-2.646,11.966-4.32C395.026,235.41,397.618,231.043,396.932,226.406z"
					/>
				<path style="fill:#DA2727;" d="M330.054,242.52l0.021,0.293c0.016,0.216,0.042,0.453,0.075,0.671
					c0.712,4.674,5.078,7.885,9.752,7.173l0.709-0.108C338.307,245.994,334.678,241.668,330.054,242.52z"/>
				<path style="fill:#DA2727;" d="M456.749,260.485l-1.234-1.652c-0.145-0.195-0.296-0.384-0.442-0.578
					c-0.895,3.561-0.063,8.062,2.502,10.683l0.505-2.843C458.409,264.197,457.992,262.149,456.749,260.485z"/>
				<path style="fill:#FF5754;" d="M455.073,258.254c-2.486-3.292-5.104-6.458-7.763-9.584c-1.41-1.654-2.831-3.296-4.281-4.911
					c-1.431-1.633-2.894-3.235-4.365-4.831c-2.913-3.218-5.936-6.331-9.004-9.4c-3.107-3.032-6.253-6.027-9.644-8.789
					c-3.49-2.842-8.592-3.087-12.376-0.286c-4.48,3.316-5.425,9.636-2.109,14.116c2.601,3.515,5.448,6.797,8.333,10.041
					c2.924,3.207,5.894,6.37,8.973,9.429c1.526,1.543,3.058,3.079,4.623,4.584c1.547,1.523,3.121,3.019,4.708,4.503
					c2.378,2.22,4.779,4.419,7.253,6.548l0.398,44.597c0.019,2.277,1.655,4.292,3.979,4.704c2.622,0.465,5.124-1.283,5.59-3.905
					l8.187-46.132C455.011,266.316,454.178,261.816,455.073,258.254z"/>
			</g>
			<g>
				<path style="fill:#FF5754;" d="M376.58,397.905l1.205,33.463c0.103,2.949,2.361,5.45,5.38,5.771
					c3.307,0.352,6.274-2.043,6.626-5.35l3.829-35.941C387.935,396.488,382.254,397.176,376.58,397.905z"/>
			</g>
			<g>
				<path style="fill:#27A4AB;" d="M390.975,429.408c0,0.091,0,0.19-0.008,0.288c-0.008,0.591-0.045,1.228-0.076,1.872
					c-0.03,0.455-0.061,0.909-0.091,1.372c-0.053,0.652-0.106,1.311-0.167,1.956c-0.121,1.402-0.265,2.721-0.387,3.79
					c-0.167,1.501-0.296,2.501-0.296,2.501l-32.84-0.023c0,0-0.932-1.069-0.008-2.478c1.349-2.1,3.865-4.972,8.049-6.367
					c4.593-1.539,7.367-3.57,9.231-5.594c0.053-0.068,0.114-0.121,0.159-0.189c0.568-0.614,1.031-1.243,1.448-1.849
					c0.053-0.061,0.099-0.136,0.136-0.204c0.212-0.326,0.402-0.637,0.599-0.94c0.69-1.137,1.758-0.637,2.819,0.402
					c2.259,2.213,5.669,2.827,8.572,1.576c0.932-0.409,1.758-0.629,2.236-0.462c0.333,0.129,0.515,0.894,0.584,2.031
					C390.983,427.748,390.99,428.544,390.975,429.408z"/>
				<path style="fill:#F2F2F2;" d="M390.248,438.681c0.1,1.497,0.088,2.51,0.088,2.51l-33.232-0.028c0,0-0.929-1.068,0.001-2.482
					H390.248z"/>
				<path style="fill:#F2F2F2;" d="M378.569,427.014l-0.993,1.274c-0.165,0.215-0.48,0.248-0.687,0.083l-2.342-1.837
					c0.563-0.612,1.026-1.241,1.448-1.845c0.05-0.066,0.091-0.141,0.132-0.207l2.358,1.845
					C378.701,426.493,378.742,426.807,378.569,427.014z"/>
				<path style="fill:#F2F2F2;" d="M390.975,429.408c0,0.091,0,0.19-0.008,0.288l-0.743,0.091c-0.273,0.038-0.523-0.159-0.546-0.424
					l-0.197-1.607c-0.038-0.273,0.159-0.515,0.424-0.546l1.031-0.121C390.983,427.748,390.99,428.544,390.975,429.408z"/>
			</g>
			<path style="fill:#FF5754;" d="M384.86,189.178c0-10.472,7.004-18.961,15.644-18.961c8.64,0,15.644,8.489,15.644,18.961
				c0,3.274-0.692,6.558-2.114,9.513c-1.278,2.657-3.154,5.056-5.558,6.783c-1.494,1.073-3.245,1.896-5.047,2.279
				c-1.198,0.255-2.489,0.2-3.708,0.217c-1.338,0.018-2.676,0.001-4.012-0.052c-1.555-0.062-3.198-0.139-4.683-0.647
				c-1.315-0.45-2.523-1.247-3.468-2.264c-1.626-1.749-2.522-4.094-2.522-6.479v-6.662
				C384.931,190.986,384.86,190.093,384.86,189.178z"/>
			<g>
				<path style="fill:#FF5754;" d="M412.665,189.046c0.561-0.999,1.917-1.573,3.197-1.479s2.445,0.79,3.147,1.72
					c0.702,0.93,0.973,2.069,0.931,3.178c-0.043,1.145-0.422,2.303-1.231,3.21c-0.81,0.907-2.08,1.536-3.407,1.532
					c-1.326-0.004-2.658-0.708-3.119-1.782L412.665,189.046z"/>
				<g>
					
						<path style="fill:none;stroke:#DA2727;stroke-width:0.6854;stroke-linecap:round;stroke-linejoin:round;stroke-miterlimit:10;" d="
						M415.695,195.208c-1.014-1.885-0.867-4.149,0.386-5.939"/>
					
						<path style="fill:none;stroke:#DA2727;stroke-width:0.6854;stroke-linecap:round;stroke-linejoin:round;stroke-miterlimit:10;" d="
						M415.321,191.854c1.066,0.469,1.893,1.278,2.26,2.21"/>
				</g>
			</g>
			<g>
				<g>
					<g>
						
							<rect x="324.355" y="160.737" transform="matrix(0.4093 -0.9124 0.9124 0.4093 38.766 396.5954)" style="fill:#6B7C94;" width="2.608" height="15.247"/>
					</g>
					<g>
						
							<rect x="307.362" y="156.205" transform="matrix(0.4092 -0.9124 0.9124 0.4092 35.4884 376.5312)" style="fill:#6B7C94;" width="2.319" height="9.31"/>
					</g>
					<g>
						<path style="fill:#B8D6FF;" d="M329.238,167.022l-2.357,5.255l-20.325-9.117c-0.463-0.208-0.67-0.751-0.462-1.214l1.605-3.578
							c0.208-0.463,0.751-0.67,1.214-0.462L329.238,167.022z"/>
					</g>
					<g>
						
							<rect x="310.913" y="154.529" transform="matrix(0.4093 -0.9124 0.9124 0.4093 36.272 381.808)" style="fill:#B8D6FF;" width="4.166" height="16.726"/>
					</g>
					<g>
						<path style="fill:#B8D6FF;" d="M333.966,169.549l-1.895,4.224c-0.164,0.366-0.594,0.529-0.959,0.365l0,0
							c-0.366-0.164-0.529-0.593-0.365-0.959l1.895-4.224c0.164-0.366,0.594-0.529,0.959-0.365l0,0
							C333.966,168.754,334.13,169.183,333.966,169.549z"/>
					</g>
					<g>
						<polygon style="fill:#6B7C94;" points="297.442,155.745 305.586,158.958 305.13,159.974 297.315,156.027 						"/>
					</g>
					<g>
						<g>
							
								<rect x="307.907" y="161.584" transform="matrix(0.9124 0.4093 -0.4093 0.9124 93.5921 -111.9065)" style="fill:#6B7C94;" width="0.631" height="2.209"/>
						</g>
						<g>
							
								<rect x="309.938" y="163.589" transform="matrix(0.9124 0.4094 -0.4094 0.9124 94.395 -112.622)" style="fill:#6B7C94;" width="0.631" height="1.166"/>
						</g>
					</g>
					<g>
						<g>
							
								<rect x="312.597" y="163.696" transform="matrix(0.9123 0.4094 -0.4094 0.9123 94.9078 -113.6725)" style="fill:#6B7C94;" width="0.631" height="2.209"/>
						</g>
						<g>
							
								<rect x="314.628" y="165.701" transform="matrix(0.9125 0.4092 -0.4092 0.9125 95.6119 -114.3108)" style="fill:#6B7C94;" width="0.631" height="1.166"/>
						</g>
					</g>
					<g>
						<g>
							
								<rect x="317.317" y="165.763" transform="matrix(0.9124 0.4093 -0.4093 0.9124 96.1271 -115.3918)" style="fill:#6B7C94;" width="0.631" height="2.21"/>
						</g>
						<g>
							
								<rect x="319.348" y="167.768" transform="matrix(0.9124 0.4093 -0.4093 0.9124 96.912 -116.0933)" style="fill:#6B7C94;" width="0.631" height="1.166"/>
						</g>
					</g>
				</g>
				<path style="fill:#2DBCC4;" d="M325.182,195.918l-0.362-8.926c0,0-14.634-8.864-9.04-19.724l4.892,2.131
					c0,0-0.831-6.997,2.909-8.335c3.74-1.338-0.376,7.907,3.117,12.753c3.493,4.846,5.228,0.825,5.836-1.187
					c0.608-2.011,1.656-4.09,3.467-3.044c1.811,1.046-2.584,4.606-0.342,13.202c2.246,8.614,2.973,11.948,2.973,11.948
					L325.182,195.918z"/>
			</g>
			<path style="fill:#27A4AB;" d="M375.978,356.417l-2.475,5.138c-0.508,1.055-0.759,2.215-0.732,3.386l0.159,6.826
				C377.118,367.738,377.388,361.875,375.978,356.417z"/>
			<path style="fill:#2DBCC4;" d="M425.52,305.013l-3.75-18.206h-44.175l-2.376,16.111c-1.144,7.759-0.758,15.667,1.137,23.278
				h14.178l-14.557,30.22c1.41,5.458,1.14,11.321-3.047,15.35l0.908,38.979h20.62l2.779-37.144l25.116-46.841
				C425.923,320.106,427.043,312.41,425.52,305.013z"/>
			<path style="fill:#27A4AB;" d="M425.385,299.265c0.138-19.663,0.621-41.636-0.773-61.251c-0.317-4.456-0.738-9.009-2.592-13.074
				s-5.243-7.807-9.666-8.441c-3.077,5.716-7.439,10.661-12.747,14.409c-2.693-1.651-4.824-4.081-6.611-6.686
				c-1.57-2.289-2.792-4.749-4.167-7.732c-3.988,1.65-8.089,3.543-10.578,7.069c-2.434,3.448-2.854,7.884-3.12,12.095
				c-1.25,19.787-1.199,41.928-0.369,61.737C374.762,297.393,396.511,309.793,425.385,299.265z"/>
			<path style="fill:#27A4AB;" d="M388.829,216.491c0,0-22.674,4.989-32.297,7.877l3.981,23.277l18.284-2.834l6.949-12.743
				L388.829,216.491z"/>
			<path style="fill:#27A4AB;" d="M412.354,216.5L412.354,216.5c4.447,0.934,8.547,3.089,11.831,6.229
				c6.846,6.545,18.518,17.914,21.399,22.05l-14.834,18.185l-9.833-5.524l-3.825-34.421L412.354,216.5z"/>
			<polygon style="fill:#27A4AB;" points="372.309,411.461 395.574,412.017 396.527,405.982 371.844,406.538 			"/>
			<polygon style="fill:#2DBCC4;" points="423.464,418.678 440.96,403.332 437.575,398.247 419.788,415.37 			"/>
			<polygon style="fill:#DA2727;" points="377.072,411.575 391.897,412.017 391.419,416.511 377.145,413.608 			"/>
			<polygon style="fill:#DA2727;" points="437.946,405.976 427.55,415.094 428.824,416.482 439.774,408.646 			"/>
			<polygon style="fill:#DA2727;" points="356.669,225.168 360.279,246.584 355.704,247.645 354.955,225.721 			"/>
			<polygon style="fill:#DA2727;" points="444.792,245.75 431.29,262.302 434.153,264.966 445.857,246.973 			"/>
			<polygon style="fill:#DA2727;" points="337.277,194.855 326.668,195.787 326.832,198.064 337.448,195.534 			"/>
			<path style="fill:#2DBCC4;" d="M449.869,314.192l2.411-11.469l-13.434-1.914l0.58,11.297c-1.305,2.531-3.149,5.349-4.592,7.195
				c-0.867,1.109-2.259,3.005-2.34,3.792c-0.136,1.311,2.082,0.36,2.648-0.309c0.907-1.071,2.912-2.91,3.485-3.313
				c0.572-0.403,1.528,0.722,0.484,3.968s-2.514,11.467-0.892,9.963c1.623-1.504,3.601-8.834,3.601-8.834
				c-0.718,3.677-0.808,13.089,0.885,10.483c1.693-2.606,2.263-10.037,2.263-10.037c-0.208,2.836,0.472,11.336,1.809,8.663
				c1.337-2.673,0.995-8.751,0.995-8.751c0.576,4.912,2.511,6.915,2.875,6.108c0.365-0.807,0.455-3.544-0.039-6.892
				C450.364,322.486,450.087,318.152,449.869,314.192z"/>
			<polygon style="fill:#DA2727;" points="451.597,302.626 439.701,300.931 439.674,297.989 451.759,301.713 			"/>
			<polyline style="fill:none;stroke:#FFFFFF;stroke-width:0.75;stroke-miterlimit:10;stroke-dasharray:1.984;" points="
				391.897,403.1 394.34,371.572 421.832,321.86 			"/>
			<polyline style="fill:none;stroke:#FFFFFF;stroke-width:0.75;stroke-miterlimit:10;stroke-dasharray:1.984;" points="
				433.224,399.082 410.178,367.759 408.711,355.295 			"/>
			<polygon style="fill:#2DBCC4;" points="356.272,223.151 360.279,248.781 365.038,248.173 360.785,221.584 			"/>
			<polygon style="fill:#2DBCC4;" points="431.046,263.917 446.91,243.392 443.198,240.354 426.806,261.716 			"/>
			<rect x="405.671" y="246.602" style="fill:#FFFFFF;" width="10.224" height="4.357"/>
			<g>
				<path style="fill:#1B141C;" d="M389.07,192.916c0,0.809-0.438,1.465-0.979,1.465s-0.979-0.656-0.979-1.465
					c0-0.809,0.438-1.465,0.979-1.465S389.07,192.107,389.07,192.916z"/>
				<path style="fill:#1B141C;" d="M386.658,188.194c-0.431,0.041-0.882,0.11-1.223,0.378c-0.34,0.267-0.513,0.794-0.26,1.145
					c0.261,0.362,0.792,0.359,1.236,0.319c1.229-0.11,2.459-0.221,3.688-0.331c0.491-0.044,1.087-0.206,1.024-0.82
					c-0.044-0.431-0.366-0.523-0.743-0.568C389.143,188.167,387.9,188.076,386.658,188.194z"/>
			</g>
			<g>
				<path style="fill:#1B141C;" d="M395.682,192.916c0,0.809,0.438,1.465,0.979,1.465c0.541,0,0.979-0.656,0.979-1.465
					c0-0.809-0.438-1.465-0.979-1.465C396.121,191.451,395.682,192.107,395.682,192.916z"/>
				<path style="fill:#1B141C;" d="M398.095,188.194c0.431,0.041,0.882,0.11,1.223,0.378c0.34,0.267,0.513,0.794,0.26,1.145
					c-0.261,0.362-0.792,0.359-1.236,0.319c-1.229-0.11-2.458-0.221-3.688-0.331c-0.491-0.044-1.087-0.206-1.024-0.82
					c0.044-0.431,0.365-0.523,0.743-0.568C395.609,188.167,396.852,188.076,398.095,188.194z"/>
			</g>
			<path style="fill:none;stroke:#1B141C;stroke-width:0.5;stroke-linecap:round;stroke-linejoin:round;stroke-miterlimit:10;" d="
				M392.803,192.84c-0.909,1.318-1.5,2.854-1.709,4.441c-0.048,0.367-0.076,0.743,0,1.105c0.077,0.362,0.269,0.713,0.582,0.911"/>
			<g>
				<g>
					<path style="fill:#27A4AB;" d="M401.343,202.098c-0.036,2.091-1.42,3.958-3.442,4.492c-1.618,0.427-3.353,0.626-5.064,0.565
						c-1.647-0.059-3.264-0.357-4.732-0.859c-1.942-0.664-3.235-2.506-3.211-4.558l0.032-2.759c2.362-1.985,5.422-2.993,8.423-2.775
						c3.001,0.218,5.917,1.66,8.027,3.97L401.343,202.098z"/>
					<g>
						<path style="fill:#FFFFFF;" d="M392.541,196.923L392.541,196.923c0.252,0,0.503,0.009,0.754,0.027
							c2.712,0.197,5.366,1.473,7.326,3.513l-0.028,1.621c-0.03,1.785-1.216,3.34-2.883,3.78c-1.385,0.365-2.821,0.551-4.267,0.551
							c-0.193,0-0.387-0.003-0.579-0.01c-1.548-0.055-3.11-0.338-4.516-0.819c-1.637-0.56-2.724-2.103-2.703-3.84l0.028-2.408
							C387.643,197.778,390.069,196.923,392.541,196.923 M392.54,196.173c-2.736,0-5.464,0.998-7.614,2.805l-0.032,2.759
							c-0.024,2.053,1.268,3.894,3.211,4.558c1.468,0.502,3.085,0.801,4.732,0.859c0.202,0.007,0.404,0.011,0.606,0.011
							c1.513,0,3.031-0.199,4.458-0.576c2.022-0.533,3.406-2.401,3.442-4.492l0.033-1.924c-2.11-2.31-5.025-3.752-8.027-3.971
							C393.079,196.183,392.81,196.173,392.54,196.173L392.54,196.173z"/>
					</g>
				</g>
				
					<line style="fill:none;stroke:#FFFFFF;stroke-width:0.75;stroke-miterlimit:10;" x1="400.782" y1="200.232" x2="414.327" y2="187.238"/>
				
					<line style="fill:none;stroke:#FFFFFF;stroke-width:0.75;stroke-linecap:round;stroke-linejoin:round;stroke-miterlimit:10;" x1="398.188" y1="206.154" x2="414.674" y2="197.208"/>
			</g>
			<path style="fill:#1B141C;" d="M418.2,187.109c-0.408,2.19-2.531,3.928-4.759,3.896c-2.228-0.032-3.954-1.901-4.3-4.102
				c-0.731,0.682-1.834,0.937-2.79,0.644c-0.956-0.293-1.842-1.116-2.064-2.09c-0.92,1.649-2.8,2.713-4.687,2.653
				s-3.635-1.353-4.447-3.057c-0.598,0.51-1.427,0.737-2.202,0.601s-1.228-0.767-1.617-1.45c-0.493,1.122-1.441,2.037-2.58,2.489
				c-1.139,0.452-2.457,0.435-3.585-0.045c-1.003-0.427-1.91-1.356-1.859-2.445c0.758-1.143,1.368-2.632,1.938-3.879
				c2.082-4.555,5.689-8.538,10.339-10.398s10.349-1.331,14.175,1.902c2.052,1.734,3.465,4.094,4.722,6.468
				C415.979,181.118,417.045,184.132,418.2,187.109z"/>
			<path style="fill:none;stroke:#FFFFFF;stroke-width:0.75;stroke-miterlimit:10;" d="M377.88,295.754
				c0,0,19.222,10.486,45.814,1.621"/>
			<path style="fill:none;stroke:#FFFFFF;stroke-width:0.75;stroke-miterlimit:10;" d="M424.721,259.494
				c-1.622-0.951-3.16-2.043-4.594-3.259"/>
			<path style="fill:none;stroke:#FFFFFF;stroke-width:0.75;stroke-miterlimit:10;" d="M374.401,245.296
				c0.307-3.137,0.613-6.273,0.92-9.41"/>
		</g>
		<g style="clip-path:url(#SVGID_00000046325933441324293120000004496174167427536011_);">
			<g>
				<path style="fill:#B7502D;" d="M194.866,343.295l8.252,32.876c0.56,2.239,2.671,3.812,5.047,3.621
					c2.646-0.212,4.62-2.53,4.407-5.176l-2.675-33.329C204.897,342.024,199.884,342.684,194.866,343.295z"/>
			</g>
			<g>
				<path style="fill:#1B141C;" d="M200.062,375.132c-0.12,0.614-0.227,1.269-0.329,1.94c-0.063,0.41-0.118,0.822-0.175,1.241
					c-0.077,0.592-0.149,1.193-0.216,1.771c-0.151,1.277-0.271,2.476-0.359,3.45c-0.133,1.373-0.209,2.289-0.209,2.289l29.276,6.095
					c0,0,1.032-0.777,0.47-2.211c-0.812-2.117-2.519-5.145-5.991-7.171c-3.806-2.227-5.899-4.55-7.181-6.704
					c-0.039-0.07-0.08-0.132-0.112-0.2c-0.387-0.651-0.683-1.297-0.947-1.914c-0.032-0.068-0.055-0.142-0.079-0.209
					c-0.132-0.328-0.243-0.643-0.355-0.952c-1.046-2.951-6.416,3.37-6.416,3.37s-4.444-4.777-6.015-4.551
					C200.915,371.454,200.454,373.036,200.062,375.132z"/>
				<path style="fill:#F2F2F2;" d="M198.981,383.533c-0.368,1.315-0.546,2.22-0.546,2.22l29.623,6.165c0,0,1.027-0.778,0.461-2.212
					L198.981,383.533z"/>
				<path style="fill:#F2F2F2;" d="M211.562,375.311l0.648,1.321c0.107,0.223,0.382,0.311,0.597,0.202l2.429-1.201
					c-0.387-0.651-0.683-1.297-0.947-1.914c-0.032-0.068-0.055-0.142-0.079-0.209l-2.446,1.206
					C211.542,374.822,211.446,375.095,211.562,375.311z"/>
				<g>
					<path style="fill:#F2F2F2;" d="M199.733,377.073c-0.063,0.41-0.118,0.822-0.175,1.241c0.963,0.917,2.097,1.678,3.346,2.223
						c0.845,0.377,1.757,0.652,2.68,0.806c0.913,0.16,1.79,0.236,2.602,0.367c0.81,0.138,1.522,0.341,2.135,0.685
						c0.622,0.338,1.174,0.83,1.627,1.387c0.912,1.122,1.393,2.577,1.384,3.946l3.073-0.158c-0.215-2.1-1.138-4.056-2.584-5.497
						c-0.719-0.72-1.57-1.329-2.525-1.728c-0.96-0.416-1.974-0.574-2.887-0.626c-0.927-0.055-1.794-0.036-2.604-0.098
						c-0.805-0.053-1.597-0.203-2.375-0.458C202.088,378.735,200.822,378.016,199.733,377.073z"/>
				</g>
			</g>
			<path style="fill:#235FCF;" d="M207.745,300.651c-4.816-0.563-8.978-5.158-10.295-10.128l-38.202-1.357l9.618,13.564
				l18.743,15.661l9.865,41.432l14.797-2.59L207.745,300.651z"/>
			<path style="fill:#173F8A;" d="M207.745,300.651l-0.049-0.616c-0.418-5.229-4.689-9.315-9.932-9.501l-0.314-0.011
				C198.767,295.494,202.929,300.088,207.745,300.651z"/>
			<path style="fill:#1B141C;" d="M151.143,225.398c4.7-2.604,7.126-8.139,7.577-13.493c0.451-5.354-0.732-10.689-1.562-15.998
				c-0.83-5.308-2.34-10.974,0.533-15.514c2.702-4.269,4.499-9.443,3.383-14.371c-1.116-4.928-5.898-9.204-10.888-8.417
				c-3.56,0.561-6.351,3.378-9.781,4.482c-5.376,1.73-11.377-0.981-16.82,0.528c-5.309,1.472-8.848,6.747-9.966,12.142
				c-1.118,5.395-0.284,10.976,0.414,16.442c0.698,5.465,1.241,11.135-0.419,16.388c-1.987,6.289-6.991,11.493-7.956,18.018
				c-0.865,5.852,1.775,11.785,5.693,16.216c3.918,4.431,9.017,7.619,14.04,10.744C133.529,243.332,140.377,231.362,151.143,225.398
				z"/>
			<rect x="130.664" y="201.721" style="fill:#B7502D;" width="15.85" height="21.37"/>
			<path style="fill:#801400;" d="M146.514,201.721v6.61c-3.61,0.15-11.89-0.23-15.26-6.58l2.32-0.03H146.514z"/>
			<path style="fill:#B7502D;" d="M154.512,186.579c0-10.472-7.004-18.961-15.644-18.961s-15.644,8.489-15.644,18.961
				c0,3.274,0.692,6.558,2.114,9.513c1.278,2.657,3.154,5.056,5.558,6.783c1.494,1.073,3.245,1.896,5.047,2.279
				c1.198,0.255,2.489,0.2,3.708,0.217c1.338,0.018,2.676,0.001,4.012-0.052c1.555-0.062,3.198-0.139,4.683-0.647
				c1.315-0.45,2.523-1.247,3.468-2.264c1.626-1.749,2.522-4.094,2.522-6.479v-6.662
				C154.44,188.387,154.512,187.494,154.512,186.579z"/>
			<g>
				<path style="fill:#B7502D;" d="M126.706,186.447c-0.561-0.999-1.916-1.573-3.197-1.479c-1.28,0.094-2.445,0.79-3.147,1.72
					c-0.702,0.93-0.973,2.069-0.931,3.179c0.043,1.145,0.422,2.303,1.231,3.21c0.81,0.908,2.08,1.536,3.407,1.532
					c1.326-0.004,2.658-0.708,3.12-1.782L126.706,186.447z"/>
				<g>
					
						<path style="fill:none;stroke:#801400;stroke-width:0.6854;stroke-linecap:round;stroke-linejoin:round;stroke-miterlimit:10;" d="
						M123.676,192.608c1.014-1.886,0.867-4.149-0.386-5.939"/>
					
						<path style="fill:none;stroke:#801400;stroke-width:0.6854;stroke-linecap:round;stroke-linejoin:round;stroke-miterlimit:10;" d="
						M124.051,189.255c-1.066,0.469-1.893,1.278-2.26,2.21"/>
				</g>
			</g>
			<g>
				<path style="fill:#801400;" d="M180.639,262.393c0.325,0.243,0.646,0.489,0.971,0.732l0.962,0.717
					c1.296,0.961,2.949,1.446,4.676,1.234l4.073-0.501C189.007,261.494,184.205,261.231,180.639,262.393z"/>
				<path style="fill:#B7502D;" d="M231.101,250.919l-40.622-2.278c-2.091-1.975-4.18-3.952-6.293-5.901
					c-2.357-2.205-4.746-4.372-7.126-6.55c-2.078,5.993-5.217,11.549-8.371,17.147c1.329,1.027,2.66,2.053,4.001,3.066
					c2.632,2.017,5.29,4.004,7.949,5.989c3.565-1.162,8.368-0.898,10.682,2.182l40.07-4.927c2.067-0.252,3.722-1.954,3.843-4.106
					C235.369,253.124,233.519,251.054,231.101,250.919z"/>
			</g>
			<g>
				<path style="fill:#B7502D;" d="M185.396,344.402c-4.366,0.491-8.82,1.118-13.305,1.708l3.522,30.669
					c0.263,2.306,2.156,4.154,4.551,4.283c2.671,0.144,4.952-1.905,5.096-4.575l1.736-32.268
					C186.462,344.28,185.929,344.342,185.396,344.402z"/>
			</g>
			<g>
				<path style="fill:#801400;" d="M105.987,284.932l2.476-2.769c0.145-0.165,0.285-0.359,0.395-0.561l0.493-0.909
					c0.935-1.724,1.869-3.45,2.798-5.177C107.866,277.045,105.635,280.893,105.987,284.932z"/>
				<path style="fill:#B7502D;" d="M118.186,263.914c-0.865-0.507-1.696-1.089-2.476-1.756c-4.107-3.513-7.966-7.299-12.048-10.838
					l-4.21,9.711c-1.76,4.1-3.427,8.243-5.097,12.386l-4.833,7.647c-1.873,2.985-3.787,5.94-5.618,8.957l-5.54,9.016
					c-1.805,3.037-3.649,6.044-5.42,9.107c-0.987,1.707-0.732,3.931,0.749,5.364c1.746,1.69,4.532,1.645,6.222-0.102
					c2.46-2.542,4.847-5.14,7.273-7.708l7.153-7.798c2.4-2.587,4.717-5.238,7.075-7.857l4.57-5.111
					c-0.352-4.039,1.878-7.886,6.162-9.415c1.217-2.263,2.423-4.53,3.597-6.813L118.186,263.914z"/>
			</g>
			<path style="fill:#B7502D;" d="M155.359,285.277h-32.322l-6.98-52.474c-0.858-6.454,1.502-12.532,5.915-14.51l16.45-7.372
				l17.834,7.503c4.499,1.893,6.931,8.021,6.063,14.547L155.359,285.277z"/>
			<path style="fill:#B7502D;" d="M155.811,307.255h-33.223c-4.54,0-6.799-6.495-5.036-13.126l5.49-20.645h32.316l5.49,20.645
				C162.611,300.761,160.352,307.255,155.811,307.255z"/>
			<path style="fill:#B7502D;" d="M223.956,260.044c0,0,14.274,1.202,17.6,1.829c3.326,0.628,6.064,0.647,6.885,0.315
				c0.821-0.332-1.102-2.346-5.988-3.118c0,0,6.06,0.586,8.784-0.643c2.724-1.229-5.741-2.249-8.584-2.155
				c0,0,7.447-0.272,10.12-1.859c2.672-1.588-6.736-1.875-10.439-1.304c0,0,7.403-1.683,8.971-3.244
				c1.568-1.561-6.705-0.421-9.991,0.492c-3.286,0.913-4.371-0.086-3.946-0.642s2.343-2.486,3.45-3.349
				c0.692-0.539,1.731-2.717,0.415-2.634c-0.789,0.05-2.74,1.365-3.882,2.186c-3.048,2.191-8.631,5.312-11.415,5.703
				c-2.785,0.391-3.914,0.432-3.914,0.432L223.956,260.044z"/>
			<path style="fill:#B7502D;" d="M77.602,314.719H61.758c0,0-0.473-8.77,15.791-7.647l2.063,4.52
				C80.28,313.055,79.21,314.719,77.602,314.719z"/>
			<g>
				<path style="fill:#1B141C;" d="M173.251,375.043c-0.12,0.614-0.227,1.269-0.329,1.94c-0.063,0.41-0.118,0.822-0.175,1.241
					c-0.078,0.592-0.149,1.193-0.216,1.771c-0.151,1.277-0.271,2.476-0.359,3.45c-0.133,1.373-0.209,2.289-0.209,2.289l29.276,6.095
					c0,0,1.032-0.777,0.47-2.211c-0.812-2.117-2.519-5.145-5.991-7.171c-3.807-2.227-5.899-4.55-7.181-6.704
					c-0.039-0.07-0.08-0.132-0.112-0.2c-0.387-0.651-0.683-1.297-0.947-1.914c-0.032-0.068-0.055-0.142-0.079-0.209
					c-0.132-0.328-0.243-0.643-0.355-0.952c-1.046-2.951-6.415,3.37-6.415,3.37s-4.444-4.777-6.015-4.551
					C174.104,371.365,173.643,372.947,173.251,375.043z"/>
				<path style="fill:#F2F2F2;" d="M172.17,383.444c-0.368,1.315-0.546,2.22-0.546,2.22l29.623,6.165c0,0,1.027-0.778,0.461-2.212
					L172.17,383.444z"/>
				<path style="fill:#F2F2F2;" d="M184.752,375.222l0.648,1.321c0.108,0.223,0.382,0.311,0.597,0.202l2.429-1.201
					c-0.387-0.651-0.683-1.297-0.947-1.914c-0.032-0.068-0.055-0.142-0.079-0.209l-2.446,1.205
					C184.731,374.733,184.635,375.005,184.752,375.222z"/>
				<g>
					<path style="fill:#F2F2F2;" d="M172.923,376.983c-0.063,0.41-0.118,0.822-0.175,1.241c0.963,0.917,2.097,1.678,3.345,2.223
						c0.845,0.377,1.757,0.652,2.68,0.806c0.913,0.16,1.79,0.236,2.602,0.367c0.81,0.138,1.522,0.341,2.135,0.685
						c0.622,0.338,1.173,0.83,1.627,1.387c0.912,1.122,1.393,2.577,1.385,3.946l3.073-0.158c-0.215-2.1-1.138-4.056-2.584-5.497
						c-0.719-0.72-1.57-1.329-2.525-1.728c-0.96-0.416-1.974-0.574-2.886-0.626c-0.927-0.055-1.794-0.036-2.604-0.098
						c-0.805-0.053-1.597-0.203-2.375-0.458C175.277,378.645,174.011,377.927,172.923,376.983z"/>
				</g>
			</g>
			<path style="fill:#F9C464;" d="M158.193,271.786c0.952-8.357,2.88-16.603,5.732-24.516c1.435-3.981,3.131-8.062,2.77-12.278
				c-0.262-3.059-1.597-5.918-3.077-8.608c-1.554-2.823-3.324-5.583-5.73-7.727c-2.406-2.144-5.569-3.249-8.719-3.97
				c-0.29,3.165-2.553,5.992-5.469,7.256c-2.916,1.264-6.366,1.045-9.251-0.289c-2.885-1.334-5.219-3.708-6.81-6.459
				c-2.257,0.845-4.677,1.765-6.734,3.019c-2.058,1.254-3.912,2.947-4.977,5.109c-1.398,2.837-1.31,6.153-1.116,9.309
				c0.826,13.466,3.821,26.983,6.01,40.295C133.543,275.8,145.659,275.392,158.193,271.786z"/>
			<path style="fill:#173F8A;" d="M190.03,302.447c0.135-5.342-3.954-9.863-9.305-10.233l-0.617-0.036
				C180.544,297.456,185.038,301.122,190.03,302.447z"/>
			<path style="fill:#2B75FF;" d="M180.108,292.178l-19.173-1.129l-3.837-13.441c-17.258,3.616-35.436-0.18-35.436-0.18
				l-5.234,19.609c-1.491,6.075,0.628,12.467,5.453,16.448l1.855,1.531c0,0,43.618,0,44.041,0c0.424,0,4.677,45.586,4.677,45.586
				l15.088-0.838l2.489-57.148c0.002-0.056-0.003-0.111-0.001-0.167C185.038,301.122,180.544,297.456,180.108,292.178z"/>
			<polygon style="fill:#173F8A;" points="171.297,361.191 189.003,360.548 190.54,354.701 170.044,355.669 			"/>
			<polygon style="fill:#173F8A;" points="195.977,361.191 213.38,357.865 214.011,351.852 193.9,355.923 			"/>
			<polygon style="fill:#801400;" points="173.813,361.1 186.111,360.653 185.873,365.08 174.066,363.308 			"/>
			<polygon style="fill:#801400;" points="199.203,360.575 211.26,358.27 211.668,363.35 199.749,362.749 			"/>
			<polyline style="fill:none;stroke:#FFFFFF;stroke-width:0.75;stroke-miterlimit:10;stroke-dasharray:1.984;" points="
				175.185,353.658 170.044,312.067 125.868,311.824 			"/>
			
				<line style="fill:none;stroke:#FFFFFF;stroke-width:0.75;stroke-miterlimit:10;stroke-dasharray:1.984;" x1="199.559" y1="353.658" x2="191.366" y2="319.866"/>
			<polygon style="fill:#F9C464;" points="116.456,222.392 99.135,258.086 115.959,270.673 121.304,260.8 120.68,232.769 			"/>
			<path style="fill:#F9C464;" d="M149.168,214.688l3.601,1.09c3.39,1.026,6.5,2.813,9.095,5.224l22.522,20.929l-10.788,17.173
				l-12.6-8.655c0,0-5.235-19.839-5.373-19.977C155.487,230.334,149.168,214.688,149.168,214.688z"/>
			<polygon style="fill:#DEAF59;" points="185.11,240.763 173.196,260.172 167.815,258.154 180.498,236.344 			"/>
			<polygon style="fill:#DEAF59;" points="97.544,258.053 115.959,272.138 119.496,268.186 99.655,252.83 			"/>
			<path style="fill:#DEAF59;" d="M153.145,215.88c-0.63,4.18-3.69,7.85-7.58,9.54c-4.08,1.77-8.91,1.46-12.95-0.4
				c-3.73-1.73-6.81-4.71-9.02-8.2c1.33-0.6,2.72-1.13,4.04-1.62c1.59,2.75,3.93,5.12,6.81,6.46c2.89,1.33,6.34,1.55,9.25,0.28
				c2.92-1.26,5.18-4.09,5.47-7.25C150.505,215,151.855,215.37,153.145,215.88z"/>
			<g>
				<path style="fill:#1B141C;" d="M152.455,190.318c0,0.809-0.439,1.465-0.979,1.465c-0.541,0-0.979-0.656-0.979-1.465
					c0-0.809,0.438-1.465,0.979-1.465C152.016,188.854,152.455,189.509,152.455,190.318z"/>
				<path style="fill:#1B141C;" d="M150.042,185.596c-0.431,0.041-0.882,0.11-1.222,0.378c-0.34,0.267-0.513,0.794-0.26,1.145
					c0.261,0.362,0.791,0.359,1.236,0.319c1.229-0.11,2.458-0.221,3.688-0.331c0.491-0.044,1.087-0.206,1.024-0.82
					c-0.044-0.431-0.365-0.523-0.743-0.568C152.528,185.57,151.285,185.479,150.042,185.596z"/>
			</g>
			<g>
				<path style="fill:#1B141C;" d="M140.646,190.318c0,0.809,0.439,1.465,0.979,1.465c0.541,0,0.979-0.656,0.979-1.465
					c0-0.809-0.438-1.465-0.979-1.465C141.085,188.854,140.646,189.509,140.646,190.318z"/>
				<path style="fill:#1B141C;" d="M143.059,185.596c0.431,0.041,0.882,0.11,1.223,0.378c0.34,0.267,0.513,0.794,0.26,1.145
					c-0.261,0.362-0.792,0.359-1.236,0.319c-1.229-0.11-2.458-0.221-3.688-0.331c-0.491-0.044-1.087-0.206-1.024-0.82
					c0.044-0.431,0.365-0.523,0.743-0.568C140.573,185.57,141.816,185.479,143.059,185.596z"/>
			</g>
			<path style="fill:none;stroke:#1B141C;stroke-width:0.5;stroke-linecap:round;stroke-linejoin:round;stroke-miterlimit:10;" d="
				M146.517,189.456c0.102,0.8,0.541,1.512,0.991,2.181c0.45,0.669,0.931,1.342,1.136,2.121c0.205,0.78,0.071,1.708-0.549,2.223"/>
			<g>
				<g>
					<path style="fill:#27A4AB;" d="M138.062,199.26c0.036,2.091,1.42,3.958,3.442,4.492c1.618,0.427,3.353,0.626,5.064,0.565
						c1.647-0.058,3.264-0.357,4.732-0.859c1.942-0.664,3.235-2.506,3.211-4.558l-0.032-2.759c-2.362-1.985-5.422-2.993-8.423-2.775
						c-3.001,0.218-5.917,1.66-8.027,3.971L138.062,199.26z"/>
					<g>
						<path style="fill:#FFFFFF;" d="M146.865,194.086c2.471,0,4.896,0.855,6.868,2.414l0.028,2.408
							c0.02,1.737-1.066,3.28-2.703,3.84c-1.407,0.481-2.969,0.764-4.516,0.819c-0.193,0.007-0.386,0.01-0.579,0.01
							c-1.446,0-2.882-0.185-4.267-0.551c-1.667-0.44-2.853-1.994-2.883-3.78l-0.028-1.621c1.96-2.04,4.614-3.316,7.326-3.513
							C146.362,194.095,146.613,194.086,146.865,194.086 M146.865,193.336c-0.27,0-0.539,0.01-0.809,0.029
							c-3.001,0.218-5.917,1.66-8.027,3.971l0.033,1.924c0.036,2.091,1.42,3.958,3.442,4.492c1.427,0.376,2.945,0.576,4.458,0.576
							c0.202,0,0.404-0.004,0.606-0.011c1.647-0.058,3.264-0.357,4.732-0.859c1.942-0.664,3.235-2.506,3.211-4.558l-0.032-2.759
							C152.329,194.334,149.601,193.336,146.865,193.336L146.865,193.336z"/>
					</g>
				</g>
				
					<line style="fill:none;stroke:#FFFFFF;stroke-width:0.75;stroke-miterlimit:10;" x1="138.623" y1="197.395" x2="125.078" y2="184.401"/>
				
					<line style="fill:none;stroke:#FFFFFF;stroke-width:0.75;stroke-linecap:round;stroke-linejoin:round;stroke-miterlimit:10;" x1="141.217" y1="203.317" x2="124.731" y2="194.371"/>
			</g>
			<path style="fill:#1B141C;" d="M157.52,178.814c-1.698,2.531-4.543,4.115-7.49,4.892c-2.948,0.777-6.031,0.832-9.079,0.877
				c-3.838,0.057-7.906,0.047-11.191-1.938c-1.834,4.335-6.2,7.269-10.903,7.462c-0.66-7.348,2.468-15.176,8.256-19.751
				c3.355-2.651,7.489-4.309,11.749-4.689c2.874-0.256,5.838,0.073,8.471,1.253C152.152,169.08,155.38,173.987,157.52,178.814z"/>
			<path style="fill:none;stroke:#FFFFFF;stroke-width:0.75;stroke-miterlimit:10;" d="M162.689,251.173
				c2.196-6.43,1.219-13.862-2.563-19.506"/>
			<path style="fill:none;stroke:#FFFFFF;stroke-width:0.75;stroke-miterlimit:10;" d="M119.403,263.515
				c-0.279-4.17-0.335-8.354-0.168-12.53"/>
			<path style="fill:none;stroke:#FFFFFF;stroke-width:0.75;stroke-miterlimit:10;" d="M128.571,272.138
				c0,0,12.815,2.696,28.42-2.581"/>
		</g>
	</g>
</g>
</svg>
